<svg width="13" height="14" viewBox="0 0 13 14" fill="none" xmlns="http://www.w3.org/2000/svg">
<path d="M3.575 10.4937L6.5 7.56875L9.425 10.4937L9.99375 9.925L7.06875 7L9.99375 4.075L9.425 3.50625L6.5 6.43125L3.575 3.50625L3.00625 4.075L5.93125 7L3.00625 9.925L3.575 10.4937ZM1.32031 13.5C0.941146 13.5 0.626437 13.3749 0.376187 13.1246C0.125396 12.8738 0 12.5589 0 12.1797V1.82031C0 1.44115 0.125396 1.12644 0.376187 0.876187C0.626437 0.625396 0.941146 0.5 1.32031 0.5H11.6797C12.0589 0.5 12.3738 0.625396 12.6246 0.876187C12.8749 1.12644 13 1.44115 13 1.82031V12.1797C13 12.5589 12.8749 12.8738 12.6246 13.1246C12.3738 13.3749 12.0589 13.5 11.6797 13.5H1.32031ZM1.32031 12.6875H11.6797C11.8151 12.6875 11.9335 12.6366 12.0347 12.5347C12.1366 12.4335 12.1875 12.3151 12.1875 12.1797V1.82031C12.1875 1.6849 12.1366 1.56654 12.0347 1.46525C11.9335 1.36342 11.8151 1.3125 11.6797 1.3125H1.32031C1.1849 1.3125 1.06654 1.36342 0.96525 1.46525C0.863417 1.56654 0.8125 1.6849 0.8125 1.82031V12.1797C0.8125 12.3151 0.863417 12.4335 0.96525 12.5347C1.06654 12.6366 1.1849 12.6875 1.32031 12.6875Z" fill="#C4C4C4"/>
</svg>
