<svg width="13" height="14" viewBox="0 0 13 14" fill="none" xmlns="http://www.w3.org/2000/svg">
<path d="M6.09375 10.9563H6.90625V7.7063H10.1562V6.8938H6.90625V3.6438H6.09375V6.8938H2.84375V7.7063H6.09375V10.9563ZM1.32031 13.8C0.941146 13.8 0.626437 13.6749 0.376187 13.4247C0.125396 13.1739 0 12.8589 0 12.4797V2.12036C0 1.74119 0.125396 1.42649 0.376187 1.17624C0.626437 0.925444 0.941146 0.800049 1.32031 0.800049H11.6797C12.0589 0.800049 12.3738 0.925444 12.6246 1.17624C12.8749 1.42649 13 1.74119 13 2.12036V12.4797C13 12.8589 12.8749 13.1739 12.6246 13.4247C12.3738 13.6749 12.0589 13.8 11.6797 13.8H1.32031ZM1.32031 12.9875H11.6797C11.8151 12.9875 11.9335 12.9366 12.0347 12.8348C12.1366 12.7335 12.1875 12.6152 12.1875 12.4797V2.12036C12.1875 1.98494 12.1366 1.86659 12.0347 1.7653C11.9335 1.66347 11.8151 1.61255 11.6797 1.61255H1.32031C1.1849 1.61255 1.06654 1.66347 0.96525 1.7653C0.863417 1.86659 0.8125 1.98494 0.8125 2.12036V12.4797C0.8125 12.6152 0.863417 12.7335 0.96525 12.8348C1.06654 12.9366 1.1849 12.9875 1.32031 12.9875Z" fill="#B1D34B"/>
</svg>
