<svg width="21" height="21" viewBox="0 0 21 21" fill="none" xmlns="http://www.w3.org/2000/svg">
<path d="M9.25 17.5H11.1V16.275C11.9167 16.125 12.6293 15.8 13.238 15.3C13.846 14.8 14.15 14.05 14.15 13.05C14.15 12.3334 13.946 11.679 13.538 11.087C13.1293 10.4957 12.325 9.98338 11.125 9.55005C10.125 9.21672 9.43767 8.92505 9.063 8.67505C8.68767 8.42505 8.5 8.09172 8.5 7.67505C8.5 7.25838 8.65 6.93338 8.95 6.70005C9.25 6.46672 9.675 6.35005 10.225 6.35005C10.7417 6.35005 11.1543 6.47905 11.463 6.73705C11.771 6.99572 11.9917 7.32505 12.125 7.72505L13.8 7.02505C13.6167 6.40838 13.2793 5.88338 12.788 5.45005C12.296 5.01672 11.75 4.77505 11.15 4.72505V3.50005H9.3V4.72505C8.45 4.90838 7.796 5.27905 7.338 5.83705C6.87933 6.39572 6.65 7.01672 6.65 7.70005C6.65 8.50005 6.88767 9.14572 7.363 9.63705C7.83767 10.129 8.59167 10.5584 9.625 10.925C10.625 11.2917 11.321 11.6207 11.713 11.912C12.1043 12.204 12.3 12.5834 12.3 13.05C12.3 13.5834 12.1127 13.975 11.738 14.225C11.3627 14.475 10.9 14.6 10.35 14.6C9.8 14.6 9.31667 14.4294 8.9 14.088C8.48333 13.746 8.175 13.225 7.975 12.525L6.25 13.225C6.46667 14.0417 6.829 14.704 7.337 15.212C7.84567 15.7207 8.48333 16.0584 9.25 16.225V17.5ZM10.2 20.7001C8.78333 20.7001 7.454 20.4334 6.212 19.9C4.97067 19.3667 3.89167 18.6417 2.975 17.725C2.05833 16.8084 1.33333 15.7294 0.8 14.488C0.266667 13.246 0 11.9167 0 10.5C0 9.08338 0.266667 7.75405 0.8 6.51205C1.33333 5.27072 2.05833 4.19172 2.975 3.27505C3.89167 2.35838 4.97067 1.63338 6.212 1.10005C7.454 0.566715 8.78333 0.300049 10.2 0.300049C11.6167 0.300049 12.946 0.566715 14.188 1.10005C15.4293 1.63338 16.5083 2.35838 17.425 3.27505C18.3417 4.19172 19.0667 5.27072 19.6 6.51205C20.1333 7.75405 20.4 9.08338 20.4 10.5C20.4 11.9167 20.1333 13.246 19.6 14.488C19.0667 15.7294 18.3417 16.8084 17.425 17.725C16.5083 18.6417 15.4293 19.3667 14.188 19.9C12.946 20.4334 11.6167 20.7001 10.2 20.7001ZM10.2 18.425C12.4167 18.425 14.2917 17.6584 15.825 16.125C17.3583 14.5917 18.125 12.7167 18.125 10.5C18.125 8.28338 17.3583 6.40838 15.825 4.87505C14.2917 3.34172 12.4167 2.57505 10.2 2.57505C7.98333 2.57505 6.10833 3.34172 4.575 4.87505C3.04167 6.40838 2.275 8.28338 2.275 10.5C2.275 12.7167 3.04167 14.5917 4.575 16.125C6.10833 17.6584 7.98333 18.425 10.2 18.425Z" fill="#B1D34B"/>
</svg>
