<svg width="15" height="16" viewBox="0 0 15 16" fill="none" xmlns="http://www.w3.org/2000/svg">
<path d="M7.0625 13.8209H7.89583V12.8417C8.49306 12.7862 9.06611 12.5675 9.615 12.1859C10.1633 11.8037 10.4375 11.2167 10.4375 10.425C10.4375 9.84172 10.2603 9.34505 9.90583 8.93505C9.55194 8.5256 8.875 8.14033 7.875 7.77922C6.94444 7.45977 6.35417 7.18533 6.10417 6.95588C5.85417 6.72699 5.72917 6.39727 5.72917 5.96672C5.72917 5.53616 5.8925 5.18199 6.21917 4.90422C6.54528 4.62644 6.98611 4.48755 7.54167 4.48755C7.95833 4.48755 8.30889 4.58477 8.59333 4.77922C8.87833 4.97366 9.11111 5.21671 9.29167 5.50838L10 5.21672C9.80556 4.81394 9.52083 4.4806 9.14583 4.21672C8.77083 3.95283 8.36806 3.80005 7.9375 3.75838V2.77922H7.10417V3.75838C6.38194 3.88338 5.83333 4.15755 5.45833 4.58088C5.08333 5.00477 4.89583 5.46672 4.89583 5.96672C4.89583 6.56394 5.08667 7.0431 5.46833 7.40422C5.85056 7.76533 6.48611 8.1056 7.375 8.42505C8.27778 8.75838 8.88194 9.05699 9.1875 9.32088C9.49306 9.58477 9.64583 9.95283 9.64583 10.425C9.64583 11.0084 9.43056 11.4284 9 11.685C8.56944 11.9423 8.11111 12.0709 7.625 12.0709C7.13889 12.0709 6.705 11.932 6.32333 11.6542C5.94111 11.3764 5.63194 10.9806 5.39583 10.4667L4.66667 10.7792C4.90278 11.3487 5.22222 11.7931 5.625 12.1125C6.02778 12.432 6.50694 12.6612 7.0625 12.8V13.8209ZM7.5 15.8C6.45833 15.8 5.48278 15.6023 4.57333 15.2067C3.66333 14.8106 2.87167 14.2756 2.19833 13.6017C1.52444 12.9284 0.989444 12.1367 0.593333 11.2267C0.197778 10.3173 0 9.34171 0 8.30005C0 7.25838 0.197778 6.28255 0.593333 5.37255C0.989444 4.4631 1.52444 3.67144 2.19833 2.99755C2.87167 2.32422 3.66333 1.78949 4.57333 1.39338C5.48278 0.997827 6.45833 0.800049 7.5 0.800049C8.54167 0.800049 9.5175 0.997827 10.4275 1.39338C11.3369 1.78949 12.1286 2.32422 12.8025 2.99755C13.4758 3.67144 14.0106 4.4631 14.4067 5.37255C14.8022 6.28255 15 7.25838 15 8.30005C15 9.34171 14.8022 10.3173 14.4067 11.2267C14.0106 12.1367 13.4758 12.9284 12.8025 13.6017C12.1286 14.2756 11.3369 14.8106 10.4275 15.2067C9.5175 15.6023 8.54167 15.8 7.5 15.8ZM7.5 14.9667C9.36111 14.9667 10.9375 14.3209 12.2292 13.0292C13.5208 11.7375 14.1667 10.1612 14.1667 8.30005C14.1667 6.43894 13.5208 4.86255 12.2292 3.57088C10.9375 2.27922 9.36111 1.63338 7.5 1.63338C5.63889 1.63338 4.0625 2.27922 2.77083 3.57088C1.47917 4.86255 0.833333 6.43894 0.833333 8.30005C0.833333 10.1612 1.47917 11.7375 2.77083 13.0292C4.0625 14.3209 5.63889 14.9667 7.5 14.9667Z" fill="#B1D34B"/>
</svg>
