<svg width="37" height="37" viewBox="0 0 37 37" fill="none" xmlns="http://www.w3.org/2000/svg">
<path d="M8.7223 3.48857C8.58948 3.31771 8.42183 3.17707 8.23047 3.07599C8.03912 2.97491 7.82845 2.91569 7.61245 2.90229C7.39646 2.88888 7.18008 2.92159 6.9777 2.99823C6.77531 3.07487 6.59155 3.1937 6.43862 3.34682L4.1122 5.6755C3.02548 6.76447 2.62499 8.30567 3.09973 9.65788C5.07008 15.2548 8.27523 20.3363 12.4774 24.5254C16.6666 28.7276 21.7481 31.9327 27.345 33.9031C28.6972 34.3778 30.2384 33.9774 31.3273 32.8906L33.6538 30.5642C33.8069 30.4113 33.9257 30.2275 34.0024 30.0251C34.079 29.8228 34.1117 29.6064 34.0983 29.3904C34.0849 29.1744 34.0257 28.9637 33.9246 28.7724C33.8235 28.581 33.6829 28.4134 33.512 28.2805L28.3214 24.2442C28.1389 24.1026 27.9266 24.0043 27.7005 23.9568C27.4745 23.9092 27.2406 23.9136 27.0165 23.9697L22.0891 25.2004C21.4314 25.3648 20.7424 25.356 20.089 25.1751C19.4357 24.9941 18.8404 24.647 18.361 24.1677L12.8352 18.6396C12.3554 18.1604 12.0079 17.5652 11.8266 16.9119C11.6452 16.2585 11.6361 15.5694 11.8002 14.9115L13.0332 9.98412C13.0892 9.76001 13.0936 9.52611 13.0461 9.30005C12.9985 9.074 12.9002 8.86169 12.7587 8.67916L8.7223 3.48857ZM4.73993 1.65038C5.13365 1.25653 5.60666 0.950943 6.12755 0.753919C6.64843 0.556894 7.20527 0.472937 7.76109 0.507623C8.31691 0.542308 8.85899 0.694843 9.35134 0.955097C9.84369 1.21535 10.275 1.57737 10.6167 2.01712L14.6531 7.20545C15.3933 8.15717 15.6543 9.39688 15.3618 10.5668L14.1311 15.4942C14.0675 15.7494 14.0709 16.0167 14.1411 16.2702C14.2113 16.5237 14.3458 16.7547 14.5316 16.9409L20.0597 22.469C20.2461 22.6552 20.4775 22.7899 20.7314 22.8601C20.9853 22.9303 21.2531 22.9335 21.5087 22.8695L26.4337 21.6388C27.0111 21.4944 27.6137 21.4832 28.1961 21.606C28.7784 21.7287 29.3252 21.9823 29.7951 22.3475L34.9835 26.3839C36.8487 27.8351 37.0197 30.5912 35.3502 32.2584L33.0238 34.5848C31.3588 36.2498 28.8704 36.981 26.5507 36.1643C20.6136 34.0753 15.223 30.6763 10.7787 26.2196C6.32228 21.776 2.92335 16.3862 0.834049 10.4499C0.0195747 8.13242 0.750802 5.64175 2.41575 3.9768L4.74218 1.65038H4.73993Z" fill="#B1D34B"/>
</svg>
