<?xml version="1.0" encoding="utf-8"?>
<!-- Generator: Adobe Illustrator 26.0.1, SVG Export Plug-In . SVG Version: 6.00 Build 0)  -->
<svg version="1.0" xmlns="http://www.w3.org/2000/svg" xmlns:xlink="http://www.w3.org/1999/xlink" x="0px" y="0px"
	 viewBox="0 0 186.89 200" enable-background="new 0 0 186.89 200" xml:space="preserve">
<g id="Bg">
</g>
<g id="Object">
	<path fill="#40B385" d="M12.44,92.63l3.4,2.68c11.77,9.58,22.27,20.72,31.45,32.83c4.59,6.06,8.83,12.38,12.63,18.96
		c1.08,1.89,2.14,3.8,3.16,5.72c0.11,1.31,0.32,2.05,0.68,1.32c0.52,1,1.05,1.99,1.55,3l0.64,1.27l0.26,0.52l0.07,0.14l0.26,0.57
		l0.52,1.14c0,0,0.86,1.62,1.71,3.2c0.81,1.6,1.57,3.19,1.55,3.04c0.23,0.42,0.45,0.81,0.66,1.15l-0.11,0.28
		c-0.01,0.06,0.01,0.2,0.02,0.23c0.56,1.68,1.77,1.22,2.33,0.81c0.09-0.06,0.1-0.08,0.12-0.14l1.58-4.05
		c10.08-25.89,25.51-49.47,43.65-70.47c9.09-10.51,18.88-20.41,29.18-29.74l3.87-3.49l3.96-3.4l3.96-3.39l4.04-3.29l4.42-3.58
		c0,0,5.56-4.84,5.28-4.69c2.15-2.05,3.31-3.68-0.81-1.22c-2.47,1.4-5.82,3.64-5.82,3.64c-0.34,0.26-0.68,0.53-1.01,0.8l-1.26,1.02
		c0.07-0.54,0.14-1.13,0.15-1.14c-0.01-0.01-0.08-0.03-0.1-0.03c-0.14-0.03-0.28-0.06-0.41-0.09l-0.18-0.03l0.01-0.01l0.02,0
		c0.01-0.03,0.01,0.03,0.01-0.02l6.4-3.13c0,0,6.41-3.69,6.1-3.62c2.49-1.63,3.91-3.01-0.58-1.34c-2.67,0.93-6.38,2.45-6.38,2.45
		l-17.36,8.48c-9.6,4.75-19.17,9.7-28.22,15.56c-4.53,2.92-8.96,6.02-13.15,9.42c-4.22,3.34-8.31,6.82-12.32,10.41
		c-8,7.19-15.57,14.94-22.18,23.5c-0.9,1.16-1.78,2.34-2.64,3.54c-0.03,0.06-0.04,0.2-0.04,0.23c0.1,1.79,1.38,1.65,2.02,1.41
		c0.1-0.03,0.11-0.05,0.15-0.1c0.62-0.87,1.27-1.72,1.91-2.57c-0.04,0.46-0.1,0.91-0.13,1.37c-0.43,5.3-0.58,10.6-0.61,15.9
		c-0.01,2.66,0,5.27,0.05,7.94l0.14,3.98l0.12,2.77c0,0,0.18,1.82,0.36,3.62c0.17,1.79,0.26,3.54,0.29,3.39
		c0.07,0.75,0.14,1.42,0.23,1.95c-2.01,4.27-3.89,8.6-5.6,13l-0.26,0.66c0.28-2.67,0.43-5.76,0.43-5.76l-0.03-2.73
		c-0.02-1.87-0.02-3.73,0-5.59c0.03-1.86,0.08-3.72,0.17-5.57c0.05-0.92,0.11-1.85,0.18-2.79c0.05-0.94,0.08-1.94,0.07-2.88
		c0.03-7.61-0.94-15.08-0.29-22.36c0.1-0.97,0.24-1.93,0.4-2.89c2.36,1.49,4.04,2.13,0.76-1.22c-0.96-1.07-2.27-2.18-3.29-3.11
		c-0.51-0.46-0.97-0.84-1.31-1.1c-0.33-0.26-0.53-0.42-0.53-0.42l-2.35-1.6c-2.07-1.3-4.13-2.61-6.26-3.79
		c-4.25-2.39-8.61-4.59-13.13-6.44c-9.02-3.67-18.56-6.47-28.48-6.71c-1.49-0.1-2.99,0.03-4.48,0.09c-0.06,0.01-0.18,0.09-0.2,0.12
		c-0.1,0.09-0.17,0.18-0.24,0.27c-1.55,0.14-1.48,1.34-1.27,1.96C12.37,92.58,12.39,92.59,12.44,92.63z M158.47,49.09
		c-0.1-0.04-0.19-0.07-0.29-0.11l3.6-1.76c-0.05,0.43-0.1,0.81-0.1,0.81s0.36,0.65,0.42,0.64c0.12,0.12,0.3,0.22,0.51,0.29
		c-1.55,1.25-3.08,2.52-4.62,3.8c0.16-1.04,0.56-3.56,0.57-3.6C158.56,49.13,158.49,49.1,158.47,49.09z M151.3,57.78
		c0,0,0.1-1.3,0.3-2.65c0.19-1.37,0.38-2.75,0.39-2.79c-0.01-0.02-0.08-0.05-0.1-0.06c-0.09-0.04-0.18-0.05-0.27-0.09
		c0.06-0.03,0.12-0.06,0.18-0.09l3.95-1.93c-0.18,1.18-0.4,2.58-0.4,2.58s0.24,1.31,0.31,1.27c0.07,0.17,0.17,0.31,0.3,0.42
		c-1.77,1.5-3.51,3.03-5.26,4.56C151.04,58.43,151.3,57.78,151.3,57.78z M138.98,69c0,0,0.99-10.15,1-10.29
		c-0.01-0.03-0.08-0.08-0.1-0.09c-0.13-0.08-0.25-0.1-0.38-0.16c1.38-0.75,2.77-1.49,4.16-2.22c-0.11,0.6-0.22,1.26-0.32,1.95
		c-0.25,1.78-0.42,3.51-0.42,3.51s0.21,2.15,0.27,2.07c0.21,0.87,0.72,1.5,1.44,0.19c0.49-0.76,0.88-1.88,0.88-1.88
		s0.18-1.76,0.42-3.49c0.12-0.86,0.26-1.72,0.39-2.36c0.14-0.63,0.23-1.07,0.23-1.09c-0.01-0.02-0.07-0.07-0.09-0.08
		c-0.1-0.06-0.2-0.1-0.3-0.15c1-0.51,2-1.01,3-1.52c-0.06,0.4-0.12,0.86-0.18,1.31c-0.19,1.36-0.31,2.77-0.31,2.77
		s0.08,0.42,0.17,0.86c0.1,0.42,0.22,0.84,0.25,0.8c0.15,0.34,0.37,0.61,0.62,0.66c-0.71,0.63-1.45,1.24-2.15,1.88
		c-3.01,2.69-5.96,5.44-8.87,8.23C138.88,69.4,138.98,69,138.98,69z M131.5,76.96c0.55-3.59,1.03-6.73,1.03-6.73l0.21-2.41l0.11-1.1
		l0.48-4.32c0-0.06-0.06-0.19-0.08-0.22c-0.04-0.06-0.08-0.09-0.11-0.15c1.37-0.79,2.73-1.58,4.11-2.35
		c-0.25,2.62-0.86,8.9-0.86,8.9s0.15,3.06,0.22,2.94c0.02,0.14,0.05,0.26,0.08,0.39c-1.74,1.69-3.48,3.38-5.19,5.1
		C131.5,77,131.5,76.98,131.5,76.96z M125.44,82.03c0.41-2.81,0.8-6.78,0.8-6.78l0.1-2.42l0.16-2.47c0.1-1.44,0.23-2.87,0.39-4.3
		c0-0.05-0.05-0.15-0.07-0.19c1.24-0.79,2.48-1.58,3.75-2.34l-0.32,2.93l-0.11,1.12l-0.18,2.1c0,0-0.04,1.87-0.02,3.69
		c0.01,1.83,0.1,3.61,0.13,3.46c0.05,0.55,0.11,1.06,0.17,1.5c-1.68,1.72-3.37,3.45-5.01,5.21
		C125.29,83.14,125.36,82.64,125.44,82.03z M120.04,88.73c0.16-3.53,0.32-6.79,0.32-6.79l-0.04-2.42l0.01-4.4l0.06-4.37
		c-0.01-0.06-0.08-0.18-0.1-0.21c-0.08-0.1-0.15-0.16-0.23-0.23c1.33-0.94,2.68-1.86,4.05-2.74c-0.08,0.87-0.17,1.74-0.23,2.61
		l-0.15,2.52l-0.09,2.11c0,0,0.06,1.83,0.13,3.68c0.08,1.82,0.2,3.59,0.23,3.44c0.1,1.05,0.25,1.96,0.41,2.49
		c-1.48,1.59-2.92,3.22-4.36,4.84C120.03,89.08,120.04,88.92,120.04,88.73z M112.14,98.26c0.52-2.81,0.82-6.83,0.82-6.83l0.02-2.44
		c0.03-3.16,0.06-6.31,0.18-9.44c0.06-1.43,0.13-2.87,0.23-4.29c1.43-1.11,2.87-2.21,4.34-3.28l-0.04,3.14l0,4.45l0.03,2.11
		c0,0,0.15,1.86,0.35,3.68c0.2,1.82,0.48,3.59,0.5,3.43c0.13,0.62,0.26,1.18,0.39,1.65c-0.48,0.54-0.98,1.07-1.46,1.62
		c-1.83,2.1-3.63,4.23-5.4,6.39C112.12,98.36,112.13,98.31,112.14,98.26z M106.14,105.85c0.17-2.8,0.51-6.76,0.51-6.76l0.06-2.42
		c0.12-3.56,0.34-7.15,0.41-10.77c0.02-1.47,0.03-2.95-0.02-4.44c-0.01-0.06-0.09-0.18-0.11-0.21c-0.16-0.19-0.32-0.32-0.47-0.43
		c1.36-1.15,2.74-2.29,4.13-3.41c-0.03,0.67-0.08,1.34-0.11,2.01c-0.12,3.19-0.15,6.36-0.17,9.52l-0.02,2.09
		c0,0,0.09,1.82,0.17,3.65c0.08,1.8,0.14,3.57,0.17,3.41c0.04,0.68,0.1,1.31,0.18,1.81c-1.6,1.97-3.17,3.96-4.73,5.98
		C106.14,105.88,106.14,105.87,106.14,105.85z M100.01,109.89c0.15-1.37,0.26-2.32,0.26-2.32l0.11-2.44
		c0.05-1.17,0.07-2.39,0.04-3.55c0.01-1.14,0-2.35-0.02-3.51c-0.04-2.34-0.11-4.65-0.04-6.92c0.05-1.42,0.14-2.84,0.32-4.23
		c0-0.06-0.06-0.18-0.08-0.21c-0.11-0.17-0.22-0.31-0.33-0.44c1.4-1.25,2.81-2.48,4.22-3.7c0.02,1.09,0.02,2.19,0,3.29
		c-0.07,3.55-0.28,7.13-0.4,10.74l-0.05,2.11c0,0,0.07,1.87,0.22,3.7c0.14,1.83,0.4,3.62,0.42,3.46c0.11,0.55,0.22,1.06,0.34,1.49
		c-1.8,2.36-3.55,4.75-5.27,7.16c0-0.09-0.01-0.18-0.01-0.28C99.75,112.87,99.87,111.21,100.01,109.89z M93.93,114.97
		c-0.05-5.91-0.2-11.8-0.07-17.65c0.03-1.45,0.08-2.89,0.15-4.34c-0.01-0.06-0.08-0.18-0.1-0.21c-0.09-0.12-0.18-0.21-0.27-0.3
		c1.38-1.35,2.8-2.66,4.22-3.98c-0.07,0.86-0.12,1.72-0.15,2.58c-0.07,2.38,0,4.73,0.04,7.05c0.02,1.17,0.04,2.29,0.03,3.48
		c0.03,1.17,0.01,2.28-0.04,3.43l-0.09,2.08c0,0,0,1.86,0.14,3.72c0.11,1.86,0.48,3.68,0.49,3.51c0.13,0.59,0.3,1.12,0.49,1.56
		c-1.9,2.7-3.74,5.44-5.53,8.21c0.46-2.81,0.71-6.7,0.71-6.7L93.93,114.97z M86.23,126.61c-0.1-7.89,0.61-15.82,1.29-23.77
		l0.37-4.37c0-0.03-0.02-0.06-0.03-0.1c1.13-1.21,2.3-2.38,3.46-3.56c-0.03,0.81-0.07,1.62-0.08,2.43
		c-0.13,5.94,0.02,11.85,0.08,17.74l0.02,2.09c0,0,0.11,1.83,0.23,3.64c0.1,1.8,0.19,3.56,0.22,3.41c0.06,0.73,0.13,1.4,0.22,1.92
		c-2.04,3.22-4,6.49-5.89,9.8c0-0.02,0-0.04,0-0.06c0.08-3.15,0.18-6.78,0.18-6.78C86.24,128.22,86.25,127.41,86.23,126.61z
		 M79.7,139.98l-0.15-3.99c-0.06-2.64-0.06-5.34-0.06-8c0.03-5.34,0.18-10.67,0.61-15.97c0.12-1.44,0.25-2.88,0.42-4.31
		c0-0.06-0.06-0.19-0.08-0.22c-0.08-0.12-0.16-0.21-0.24-0.31c1.55-1.92,3.14-3.81,4.79-5.65l-0.09,1.08
		c-0.67,7.95-1.4,15.95-1.29,24.03l0.04,2.12c0,0,0.05,0.47,0.12,1.16c0.07,0.69,0.17,1.62,0.3,2.52c0.22,1.82,0.58,3.58,0.58,3.42
		c0.16,0.66,0.32,1.26,0.48,1.74c-1.99,3.57-3.89,7.2-5.69,10.88c0.33-2.7,0.39-5.86,0.39-5.86L79.7,139.98z M65.17,147.13
		c0.17-1.36,0.25-2.37,0.25-2.37l0.04-2.68l-0.01-4.31l-0.12-8.58c-0.09-5.71-0.12-11.39,0.27-17.03c0.06-0.8,0.14-1.59,0.22-2.38
		l0.14,0.1l1.03,0.7c0,0,1.58,0.91,3.07,1.9c0.23,0.14,0.46,0.29,0.68,0.43c-0.3,1.39-0.48,2.79-0.63,4.18
		c-0.65,7.57,0.29,14.96,0.29,22.22c0.01,0.91-0.02,1.8-0.05,2.69l-0.18,2.76c-0.1,1.86-0.16,3.72-0.19,5.58
		c-0.03,1.86-0.03,3.71-0.01,5.56l0.04,3.06c0,0,0.1,1.31,0.22,2.79c-0.37-1.03-0.65-1.76-0.65-1.76l-0.54-1.18l-0.27-0.59
		l-0.13-0.3l-0.07-0.15l-0.29-0.58l-2.66-5.25l-0.92-1.67C64.89,149.2,65.06,148.08,65.17,147.13z M51.13,104.5
		c0.04-0.98,0.11-1.96,0.19-2.93c1.67,0.8,3.32,1.64,4.95,2.51l-0.05,3.23c-0.03,6.42,0.19,12.82,0.38,19.2l0.06,2.09
		c0,0,0.62,7.36,0.66,7.05c0.35,2.94,0.95,4.86,1.46,0.07c0.36-2.82,0.52-6.85,0.52-6.85l-0.07-2.44c-0.19-6.39-0.4-12.75-0.37-19.1
		l0.03-1.82l2.4,1.38l2.04,1.28c-0.14,1.27-0.26,2.54-0.35,3.81c-0.39,5.67-0.37,11.34-0.28,16.97l0.13,8.42l0.01,4.2l-0.03,2.8
		c0,0,0.05,1.22,0.09,2.64l-0.11-0.2c-3.4-5.93-7.15-11.65-11.16-17.17c0-0.08,0.01-0.15,0.01-0.23c0.19-2.84,0.13-6.86,0.13-6.86
		l-0.19-2.43C51.2,114.88,50.91,109.67,51.13,104.5z M42.66,97.88c-0.08,0.06-0.15,0.13-0.21,0.2c-0.08,0.08-0.09,0.1-0.1,0.17
		c-0.3,1.55-0.39,3.08-0.42,4.59c-0.02,1.15,0.03,2.28,0.08,3.41l0.15,2.12c0,0,0.26,1.86,0.57,3.65c0.31,1.79,0.6,3.53,0.61,3.37
		c0.57,2.88,1.29,4.79,1.46-0.05c0.07-1.43,0.05-3.14,0.03-4.5c-0.02-1.42-0.03-2.35-0.03-2.35l-0.17-2.39
		c-0.05-1.08-0.09-2.17-0.07-3.23c0.02-1.4,0.12-2.8,0.37-4.11l0,0c0.21,0.08,0.43,0.16,0.64,0.25c1.08,0.45,2.15,0.91,3.21,1.39
		c-0.14,1.33-0.23,2.67-0.29,4.01c-0.22,5.34,0.08,10.65,0.47,15.91l0.16,2.09c0,0,0.38,2.68,0.68,4.74
		c-3.57-4.75-7.34-9.35-11.3-13.77c0.12-0.41,0.21-1.23,0.25-2.65c0.06-1.43,0.03-3.14,0-4.5c-0.03-1.43-0.05-2.35-0.05-2.35
		l-0.2-2.4l-0.03-0.65c-0.09-1.43-0.12-2.85-0.08-4.25c-0.01-0.06-0.08-0.18-0.1-0.2C39.76,96.84,41.22,97.34,42.66,97.88z
		 M36.39,95.77c-0.23,0.15-0.43,0.35-0.55,0.54c-0.07,0.08-0.07,0.11-0.07,0.18c-0.04,1.51,0,3.01,0.09,4.49l0.04,0.67l0.17,2.12
		c0,0,0.3,1.8,0.6,3.63c0.32,1.79,0.62,3.52,0.64,3.37c0.13,0.65,0.28,1.25,0.42,1.73c-1.71-1.88-3.46-3.73-5.24-5.54
		c0.07-0.19,0.13-0.41,0.19-0.73c0.26-1.14,0.32-2.73,0.32-2.73s-0.87-6.74-1.15-8.97C33.36,94.89,34.88,95.31,36.39,95.77z
		 M26.66,93.53c0-0.02,0-0.03,0-0.04c0.89,0.15,1.78,0.3,2.67,0.48c-0.04,0.03-0.11,0.06-0.14,0.09c-0.06,0.04-0.06,0.05-0.06,0.07
		c0.02,0.13,1.24,9.56,1.24,9.56s0.24,0.85,0.47,1.6c-1.21-1.2-2.44-2.38-3.68-3.55c0.18-0.88,0.2-1.84,0.2-1.84
		s-0.09-0.49-0.22-1.23c-0.13-0.73-0.3-1.69-0.41-2.62C26.62,95.11,26.6,94.2,26.66,93.53z M24.05,93.11
		c-0.01,0.07-0.01,0.13-0.02,0.21c-0.07,0.84-0.04,1.92,0.08,2.96c0.12,1.04,0.3,2.03,0.43,2.76c0.02,0.13,0.04,0.23,0.06,0.35
		c-0.82-0.74-1.64-1.5-2.47-2.22c0.03-0.41,0.02-0.73,0.02-0.73s-0.44-1.45-0.63-2.84c-0.04-0.26-0.05-0.51-0.07-0.76
		C22.32,92.91,23.19,93,24.05,93.11z M18.48,92.68c0.11,0,0.21,0.01,0.32,0.02c0.01,0.4,0.05,0.82,0.12,1.23
		c0.03,0.21,0.06,0.41,0.1,0.61c-0.51-0.42-1.01-0.86-1.52-1.28l-0.75-0.59C17.32,92.65,17.9,92.64,18.48,92.68z"/>
</g>
</svg>
