<?xml version="1.0" encoding="utf-8"?>
<!-- Generator: Adobe Illustrator 26.0.1, SVG Export Plug-In . SVG Version: 6.00 Build 0)  -->
<svg version="1.0" xmlns="http://www.w3.org/2000/svg" xmlns:xlink="http://www.w3.org/1999/xlink" x="0px" y="0px"
	 viewBox="0 0 202.05 200" enable-background="new 0 0 202.05 200" xml:space="preserve">
<g id="Bg">
</g>
<g id="Object">
	<g>
		<path fill="#40B385" d="M129.04,10.72c-0.97-0.28-1.94-0.55-2.92-0.8c-0.97-0.25-1.94-0.52-3.01-0.71
			c-2.08-0.36-4.08-0.48-6.01-0.72c-1.42-0.18-2.82-0.41-4.04-0.85c-0.05-0.01-0.18,0.03-0.21,0.04c-0.43,0.17-0.74,0.37-0.94,0.59
			c-0.7-0.16-1.23,0.38-1.48,0.79c-0.06,0.09-0.06,0.11-0.06,0.18l0.15,4.45l1.31,39.03c-0.01,0.07-0.01,0.13-0.01,0.2
			c-0.01,0.08,0,0.11,0.02,0.15l0.83,24.56c0,0,0.7,7.5,0.75,7.18c0.34,2.47,0.85,4.2,1.24,2.03c0.29,0.06,0.58,0.04,0.81-0.01
			c0.11-0.01,0.12-0.03,0.17-0.08l3.14-3.16c7.55-7.65,15-15.39,22.42-23.16l10.56-11.14c0.3,0.12,0.42,0.04,0.3-0.32l0.23-0.24
			l7.91-8.46c0,0,4.78-5.81,4.52-5.63c1.47-1.98,2.32-3.55,0.6-2.37c-0.19-0.41-0.66-1.09-1.55-2.14c-0.92-1.14-2.18-2.39-3.21-3.35
			c-1.04-0.95-1.85-1.61-1.85-1.61c-0.36-0.26-0.72-0.52-1.09-0.77l-1.25-0.85c-1.7-1.11-3.43-2.16-5.19-3.15
			c-3.52-2-7.16-3.71-10.75-5.45C136.77,13.22,132.92,11.84,129.04,10.72z M116.88,81.71l-1.85,1.86c0.23-2.67,0.33-5.67,0.33-5.67
			l-0.26-7.73c1.28,2.29,2.66,4.44,2.66,4.44s0.54,0.63,1.09,1.22c0.55,0.6,1.13,1.15,1.11,1.08c0.38,0.31,0.73,0.53,1.01,0.61
			C119.6,78.91,118.25,80.32,116.88,81.71z M121.44,77.03c-0.02-0.24-0.1-0.54-0.28-0.97c-0.39-1.2-1.09-2.78-1.09-2.78
			s-1.43-2.2-2.71-4.53c-0.64-1.16-1.26-2.34-1.7-3.23c-0.21-0.45-0.39-0.82-0.52-1.09c-0.12-0.26-0.19-0.42-0.2-0.44
			c-0.01-0.01-0.03-0.01-0.06-0.02l-0.23-6.79c1.26,1.75,2.56,3.47,3.91,5.14l1.37,1.66c0,0,1.3,1.39,2.63,2.69
			c1.32,1.31,2.66,2.54,2.57,2.4c1.05,0.89,1.98,1.57,2.42,1.69C125.53,72.87,123.48,74.95,121.44,77.03z M127.8,70.52
			c-0.09-0.36-0.54-1.11-1.52-2.39c-1.95-2.68-4.07-5.59-4.07-5.59l-1.56-1.89c-1.41-1.75-2.77-3.54-4.07-5.37
			c-0.72-1.01-1.41-2.04-2.08-3.08l-0.23-6.73c0.06,0.08,0.12,0.16,0.18,0.23c2.58,3.19,5.27,6.25,7.91,9.32l1.38,1.61
			c0,0,1.28,1.35,2.54,2.68c1.25,1.33,2.44,2.67,2.37,2.53c2.05,2.17,3.7,3.42,1.23-0.83c-1.42-2.54-3.88-5.85-3.88-5.85l-1.62-1.89
			c-2.66-3.09-5.33-6.13-7.85-9.26c-0.82-1.03-1.63-2.07-2.42-3.12l-0.32-9.52l1.88,2.51c4.42,6,8.7,12.16,13.4,18.06l1.35,1.67
			c0,0,1.29,1.39,2.6,2.71c1.3,1.33,2.65,2.55,2.56,2.42c0.82,0.69,1.56,1.25,2.06,1.52C134.38,63.7,131.1,67.12,127.8,70.52z
			 M139.65,58.19c-0.51,0.54-1.03,1.07-1.55,1.61c-0.22-0.43-0.66-1.07-1.37-2c-1.79-2.5-4.03-5.61-4.03-5.61l-1.55-1.91
			c-4.62-5.81-8.88-11.95-13.33-17.99l-2.68-3.58c-0.05-0.04-0.18-0.09-0.21-0.1c-0.55-0.13-0.94-0.09-1.23,0.04l-0.41-12.3
			c0.5,0.56,1.01,1.1,1.5,1.67c4.19,4.84,7.99,10.03,11.81,15.24c1.91,2.61,3.82,5.22,5.8,7.81c0.98,1.3,2,2.57,3,3.85l1.9,2.31
			c0,0,0.32,0.35,0.82,0.85c0.49,0.5,1.15,1.17,1.8,1.84c1.35,1.29,2.66,2.54,2.58,2.39c0.58,0.48,1.12,0.89,1.56,1.19L139.65,58.19
			z M144.72,52.84c-0.25-0.38-0.59-0.86-1.07-1.47c-1.77-2.41-4.08-5.58-4.08-5.58l-1.72-2.1c-1.02-1.27-2.04-2.55-3.02-3.85
			c-1.99-2.59-3.93-5.24-5.87-7.89c-3.89-5.3-7.79-10.65-12.14-15.68c-0.97-1.14-1.98-2.25-3-3.35c-0.05-0.04-0.19-0.08-0.22-0.08
			c-0.16-0.02-0.28-0.02-0.42-0.02l-0.08-2.37c1.25,0.36,2.48,0.54,3.69,0.7c1.44,0.18,2.85,0.29,4.21,0.46l0,0
			c0.76,1.29,1.55,2.57,2.35,3.83c3.24,5.05,6.76,9.89,10.45,14.58c1.84,2.35,3.74,4.66,5.65,6.94l2.9,3.4l1.91,2.19
			c0,0,1.34,1.33,2.65,2.63c1.32,1.29,2.63,2.54,2.54,2.4c0.04,0.04,0.08,0.07,0.13,0.11L144.72,52.84z M150.91,46.3l-0.31,0.33
			c-1.63-2.38-4.1-5.58-4.1-5.58l-1.78-2.04l-2.93-3.43c-1.94-2.3-3.85-4.62-5.7-6.98c-3.72-4.71-7.26-9.57-10.48-14.61
			c-0.36-0.56-0.7-1.14-1.05-1.71l0.76,0.19c0.94,0.24,1.87,0.5,2.8,0.76c2.52,0.72,4.99,1.56,7.41,2.52
			c-0.13,0.25-0.2,0.54-0.21,0.78c-0.02,0.11,0,0.13,0.03,0.19c0.72,1.35,1.52,2.64,2.34,3.91c2.79,4.26,5.97,8.16,9.16,12.01
			l1.36,1.64c0,0,1.28,1.36,2.54,2.71c1.26,1.34,2.47,2.66,2.39,2.52c1.02,1.05,1.94,1.87,2.32,1.95L150.91,46.3z M148.08,22.66
			c0.72,1.42,1.58,2.71,2.47,3.95l0.18,0.24c0.43,0.59,0.87,1.16,1.32,1.73c0,0,1.27,1.43,2.56,2.76c1.28,1.34,2.55,2.61,2.46,2.48
			c2.17,2.08,3.87,3.21,1.19-0.89c-0.77-1.22-1.77-2.65-2.55-3.78c-0.81-1.17-1.35-1.96-1.35-1.96c-0.51-0.64-1-1.28-1.47-1.93
			l-0.16-0.24c-0.25-0.35-0.48-0.7-0.71-1.05c0.79,0.47,1.57,0.95,2.33,1.45c0.37,0.23,0.93,0.61,1,0.66l0.52,0.35
			c0.35,0.23,0.69,0.47,1.03,0.72c0,0,1.57,0.96,3.04,2.01c1.49,1.03,2.87,2.14,2.78,2.01c0.89,0.64,1.66,1.19,2.16,1.44
			c-0.32,0.25-0.71,0.56-1.16,0.95c-2.23,1.83-5.21,4.62-5.21,4.62l-2.87,3.06c-0.02-0.34-0.38-1.13-1.28-2.61
			c-1.47-2.51-3.88-5.82-3.88-5.82l-1.58-1.9c-3.17-3.83-6.29-7.67-8.97-11.76c-0.44-0.68-0.87-1.38-1.29-2.07
			c0.1,0.05,0.21,0.09,0.31,0.14c3.11,1.5,6.25,2.98,9.27,4.62c-0.09,0.2-0.13,0.41-0.15,0.61
			C148.04,22.57,148.05,22.59,148.08,22.66z"/>
		<path fill="#40B385" d="M191.43,76.62c-0.1-0.15-0.2-0.27-0.29-0.4c-0.41-1.37-0.84-2.73-1.28-4.08
			c-1.8-5.48-3.93-10.84-6.4-16.06c-2.47-5.21-5.4-10.28-8.91-14.91c-0.9-1.21-1.84-2.38-2.8-3.54c-0.05-0.04-0.19-0.09-0.22-0.09
			c-0.31-0.06-0.56-0.06-0.78-0.03c0-0.39-0.69-0.07-2.58,1.53c-0.02,0.02-0.05,0.04-0.07,0.06c-0.09-0.07-0.18-0.12-0.29-0.15
			c-0.43-0.14-0.95,0.1-1.26,0.4c-0.1,0.08-0.11,0.11-0.13,0.19c-0.14,0.43-0.23,0.84-0.3,1.25c-1.67,1.47-3.16,2.88-3.16,2.88
			l-7.79,8.48c-3.86,4.21-7.73,8.42-11.65,12.56c-3.92,4.15-7.89,8.25-11.9,12.31c-4.01,4.06-8.09,8.07-12.07,12.21
			c-1.03,1.07-2.06,2.16-3.07,3.26c-0.03,0.05-0.06,0.2-0.06,0.23c-0.1,1.83,1.2,1.84,1.87,1.67c0.1-0.02,0.12-0.04,0.16-0.08
			c0.14-0.15,0.29-0.3,0.43-0.45l2.39,3.74c1.98,3.11,3.97,6.21,5.96,9.31c0.11,0.62,0.22,1.07,0.35,1.22
			c0.08,0.11,0.2,0.07,0.32-0.17c4.74,7.4,9.49,14.79,14.33,22.13c3.29,5,6.64,9.96,10.03,14.9c0.14,0.71,0.32,1.06,0.53,0.78
			c0.09,0.13,0.17,0.25,0.26,0.38c1.83,2.66,3.7,5.29,5.58,7.92l2.24,3.09c0,0,0.6,0.71,1.37,1.62c0.14,1.49,0.42,2.23,0.84,1
			c0.07,0.08,0.13,0.16,0.2,0.23c1.19,1.41,2.41,2.75,2.34,2.61c0.71,0.74,1.37,1.35,1.83,1.69c0.17,2.7,0.61,4.23,1.45-0.33
			c0.03-0.14,0.06-0.29,0.08-0.44c0.41-0.26,0.99-0.68,1.78-1.33c1.18-0.87,2.43-2.11,3.43-3.1c0.5-0.5,0.93-0.93,1.24-1.24
			c0.29-0.33,0.46-0.52,0.46-0.52l2.07-2.74c3.39-4.71,6.31-9.73,8.8-14.95c0.59-1.32,1.25-2.61,1.78-3.96l1.61-4.03l1.4-4.11
			c0.48-1.37,0.81-2.78,1.22-4.17c1.5-5.6,2.51-11.34,2.85-17.15c0.39-5.79-0.14-11.73-1.31-17.38c-0.78-3.85-1.73-7.67-2.82-11.44
			c0.04-0.19,0.05-0.39,0.03-0.55C191.5,76.72,191.48,76.69,191.43,76.62z M123.5,96.14l-2.4-3.75c-0.04-0.05-0.17-0.11-0.2-0.12
			c-0.17-0.06-0.32-0.08-0.47-0.1c0.34-0.36,0.67-0.72,1.02-1.08c1.41-1.46,2.84-2.91,4.27-4.35c-0.11,0.75-0.16,1.49-0.21,2.22
			c-0.1,2.38,0.03,4.69,0.19,6.98l0.17,2.14c0,0,0.15,1.03,0.34,2.31C125.32,98.97,124.41,97.55,123.5,96.14z M131.55,108.72
			c0.33-2.78,0.85-6.34,0.85-6.34l0.2-2.46c0.19-2.22,0.39-4.48,0.52-6.74c0.13-2.39-0.11-4.64-0.1-6.79
			c0.01-1.42,0.11-2.79,0.48-4.01c0-0.05-0.04-0.18-0.05-0.21c-0.33-0.75-0.75-1.14-1.2-1.2c-0.44-0.07-0.9,0.18-1.19,0.45
			c-0.09,0.07-0.1,0.1-0.12,0.17c-0.5,1.63-0.59,3.25-0.6,4.79c0,2.33,0.23,4.55,0.11,6.65c-0.12,2.21-0.32,4.42-0.51,6.66
			l-0.17,2.13c0,0-0.04,1.9,0.01,3.77c0,0.12,0.01,0.24,0.01,0.36c-0.43-0.67-0.86-1.34-1.29-2.01c0.06-1.14,0.08-2.34,0.08-3.35
			c-0.01-1.42-0.02-2.41-0.02-2.41l-0.19-2.46c-0.16-2.25-0.28-4.49-0.18-6.66c0.07-1.39,0.23-2.84,0.69-3.85
			c0.01-0.04-0.02-0.15-0.03-0.18c-0.16-0.41-0.31-0.74-0.49-0.99c1.65-1.65,3.29-3.3,4.94-4.96c0.82-0.83,1.63-1.67,2.44-2.5
			c-0.15,0.98-0.29,1.96-0.42,2.95c-0.53,5-0.61,10.01-0.41,14.98c0.08,2.49,0.24,4.97,0.41,7.44l0.52,6.47c0,0,1.1,7.45,1.12,7.13
			c0.2,1.05,0.42,1.97,0.63,2.49C135.57,114.95,133.55,111.84,131.55,108.72z M147.44,67l-0.01,1.95c0,0.63-0.05,1.25-0.06,1.93
			l-0.05,3.93c-0.06,2.6-0.16,5.2-0.28,7.8c-0.25,5.2-0.6,10.41-0.92,15.64l-0.22,3.94l-0.13,3.94c-0.08,2.62-0.14,5.24-0.17,7.86
			c-0.03,2.62-0.04,5.25-0.01,7.87l0.06,3.5c0,0,0.18,1.88,0.35,3.73c0.09,0.81,0.18,1.6,0.25,2.23c-0.48-0.72-0.97-1.44-1.44-2.17
			c-2.33-3.53-4.62-7.09-6.92-10.64c0.26,0.11,0.47-0.68,0.55-2.98c0.17-2.89,0.08-6.98,0.08-6.98l-0.21-2.47
			c-0.72-8.78-1.26-17.6-0.33-26.25c0.19-1.44,0.37-2.88,0.65-4.3c0-0.06-0.05-0.19-0.07-0.22c-0.24-0.43-0.5-0.69-0.75-0.84
			c1.24-1.28,2.48-2.56,3.71-3.85c-0.06,0.82-0.12,1.64-0.17,2.46c-0.44,7.44-0.56,14.88-0.52,22.31c0.02,3.72,0.07,7.43,0.16,11.14
			l0.21,8.66c0,0,0.65,7.5,0.7,7.19c0.4,3,1.04,4.93,1.48,0.06c0.33-2.87,0.49-6.96,0.49-6.96l-0.21-8.42
			c-0.08-3.76-0.14-7.53-0.16-11.29c-0.04-7.52,0.07-15.03,0.52-22.52c0.08-1.47,0.19-2.95,0.3-4.42c-0.01-0.06-0.07-0.19-0.09-0.22
			c-0.12-0.18-0.25-0.32-0.37-0.43c0.39-0.41,0.79-0.82,1.18-1.23c0.83-0.88,1.66-1.77,2.49-2.65
			C147.46,65.22,147.44,66.13,147.44,67z M152.77,100.87l-1.06,34.73c0,0,0.06,2.1,0.13,4.03c-1.34-1.97-2.67-3.94-3.99-5.92
			c0.03-0.33,0.06-0.69,0.08-1.12c0.24-2.87,0.4-6.94,0.4-6.94l-0.06-2.89c-0.04-2.64-0.04-5.29-0.01-7.94
			c0.03-2.65,0.09-5.3,0.16-7.95c0.07-2.66,0.15-5.28,0.33-7.92c0.32-5.3,0.68-10.61,0.94-15.94c0.13-2.66,0.24-5.33,0.3-8
			l0.05-3.98c0-0.64,0.07-1.32,0.07-2.02l0.01-2.01c0-1.46,0.04-2.87,0.3-4.17c0-0.06-0.05-0.18-0.07-0.21
			c-0.18-0.33-0.38-0.56-0.57-0.73c1.48-1.6,2.96-3.2,4.44-4.8c-0.15,0.86-0.25,1.71-0.31,2.56L152.77,100.87z M156.41,140.51
			c0,0-0.08,1.89-0.16,3.73c-0.02,0.62-0.04,1.22-0.05,1.76c-0.13-0.19-0.27-0.38-0.4-0.57c-0.74-1.07-1.47-2.15-2.21-3.23
			c0.44-2.76,0.77-6.18,0.77-6.18l1.06-34.41l1.16-41.74c0.1-1.42,0.31-2.8,0.68-4.12c0-0.06-0.04-0.19-0.05-0.22
			c-0.2-0.46-0.44-0.74-0.69-0.92c0.01-0.01,0.01-0.02,0.02-0.02l2.45-2.67c0.02,0.89,0.14,1.73,0.22,2.55l0.2,1.46l0.09,0.71
			l0.02,0.14l0,0.11l0.01,0.36c0.03,0.96,0.03,1.93,0.02,2.9c-0.01,1.94-0.08,3.88-0.17,5.83c-0.17,3.9-0.39,7.84-0.35,11.83
			c0.18,7.79-0.34,15.58-0.55,23.46c-0.12,3.92-0.11,7.93,0,11.82c0.04,3.86-0.14,7.74-0.46,11.62c-0.31,3.88-0.73,7.77-1.17,11.66
			L156.41,140.51z M163.27,131.06c-0.21,4.8-0.5,9.61-0.83,14.41l-0.32,4.62c0,0-0.02,2.24-0.03,4.23l-0.65-0.89
			c-1.29-1.78-2.55-3.58-3.81-5.38c0.01-0.03,0.01-0.05,0.02-0.08c0.64-2.81,1.36-6.83,1.36-6.83l0.34-3.09
			c0.44-3.96,0.89-7.93,1.23-11.93c0.33-4,0.58-8.02,0.57-12.06c0-2.05-0.09-4.01-0.1-5.99c-0.01-1.98,0.02-3.96,0.06-5.94
			c0.19-7.93,0.75-15.92,0.58-23.97c-0.06-3.93,0.16-7.88,0.33-11.88c0.09-2,0.16-4.01,0.18-6.02c0.01-1.01,0-2.02-0.02-3.04
			c-0.02-0.26,0.01-0.47-0.04-0.87l-0.1-0.76l-0.2-1.48c-0.18-1.41-0.33-2.88-0.05-3.89c0-0.04-0.05-0.15-0.06-0.17
			c-0.16-0.25-0.3-0.47-0.45-0.66l3.36-3.66c0,0,0.56-0.68,1.28-1.56c0,0.07,0,0.15,0,0.22c0.01,0.61,0.02,1.19,0,1.74l-0.07,1.81
			l-0.15,3.61l-0.3,7.23l-0.58,14.45c-0.29,9.61-1.03,19.23-1.27,28.92c-0.06,2.42-0.09,4.85-0.07,7.28l0.1,7.22
			C163.62,121.46,163.48,126.26,163.27,131.06z M167.82,136.75c-0.09,1.27-0.17,2.52-0.23,3.77c-0.09,1.25-0.17,2.51-0.23,3.79
			c-0.11,2.54-0.16,5.06-0.19,7.58l-0.05,4.73c0,0,0.08,1.87,0.16,3.71c0.03,0.85,0.06,1.68,0.08,2.33
			c-0.15-0.27-0.31-0.55-0.51-0.88c-0.72-1.24-1.62-2.73-2.35-3.9c-0.27-0.43-0.52-0.82-0.72-1.14c0.54-2.74,1-6.1,1-6.1l0.22-3.25
			c0.33-4.9,0.65-9.8,0.88-14.71c0.23-4.91,0.38-9.84,0.4-14.77c0.01-2.46-0.04-4.94-0.09-7.38c-0.04-2.42-0.01-4.87,0.04-7.3
			c0.21-9.76,0.97-19.54,1.28-29.38l0.59-14.7l0.3-7.35l0.15-3.68l0.08-1.84c0.02-0.66,0.01-1.3,0-1.9
			c-0.02-1.43-0.03-2.84,0.3-3.88c0.19-0.25,0.3-0.4,0.26-0.36c0.19-0.25,0.37-0.5,0.54-0.74c0.47,0.56,0.91,1.15,1.36,1.72
			c-0.21,0.11-0.41,0.27-0.54,0.43c-0.09,0.09-0.1,0.12-0.12,0.21c-0.36,1.86-0.08,3.35-0.08,4.79l0.12,15.02l0.06,7.51l-0.14,7.54
			l-0.57,30.17c-0.03,1.26-0.04,2.51-0.04,3.75c-0.02,1.24-0.05,2.48-0.1,3.72c-0.11,2.48-0.28,4.97-0.49,7.46
			C168.75,126.7,168.19,131.7,167.82,136.75z M174.5,141.95l-0.17,2.3l-0.06,0.63l-0.12,1.27c0,0-0.07,1.86-0.2,3.68
			c-0.11,1.82-0.33,3.59-0.26,3.44c-0.09,1.12-0.13,2.11-0.06,2.66c-0.09,0.13-0.19,0.27-0.3,0.44c-0.41,0.55-0.96,1.29-1.5,2.01
			c-1.05,1.49-2.23,2.82-2.09,2.73c-0.17,0.22-0.33,0.43-0.49,0.64c0.34-2.38,0.52-4.74,0.52-4.74l0.04-3.29
			c0.03-2.55,0.06-5.1,0.14-7.63c0.06-2.53,0.29-5.05,0.42-7.62c0.66-10.1,2.21-20.32,2.07-30.67l0.58-30.64l0.15-7.66l-0.05-7.69
			l-0.12-15.39c0.01-0.75-0.08-1.52-0.09-2.2c-0.01-0.24-0.01-0.48,0-0.71c1.69,2.29,3.23,4.67,4.65,7.14
			c-0.16,0.08-0.3,0.17-0.42,0.28c-0.09,0.07-0.1,0.09-0.12,0.16c-0.5,1.5-0.78,3.04-1.02,4.56c-1.11,8.48,0.27,16.71-0.05,24.78
			c-0.05,8.27,0,16.45-0.17,24.65c-0.08,4.1-0.22,8.19-0.44,12.27c-0.23,4.13-0.31,8.26-0.4,12.36
			C174.86,133.8,174.76,137.88,174.5,141.95z M191.5,88.54c0.29,1.36,0.55,2.73,0.79,4.09l0.5,4.08c0.19,2.74,0.32,5.49,0.17,8.24
			c-0.23,5.51-1.08,10.99-2.41,16.36c-1.37,5.36-3.26,10.59-5.52,15.64c-2.27,5.05-4.96,9.92-8.12,14.45
			c-0.38,0.58-0.76,1.15-1.19,1.69l-0.6,0.79l-0.14,0.19c0.05-0.15,0.1-0.29,0.15-0.45c0.46-1.38,0.89-3.1,1.18-4.47
			c0.28-1.37,0.46-2.39,0.46-2.39l0.12-1.32l0.06-0.66l0.09-1.19c0.32-4.21,0.45-8.41,0.54-12.59c0.1-4.18,0.17-8.35,0.38-12.49
			c0.23-4.17,0.39-8.38,0.48-12.56c0.18-8.37,0.15-16.76,0.19-25.07c0.33-8.47-1.04-16.86,0.02-24.88c0.13-0.86,0.29-1.71,0.48-2.54
			c0.61,1.16,1.2,2.33,1.77,3.51c1.06,2.21,2.04,4.47,2.97,6.74c-0.2,0.05-0.4,0.14-0.56,0.25c-0.11,0.06-0.13,0.09-0.17,0.16
			c-0.78,1.62-1.03,3.22-1.18,4.78c-0.25,2.86-0.11,5.64,0.06,8.38l0.26,4.07c0.09,1.34,0.08,2.6,0.04,3.98
			c-0.12,5.42-0.42,10.86-0.67,16.31c-0.13,2.73-0.24,5.46-0.31,8.2c-0.08,2.76-0.07,5.45-0.2,8.16l-0.33,8.18l-0.08,3.57
			c0,0,0.09,1.9,0.26,3.76c0.16,1.86,0.43,3.67,0.45,3.51c0.27,1.51,0.66,2.73,0.94,2.95c0.3,0.22,0.46-0.54,0.55-2.96
			c0.16-2.85,0.48-6.88,0.48-6.88l0.05-2.89c0.07-2.75,0.21-5.51,0.33-8.29c0.13-2.77,0.15-5.61,0.21-8.33
			c0.07-2.76,0.18-5.52,0.3-8.28c0.25-5.53,0.56-11.08,0.69-16.65l0.04-2.1c0-0.74-0.03-1.45-0.06-2.16l-0.27-4.17
			c-0.17-2.74-0.31-5.48-0.07-8.09c0.08-0.85,0.22-1.69,0.42-2.46c0.73,1.9,1.43,3.82,2.08,5.75c0.47,1.4,0.91,2.8,1.34,4.21
			l-0.04,0.01c-0.01,1.15-0.04,2.3-0.13,3.46c-0.43,6.18-1.87,12.38-2.49,18.8c-0.17,1.63-0.2,3.27-0.23,4.84l-0.06,4.77l0.02,4.78
			l0.06,2.97c0,0,0.16,1.89,0.36,3.73c0.2,1.84,0.44,3.64,0.46,3.48c0.52,3.01,1.26,4.87,1.48,0c0.22-2.87,0.38-6.94,0.38-6.94
			l-0.06-2.72l-0.03-4.81l0.05-4.81c0.04-1.61,0.04-3.2,0.2-4.73c0.45-4.99,1.47-9.98,2.11-15.12
			C190.9,85.77,191.21,87.15,191.5,88.54z"/>
		<path fill="#40B385" d="M30.38,41.47c-3.1,3.47-5.98,7.12-8.59,10.99c-2.58,3.88-4.97,7.95-6.46,12.56
			c-0.43,1.51-0.83,3.05-0.87,4.7c0.01,0.07,0.08,0.21,0.1,0.24c0.54,0.79,1.08,0.87,1.51,0.76c0.05-0.01,0.1-0.04,0.14-0.06
			c0.11,0.32,0.33,0.58,0.53,0.76c0.07,0.08,0.1,0.08,0.16,0.09l4.39,0.7c14.02,2.22,28.05,4.39,42.11,6.39
			c7.03,1,14.07,1.95,21.11,2.84l10.57,1.29l3.94,0.46c0,0,7.51,0.4,7.2,0.3c0.36,0,0.7,0,1.02-0.01c0.02,0.12,0.04,0.23,0.06,0.36
			c0.03,0.07,0.13,0.19,0.17,0.22c0.21,0.19,0.39,0.3,0.58,0.4c0.21,0.11,0.39,0.14,0.53,0.13c0.28-0.03,0.46-0.22,0.6-0.39
			c0.15-0.18,0.29-0.34,0.42-0.43c0.12-0.15,0.21-0.3,0.27-0.41c0.05-0.08,0.04-0.1,0.03-0.15c-0.27-1.21-0.36-2.75-0.46-4.18
			c-0.18-2.76-0.23-5.58-0.49-8.43c-0.25-2.79-0.47-5.58-0.69-8.37c-0.42-5.58-0.76-11.17-1.04-16.76l-0.75-16.8l-0.57-12
			c0,0-0.87-7.49-0.92-7.17c-0.51-2.99-1.23-4.88-1.48,0c-0.22,2.88-0.28,6.96-0.28,6.96l0.17,3.49c-0.73-2.1-1.48-3.99-1.48-3.99
			l-1.06-2.24l-1.27-2.72c-0.37-0.79-0.72-1.58-1.07-2.37c0.94-0.17,1.6-0.27,1.51-0.29c2.91-0.51,4.89-1.21-0.03-1.49
			c-0.77-0.05-1.62-0.06-2.46-0.05c-0.85-0.41-1.39-0.28-1.74,0.05c-0.14,0.01-0.29,0.01-0.42,0.02c-1.39,0.11-2.42,0.19-2.42,0.19
			c-0.44,0.06-0.87,0.15-1.3,0.23l-1.88,0.36c-4.55,0.91-9.03,2.11-13.44,3.53c-4.41,1.43-8.74,3.09-12.96,5.05
			c-2.11,0.97-4.18,2.04-6.22,3.2c-2.03,1.17-3.97,2.45-5.88,3.77C43.65,28.51,36.78,34.71,30.38,41.47z M21.71,69.55l-4.38-0.7
			c-0.03,0-0.08,0.01-0.12,0.03c0.12-1.02,0.39-2.05,0.68-3.07c1.28-4,3.44-7.81,5.83-11.42c0.27,1.18,0.68,2.27,1.11,3.33
			c0.71,1.68,1.53,3.27,2.41,4.81c0.35,0.63,0.73,1.25,1.09,1.87c0,0,1.09,1.57,2.2,3.05c1.11,1.49,2.23,2.91,2.16,2.76
			c0.39,0.47,0.77,0.89,1.1,1.23C29.78,70.82,25.75,70.19,21.71,69.55z M34.97,71.63c-0.15-0.46-0.46-1.15-0.98-2.16
			c-0.63-1.3-1.44-2.83-2.08-4.05c-0.65-1.25-1.1-2.11-1.1-2.11c-0.42-0.7-0.84-1.39-1.24-2.1c-0.85-1.48-1.62-2.99-2.27-4.53
			c-0.54-1.3-1-2.64-1.15-3.88c-0.01-0.05-0.09-0.14-0.12-0.16c-0.27-0.24-0.52-0.4-0.75-0.51c1.86-2.62,3.86-5.15,5.97-7.59
			c0.06,1.16,0.26,2.28,0.52,3.36c0.86,3.33,2.26,6.36,3.76,9.3c1.52,2.93,3.18,5.76,4.9,8.54l1.13,1.82c0,0,1.1,1.52,2.19,3.02
			c0.9,1.22,1.77,2.4,2.02,2.7C42.18,72.74,38.57,72.19,34.97,71.63z M47.58,73.56c-0.12-0.27-0.25-0.57-0.41-0.91
			c-1.2-2.64-3.15-6.22-3.15-6.22l-1.31-2.09c-1.69-2.75-3.33-5.52-4.8-8.36c-1.45-2.84-2.78-5.75-3.54-8.73
			c-0.34-1.35-0.53-2.71-0.44-3.98c-0.01-0.05-0.08-0.17-0.09-0.19c-0.23-0.31-0.46-0.53-0.69-0.68c1.14-1.21,2.36-2.39,3.57-3.58
			c1-0.97,2.02-1.93,3.05-2.88l0.35,1.73c1.41,5.93,3.83,11.45,6.49,16.76c1.32,2.66,2.73,5.27,4.14,7.87l3.5,6.42
			c0,0,0.98,1.59,1.94,3.16c0.95,1.57,1.85,3.11,1.81,2.96c0.06,0.09,0.11,0.18,0.17,0.26C54.63,74.61,51.1,74.09,47.58,73.56z
			 M63.47,19.1c3.43-1.65,6.98-3.08,10.58-4.35c-0.08,0.13-0.14,0.27-0.18,0.4c-0.04,0.1-0.03,0.12-0.02,0.19
			c0.41,1.45,0.74,2.92,1.23,4.34c1.44,4.78,3.25,9.41,5.21,13.96c1.96,4.55,4.07,9.02,6.23,13.45l6.46,13.26
			c1.06,2.21,2.09,4.44,3.09,6.67l1.35,3.1c0,0,0.85,1.67,1.63,3.32c0.81,1.64,1.54,3.28,1.51,3.12c1.33,2.69,2.56,4.34,1.42-0.43
			c-0.28-1.43-0.8-3.1-1.21-4.44c-0.4-1.34-0.75-2.3-0.75-2.3l-1.15-2.66c-1.03-2.3-2.07-4.59-3.15-6.85
			c-2.15-4.54-4.38-9.03-6.57-13.52c-4.34-8.99-8.62-18.02-11.5-27.48c-0.47-1.39-0.79-2.82-1.19-4.22
			c-0.03-0.06-0.13-0.15-0.16-0.17c-0.21-0.15-0.4-0.25-0.58-0.32c0.05-0.02,0.09-0.03,0.14-0.05c2.72-0.91,5.47-1.71,8.24-2.43
			c0.86,1.13,1.63,2.35,2.39,3.59c2.45,4.13,4.48,8.56,6.34,13.06c0.94,2.25,1.82,4.53,2.69,6.81l2.23,6.03c0,0,2.98,6.91,2.93,6.6
			c1.34,2.72,2.57,4.33,1.42-0.42c-0.6-2.82-1.72-6.76-1.72-6.76l-0.85-2.33c-3.07-8.27-6.19-16.6-10.75-24.37
			c-0.6-0.98-1.22-1.94-1.89-2.89c0.62-0.14,1.23-0.29,1.85-0.43l1.63-0.35l0.82-0.15l0.62-0.12l1.25-0.23c0,0,0.45-0.1,1.12-0.25
			c0.46-0.1,1.03-0.23,1.63-0.36c0.45,1,0.89,2,1.35,2.99l1.28,2.73l0.91,1.93c0,0,0.9,1.63,1.79,3.26c0.89,1.61,1.74,3.19,1.7,3.03
			c0.26,0.45,0.52,0.87,0.75,1.23l0.17,3.62l0.76,17.1c0.28,5.7,0.62,11.41,1.05,17.11c0.22,2.85,0.45,5.7,0.7,8.55
			c0.27,2.79,0.32,5.62,0.5,8.51c0.08,0.99,0.13,1.96,0.26,2.98c-0.18-0.04-0.35-0.09-0.55-0.13c-2.79-0.71-6.8-1.45-6.8-1.45
			l-3.02-0.35l-9.55-1.16c-0.09-0.44-0.22-0.97-0.41-1.66c-0.7-2.81-2.07-6.68-2.07-6.68l-1.13-2.62l-2.8-6.29
			c-1.9-4.18-3.84-8.34-5.8-12.48L63.03,24.53l-1.9-4.02c-0.04-0.05-0.15-0.13-0.19-0.14L63.47,19.1z M57.61,22.22
			c0.36-0.21,0.72-0.41,1.09-0.61c0,0.01,0.01,0.03,0.02,0.05l1.9,4.03l11.68,24.36c1.93,4.06,3.83,8.14,5.7,12.22l2.75,6.15
			l1.31,3.02c0,0,0.84,1.68,1.66,3.32c0.83,1.64,1.62,3.26,1.59,3.1c0.2,0.37,0.4,0.72,0.58,1.04c-7.14-0.9-14.26-1.86-21.39-2.86
			c-1.6-0.23-3.2-0.46-4.8-0.69c-0.09-0.31-0.2-0.65-0.33-1.06c-0.9-2.76-2.61-6.51-2.61-6.51l-3.45-6.35
			c-1.43-2.63-2.85-5.26-4.18-7.92c-2.67-5.31-5.06-10.76-6.41-16.43l-0.42-2.11c-0.08-0.38-0.12-0.77-0.17-1.15
			c2.68-2.36,5.44-4.62,8.3-6.74c-0.11,0.17-0.19,0.35-0.24,0.51c-0.04,0.1-0.04,0.13-0.02,0.19c0.37,1.5,0.86,2.95,1.37,4.38
			c2.48,6.66,5.97,12.71,8.93,18.91c0.37,0.77,0.73,1.55,1.07,2.33l0.26,0.58l0.17,0.5l0.4,1.23l1.56,4.96
			c0.52,1.66,1.06,3.33,1.65,4.98c0.36,1.01,0.45,1.22,0.61,1.66c0.15,0.41,0.32,0.82,0.48,1.22c0,0,0.81,1.75,1.76,3.38
			c0.94,1.64,2.01,3.15,1.95,3c0.94,1.23,1.88,2.11,2.23,2.16c0.38,0.04,0.11-0.69-0.92-2.86c-0.55-1.31-1.21-2.87-1.66-4.15
			c-0.46-1.27-0.77-2.22-0.77-2.22l-0.48-1.19l-0.5-1.33c-0.59-1.63-1.13-3.29-1.67-4.96l-1.58-5.05l-0.41-1.27l-0.21-0.63
			l-0.12-0.36l-0.16-0.38c-0.36-0.82-0.73-1.64-1.12-2.44c-3.05-6.43-6.58-12.54-8.98-19.01c-0.48-1.36-0.95-2.73-1.29-4.11
			c-0.03-0.05-0.13-0.15-0.15-0.17c-0.58-0.42-1.05-0.51-1.42-0.43c0.29-0.21,0.57-0.42,0.86-0.63
			C53.87,24.61,55.73,23.36,57.61,22.22z"/>
		<path fill="#B1D34B" d="M12.74,78.2c-0.09,0.06-0.1,0.08-0.13,0.14c0,0.09-0.74,1.59-1.43,3.93c-0.11,0.36-0.23,0.72-0.35,1.1
			c-0.46,1.76-0.93,3.56-1.22,5.42c-0.64,3.71-0.93,7.58-0.88,11.55c0.15,7.94,1.64,16.2,4.23,24.36c2.17,6.71,5.08,13.39,8.67,19.8
			l0,0c5.12,9.13,11.64,17.72,19.48,25.03c3.32,3.08,6.89,5.83,10.63,8.27L51.8,178l0.08,0.3c-0.81,0.13-0.58,0.1,0,0.01l0.04,0.14
			l0.03,0.11l0.02,0.06c-0.18,0.03,0.28-0.03,0.9-0.13c2.47,1.56,5.01,2.99,7.61,4.27c-0.33,0.08-0.25,0.08,0.04,0.02
			c1.7,0.84,3.43,1.62,5.17,2.34c-0.14,0.03-0.22,0.05,0.02,0.01c7.57,3.16,15.45,5.24,23.19,6.24c2.6,0.33,5.18,0.54,7.74,0.67
			l0.66,0.82c0.9,0.93,2.7,3.95,1.74,0.78l-0.29-1.52c0.88,0.02,1.75,0.04,2.62,0.04c4.08-0.01,8.07-0.3,11.92-0.77
			c3.86-0.45,7.57-1.17,11.12-2c3.56-0.82,6.94-1.83,10.14-2.92c6.41-2.17,12.06-4.77,16.9-7.39c0.3-0.16,0.6-0.32,0.9-0.48
			c0.23-0.13,0.45-0.26,0.67-0.39l0.15-0.08c0.1-0.06,0.19-0.11,0.28-0.16c0.18-0.1,0.34-0.2,0.49-0.28
			c0.59-0.34,0.93-0.54,0.93-0.54s0.4-0.26,0.98-0.67c0.58-0.41,1.35-0.95,2.11-1.49c1.48-1.13,2.93-2.23,2.77-2.17
			c2.3-2.02,3.5-3.6-0.76-1.28c-0.23,0.12-0.46,0.24-0.7,0.36c1.9-1.18-0.24,0.09,0.59-0.45l-0.16-0.35l-0.32-0.69l-0.64-1.38
			c-0.41-0.93-0.92-1.81-1.38-2.71c-0.46-0.9-0.95-1.78-1.48-2.64c-0.52-0.86-1-1.75-1.56-2.59c-4.37-6.89-9.41-13.21-14.54-19.42
			c-0.04-0.06-0.08-0.13-0.12-0.19h0c-2.82-4.63-5.71-9.23-8.78-13.74c-0.83-1.23-1.69-2.44-2.56-3.65
			c-2.26-4.02-4.55-8.01-6.93-11.96c-1.41-2.41-2.95-4.67-4.21-7.08c-1.33-2.42-2.67-4.89-4.27-7.25c-0.81-1.17-1.65-2.34-2.62-3.42
			c-0.23-0.28-0.49-0.54-0.74-0.8l-0.44-0.46l-0.75-0.66c-0.5-0.41-1.01-0.93-1.49-1.24l-1.45-1.01l-0.35-0.24
			c1,0.04,1.7,0.06,1.61,0.03c0.55,0,1.07-0.01,1.51-0.03l1.92,3.13c7.92,12.76,16.23,25.24,24.59,37.68l21.14,31.31
			c0,0,4.53,6,4.4,5.71c1.92,2.33,3.49,3.63,1.29-0.74c-1.23-2.62-3.28-6.17-3.28-6.17l-20.9-30.98
			c-8.5-12.64-16.94-25.32-24.96-38.24l-2.32-3.78c-0.04-0.05-0.17-0.11-0.2-0.12c-1.45-0.5-1.95,0.29-2.08,0.97
			c-0.26-0.07-0.54-0.14-0.85-0.21c-2.79-0.73-6.82-1.44-6.82-1.44l-14.18-1.49c-7.42-0.77-14.82-1.59-22.22-2.5
			c-7.31-0.89-14.61-1.95-21.9-3.06l-0.17-0.6l-0.11-0.41c0.83-0.13,0.59-0.1,0-0.01l-0.01-0.04l-0.06-0.23l-0.02-0.06l-0.01-0.03
			c0.56-0.11-4.93,0.77-2.61,0.42l0,0.12l0.01,0.38c-6.45-1-12.9-2.04-19.37-3.05l-4.39-0.69c-0.06,0-0.19,0.06-0.22,0.07
			c-1.15,0.69-1.06,1.46-0.73,2.01C13.62,77.74,13.08,77.95,12.74,78.2z M11.44,101.19c-0.05-1.86-0.03-3.69,0.07-5.49
			c0.26,0.07,0.57,0.15,0.92,0.24c-0.33,2.12-0.64,4.24-0.94,6.36C11.48,101.93,11.45,101.56,11.44,101.19z M49.06,172.63
			c0.63-0.11,1.06-0.19,1.34-0.24c0.11,0.49,0.23,0.98,0.35,1.47C50.18,173.46,49.62,173.05,49.06,172.63z M55.16,176.77
			c-0.22-0.13-0.43-0.28-0.65-0.41c-0.08-1.76-0.17-3.52-0.29-5.28c0.37,1.67,0.74,3.33,1.14,4.99l0.01,0.04l0.14,0.65l0.01,0.06
			l0.01,0.03c0,0,0.01,0,0.01,0l0,0.01c-0.06,0.02-0.12,0.03-0.17,0.04C55.31,176.85,55.24,176.81,55.16,176.77z M55.39,176.9
			c0.04-0.01,0.09-0.02,0.17-0.04l0.01,0.03c4.79-1.14,1.94-0.48,2.41-0.6c0.07-0.02,0.12-0.03,0.18-0.04l-0.03-0.12l-0.05-0.23
			l-0.09-0.39l-0.06-0.29l-0.41-1.88l-0.8-3.76c-1.04-5.02-1.98-10.06-2.83-15.12c-0.77-4.71-1.5-9.45-2.09-14.16
			c0.47,2.63,0.96,5.26,1.48,7.88v0c1.77,8.95,3.78,17.83,5.79,26.7l1.06,4.67C58.52,178.72,56.94,177.84,55.39,176.9z
			 M63.22,181.09l-0.23-1.05l-0.71-3.32c-0.93-4.44-1.78-8.89-2.57-13.36c-0.8-4.47-1.54-8.95-2.26-13.43
			c-0.74-4.48-1.37-8.98-2.24-13.5c-1.22-6.33-2.66-12.58-3.92-18.83c-0.11-1.08-0.21-2.16-0.3-3.24c-0.5-5.58-0.67-11.18-0.7-16.77
			l0.11-4.19c0-0.35,0.02-0.7,0.03-1.04c2.84,9.92,3.93,20.35,4.98,30.75c0.56,5.61,1.1,11.24,1.89,16.86
			c0.38,2.81,0.88,5.65,1.42,8.39l1.6,8.31l0,0l3.29,17.1l1.58,8.21C64.53,181.7,63.87,181.4,63.22,181.09z M91.93,189.03
			c-4.16-0.42-8.37-1.11-12.55-2.15c-1.84-0.46-3.68-1-5.5-1.59l-0.06-0.31l-0.21-1.04l-0.42-2.08l-1.48-7.39
			c0.42,0.49,0.8,0.79,0.99,0.8c0.18,0.02,0.2-0.17,0.06-0.6c-0.1-0.31-0.26-0.77-0.45-1.41c0.98,0.07,1.34-0.36,1.48-0.76
			c0.14-0.44,0.09-0.87,0.05-1.16c-0.01-0.09-0.02-0.1-0.06-0.13c-0.83-0.78-1.46-1.96-1.92-3.24l-0.18-0.51
			c-0.2-0.63-0.38-1.28-0.53-1.94c0,0-0.01-0.03-0.02-0.08l-0.01-0.04l0-0.01l0-0.01l0,0h0c0.31-0.07,0.62-0.14-1.18,0.27
			l-0.08-0.38l-1.66-8.3c-0.1-0.53-0.21-1.07-0.32-1.6c-0.89-5.02-1.73-10.05-2.52-15.09v0c-0.24-1.53-0.46-3.06-0.69-4.6
			c-0.16-1.24-0.33-2.47-0.49-3.71c-0.04-0.33-0.08-0.66-0.13-0.99c1.65,8.7,3.43,17.41,6.05,25.98c1.79,5.54,3.79,10.94,5.49,16.41
			c0.2,0.65,0.38,1.3,0.57,1.95c0.25,1.01,0.51,2.02,0.76,3.03c-0.24-0.11-0.49-0.22-0.74-0.33c-0.07-0.12-0.16-0.23-0.25-0.31
			c-0.16-0.15-0.32-0.27-0.43-0.4c-0.01-0.01,0-0.01-0.01-0.02c0.11-0.2,0.09-0.17,0,0c-0.11-0.12-0.11-0.25-0.16-0.34
			c-0.03-0.06-0.06-0.06-0.1-0.06c-0.11,0.01-0.21-0.01-0.5,0.04c-0.26,0.04-0.69,0.21-0.96,0.49c-0.14,0.14-0.21,0.26-0.3,0.4
			c-0.06,0.1-0.11,0.22-0.15,0.32l-0.08,0.26l-0.01,0.03c-0.47-1.26,0.63,1.72,0.52,1.41l0,0l0,0l0,0l0.01,0.01l0,0
			c-0.31,0.57-0.44,0.81,0,0l0,0l0.02,0.01l0.06,0.04c0.05,0.04,0.1,0.07,0.16,0.11c0,0,0,0,0,0c0.27,0.19,0.53,0.38,0.81,0.55
			c0.09,0.06,0.19,0.11,0.28,0.17c-0.39,0.91-0.82,1.93-0.71,1.68l0.05,0.03l0.1,0.06l0.19,0.12l0.04,0.02c-0.22,0.52-0.3,0.71,0,0
			l0.31,0.19c-0.05,0.44-0.13,1.05-0.23,1.94l0,0l0.01,0l0.18,0.04l0.13,0.03c-0.04,0.35-0.02,0.19,0,0l0.23,0.06l2.7,0.68h0
			c2.22,0.55,4.47,1.08,6.8,1.43c1.16,0.17,2.35,0.29,3.56,0.32l0.23,0c-0.03,0.09-0.03,0.08,0,0l0.54,0l0.09,0.01l0.03,0
			c0,0.06,0,0.04,0-0.01h0.01l0.06,0l0.01,0h0.01c-0.01,1.25,0,0.29,0.01-0.81c0.11,0.03,0.22,0.06,0.34,0.09
			c1.08,0.26,2.17,0.5,3.27,0.72c0.41,0.61,0.81,1.24,1.24,1.83l0.07,0.09C93.56,189.18,92.75,189.11,91.93,189.03z M72.72,144.82
			c-0.4-1.87-0.78-3.74-1.16-5.61c2.29,9.06,4.71,18.09,7.3,27.07c1.05,3.63,2.12,7.26,3.21,10.88L81,174.38
			C77.54,164.76,74.88,154.85,72.72,144.82z M80.27,179.94c-0.03-0.01-0.06-0.03-0.09-0.04c-0.04-0.18-0.09-0.35-0.13-0.53
			L80.27,179.94z M81.42,165.53c-2.85-9.88-5.5-19.82-7.99-29.8v0c-2.71-10.89-5.17-21.84-7.39-32.84
			c2.8,10.07,4.88,20.36,7.17,30.64c1.25,5.62,2.56,11.23,4.09,16.81c1.51,5.6,3.36,11.06,5.13,16.52l0,0
			c1.79,5.44,3.62,10.87,5.6,16.26l0.03,0.08c-0.51-0.15-1.01-0.31-1.52-0.47c0-0.16,0.01-0.31-0.01-0.46
			c-0.06-0.49-0.21-0.92-0.37-1.28c-0.13-0.3-0.26-0.56-0.39-0.79C84.27,175.31,82.83,170.43,81.42,165.53z M94.43,184.55
			l-0.08-0.12l-0.23-0.4c-0.43-0.78-0.89-1.55-1.28-2.36c-0.83-1.59-1.52-3.26-2.2-4.93c-0.32-0.82-0.62-1.65-0.91-2.49
			c-0.32-1.64-0.66-3.28-1.03-4.91c-1.46-6.41-3.23-12.7-5.03-18.97c-1-4.59-1.97-9.18-2.91-13.79c1.93,5.44,3.9,10.87,5.9,16.29
			c0.94,3.27,1.9,6.48,2.76,9.75c1.9,7.09,3.53,14.26,5,21.47l0.14,0.68L94.43,184.55z M98.21,189.45l-0.22-1.16l-0.93-4.72
			c-0.51-2.48-1.04-4.95-1.59-7.42c0.12,0.26,0.23,0.53,0.36,0.81c0.84,1.88,1.79,4,1.76,3.82c1.34,2.71,2.57,4.33,1.42-0.43
			c-0.47-2.18-1.27-5.01-1.6-6.15c-0.12-0.4-0.18-0.6-0.18-0.6l-0.61-1.63l-3.27-8.76c-1.38-3.69-2.75-7.39-4.11-11.08
			c-0.08-0.29-0.17-0.57-0.25-0.86c-1.01-3.53-1.98-7.09-2.94-10.64c-0.28-1.04-0.56-2.08-0.84-3.12
			c2.87,8.47,5.89,16.89,8.96,25.28l0,0c1,2.77,2.07,5.57,3.01,8.3c0.33,1.07,0.66,2.13,1,3.2c0.56,1.9,1.09,3.83,1.66,5.77
			c0.86,2.95,1.82,5.92,3.19,8.78l0.26,0.53l0.04,0.08C101.65,189.49,99.94,189.5,98.21,189.45z M115.98,188.33
			c-3.77,0.58-7.67,0.96-11.67,1.1c0.9-0.4,1.89-0.84,1.64-0.74l-0.01-0.03l-0.02-0.07l-0.02-0.06c0.57-0.26,0.8-0.37,0-0.01
			l-0.36-1l-0.77-2.14c-0.51-1.43-1.04-2.85-1.51-4.29c-0.87-2.52-1.7-5.05-2.51-7.59c-0.3-1-0.6-2-0.93-3
			c-0.03-0.08-0.06-0.16-0.09-0.24c-0.67-2.17-1.33-4.34-1.98-6.52c-0.2-0.69-0.39-1.38-0.58-2.07c0.18,0.35,0.36,0.7,0.53,1.05
			c0.86,1.68,1.74,3.34,2.45,4.98c0.7,1.65,1.3,3.44,1.87,5.2l0.63,2.02c0,0,0.66,1.76,1.31,3.49c0.66,1.73,1.36,3.41,1.34,3.25
			c0.64,1.39,1.29,2.47,1.62,2.62c0.34,0.14,0.32-0.64-0.19-3.01c-0.27-1.41-0.62-3.11-0.91-4.46c-0.3-1.37-0.52-2.35-0.52-2.35
			l-0.75-2.38c-0.59-1.82-1.19-3.61-1.95-5.43c-0.79-1.82-1.68-3.48-2.53-5.16c-1.7-3.33-3.45-6.67-4.4-10.08
			c-0.35-1.32-0.58-2.69-0.4-3.83c0-0.05-0.05-0.15-0.07-0.17c-0.44-0.65-0.88-1.04-1.33-1.07c-0.28-0.03-0.56,0.11-0.79,0.29
			c-0.04-0.15-0.08-0.31-0.12-0.46c-1.89-7.4-3.63-14.85-5.32-22.31c1.13,3.19,2.29,6.37,3.47,9.53l6.45,17.03
			c1.08,2.85,2.18,5.64,3.12,8.49c0.95,2.85,1.82,5.74,2.69,8.65c1.74,5.81,3.46,11.68,5.83,17.38c0.29,0.71,0.59,1.42,0.92,2.12
			l0.34,0.75c-0.17,0.06-0.3,0.11,0,0.01l0.13,0.29l0.02,0.03c5.06-1.58,1.4-0.46,2.53-0.82l-0.01-0.07l-0.03-0.14l-0.05-0.28
			l-0.1-0.56l-0.83-4.5c-0.61-2.99-1.19-5.98-1.88-8.94c-0.54-2.41-1.13-4.82-1.72-7.22c1.84,5.21,3.73,10.4,5.79,15.52
			c0.53,1.38,1.11,2.73,1.67,4.1l0.85,2.04l0.36,0.88C116.79,188.19,116.39,188.26,115.98,188.33z M118.47,187.91
			c3.17-1.15,0.31-0.13,1.32-0.51l-0.01-0.03l-0.04-0.13l-0.08-0.26l-0.16-0.53c-0.85-2.82-1.69-5.65-2.6-8.45l0,0
			c-4.48-14.11-9.62-27.96-14.83-41.77c-0.59-2.06-1.18-4.11-1.76-6.17c-0.66-2.34-1.29-4.69-1.93-7.04
			c3.7,11.35,7.7,22.6,11.89,33.77c1.29,3.45,2.6,6.88,3.92,10.31c2.48,6.75,5.06,13.47,7.82,20.12
			C120.85,187.45,119.66,187.69,118.47,187.91z M97.72,92.4c0.03-0.01,0.18-0.08,0.5-0.25l0.01,0.03l0.02,0.07l0.08,0.23l0.29,0.81
			l0.42,1.17C98.63,93.77,98.17,93.09,97.72,92.4z M99.17,109.38c1.23,2.78,2.44,5.58,3.63,8.38l2.37,6.58
			c1.96,5.52,3.84,11.08,5.74,16.65c0.95,2.79,1.91,5.58,2.88,8.36c-0.62-1.44-1.24-2.87-1.85-4.31
			c-4.7-10.86-8.93-21.89-12.09-33.26C99.62,110.98,99.39,110.18,99.17,109.38z M113.97,156.54c1.85,4.33,3.65,8.67,5.33,13.05
			c-0.3-0.66-0.61-1.32-0.89-1.98c-1.11-2.66-2.27-5.3-3.28-8.01C114.73,158.58,114.35,157.56,113.97,156.54z M124.13,185.2
			l-0.41-1.05l0.13,0.23l0.54,0.96l0.15,0.26c-0.08,0.04-0.15,0.07-0.21,0.09L124.13,185.2z M123.58,167.8
			c0.86,1.97,1.71,3.94,2.53,5.92c-0.12-0.25-0.22-0.5-0.35-0.75C125.01,171.26,124.29,169.53,123.58,167.8z M124.68,186.59
			l-0.35-0.89c0.06-0.03,0.13-0.06,0.22-0.09l0.12,0.21l0.07,0.12c-0.52,0.25,4.62-1.98,2.44-1.06l-0.01-0.03l-0.02-0.07l-0.08-0.26
			l-0.6-2.12c-0.38-1.42-0.85-2.81-1.28-4.21v0c0,0,0,0,0,0c0.6,1.34,1.27,2.69,2.13,4c0.43,0.67,0.94,1.31,1.53,1.92
			c0.29,0.3,0.61,0.59,0.97,0.86c0.07,0.06,0.16,0.11,0.24,0.17C128.3,185.65,126.51,186.14,124.68,186.59z M150.16,163.11
			c2.22,3.27,4.65,6.41,7.18,9.47c-0.64,0.42-0.46,0.32,0.02,0.03c0.03,0.03,0.05,0.06,0.08,0.1l0.08,0.1
			c-0.61,0.31-1.21,0.62-1.74,0.89l-0.05-0.09c-0.69-1.18-1.39-2.35-2.09-3.51v0c-2.89-4.74-5.85-9.36-8.32-14.23l-0.3-0.58
			C146.68,157.92,148.38,160.54,150.16,163.11z M132.19,136.75c1.02,1.89,2.03,3.78,3.04,5.68l4.96,9.44
			c-0.14-0.21-0.28-0.41-0.41-0.62c-4.82-7.38-9.41-14.92-14-22.48C127.88,131.46,130.02,134.12,132.19,136.75z M120.6,128.74
			L120.6,128.74c2.67,5.01,4.79,10.32,6.99,15.64c2.2,5.32,4.39,10.67,6.99,15.88c2.59,5.2,5.52,10.32,9.43,14.8l0.72,0.84
			l0.79,0.79l0.79,0.79l0.29,0.28c-0.13,0.1-0.21,0.17,0.01,0.01l0.1,0.1l0.2,0.2l0.05,0.05l0.02,0.02c4.2-3.1,1.16-0.88,2.09-1.58
			l-0.06-0.12l-1.86-3.91c-1.24-2.6-2.52-5.19-3.8-7.77c-2.53-5.08-5.14-10.13-7.79-15.15c0.66,1.03,1.3,2.06,1.97,3.08
			c2.96,4.55,6,9.05,9.19,13.46c1.58,2.21,3.21,4.39,4.87,6.55l1.25,1.61l0.5,0.64c-0.13,0.07-0.28,0.16-0.45,0.26
			c-0.29,0.17-0.65,0.37-1.06,0.61l-0.3,0.17c-0.6,0.36-1.24,0.67-1.88,1.02c-1.27,0.7-2.6,1.35-3.97,2.02
			c-1.47,0.7-3,1.4-4.58,2.07l-0.52-1.35l-1.63-4.17c-3.05-7.73-6.26-15.38-9.49-23.02c-3.41-9.02-6.81-18.06-10.58-26.98
			C119.47,126.64,120.04,127.69,120.6,128.74z M133.15,150.76c2.66,5.04,5.28,10.11,7.82,15.21c0.28,0.57,0.55,1.13,0.83,1.7
			c-1.78-2.74-3.37-5.65-4.84-8.6C135.61,156.35,134.36,153.57,133.15,150.76z M108.27,96.17c0.87,0.97,1.66,2.05,2.41,3.15
			c1.51,2.22,2.81,4.61,4.14,7.03c1.02,1.96,2.21,3.81,3.35,5.66c-0.07-0.07-0.13-0.14-0.2-0.2c-1-0.95-1.93-1.96-2.98-2.86
			l-0.93-0.8c-1-1.28-2.09-2.69-2.49-3.18c-0.21-0.4-0.42-0.8-0.63-1.2v0l-2.29-4.41c-0.15-0.43-0.31-0.86-0.45-1.29
			c-0.2-0.64-0.43-1.28-0.6-1.93l-0.26-0.99L108.27,96.17z M107.88,108.29c1.36,2.65,2.69,5.31,3.96,8.01
			c1.26,3.61,2.55,7.22,4.03,10.76c-0.65-1.41-1.3-2.83-1.95-4.24c-2.47-5.34-4.88-10.7-7.17-16.09c-0.29-0.69-0.57-1.38-0.86-2.07
			C106.56,105.86,107.23,107.07,107.88,108.29z M116.81,138.69c4.08,10.74,7.92,21.6,12.35,32.27c1.09,2.67,2.25,5.32,3.44,7.96
			l0.33,0.74l0,0l0.11,0.25c-2.25,0.78,3.08-1.02,2.53-0.85l-0.01-0.03l-0.02-0.07l-0.03-0.13l-0.01-0.03c0.58-0.2,0.8-0.28,0-0.01
			l-0.05-0.22l-0.13-0.53l-0.53-2.11c-0.35-1.41-0.68-2.82-1.11-4.21c-0.34-1.24-0.7-2.46-1.08-3.69c0.75,1.87,1.5,3.75,2.27,5.62
			l1.74,4.13l1.83,4.1l0.13,0.29c-0.56,0.22-1.13,0.45-1.71,0.66c-1.5,0.57-3.05,1.11-4.63,1.62c0.15-0.12,0.3-0.25,0.48-0.4
			l-0.01-0.03l-0.02-0.07c-0.43-1.43-0.9-2.85-1.39-4.25c-1.97-5.61-4.41-11.01-6.76-16.38c-4.68-10.74-9.02-21.65-13.44-32.54l0,0
			c-1.9-4.68-3.83-9.35-5.8-14l-3.57-9.91l0,0c-0.74-2.11-1.45-4.22-2.14-6.34c1.26,2.18,2.48,4.39,3.66,6.63
			C108.44,117.31,112.75,127.94,116.81,138.69z M101.19,91.88c0.04-0.02,0.18-0.09,0.49-0.26l0.25,0.49l0.5,1L104,96.2
			C103.09,94.74,102.16,93.3,101.19,91.88z M99.47,89.73c0,0,2.21,0.11,4.18,0.19l0.06,0.36c0.01,0.05,0.01,0.09,0.02,0.13
			c-0.95,0.51-2.38,1.27-2.08,1.13l0.03,0.06l0,0c-0.26,0.14-0.44,0.24-0.48,0.27c-0.03-0.04-0.05-0.08-0.08-0.12l-0.31-0.47
			l-0.02-0.04c0.75-0.38,0.53-0.28-0.01-0.01l-0.12-0.19l-0.08-0.12c0.4-0.22-2.65,1.34-2.86,1.45c-0.32-0.49-0.63-0.99-0.96-1.47
			l-0.15-0.23l-0.07-0.11l-0.02-0.03c2.13-0.99-2.92,1.31-2.4,1.09l0.02,0.07l0.1,0.38c-0.07,0.03-0.13,0.06-0.19,0.09
			c-0.35-0.71-0.7-1.43-1.07-2.14l-0.5-1L92.48,89L99.47,89.73z M94.53,93.11c-0.15-0.31-0.31-0.62-0.46-0.93
			c0.05-0.02,0.11-0.05,0.18-0.08l0.04,0.14L94.53,93.11z M84.52,88.16l6.19,0.65c-0.3,0.14-0.64,0.3-1.05,0.5l0.03,0.08
			c-0.38,0.18-0.19,0.1,0,0.01l0,0.01l0,0l0,0l0.01,0.02l0.51,1.21c-0.04,0.01-0.09,0.03-0.17,0.05l-0.04-0.09l-0.02-0.06
			c-5.07,1.62-1.4,0.47-2.53,0.84l0.01,0.03l0.03,0.13l0.07,0.27l0.13,0.53l1.08,4.27c1.1,4.35,2.22,8.71,3.34,13.06
			c-0.06-0.16-0.12-0.33-0.18-0.49c-2.09-5.71-4.15-11.44-6.1-17.2l-0.73-2.16L84.82,89l-0.02-0.05l-0.04-0.14l-0.02-0.07
			c0.88-0.29,0.61-0.21-0.01-0.01l0-0.01c0.54-0.2-4.79,1.59-2.54,0.85l0.01,0.03l0.08,0.24l0.06,0.2l0.18,0.54l1.41,4.35l2.86,8.69
			c3.84,11.57,7.71,23.12,11.32,34.75v0c3.08,10,5.94,20.05,8.38,30.21c-0.18-0.61-0.37-1.22-0.55-1.83
			c-0.87-2.91-1.75-5.83-2.72-8.73c-0.96-2.91-2.08-5.77-3.15-8.59l-6.45-17.01c-4.23-11.35-8.19-22.78-11.37-34.44v0
			c-0.8-2.92-1.55-5.86-2.25-8.81l-0.36-1.55C81.27,87.81,82.89,87.99,84.52,88.16z M90.53,91.42c-0.07,0.02-0.13,0.04-0.19,0.06
			l-0.29-0.77c0.07-0.02,0.13-0.04,0.17-0.06L90.53,91.42z M76.82,87.33l0.02,0.09l0.08,0.35l0.25,1.11l1,4.45l3.92,17.84
			c1.95,8.87,3.92,17.75,6.05,26.59c-1.18-3.48-2.35-6.96-3.48-10.45c-1.93-5.79-3.48-11.6-4.93-17.55
			c-1.46-5.92-2.96-11.92-5.07-17.74l-0.81-2.17l-0.43-1.08l-0.21-0.54l-0.11-0.27l-0.05-0.13l-0.03-0.07
			c-1.15,0.26,2.56-0.63-2.58,0.58l0,0.04l0.03,0.39c-0.29,0.07-0.17,0.05,0,0.01l0.11,1.46l-0.76-1.76
			c-0.04-0.05-0.15-0.14-0.18-0.15c-0.55-0.28-0.97-0.32-1.3-0.23l-0.26-0.99l-0.21-0.81C70.86,86.65,73.84,87,76.82,87.33z
			 M75.02,102.15c-0.27-0.8-0.54-1.6-0.82-2.4c-0.03-0.25-0.06-0.51-0.09-0.76C74.41,100.04,74.73,101.09,75.02,102.15z
			 M65.79,86.05c-0.21,0.05-0.43,0.1-0.69,0.17l0.01,0.03v0c-0.42,0.1-0.21,0.06,0,0.01l0,0.01c0,0,0,0-0.01,0l0.02,0.07l0.03,0.13
			l0.04,0.15l0.04,0.15l3.94,16.7l3.94,16.7l1.97,8.35c0.65,2.78,1.31,5.58,2.05,8.36c1.24,4.71,2.59,9.39,3.93,14.05
			c0.38,1.76,0.76,3.53,1.16,5.28c0.34,1.52,0.69,3.04,1.04,4.57c-1.21-3.71-2.38-7.42-3.39-11.17c-1.51-5.51-2.81-11.08-4.05-16.68
			c-2.49-11.19-4.75-22.5-8-33.61c-0.39-1.39-0.81-2.78-1.27-4.15c-0.44-1.38-0.88-2.76-1.38-4.12c-0.49-1.36-0.95-2.74-1.51-4.08
			l-0.49-1.24C64.04,85.85,64.92,85.95,65.79,86.05z M63.98,149.12c0.37,2.27,0.83,4.51,1.28,6.74c1.08,6.09,2.23,12.16,3.47,18.22
			l1.76,8.3l0.42,1.9c-0.9-0.32-1.8-0.67-2.69-1.02l-0.01-0.07l-0.64-4.31c-1.75-11.49-3.75-22.93-5.58-34.38
			c-1.83-11.45-3.5-22.91-4.58-34.42c-0.35-3.46-0.6-6.92-0.8-10.38c0.75,3.53,1.39,7.09,1.95,10.66
			c1.03,8.57,2.18,17.13,3.46,25.67C62.61,140.39,63.23,144.76,63.98,149.12z M60.02,85.33l0.07,0.38c0.04,0.22,0.08,0.44,0.12,0.66
			c-4.97,0.9-1.31,0.25-2.46,0.47l0.01,0.06l0.01,0.12l0.19,1.93c0.27,2.78,0.59,5.55,0.93,8.32c-0.03,0-0.05,0.01-0.08,0.01
			c-0.57-2.49-1.17-4.98-1.87-7.44l-0.62-2.11l-0.15-0.51c0.81-0.13,0.58-0.1,0-0.01l0,0l-0.08-0.26l-0.02-0.07l-0.01-0.03
			c0.56-0.11-4.94,0.78-2.61,0.42l0,0.14l0.03,1.09l0.11,4.37c0.01,0.36,0.03,0.71,0.05,1.07c-0.4-1.55-0.83-3.1-1.32-4.64
			c-0.39-1.38-0.96-2.71-1.43-4.06l-0.09-0.25l-0.05-0.13c1.61-0.25-0.58,0.07-1.84,0.26c-0.88-1.3-1.87-0.76-2.33-0.24
			c-0.08,0.07-0.08,0.1-0.09,0.17c-0.15,1.08-0.42,2.15-0.48,3.23l-0.07,0.77c-0.06-0.7-0.1-1.41-0.13-2.02
			c-0.03-1.03-0.05-1.77-0.07-1.67c-0.02-0.77-0.04-1.47-0.07-2.01C50.44,84.05,55.23,84.72,60.02,85.33z M44.79,83.2
			c-0.17,0.45-0.35,1.07-0.52,1.93c-0.11,0.5-0.2,1.04-0.28,1.59l-0.26-0.7l-0.32-0.88l-0.11-0.29c0.74-0.15,0.55-0.11,0-0.01
			l-0.05-0.14l-0.08-0.22l-0.04-0.11c0.1-0.02,0-0.01-0.2,0.03c-0.11-0.51-0.23-1.02-0.36-1.52C43.31,82.99,44.05,83.09,44.79,83.2z
			 M44.47,124.41c-0.12-1.1-0.24-2.2-0.35-3.29c0.09,0.53,0.18,1.07,0.27,1.6C44.41,123.28,44.44,123.84,44.47,124.41z
			 M41.43,128.13L41.43,128.13c0.31,4.32,0.65,8.66,1.1,12.99c0.23,2.17,0.48,4.33,0.77,6.48c0.27,2.15,0.55,4.32,0.9,6.48
			c0.69,4.31,1.56,8.58,2.49,12.82l0.7,3.18l0.35,1.55c-1.13-0.89-2.25-1.8-3.34-2.76c-0.02-0.02-0.04-0.04-0.06-0.06
			c0.69-0.16,1.23-0.29,1.03-0.25l-0.01-0.02c0.63-0.15,0.9-0.22,0-0.01l-0.01-0.02l-0.04-0.18l-0.05-0.2l-0.09-0.41l-0.3-1.43
			c-0.39-1.9-0.72-3.82-1.03-5.75c-0.6-3.85-1.06-7.74-1.5-11.65l-0.33-2.95L41.66,143l-0.7-5.84c-0.44-3.9-0.82-7.8-1.15-11.71
			c-0.14-1.67-0.27-3.33-0.4-5c-0.06-1.38-0.13-2.76-0.18-4.14l-0.24-6.44l-0.11-3.23c-0.06-1.1-0.13-2.2-0.23-3.28
			c-0.14-1.63-0.32-3.25-0.48-4.86c-0.02-0.94-0.03-1.88-0.04-2.83c0.4,2.27,0.75,4.55,1.04,6.84
			C40.28,110.98,40.81,119.54,41.43,128.13z M38.88,82.31l0.04,1.64c0.03,1.02,0.08,2.04,0.11,3.05c-0.07-0.28-0.14-0.56-0.21-0.84
			l-0.42-1.58l-0.14-0.53c0.65-0.03,0.49-0.03,0-0.01l-0.07-0.25l-0.05-0.2l-0.03-0.1l-0.01-0.05l-0.01-0.02
			c0.2-0.01-0.34,0.01-1.03,0.04c-0.14-0.51-0.31-1.02-0.5-1.52C37.33,82.07,38.11,82.19,38.88,82.31z M35.55,144.22
			c-0.04-0.45-0.08-0.91-0.11-1.36l-0.11-2.57c-0.1-2.43-0.11-4.87-0.09-7.31C35.45,136.73,35.58,140.48,35.55,144.22z
			 M34.69,156.76l0,0.02c-0.16,0.01-0.26,0.02,0,0.01l0.06,0.3l0.03,0.16l0,0.02c5.26-0.3,1.46-0.09,2.63-0.17l0-0.04l0.01-0.08
			l0.13-1.31l0.27-2.62v0c0.31-3.76,0.41-7.51,0.37-11.25c0.02,0.15,0.03,0.3,0.04,0.45v0c0.82,7.87,1.99,15.71,3.72,23.46
			l0.28,1.18c-5.8-5.47-10.87-11.73-15.11-18.39c-0.85-1.33-1.66-2.69-2.44-4.05c0.18,0,0.27-0.01,0.17-0.01l0-0.02l0.02-0.29
			c0.62-0.01,0.86-0.02,0-0.01l0.02-0.21L25,142.9v0c0.85-9.7,0.66-19.38,0.46-29.01c0-0.01,0-0.01,0-0.02
			c0.41-3.56,0.89-7.12,1.38-10.68c0.05,9.05,0.02,18.13,0.44,27.23c0.15,3.53,0.42,7.06,0.73,10.59l0.27,2.64l0.07,0.66l0,0.04
			l0,0.02c1.19-0.04-2.66,0.12,2.67-0.08l0-0.08l0-0.12c0.13-0.01,0.2-0.01,0.21-0.01c0.24,1.29,0.5,2.58,0.82,3.87
			c0.18,0.85,0.48,1.68,0.71,2.52l0.19,0.63l0.01,0.04c-1.16,0.18-0.37,0.06,0.63-0.08c0.2,1.7,0.6,3.38,0.94,5.06L34.69,156.76z
			 M31.04,144.08l0-0.04l0.01-0.33l0.02-0.67c0.06,0.34,0.13,0.69,0.19,1.03C31.23,144.07,31.14,144.08,31.04,144.08z M33.64,81.49
			l-0.01,0.1l-0.07,0.73l-0.15,1.45c-0.04,0.41-0.07,0.83-0.11,1.24c-0.19-0.67-0.38-1.33-0.55-2l-0.11-0.4
			c0.68-0.06,0.51-0.05,0-0.01l-0.06-0.23l-0.09-0.32L32.46,82c0.56-0.06-4.9,0.39-2.59,0.21l0,0.02l-0.01,0.08l-0.02,0.17
			l-0.15,1.11c-0.87-0.02-1.42-0.03-0.36,0l-0.03,0.16l-0.2,1.13c-5.27-0.15-1.45-0.03-2.63-0.06l0,0.02l0,0.03l-0.03,0.25
			l-0.05,0.5c-0.15,1.33-0.28,2.65-0.44,3.98c-0.17,1.43-0.37,2.86-0.55,4.29c0.03-1.07,0.07-2.13,0.12-3.19
			c0.04-0.37,0.08-0.74,0.11-1.11c0.12-1.23,0.19-2.47,0.29-3.71L26,84.01l0.04-0.87c0.9,0.06,0.64,0.04,0-0.01l0-0.05l0-0.03
			c0.58,0.02-5.06-0.34-2.67-0.17l0,0.06l0,0.01c-0.03,0-0.04,0,0,0l-0.01,0.1l-0.02,0.23l-0.04,0.46
			c-0.21,2.22-0.35,4.44-0.46,6.66c-0.11,1.17-0.23,2.33-0.37,3.5c0.01-0.49,0.03-0.98,0.03-1.47c-0.01-1.09,0.01-2.18-0.02-3.27
			l-0.03-1.64l-0.02-0.82l-0.04-0.98l-0.07-1.62l-0.11-1.56c-0.01-0.07-0.01-0.12-0.02-0.19c0.02-0.21,0.04-0.43,0.06-0.64
			l0.05-0.75l0.03-0.38l0.01-0.19l0-0.02l0-0.01c-0.92-0.17,1.22,0.22-0.4-0.08c-0.02-0.15-0.04-0.29-0.05-0.44l-0.03-0.22
			C25.79,80.25,29.71,80.87,33.64,81.49z M21.55,129.55l0-0.03l0-0.23l0.01-0.45l0.01-0.91c0.01-0.61,0-1.21,0.04-1.82
			c0.15-4.58,0.58-9.16,1.15-13.74c0.01,0.47,0.02,0.94,0.03,1.42c-0.6,5.22-1.07,10.48-1.23,15.77
			C21.34,129.56,21.13,129.56,21.55,129.55z M19.07,79.19c0.43,0.07,0.86,0.14,1.28,0.2l-0.34,0.54c-0.1-0.02-0.17-0.03-0.28-0.05
			l-0.01,0.05l-0.03,0.09l-0.06,0.19c-0.03,0-0.05-0.01-0.07-0.01l-0.01-0.12l-0.02-0.34l-0.01-0.17l0-0.04l0-0.01
			c-1.15-0.17,2.58,0.36-2.59-0.38l-0.01,0.02l-0.03,0.08c-0.05,0.15-0.1,0.3-0.16,0.44c-0.02,0-0.03,0-0.04-0.01
			c-0.75-0.69-1.41-1.3-0.57-0.53l0,0l-0.01,0l-0.02,0.01c-0.39,0.16-0.78,0.35-1.17,0.57c0.09-0.21,0.14-0.33,0.14-0.36
			c0.01-0.06-0.01-0.2-0.02-0.23c-0.08-0.26-0.18-0.46-0.29-0.63L19.07,79.19z M19.64,80.22l-0.06,0.19l-0.01-0.2
			C19.59,80.21,19.61,80.21,19.64,80.22z M16.76,79.68c0,0.01-0.01,0.02-0.01,0.02c-0.01-0.01-0.02-0.02-0.03-0.03
			C16.73,79.68,16.74,79.68,16.76,79.68z M14.32,103.74c-0.02,1.04-0.03,2.07-0.02,3.1c0.03,1.98,0.08,3.97,0.2,5.94
			c0.05,0.99,0.13,1.98,0.19,2.96l0.13,1.48l0.03,0.37l0,0.02c-0.21,0.01-0.4,0.02,0,0l0.01,0.16c5.33-0.19,1.48-0.06,2.67-0.1
			l0-0.01l0-0.02l0-0.05l0-0.09l0.03-0.72c0.03-0.85,0.08-1.7,0.14-2.56c0.23,0,0.14,0,0,0c0.34-4.78,1.11-9.54,1.94-14.33
			c-0.22,6.11-0.6,12.25-0.77,18.42v0c-0.07,2.47-0.1,4.94-0.08,7.42c0,1.24,0.05,2.48,0.07,3.72l0,0.12l0,0.01
			c-0.21,0.01-0.4,0.02,0,0.01l0,0.04c1.57-0.03,2.34-0.04,2.68-0.05c0,0.05-0.01,0.11-0.01,0.16c-0.01,1.36-0.04,2.71-0.03,4.07
			c0.04,1.36,0.04,2.72,0.12,4.08c0.03,0.34,0.04,0.69,0.06,1.03c-2.29-4.54-4.25-9.18-5.79-13.86c-1.67-5.04-2.93-10.12-3.68-15.12
			c2.46,0.44-0.12-0.09,0.88,0.07l0.19-0.9C13.69,107.32,14.01,105.53,14.32,103.74z M13.95,84.13c-0.23,0.58-0.46,1.16-0.69,1.75
			c-0.29,0.78-0.56,1.57-0.84,2.35c0.05-0.3,0.11-0.61,0.17-0.91c0.21-0.86,0.43-1.72,0.64-2.57c0.05-0.23,0.11-0.45,0.18-0.67
			c0.04,0.01,0.07,0.03,0.11,0.04C13.68,84.17,13.82,84.16,13.95,84.13z"/>
	</g>
</g>
</svg>
