<svg width="295" height="253" viewBox="0 0 295 253" fill="none" xmlns="http://www.w3.org/2000/svg">
<path d="M64.4723 74.308L67.8723 76.988C79.6423 86.568 90.1423 97.708 99.3223 109.818C103.912 115.878 108.152 122.198 111.952 128.778C113.032 130.668 114.092 132.578 115.112 134.498C115.222 135.808 115.432 136.548 115.792 135.818C116.312 136.818 116.842 137.808 117.342 138.818L117.982 140.088L118.242 140.608L118.312 140.748L118.572 141.318L119.092 142.458C119.092 142.458 119.952 144.078 120.802 145.658C121.612 147.258 122.372 148.848 122.352 148.698C122.582 149.118 122.802 149.508 123.012 149.848L122.902 150.128C122.892 150.188 122.912 150.328 122.922 150.358C123.482 152.038 124.692 151.578 125.252 151.168C125.342 151.108 125.352 151.088 125.372 151.028L126.952 146.978C137.032 121.088 152.462 97.508 170.602 76.508C179.692 65.998 189.482 56.098 199.782 46.768L203.652 43.278L207.612 39.878L211.572 36.488L215.612 33.198L220.032 29.618C220.032 29.618 225.592 24.778 225.312 24.928C227.462 22.878 228.622 21.248 224.502 23.708C222.032 25.108 218.682 27.348 218.682 27.348C218.342 27.608 218.002 27.878 217.672 28.148L216.412 29.168C216.482 28.628 216.552 28.038 216.562 28.028C216.552 28.018 216.482 27.998 216.462 27.998C216.322 27.968 216.182 27.938 216.052 27.908L215.872 27.878L215.882 27.868H215.902C215.912 27.838 215.912 27.898 215.912 27.848L222.312 24.718C222.312 24.718 228.722 21.028 228.412 21.098C230.902 19.468 232.322 18.088 227.832 19.758C225.162 20.688 221.452 22.208 221.452 22.208L204.092 30.688C194.492 35.438 184.922 40.388 175.872 46.248C171.342 49.168 166.912 52.268 162.722 55.668C158.502 59.008 154.412 62.488 150.402 66.078C142.402 73.268 134.832 81.018 128.222 89.578C127.322 90.738 126.442 91.918 125.582 93.118C125.552 93.178 125.542 93.318 125.542 93.348C125.642 95.138 126.922 94.998 127.562 94.758C127.662 94.728 127.672 94.708 127.712 94.658C128.332 93.788 128.982 92.938 129.622 92.088C129.582 92.548 129.522 92.998 129.492 93.458C129.062 98.758 128.912 104.058 128.882 109.358C128.872 112.018 128.882 114.628 128.932 117.298L129.072 121.278L129.192 124.048C129.192 124.048 129.372 125.868 129.552 127.668C129.722 129.458 129.812 131.208 129.842 131.058C129.912 131.808 129.982 132.478 130.072 133.008C128.062 137.278 126.182 141.608 124.472 146.008L124.212 146.668C124.492 143.998 124.642 140.908 124.642 140.908L124.612 138.178C124.592 136.308 124.592 134.448 124.612 132.588C124.642 130.728 124.692 128.868 124.782 127.018C124.832 126.098 124.892 125.168 124.962 124.228C125.012 123.288 125.042 122.288 125.032 121.348C125.062 113.738 124.092 106.268 124.742 98.988C124.842 98.018 124.982 97.058 125.142 96.098C127.502 97.588 129.182 98.228 125.902 94.878C124.942 93.808 123.632 92.698 122.612 91.768C122.102 91.308 121.642 90.928 121.302 90.668C120.972 90.408 120.772 90.248 120.772 90.248L118.422 88.648C116.352 87.348 114.292 86.038 112.162 84.858C107.912 82.468 103.552 80.268 99.0323 78.418C90.0123 74.748 80.4723 71.948 70.5523 71.708C69.0623 71.608 67.5623 71.738 66.0723 71.798C66.0123 71.808 65.8923 71.888 65.8723 71.918C65.7723 72.008 65.7023 72.098 65.6323 72.188C64.0823 72.328 64.1523 73.528 64.3623 74.148C64.4023 74.258 64.4223 74.268 64.4723 74.308ZM210.502 30.768C210.402 30.728 210.312 30.698 210.212 30.658L213.812 28.898C213.762 29.328 213.712 29.708 213.712 29.708C213.712 29.708 214.072 30.358 214.132 30.348C214.252 30.468 214.432 30.568 214.642 30.638C213.092 31.888 211.562 33.158 210.022 34.438C210.182 33.398 210.582 30.878 210.592 30.838C210.592 30.808 210.522 30.778 210.502 30.768ZM203.332 39.458C203.332 39.458 203.432 38.158 203.632 36.808C203.822 35.438 204.012 34.058 204.022 34.018C204.012 33.998 203.942 33.968 203.922 33.958C203.832 33.918 203.742 33.908 203.652 33.868C203.712 33.838 203.772 33.808 203.832 33.778L207.782 31.848C207.602 33.028 207.382 34.428 207.382 34.428C207.382 34.428 207.622 35.738 207.692 35.698C207.762 35.868 207.862 36.008 207.992 36.118C206.222 37.618 204.482 39.148 202.732 40.678C203.072 40.108 203.332 39.458 203.332 39.458ZM191.012 50.678C191.012 50.678 192.002 40.528 192.012 40.388C192.002 40.358 191.932 40.308 191.912 40.298C191.782 40.218 191.662 40.198 191.532 40.138C192.912 39.388 194.302 38.648 195.692 37.918C195.582 38.518 195.472 39.178 195.372 39.868C195.122 41.648 194.952 43.378 194.952 43.378C194.952 43.378 195.162 45.528 195.222 45.448C195.432 46.318 195.942 46.948 196.662 45.638C197.152 44.878 197.542 43.758 197.542 43.758C197.542 43.758 197.722 41.998 197.962 40.268C198.082 39.408 198.222 38.548 198.352 37.908C198.492 37.278 198.582 36.838 198.582 36.818C198.572 36.798 198.512 36.748 198.492 36.738C198.392 36.678 198.292 36.638 198.192 36.588C199.192 36.078 200.192 35.578 201.192 35.068C201.132 35.468 201.072 35.928 201.012 36.378C200.822 37.738 200.702 39.148 200.702 39.148C200.702 39.148 200.782 39.568 200.872 40.008C200.972 40.428 201.092 40.848 201.122 40.808C201.272 41.148 201.492 41.418 201.742 41.468C201.032 42.098 200.292 42.708 199.592 43.348C196.582 46.038 193.632 48.788 190.722 51.578C190.912 51.078 191.012 50.678 191.012 50.678ZM183.532 58.638C184.082 55.048 184.562 51.908 184.562 51.908L184.772 49.498L184.882 48.398L185.362 44.078C185.362 44.018 185.302 43.888 185.282 43.858C185.242 43.798 185.202 43.768 185.172 43.708C186.542 42.918 187.902 42.128 189.282 41.358C189.032 43.978 188.422 50.258 188.422 50.258C188.422 50.258 188.572 53.318 188.642 53.198C188.662 53.338 188.692 53.458 188.722 53.588C186.982 55.278 185.242 56.968 183.532 58.688C183.532 58.678 183.532 58.658 183.532 58.638ZM177.472 63.708C177.882 60.898 178.272 56.928 178.272 56.928L178.372 54.508L178.532 52.038C178.632 50.598 178.762 49.168 178.922 47.738C178.922 47.688 178.872 47.588 178.852 47.548C180.092 46.758 181.332 45.968 182.602 45.208L182.282 48.138L182.172 49.258L181.992 51.358C181.992 51.358 181.952 53.228 181.972 55.048C181.982 56.878 182.072 58.658 182.102 58.508C182.152 59.058 182.212 59.568 182.272 60.008C180.592 61.728 178.902 63.458 177.262 65.218C177.322 64.818 177.392 64.318 177.472 63.708ZM172.072 70.408C172.232 66.878 172.392 63.618 172.392 63.618L172.352 61.198L172.362 56.798L172.422 52.428C172.412 52.368 172.342 52.248 172.322 52.218C172.242 52.118 172.172 52.058 172.092 51.988C173.422 51.048 174.772 50.128 176.142 49.248C176.062 50.118 175.972 50.988 175.912 51.858L175.762 54.378L175.672 56.488C175.672 56.488 175.732 58.318 175.802 60.168C175.882 61.988 176.002 63.758 176.032 63.608C176.132 64.658 176.282 65.568 176.442 66.098C174.962 67.688 173.522 69.318 172.082 70.938C172.062 70.758 172.072 70.598 172.072 70.408ZM164.172 79.938C164.692 77.128 164.992 73.108 164.992 73.108L165.012 70.668C165.042 67.508 165.072 64.358 165.192 61.228C165.252 59.798 165.322 58.358 165.422 56.938C166.852 55.828 168.292 54.728 169.762 53.658L169.722 56.798V61.248L169.752 63.358C169.752 63.358 169.902 65.218 170.102 67.038C170.302 68.858 170.582 70.628 170.602 70.468C170.732 71.088 170.862 71.648 170.992 72.118C170.512 72.658 170.012 73.188 169.532 73.738C167.702 75.838 165.902 77.968 164.132 80.128C164.152 80.038 164.162 79.988 164.172 79.938ZM158.172 87.528C158.342 84.728 158.682 80.768 158.682 80.768L158.742 78.348C158.862 74.788 159.082 71.198 159.152 67.578C159.172 66.108 159.182 64.628 159.132 63.138C159.122 63.078 159.042 62.958 159.022 62.928C158.862 62.738 158.702 62.608 158.552 62.498C159.912 61.348 161.292 60.208 162.682 59.088C162.652 59.758 162.602 60.428 162.572 61.098C162.452 64.288 162.422 67.458 162.402 70.618L162.382 72.708C162.382 72.708 162.472 74.528 162.552 76.358C162.632 78.158 162.692 79.928 162.722 79.768C162.762 80.448 162.822 81.078 162.902 81.578C161.302 83.548 159.732 85.538 158.172 87.558C158.172 87.558 158.172 87.548 158.172 87.528ZM152.042 91.568C152.192 90.198 152.302 89.248 152.302 89.248L152.412 86.808C152.462 85.638 152.482 84.418 152.452 83.258C152.462 82.118 152.452 80.908 152.432 79.748C152.392 77.408 152.322 75.098 152.392 72.828C152.442 71.408 152.532 69.988 152.712 68.598C152.712 68.538 152.652 68.418 152.632 68.388C152.522 68.218 152.412 68.078 152.302 67.948C153.702 66.698 155.112 65.468 156.522 64.248C156.542 65.338 156.542 66.438 156.522 67.538C156.452 71.088 156.242 74.668 156.122 78.278L156.072 80.388C156.072 80.388 156.142 82.258 156.292 84.088C156.432 85.918 156.692 87.708 156.712 87.548C156.822 88.098 156.932 88.608 157.052 89.038C155.252 91.398 153.502 93.788 151.782 96.198C151.782 96.108 151.772 96.018 151.772 95.918C151.782 94.548 151.902 92.888 152.042 91.568ZM145.962 96.648C145.912 90.738 145.762 84.848 145.892 78.998C145.922 77.548 145.972 76.108 146.042 74.658C146.032 74.598 145.962 74.478 145.942 74.448C145.852 74.328 145.762 74.238 145.672 74.148C147.052 72.798 148.472 71.488 149.892 70.168C149.822 71.028 149.772 71.888 149.742 72.748C149.672 75.128 149.742 77.478 149.782 79.798C149.802 80.968 149.822 82.088 149.812 83.278C149.842 84.448 149.822 85.558 149.772 86.708L149.682 88.788C149.682 88.788 149.682 90.648 149.822 92.508C149.932 94.368 150.302 96.188 150.312 96.018C150.442 96.608 150.612 97.138 150.802 97.578C148.902 100.278 147.062 103.018 145.272 105.788C145.732 102.978 145.982 99.088 145.982 99.088L145.962 96.648ZM138.262 108.288C138.162 100.398 138.872 92.468 139.552 84.518L139.922 80.148C139.922 80.118 139.902 80.088 139.892 80.048C141.022 78.838 142.192 77.668 143.352 76.488C143.322 77.298 143.282 78.108 143.272 78.918C143.142 84.858 143.292 90.768 143.352 96.658L143.372 98.748C143.372 98.748 143.482 100.578 143.602 102.388C143.702 104.188 143.792 105.948 143.822 105.798C143.882 106.528 143.952 107.198 144.042 107.718C142.002 110.938 140.042 114.208 138.152 117.518C138.152 117.498 138.152 117.478 138.152 117.458C138.232 114.308 138.332 110.678 138.332 110.678C138.272 109.898 138.282 109.088 138.262 108.288ZM131.732 121.658L131.582 117.668C131.522 115.028 131.522 112.328 131.522 109.668C131.552 104.328 131.702 98.998 132.132 93.698C132.252 92.258 132.382 90.818 132.552 89.388C132.552 89.328 132.492 89.198 132.472 89.168C132.392 89.048 132.312 88.958 132.232 88.858C133.782 86.938 135.372 85.048 137.022 83.208L136.932 84.288C136.262 92.238 135.532 100.238 135.642 108.318L135.682 110.438C135.682 110.438 135.732 110.908 135.802 111.598C135.872 112.288 135.972 113.218 136.102 114.118C136.322 115.938 136.682 117.698 136.682 117.538C136.842 118.198 137.002 118.798 137.162 119.278C135.172 122.848 133.272 126.478 131.472 130.158C131.802 127.458 131.862 124.298 131.862 124.298L131.732 121.658ZM117.202 128.808C117.372 127.448 117.452 126.438 117.452 126.438L117.492 123.758L117.482 119.448L117.362 110.868C117.272 105.158 117.242 99.478 117.632 93.838C117.692 93.038 117.772 92.248 117.852 91.458L117.992 91.558L119.022 92.258C119.022 92.258 120.602 93.168 122.092 94.158C122.322 94.298 122.552 94.448 122.772 94.588C122.472 95.978 122.292 97.378 122.142 98.768C121.492 106.338 122.432 113.728 122.432 120.988C122.442 121.898 122.412 122.788 122.382 123.678L122.202 126.438C122.102 128.298 122.042 130.158 122.012 132.018C121.982 133.878 121.982 135.728 122.002 137.578L122.042 140.638C122.042 140.638 122.142 141.948 122.262 143.428C121.892 142.398 121.612 141.668 121.612 141.668L121.072 140.488L120.802 139.898L120.672 139.598L120.602 139.448L120.312 138.868L117.652 133.618L116.732 131.948C116.922 130.878 117.092 129.758 117.202 128.808ZM103.162 86.178C103.202 85.198 103.272 84.218 103.352 83.248C105.022 84.048 106.672 84.888 108.302 85.758L108.252 88.988C108.222 95.408 108.442 101.808 108.632 108.188L108.692 110.278C108.692 110.278 109.312 117.638 109.352 117.328C109.702 120.268 110.302 122.188 110.812 117.398C111.172 114.578 111.332 110.548 111.332 110.548L111.262 108.108C111.072 101.718 110.862 95.358 110.892 89.008L110.922 87.188L113.322 88.568L115.362 89.848C115.222 91.118 115.102 92.388 115.012 93.658C114.622 99.328 114.642 104.998 114.732 110.628L114.862 119.048L114.872 123.248L114.842 126.048C114.842 126.048 114.892 127.268 114.932 128.688L114.822 128.488C111.422 122.558 107.672 116.838 103.662 111.318C103.662 111.238 103.672 111.168 103.672 111.088C103.862 108.248 103.802 104.228 103.802 104.228L103.612 101.798C103.232 96.558 102.942 91.348 103.162 86.178ZM94.6923 79.558C94.6123 79.618 94.5423 79.688 94.4823 79.758C94.4023 79.838 94.3923 79.858 94.3823 79.928C94.0823 81.478 93.9923 83.008 93.9623 84.518C93.9423 85.668 93.9923 86.798 94.0423 87.928L94.1923 90.048C94.1923 90.048 94.4523 91.908 94.7623 93.698C95.0723 95.488 95.3623 97.228 95.3723 97.068C95.9423 99.948 96.6623 101.858 96.8323 97.018C96.9023 95.588 96.8823 93.878 96.8623 92.518C96.8423 91.098 96.8323 90.168 96.8323 90.168L96.6623 87.778C96.6123 86.698 96.5723 85.608 96.5923 84.548C96.6123 83.148 96.7123 81.748 96.9623 80.438C97.1723 80.518 97.3923 80.598 97.6023 80.688C98.6823 81.138 99.7523 81.598 100.812 82.078C100.672 83.408 100.582 84.748 100.522 86.088C100.302 91.428 100.602 96.738 100.992 101.998L101.152 104.088C101.152 104.088 101.532 106.768 101.832 108.828C98.2623 104.078 94.4923 99.478 90.5323 95.058C90.6523 94.648 90.7423 93.828 90.7823 92.408C90.8423 90.978 90.8123 89.268 90.7823 87.908C90.7523 86.478 90.7323 85.558 90.7323 85.558L90.5323 83.158L90.5023 82.508C90.4123 81.078 90.3823 79.658 90.4223 78.258C90.4123 78.198 90.3423 78.078 90.3223 78.058C91.7923 78.518 93.2523 79.018 94.6923 79.558ZM88.4223 77.448C88.1923 77.598 87.9923 77.798 87.8723 77.988C87.8023 78.068 87.8023 78.098 87.8023 78.168C87.7623 79.678 87.8023 81.178 87.8923 82.658L87.9323 83.328L88.1023 85.448C88.1023 85.448 88.4023 87.248 88.7023 89.078C89.0223 90.868 89.3223 92.598 89.3423 92.448C89.4723 93.098 89.6223 93.698 89.7623 94.178C88.0523 92.298 86.3023 90.448 84.5223 88.638C84.5923 88.448 84.6523 88.228 84.7123 87.908C84.9723 86.768 85.0323 85.178 85.0323 85.178C85.0323 85.178 84.1623 78.438 83.8823 76.208C85.3923 76.568 86.9123 76.988 88.4223 77.448ZM78.6923 75.208C78.6923 75.188 78.6923 75.178 78.6923 75.168C79.5823 75.318 80.4723 75.468 81.3623 75.648C81.3223 75.678 81.2523 75.708 81.2223 75.738C81.1623 75.778 81.1623 75.788 81.1623 75.808C81.1823 75.938 82.4023 85.368 82.4023 85.368C82.4023 85.368 82.6423 86.218 82.8723 86.968C81.6623 85.768 80.4323 84.588 79.1923 83.418C79.3723 82.538 79.3923 81.578 79.3923 81.578C79.3923 81.578 79.3023 81.088 79.1723 80.348C79.0423 79.618 78.8723 78.658 78.7623 77.728C78.6523 76.788 78.6323 75.878 78.6923 75.208ZM76.0823 74.788C76.0723 74.858 76.0723 74.918 76.0623 74.998C75.9923 75.838 76.0223 76.918 76.1423 77.958C76.2623 78.998 76.4423 79.988 76.5723 80.718C76.5923 80.848 76.6123 80.948 76.6323 81.068C75.8123 80.328 74.9923 79.568 74.1623 78.848C74.1923 78.438 74.1823 78.118 74.1823 78.118C74.1823 78.118 73.7423 76.668 73.5523 75.278C73.5123 75.018 73.5023 74.768 73.4823 74.518C74.3523 74.588 75.2223 74.678 76.0823 74.788ZM70.5123 74.358C70.6223 74.358 70.7223 74.368 70.8323 74.378C70.8423 74.778 70.8823 75.198 70.9523 75.608C70.9823 75.818 71.0123 76.018 71.0523 76.218C70.5423 75.798 70.0423 75.358 69.5323 74.938L68.7823 74.348C69.3523 74.328 69.9323 74.318 70.5123 74.358Z" fill="#40B385"/>
<path d="M42.9887 176.49V193.552H40.0473V176.49H42.9887ZM40.0942 175.353L42.3793 171.826H45.5668L42.3793 175.353H40.0942ZM49.5485 183.58V193.552H46.7243V180.873H49.3844L49.5485 183.58ZM49.0446 186.744L48.1305 186.732C48.1383 185.834 48.2633 185.009 48.5055 184.259C48.7555 183.509 49.0993 182.865 49.5368 182.326C49.9821 181.787 50.5133 181.373 51.1305 181.084C51.7477 180.787 52.4352 180.638 53.193 180.638C53.8024 180.638 54.3532 180.724 54.8454 180.896C55.3454 181.06 55.7712 181.33 56.1227 181.705C56.4821 182.08 56.7555 182.568 56.943 183.17C57.1305 183.763 57.2243 184.494 57.2243 185.361V193.552H54.3883V185.349C54.3883 184.74 54.2985 184.259 54.1188 183.908C53.9469 183.549 53.693 183.295 53.3571 183.146C53.029 182.99 52.6188 182.912 52.1266 182.912C51.6422 182.912 51.2087 183.013 50.8258 183.216C50.443 183.42 50.1188 183.697 49.8532 184.049C49.5954 184.4 49.3962 184.806 49.2555 185.267C49.1149 185.728 49.0446 186.22 49.0446 186.744ZM68.2255 190.927V175.552H71.0614V193.552H68.495L68.2255 190.927ZM59.9755 187.353V187.107C59.9755 186.146 60.0887 185.271 60.3153 184.482C60.5419 183.685 60.87 183.002 61.2997 182.431C61.7294 181.853 62.2528 181.412 62.87 181.107C63.4872 180.795 64.1825 180.638 64.9559 180.638C65.7216 180.638 66.3934 180.787 66.9716 181.084C67.5497 181.381 68.0419 181.806 68.4481 182.361C68.8544 182.908 69.1786 183.564 69.4208 184.33C69.663 185.088 69.8348 185.931 69.9364 186.861V187.646C69.8348 188.552 69.663 189.381 69.4208 190.131C69.1786 190.881 68.8544 191.529 68.4481 192.076C68.0419 192.623 67.5458 193.045 66.9598 193.341C66.3817 193.638 65.7059 193.787 64.9325 193.787C64.1669 193.787 63.4755 193.627 62.8583 193.306C62.2489 192.986 61.7294 192.537 61.2997 191.959C60.87 191.381 60.5419 190.701 60.3153 189.92C60.0887 189.131 59.9755 188.275 59.9755 187.353ZM62.7997 187.107V187.353C62.7997 187.931 62.8505 188.47 62.952 188.97C63.0614 189.47 63.2294 189.912 63.4559 190.295C63.6825 190.67 63.9755 190.966 64.3348 191.185C64.702 191.396 65.1395 191.502 65.6473 191.502C66.288 191.502 66.8153 191.361 67.2294 191.08C67.6434 190.799 67.9677 190.42 68.202 189.943C68.4442 189.459 68.6083 188.92 68.6942 188.326V186.205C68.6473 185.744 68.5497 185.314 68.4012 184.916C68.2606 184.517 68.0692 184.17 67.827 183.873C67.5848 183.568 67.2841 183.334 66.9247 183.17C66.5731 182.998 66.1552 182.912 65.6708 182.912C65.1552 182.912 64.7177 183.021 64.3583 183.24C63.9989 183.459 63.702 183.759 63.4677 184.142C63.2411 184.525 63.0731 184.97 62.9637 185.478C62.8544 185.986 62.7997 186.529 62.7997 187.107ZM77.422 180.873V193.552H74.586V180.873H77.422ZM74.3985 177.545C74.3985 177.115 74.5392 176.759 74.8204 176.478C75.1095 176.189 75.5079 176.045 76.0157 176.045C76.5157 176.045 76.9102 176.189 77.1993 176.478C77.4884 176.759 77.6329 177.115 77.6329 177.545C77.6329 177.966 77.4884 178.318 77.1993 178.599C76.9102 178.881 76.5157 179.021 76.0157 179.021C75.5079 179.021 75.1095 178.881 74.8204 178.599C74.5392 178.318 74.3985 177.966 74.3985 177.545ZM86.0794 191.537C86.5403 191.537 86.9544 191.447 87.3216 191.267C87.6966 191.08 87.9974 190.822 88.2239 190.494C88.4583 190.166 88.5872 189.787 88.6107 189.357H91.2708C91.2552 190.177 91.013 190.924 90.5442 191.595C90.0755 192.267 89.4544 192.802 88.681 193.201C87.9075 193.591 87.0521 193.787 86.1146 193.787C85.1458 193.787 84.3021 193.623 83.5833 193.295C82.8646 192.959 82.2669 192.498 81.7903 191.912C81.3138 191.326 80.9544 190.65 80.7122 189.884C80.4778 189.119 80.3607 188.299 80.3607 187.424V187.013C80.3607 186.138 80.4778 185.318 80.7122 184.552C80.9544 183.779 81.3138 183.099 81.7903 182.513C82.2669 181.927 82.8646 181.47 83.5833 181.142C84.3021 180.806 85.1419 180.638 86.1028 180.638C87.1185 180.638 88.0091 180.841 88.7747 181.248C89.5403 181.646 90.1419 182.205 90.5794 182.924C91.0247 183.634 91.2552 184.463 91.2708 185.408H88.6107C88.5872 184.939 88.47 184.517 88.2591 184.142C88.056 183.759 87.7669 183.455 87.3919 183.228C87.0247 183.002 86.5833 182.888 86.0677 182.888C85.4974 182.888 85.0247 183.006 84.6497 183.24C84.2747 183.466 83.9817 183.779 83.7708 184.177C83.5599 184.568 83.4075 185.009 83.3138 185.502C83.2278 185.986 83.1849 186.49 83.1849 187.013V187.424C83.1849 187.947 83.2278 188.455 83.3138 188.947C83.3997 189.439 83.5482 189.881 83.7591 190.271C83.9778 190.654 84.2747 190.963 84.6497 191.197C85.0247 191.424 85.5013 191.537 86.0794 191.537ZM99.4126 193.787C98.4751 193.787 97.6275 193.634 96.8697 193.33C96.1197 193.017 95.479 192.584 94.9478 192.029C94.4243 191.474 94.022 190.822 93.7407 190.072C93.4595 189.322 93.3189 188.513 93.3189 187.646V187.177C93.3189 186.185 93.4634 185.287 93.7525 184.482C94.0415 183.677 94.4439 182.99 94.9595 182.42C95.4751 181.841 96.0845 181.4 96.7876 181.095C97.4907 180.791 98.2525 180.638 99.0728 180.638C99.979 180.638 100.772 180.791 101.452 181.095C102.131 181.4 102.694 181.83 103.139 182.384C103.592 182.931 103.928 183.584 104.147 184.341C104.374 185.099 104.487 185.935 104.487 186.849V188.056H94.69V186.029H101.698V185.806C101.682 185.299 101.581 184.822 101.393 184.377C101.213 183.931 100.936 183.572 100.561 183.299C100.186 183.025 99.6861 182.888 99.0611 182.888C98.5923 182.888 98.1743 182.99 97.8072 183.193C97.4478 183.388 97.147 183.674 96.9048 184.049C96.6626 184.424 96.4751 184.877 96.3423 185.408C96.2173 185.931 96.1548 186.521 96.1548 187.177V187.646C96.1548 188.201 96.229 188.716 96.3775 189.193C96.5337 189.662 96.7603 190.072 97.0572 190.424C97.354 190.775 97.7134 191.052 98.1353 191.256C98.5572 191.451 99.0376 191.549 99.5767 191.549C100.256 191.549 100.862 191.412 101.393 191.138C101.924 190.865 102.385 190.478 102.776 189.978L104.264 191.42C103.991 191.818 103.635 192.201 103.198 192.568C102.76 192.927 102.225 193.22 101.592 193.447C100.967 193.674 100.241 193.787 99.4126 193.787ZM121.169 190.927V175.552H124.005V193.552H121.438L121.169 190.927ZM112.919 187.353V187.107C112.919 186.146 113.032 185.271 113.259 184.482C113.485 183.685 113.813 183.002 114.243 182.431C114.673 181.853 115.196 181.412 115.813 181.107C116.431 180.795 117.126 180.638 117.899 180.638C118.665 180.638 119.337 180.787 119.915 181.084C120.493 181.381 120.985 181.806 121.392 182.361C121.798 182.908 122.122 183.564 122.364 184.33C122.606 185.088 122.778 185.931 122.88 186.861V187.646C122.778 188.552 122.606 189.381 122.364 190.131C122.122 190.881 121.798 191.529 121.392 192.076C120.985 192.623 120.489 193.045 119.903 193.341C119.325 193.638 118.649 193.787 117.876 193.787C117.11 193.787 116.419 193.627 115.802 193.306C115.192 192.986 114.673 192.537 114.243 191.959C113.813 191.381 113.485 190.701 113.259 189.92C113.032 189.131 112.919 188.275 112.919 187.353ZM115.743 187.107V187.353C115.743 187.931 115.794 188.47 115.895 188.97C116.005 189.47 116.173 189.912 116.399 190.295C116.626 190.67 116.919 190.966 117.278 191.185C117.645 191.396 118.083 191.502 118.591 191.502C119.231 191.502 119.759 191.361 120.173 191.08C120.587 190.799 120.911 190.42 121.145 189.943C121.388 189.459 121.552 188.92 121.638 188.326V186.205C121.591 185.744 121.493 185.314 121.345 184.916C121.204 184.517 121.013 184.17 120.77 183.873C120.528 183.568 120.228 183.334 119.868 183.17C119.517 182.998 119.099 182.912 118.614 182.912C118.099 182.912 117.661 183.021 117.302 183.24C116.942 183.459 116.645 183.759 116.411 184.142C116.185 184.525 116.017 184.97 115.907 185.478C115.798 185.986 115.743 186.529 115.743 187.107ZM132.932 193.787C131.994 193.787 131.147 193.634 130.389 193.33C129.639 193.017 128.998 192.584 128.467 192.029C127.944 191.474 127.541 190.822 127.26 190.072C126.979 189.322 126.838 188.513 126.838 187.646V187.177C126.838 186.185 126.983 185.287 127.272 184.482C127.561 183.677 127.963 182.99 128.479 182.42C128.994 181.841 129.604 181.4 130.307 181.095C131.01 180.791 131.772 180.638 132.592 180.638C133.498 180.638 134.291 180.791 134.971 181.095C135.651 181.4 136.213 181.83 136.658 182.384C137.111 182.931 137.447 183.584 137.666 184.341C137.893 185.099 138.006 185.935 138.006 186.849V188.056H128.209V186.029H135.217V185.806C135.201 185.299 135.1 184.822 134.912 184.377C134.733 183.931 134.455 183.572 134.08 183.299C133.705 183.025 133.205 182.888 132.58 182.888C132.111 182.888 131.694 182.99 131.326 183.193C130.967 183.388 130.666 183.674 130.424 184.049C130.182 184.424 129.994 184.877 129.861 185.408C129.736 185.931 129.674 186.521 129.674 187.177V187.646C129.674 188.201 129.748 188.716 129.897 189.193C130.053 189.662 130.279 190.072 130.576 190.424C130.873 190.775 131.233 191.052 131.654 191.256C132.076 191.451 132.557 191.549 133.096 191.549C133.776 191.549 134.381 191.412 134.912 191.138C135.444 190.865 135.904 190.478 136.295 189.978L137.783 191.42C137.51 191.818 137.154 192.201 136.717 192.568C136.279 192.927 135.744 193.22 135.111 193.447C134.486 193.674 133.76 193.787 132.932 193.787ZM156.27 191.279L160.758 194.841L158.848 196.517L154.442 192.99L156.27 191.279ZM160.794 184.552V185.49C160.794 186.779 160.626 187.935 160.29 188.959C159.954 189.982 159.473 190.853 158.848 191.572C158.223 192.291 157.477 192.841 156.61 193.224C155.743 193.599 154.782 193.787 153.727 193.787C152.68 193.787 151.723 193.599 150.856 193.224C149.997 192.841 149.251 192.291 148.618 191.572C147.985 190.853 147.493 189.982 147.141 188.959C146.797 187.935 146.626 186.779 146.626 185.49V184.552C146.626 183.263 146.797 182.111 147.141 181.095C147.485 180.072 147.969 179.201 148.594 178.482C149.227 177.756 149.973 177.205 150.833 176.83C151.7 176.447 152.657 176.256 153.704 176.256C154.758 176.256 155.719 176.447 156.587 176.83C157.462 177.205 158.212 177.756 158.837 178.482C159.462 179.201 159.942 180.072 160.278 181.095C160.622 182.111 160.794 183.263 160.794 184.552ZM157.84 185.49V184.529C157.84 183.576 157.747 182.736 157.559 182.009C157.379 181.275 157.11 180.662 156.751 180.17C156.399 179.67 155.965 179.295 155.45 179.045C154.942 178.787 154.36 178.658 153.704 178.658C153.063 178.658 152.489 178.787 151.981 179.045C151.473 179.295 151.04 179.67 150.68 180.17C150.321 180.662 150.047 181.275 149.86 182.009C149.672 182.736 149.579 183.576 149.579 184.529V185.49C149.579 186.443 149.672 187.287 149.86 188.021C150.047 188.756 150.321 189.377 150.68 189.884C151.047 190.384 151.485 190.763 151.993 191.021C152.508 191.271 153.087 191.396 153.727 191.396C154.383 191.396 154.965 191.271 155.473 191.021C155.981 190.763 156.411 190.384 156.762 189.884C157.114 189.377 157.379 188.756 157.559 188.021C157.747 187.287 157.84 186.443 157.84 185.49ZM171.513 190.564V180.873H174.349V193.552H171.678L171.513 190.564ZM171.912 187.927L172.861 187.904C172.861 188.756 172.767 189.541 172.58 190.259C172.392 190.97 172.103 191.591 171.713 192.123C171.322 192.646 170.822 193.056 170.213 193.353C169.603 193.642 168.873 193.787 168.021 193.787C167.404 193.787 166.838 193.697 166.322 193.517C165.806 193.338 165.361 193.06 164.986 192.685C164.619 192.31 164.334 191.822 164.131 191.22C163.928 190.619 163.826 189.9 163.826 189.064V180.873H166.65V189.088C166.65 189.549 166.705 189.935 166.814 190.248C166.924 190.552 167.072 190.799 167.26 190.986C167.447 191.174 167.666 191.306 167.916 191.384C168.166 191.463 168.431 191.502 168.713 191.502C169.517 191.502 170.15 191.345 170.611 191.033C171.08 190.713 171.412 190.283 171.607 189.744C171.81 189.205 171.912 188.599 171.912 187.927ZM184.776 191.009V184.963C184.776 184.509 184.694 184.119 184.53 183.791C184.366 183.463 184.116 183.209 183.78 183.029C183.452 182.849 183.038 182.759 182.538 182.759C182.077 182.759 181.679 182.838 181.343 182.994C181.007 183.15 180.745 183.361 180.558 183.627C180.37 183.892 180.276 184.193 180.276 184.529H177.464C177.464 184.029 177.585 183.545 177.827 183.076C178.069 182.607 178.421 182.189 178.882 181.822C179.343 181.455 179.894 181.166 180.534 180.955C181.175 180.744 181.894 180.638 182.69 180.638C183.644 180.638 184.487 180.799 185.222 181.119C185.964 181.439 186.546 181.924 186.968 182.572C187.397 183.213 187.612 184.017 187.612 184.986V190.623C187.612 191.201 187.651 191.72 187.73 192.181C187.815 192.634 187.937 193.029 188.093 193.365V193.552H185.198C185.065 193.248 184.96 192.861 184.882 192.392C184.812 191.916 184.776 191.455 184.776 191.009ZM185.187 185.841L185.21 187.588H183.183C182.659 187.588 182.198 187.638 181.8 187.74C181.401 187.834 181.069 187.974 180.804 188.162C180.538 188.349 180.339 188.576 180.206 188.841C180.073 189.107 180.007 189.408 180.007 189.744C180.007 190.08 180.085 190.388 180.241 190.67C180.397 190.943 180.624 191.158 180.921 191.314C181.226 191.47 181.593 191.549 182.022 191.549C182.601 191.549 183.105 191.431 183.534 191.197C183.972 190.955 184.315 190.662 184.565 190.318C184.815 189.966 184.948 189.634 184.964 189.322L185.878 190.576C185.784 190.896 185.624 191.24 185.397 191.607C185.171 191.974 184.874 192.326 184.507 192.662C184.147 192.99 183.714 193.259 183.206 193.47C182.706 193.681 182.128 193.787 181.472 193.787C180.644 193.787 179.905 193.623 179.257 193.295C178.608 192.959 178.101 192.509 177.733 191.947C177.366 191.377 177.183 190.732 177.183 190.013C177.183 189.341 177.308 188.748 177.558 188.232C177.815 187.709 178.19 187.271 178.683 186.92C179.183 186.568 179.792 186.302 180.511 186.123C181.23 185.935 182.05 185.841 182.972 185.841H185.187ZM193.973 175.552V193.552H191.137V175.552H193.973ZM200.474 180.873V193.552H197.638V180.873H200.474ZM197.451 177.545C197.451 177.115 197.591 176.759 197.873 176.478C198.162 176.189 198.56 176.045 199.068 176.045C199.568 176.045 199.962 176.189 200.251 176.478C200.54 176.759 200.685 177.115 200.685 177.545C200.685 177.966 200.54 178.318 200.251 178.599C199.962 178.881 199.568 179.021 199.068 179.021C198.56 179.021 198.162 178.881 197.873 178.599C197.591 178.318 197.451 177.966 197.451 177.545ZM211.686 190.927V175.552H214.522V193.552H211.956L211.686 190.927ZM203.436 187.353V187.107C203.436 186.146 203.549 185.271 203.776 184.482C204.003 183.685 204.331 183.002 204.76 182.431C205.19 181.853 205.714 181.412 206.331 181.107C206.948 180.795 207.643 180.638 208.417 180.638C209.182 180.638 209.854 180.787 210.432 181.084C211.01 181.381 211.503 181.806 211.909 182.361C212.315 182.908 212.639 183.564 212.882 184.33C213.124 185.088 213.296 185.931 213.397 186.861V187.646C213.296 188.552 213.124 189.381 212.882 190.131C212.639 190.881 212.315 191.529 211.909 192.076C211.503 192.623 211.007 193.045 210.421 193.341C209.842 193.638 209.167 193.787 208.393 193.787C207.628 193.787 206.936 193.627 206.319 193.306C205.71 192.986 205.19 192.537 204.76 191.959C204.331 191.381 204.003 190.701 203.776 189.92C203.549 189.131 203.436 188.275 203.436 187.353ZM206.26 187.107V187.353C206.26 187.931 206.311 188.47 206.413 188.97C206.522 189.47 206.69 189.912 206.917 190.295C207.143 190.67 207.436 190.966 207.796 191.185C208.163 191.396 208.6 191.502 209.108 191.502C209.749 191.502 210.276 191.361 210.69 191.08C211.104 190.799 211.428 190.42 211.663 189.943C211.905 189.459 212.069 188.92 212.155 188.326V186.205C212.108 185.744 212.01 185.314 211.862 184.916C211.721 184.517 211.53 184.17 211.288 183.873C211.046 183.568 210.745 183.334 210.385 183.17C210.034 182.998 209.616 182.912 209.132 182.912C208.616 182.912 208.178 183.021 207.819 183.24C207.46 183.459 207.163 183.759 206.928 184.142C206.702 184.525 206.534 184.97 206.424 185.478C206.315 185.986 206.26 186.529 206.26 187.107ZM225.008 191.009V184.963C225.008 184.509 224.926 184.119 224.762 183.791C224.598 183.463 224.348 183.209 224.012 183.029C223.684 182.849 223.269 182.759 222.769 182.759C222.309 182.759 221.91 182.838 221.574 182.994C221.238 183.15 220.976 183.361 220.789 183.627C220.601 183.892 220.508 184.193 220.508 184.529H217.695C217.695 184.029 217.816 183.545 218.059 183.076C218.301 182.607 218.652 182.189 219.113 181.822C219.574 181.455 220.125 181.166 220.766 180.955C221.406 180.744 222.125 180.638 222.922 180.638C223.875 180.638 224.719 180.799 225.453 181.119C226.195 181.439 226.777 181.924 227.199 182.572C227.629 183.213 227.844 184.017 227.844 184.986V190.623C227.844 191.201 227.883 191.72 227.961 192.181C228.047 192.634 228.168 193.029 228.324 193.365V193.552H225.43C225.297 193.248 225.191 192.861 225.113 192.392C225.043 191.916 225.008 191.455 225.008 191.009ZM225.418 185.841L225.441 187.588H223.414C222.891 187.588 222.43 187.638 222.031 187.74C221.633 187.834 221.301 187.974 221.035 188.162C220.769 188.349 220.57 188.576 220.437 188.841C220.305 189.107 220.238 189.408 220.238 189.744C220.238 190.08 220.316 190.388 220.473 190.67C220.629 190.943 220.855 191.158 221.152 191.314C221.457 191.47 221.824 191.549 222.254 191.549C222.832 191.549 223.336 191.431 223.766 191.197C224.203 190.955 224.547 190.662 224.797 190.318C225.047 189.966 225.18 189.634 225.195 189.322L226.109 190.576C226.016 190.896 225.855 191.24 225.629 191.607C225.402 191.974 225.105 192.326 224.738 192.662C224.379 192.99 223.945 193.259 223.437 193.47C222.937 193.681 222.359 193.787 221.703 193.787C220.875 193.787 220.137 193.623 219.488 193.295C218.84 192.959 218.332 192.509 217.965 191.947C217.598 191.377 217.414 190.732 217.414 190.013C217.414 189.341 217.539 188.748 217.789 188.232C218.047 187.709 218.422 187.271 218.914 186.92C219.414 186.568 220.023 186.302 220.742 186.123C221.461 185.935 222.281 185.841 223.203 185.841H225.418ZM238.915 190.927V175.552H241.751V193.552H239.185L238.915 190.927ZM230.665 187.353V187.107C230.665 186.146 230.778 185.271 231.005 184.482C231.232 183.685 231.56 183.002 231.989 182.431C232.419 181.853 232.943 181.412 233.56 181.107C234.177 180.795 234.872 180.638 235.646 180.638C236.411 180.638 237.083 180.787 237.661 181.084C238.239 181.381 238.732 181.806 239.138 182.361C239.544 182.908 239.868 183.564 240.11 184.33C240.353 185.088 240.525 185.931 240.626 186.861V187.646C240.525 188.552 240.353 189.381 240.11 190.131C239.868 190.881 239.544 191.529 239.138 192.076C238.732 192.623 238.235 193.045 237.65 193.341C237.071 193.638 236.396 193.787 235.622 193.787C234.857 193.787 234.165 193.627 233.548 193.306C232.939 192.986 232.419 192.537 231.989 191.959C231.56 191.381 231.232 190.701 231.005 189.92C230.778 189.131 230.665 188.275 230.665 187.353ZM233.489 187.107V187.353C233.489 187.931 233.54 188.47 233.642 188.97C233.751 189.47 233.919 189.912 234.146 190.295C234.372 190.67 234.665 190.966 235.025 191.185C235.392 191.396 235.829 191.502 236.337 191.502C236.978 191.502 237.505 191.361 237.919 191.08C238.333 190.799 238.657 190.42 238.892 189.943C239.134 189.459 239.298 188.92 239.384 188.326V186.205C239.337 185.744 239.239 185.314 239.091 184.916C238.95 184.517 238.759 184.17 238.517 183.873C238.275 183.568 237.974 183.334 237.614 183.17C237.263 182.998 236.845 182.912 236.36 182.912C235.845 182.912 235.407 183.021 235.048 183.24C234.689 183.459 234.392 183.759 234.157 184.142C233.931 184.525 233.763 184.97 233.653 185.478C233.544 185.986 233.489 186.529 233.489 187.107ZM250.678 193.787C249.741 193.787 248.893 193.634 248.135 193.33C247.385 193.017 246.744 192.584 246.213 192.029C245.69 191.474 245.287 190.822 245.006 190.072C244.725 189.322 244.584 188.513 244.584 187.646V187.177C244.584 186.185 244.729 185.287 245.018 184.482C245.307 183.677 245.709 182.99 246.225 182.42C246.741 181.841 247.35 181.4 248.053 181.095C248.756 180.791 249.518 180.638 250.338 180.638C251.244 180.638 252.037 180.791 252.717 181.095C253.397 181.4 253.959 181.83 254.405 182.384C254.858 182.931 255.194 183.584 255.412 184.341C255.639 185.099 255.752 185.935 255.752 186.849V188.056H245.955V186.029H252.963V185.806C252.948 185.299 252.846 184.822 252.659 184.377C252.479 183.931 252.202 183.572 251.827 183.299C251.452 183.025 250.952 182.888 250.327 182.888C249.858 182.888 249.44 182.99 249.073 183.193C248.713 183.388 248.412 183.674 248.17 184.049C247.928 184.424 247.741 184.877 247.608 185.408C247.483 185.931 247.42 186.521 247.42 187.177V187.646C247.42 188.201 247.494 188.716 247.643 189.193C247.799 189.662 248.026 190.072 248.323 190.424C248.619 190.775 248.979 191.052 249.401 191.256C249.823 191.451 250.303 191.549 250.842 191.549C251.522 191.549 252.127 191.412 252.659 191.138C253.19 190.865 253.651 190.478 254.041 189.978L255.53 191.42C255.256 191.818 254.901 192.201 254.463 192.568C254.026 192.927 253.491 193.22 252.858 193.447C252.233 193.674 251.506 193.787 250.678 193.787ZM88.0671 206.763L82.9694 221.552H79.8874L86.3093 204.49H88.278L88.0671 206.763ZM92.3327 221.552L87.2233 206.763L87.0007 204.49H88.9812L95.4265 221.552H92.3327ZM92.0866 215.224V217.556H82.8054V215.224H92.0866ZM104.553 218.119C104.553 217.838 104.482 217.584 104.342 217.357C104.201 217.123 103.932 216.912 103.533 216.724C103.143 216.537 102.564 216.365 101.799 216.209C101.127 216.06 100.51 215.884 99.9472 215.681C99.3925 215.47 98.9159 215.216 98.5175 214.92C98.1191 214.623 97.8105 214.271 97.5917 213.865C97.373 213.459 97.2636 212.99 97.2636 212.459C97.2636 211.943 97.3769 211.455 97.6034 210.994C97.83 210.533 98.1542 210.127 98.5761 209.775C98.998 209.424 99.5097 209.146 100.111 208.943C100.721 208.74 101.4 208.638 102.15 208.638C103.213 208.638 104.123 208.818 104.881 209.177C105.646 209.529 106.232 210.009 106.639 210.619C107.045 211.22 107.248 211.9 107.248 212.658H104.424C104.424 212.322 104.338 212.009 104.166 211.72C104.002 211.424 103.752 211.185 103.416 211.006C103.08 210.818 102.658 210.724 102.15 210.724C101.666 210.724 101.264 210.802 100.943 210.959C100.631 211.107 100.396 211.302 100.24 211.545C100.092 211.787 100.018 212.052 100.018 212.341C100.018 212.552 100.057 212.744 100.135 212.916C100.221 213.08 100.361 213.232 100.557 213.373C100.752 213.506 101.018 213.631 101.353 213.748C101.697 213.865 102.127 213.978 102.643 214.088C103.611 214.291 104.443 214.552 105.139 214.873C105.842 215.185 106.381 215.591 106.756 216.091C107.131 216.584 107.318 217.209 107.318 217.966C107.318 218.529 107.197 219.045 106.955 219.513C106.721 219.974 106.377 220.377 105.924 220.72C105.471 221.056 104.928 221.318 104.295 221.506C103.67 221.693 102.967 221.787 102.185 221.787C101.037 221.787 100.064 221.584 99.2675 221.177C98.4706 220.763 97.8652 220.236 97.4511 219.595C97.0448 218.947 96.8417 218.275 96.8417 217.58H99.5722C99.6034 218.103 99.748 218.521 100.006 218.834C100.271 219.138 100.6 219.361 100.99 219.502C101.389 219.634 101.799 219.701 102.221 219.701C102.728 219.701 103.154 219.634 103.498 219.502C103.842 219.361 104.103 219.174 104.283 218.939C104.463 218.697 104.553 218.424 104.553 218.119ZM117.288 218.119C117.288 217.838 117.218 217.584 117.077 217.357C116.937 217.123 116.667 216.912 116.269 216.724C115.878 216.537 115.3 216.365 114.534 216.209C113.862 216.06 113.245 215.884 112.683 215.681C112.128 215.47 111.651 215.216 111.253 214.92C110.855 214.623 110.546 214.271 110.327 213.865C110.109 213.459 109.999 212.99 109.999 212.459C109.999 211.943 110.112 211.455 110.339 210.994C110.566 210.533 110.89 210.127 111.312 209.775C111.734 209.424 112.245 209.146 112.847 208.943C113.456 208.74 114.136 208.638 114.886 208.638C115.948 208.638 116.859 208.818 117.616 209.177C118.382 209.529 118.968 210.009 119.374 210.619C119.78 211.22 119.984 211.9 119.984 212.658H117.159C117.159 212.322 117.073 212.009 116.901 211.72C116.737 211.424 116.487 211.185 116.151 211.006C115.816 210.818 115.394 210.724 114.886 210.724C114.401 210.724 113.999 210.802 113.679 210.959C113.366 211.107 113.132 211.302 112.976 211.545C112.827 211.787 112.753 212.052 112.753 212.341C112.753 212.552 112.792 212.744 112.87 212.916C112.956 213.08 113.097 213.232 113.292 213.373C113.487 213.506 113.753 213.631 114.089 213.748C114.433 213.865 114.862 213.978 115.378 214.088C116.347 214.291 117.179 214.552 117.874 214.873C118.577 215.185 119.116 215.591 119.491 216.091C119.866 216.584 120.054 217.209 120.054 217.966C120.054 218.529 119.933 219.045 119.691 219.513C119.456 219.974 119.112 220.377 118.659 220.72C118.206 221.056 117.663 221.318 117.03 221.506C116.405 221.693 115.702 221.787 114.921 221.787C113.773 221.787 112.8 221.584 112.003 221.177C111.206 220.763 110.601 220.236 110.187 219.595C109.78 218.947 109.577 218.275 109.577 217.58H112.308C112.339 218.103 112.484 218.521 112.741 218.834C113.007 219.138 113.335 219.361 113.726 219.502C114.124 219.634 114.534 219.701 114.956 219.701C115.464 219.701 115.89 219.634 116.234 219.502C116.577 219.361 116.839 219.174 117.019 218.939C117.198 218.697 117.288 218.424 117.288 218.119ZM125.934 208.873V221.552H123.098V208.873H125.934ZM122.91 205.545C122.91 205.115 123.051 204.759 123.332 204.478C123.621 204.189 124.02 204.045 124.528 204.045C125.028 204.045 125.422 204.189 125.711 204.478C126 204.759 126.145 205.115 126.145 205.545C126.145 205.966 126 206.318 125.711 206.599C125.422 206.881 125.028 207.021 124.528 207.021C124.02 207.021 123.621 206.881 123.332 206.599C123.051 206.318 122.91 205.966 122.91 205.545ZM136.525 218.119C136.525 217.838 136.455 217.584 136.314 217.357C136.173 217.123 135.904 216.912 135.505 216.724C135.115 216.537 134.537 216.365 133.771 216.209C133.099 216.06 132.482 215.884 131.919 215.681C131.365 215.47 130.888 215.216 130.49 214.92C130.091 214.623 129.783 214.271 129.564 213.865C129.345 213.459 129.236 212.99 129.236 212.459C129.236 211.943 129.349 211.455 129.576 210.994C129.802 210.533 130.127 210.127 130.548 209.775C130.97 209.424 131.482 209.146 132.084 208.943C132.693 208.74 133.373 208.638 134.123 208.638C135.185 208.638 136.095 208.818 136.853 209.177C137.619 209.529 138.205 210.009 138.611 210.619C139.017 211.22 139.22 211.9 139.22 212.658H136.396C136.396 212.322 136.31 212.009 136.138 211.72C135.974 211.424 135.724 211.185 135.388 211.006C135.052 210.818 134.63 210.724 134.123 210.724C133.638 210.724 133.236 210.802 132.916 210.959C132.603 211.107 132.369 211.302 132.212 211.545C132.064 211.787 131.99 212.052 131.99 212.341C131.99 212.552 132.029 212.744 132.107 212.916C132.193 213.08 132.334 213.232 132.529 213.373C132.724 213.506 132.99 213.631 133.326 213.748C133.669 213.865 134.099 213.978 134.615 214.088C135.584 214.291 136.416 214.552 137.111 214.873C137.814 215.185 138.353 215.591 138.728 216.091C139.103 216.584 139.291 217.209 139.291 217.966C139.291 218.529 139.169 219.045 138.927 219.513C138.693 219.974 138.349 220.377 137.896 220.72C137.443 221.056 136.9 221.318 136.267 221.506C135.642 221.693 134.939 221.787 134.158 221.787C133.009 221.787 132.037 221.584 131.24 221.177C130.443 220.763 129.837 220.236 129.423 219.595C129.017 218.947 128.814 218.275 128.814 217.58H131.544C131.576 218.103 131.72 218.521 131.978 218.834C132.244 219.138 132.572 219.361 132.962 219.502C133.361 219.634 133.771 219.701 134.193 219.701C134.701 219.701 135.127 219.634 135.47 219.502C135.814 219.361 136.076 219.174 136.255 218.939C136.435 218.697 136.525 218.424 136.525 218.119ZM147.96 208.873V210.935H140.811V208.873H147.96ZM142.874 205.767H145.698V218.049C145.698 218.439 145.753 218.74 145.862 218.951C145.979 219.154 146.139 219.291 146.343 219.361C146.546 219.431 146.784 219.466 147.057 219.466C147.253 219.466 147.44 219.455 147.62 219.431C147.8 219.408 147.944 219.384 148.053 219.361L148.065 221.517C147.831 221.588 147.557 221.65 147.245 221.705C146.94 221.759 146.589 221.787 146.19 221.787C145.542 221.787 144.968 221.674 144.468 221.447C143.968 221.213 143.577 220.834 143.296 220.31C143.014 219.787 142.874 219.091 142.874 218.224V205.767ZM156.113 221.787C155.176 221.787 154.328 221.634 153.57 221.33C152.82 221.017 152.18 220.584 151.648 220.029C151.125 219.474 150.723 218.822 150.441 218.072C150.16 217.322 150.02 216.513 150.02 215.646V215.177C150.02 214.185 150.164 213.287 150.453 212.482C150.742 211.677 151.145 210.99 151.66 210.42C152.176 209.841 152.785 209.4 153.488 209.095C154.191 208.791 154.953 208.638 155.773 208.638C156.68 208.638 157.473 208.791 158.152 209.095C158.832 209.4 159.395 209.83 159.84 210.384C160.293 210.931 160.629 211.584 160.848 212.341C161.074 213.099 161.188 213.935 161.188 214.849V216.056H151.391V214.029H158.398V213.806C158.383 213.299 158.281 212.822 158.094 212.377C157.914 211.931 157.637 211.572 157.262 211.299C156.887 211.025 156.387 210.888 155.762 210.888C155.293 210.888 154.875 210.99 154.508 211.193C154.148 211.388 153.848 211.674 153.605 212.049C153.363 212.424 153.176 212.877 153.043 213.408C152.918 213.931 152.855 214.521 152.855 215.177V215.646C152.855 216.201 152.93 216.716 153.078 217.193C153.234 217.662 153.461 218.072 153.758 218.424C154.055 218.775 154.414 219.052 154.836 219.256C155.258 219.451 155.738 219.549 156.277 219.549C156.957 219.549 157.562 219.412 158.094 219.138C158.625 218.865 159.086 218.478 159.477 217.978L160.965 219.42C160.691 219.818 160.336 220.201 159.898 220.568C159.461 220.927 158.926 221.22 158.293 221.447C157.668 221.674 156.941 221.787 156.113 221.787ZM166.575 211.58V221.552H163.751V208.873H166.411L166.575 211.58ZM166.072 214.744L165.157 214.732C165.165 213.834 165.29 213.009 165.532 212.259C165.782 211.509 166.126 210.865 166.564 210.326C167.009 209.787 167.54 209.373 168.157 209.084C168.775 208.787 169.462 208.638 170.22 208.638C170.829 208.638 171.38 208.724 171.872 208.896C172.372 209.06 172.798 209.33 173.15 209.705C173.509 210.08 173.782 210.568 173.97 211.17C174.157 211.763 174.251 212.494 174.251 213.361V221.552H171.415V213.349C171.415 212.74 171.325 212.259 171.146 211.908C170.974 211.549 170.72 211.295 170.384 211.146C170.056 210.99 169.646 210.912 169.154 210.912C168.669 210.912 168.236 211.013 167.853 211.216C167.47 211.42 167.146 211.697 166.88 212.049C166.622 212.4 166.423 212.806 166.282 213.267C166.142 213.728 166.072 214.22 166.072 214.744ZM182.698 219.537C183.159 219.537 183.573 219.447 183.94 219.267C184.315 219.08 184.616 218.822 184.842 218.494C185.077 218.166 185.206 217.787 185.229 217.357H187.889C187.873 218.177 187.631 218.924 187.163 219.595C186.694 220.267 186.073 220.802 185.299 221.201C184.526 221.591 183.67 221.787 182.733 221.787C181.764 221.787 180.92 221.623 180.202 221.295C179.483 220.959 178.885 220.498 178.409 219.912C177.932 219.326 177.573 218.65 177.331 217.884C177.096 217.119 176.979 216.299 176.979 215.424V215.013C176.979 214.138 177.096 213.318 177.331 212.552C177.573 211.779 177.932 211.099 178.409 210.513C178.885 209.927 179.483 209.47 180.202 209.142C180.92 208.806 181.76 208.638 182.721 208.638C183.737 208.638 184.627 208.841 185.393 209.248C186.159 209.646 186.76 210.205 187.198 210.924C187.643 211.634 187.873 212.463 187.889 213.408H185.229C185.206 212.939 185.088 212.517 184.877 212.142C184.674 211.759 184.385 211.455 184.01 211.228C183.643 211.002 183.202 210.888 182.686 210.888C182.116 210.888 181.643 211.006 181.268 211.24C180.893 211.466 180.6 211.779 180.389 212.177C180.178 212.568 180.026 213.009 179.932 213.502C179.846 213.986 179.803 214.49 179.803 215.013V215.424C179.803 215.947 179.846 216.455 179.932 216.947C180.018 217.439 180.166 217.881 180.377 218.271C180.596 218.654 180.893 218.963 181.268 219.197C181.643 219.424 182.12 219.537 182.698 219.537ZM193.465 208.873V221.552H190.629V208.873H193.465ZM190.441 205.545C190.441 205.115 190.582 204.759 190.863 204.478C191.152 204.189 191.55 204.045 192.058 204.045C192.558 204.045 192.953 204.189 193.242 204.478C193.531 204.759 193.675 205.115 193.675 205.545C193.675 205.966 193.531 206.318 193.242 206.599C192.953 206.881 192.558 207.021 192.058 207.021C191.55 207.021 191.152 206.881 190.863 206.599C190.582 206.318 190.441 205.966 190.441 205.545ZM204.091 219.009V212.963C204.091 212.509 204.009 212.119 203.845 211.791C203.681 211.463 203.431 211.209 203.095 211.029C202.766 210.849 202.352 210.759 201.852 210.759C201.391 210.759 200.993 210.838 200.657 210.994C200.321 211.15 200.059 211.361 199.872 211.627C199.684 211.892 199.591 212.193 199.591 212.529H196.778C196.778 212.029 196.899 211.545 197.141 211.076C197.384 210.607 197.735 210.189 198.196 209.822C198.657 209.455 199.208 209.166 199.848 208.955C200.489 208.744 201.208 208.638 202.005 208.638C202.958 208.638 203.802 208.799 204.536 209.119C205.278 209.439 205.86 209.924 206.282 210.572C206.712 211.213 206.927 212.017 206.927 212.986V218.623C206.927 219.201 206.966 219.72 207.044 220.181C207.13 220.634 207.251 221.029 207.407 221.365V221.552H204.513C204.38 221.248 204.274 220.861 204.196 220.392C204.126 219.916 204.091 219.455 204.091 219.009ZM204.501 213.841L204.524 215.588H202.497C201.973 215.588 201.513 215.638 201.114 215.74C200.716 215.834 200.384 215.974 200.118 216.162C199.852 216.349 199.653 216.576 199.52 216.841C199.388 217.107 199.321 217.408 199.321 217.744C199.321 218.08 199.399 218.388 199.556 218.67C199.712 218.943 199.938 219.158 200.235 219.314C200.54 219.47 200.907 219.549 201.337 219.549C201.915 219.549 202.419 219.431 202.848 219.197C203.286 218.955 203.63 218.662 203.88 218.318C204.13 217.966 204.263 217.634 204.278 217.322L205.192 218.576C205.098 218.896 204.938 219.24 204.712 219.607C204.485 219.974 204.188 220.326 203.821 220.662C203.462 220.99 203.028 221.259 202.52 221.47C202.02 221.681 201.442 221.787 200.786 221.787C199.958 221.787 199.22 221.623 198.571 221.295C197.923 220.959 197.415 220.509 197.048 219.947C196.681 219.377 196.497 218.732 196.497 218.013C196.497 217.341 196.622 216.748 196.872 216.232C197.13 215.709 197.505 215.271 197.997 214.92C198.497 214.568 199.106 214.302 199.825 214.123C200.544 213.935 201.364 213.841 202.286 213.841H204.501ZM213.287 203.552V221.552H210.451V203.552H213.287Z" fill="#0A5F55"/>
<path d="M0.5 0.5H294.5V252.5H0.5V0.5Z" stroke="#B1D34B"/>
</svg>
