<svg width="287" height="253" viewBox="0 0 287 253" fill="none" xmlns="http://www.w3.org/2000/svg">
<path d="M169.246 18.5749C168.423 18.3373 167.6 18.1081 166.768 17.896C165.945 17.6838 165.122 17.4547 164.214 17.2935C162.449 16.988 160.752 16.8862 159.114 16.6825C157.909 16.5298 156.721 16.3346 155.686 15.9612C155.643 15.9527 155.533 15.9866 155.507 15.9951C155.142 16.1394 154.879 16.3091 154.71 16.4958C154.116 16.36 153.666 16.8183 153.454 17.1662C153.403 17.2426 153.403 17.2595 153.403 17.3189L153.53 21.0952L154.642 54.216C154.633 54.2754 154.633 54.3263 154.633 54.3857C154.625 54.4536 154.633 54.4791 154.65 54.513L155.355 75.3546C155.355 75.3546 155.949 81.7191 155.991 81.4475C156.28 83.5435 156.712 85.0116 157.043 83.1702C157.289 83.2211 157.536 83.2041 157.731 83.1617C157.824 83.1532 157.833 83.1362 157.875 83.0938L160.54 80.4122C166.946 73.9204 173.269 67.3523 179.565 60.7587L188.526 51.3053C188.781 51.4071 188.883 51.3392 188.781 51.0337L188.976 50.8301L195.688 43.6509C195.688 43.6509 199.745 38.7206 199.524 38.8733C200.772 37.1931 201.493 35.8608 200.033 36.8622C199.872 36.5142 199.473 35.9372 198.718 35.0462C197.937 34.0788 196.868 33.018 195.994 32.2034C195.111 31.3972 194.424 30.8371 194.424 30.8371C194.119 30.6165 193.813 30.3958 193.499 30.1837L192.438 29.4624C190.996 28.5204 189.528 27.6294 188.034 26.7893C185.047 25.0921 181.958 23.641 178.912 22.1644C175.806 20.6964 172.539 19.5253 169.246 18.5749ZM158.927 78.8168L157.357 80.3952C157.552 78.1295 157.637 75.5837 157.637 75.5837L157.417 69.024C158.503 70.9673 159.674 72.7918 159.674 72.7918C159.674 72.7918 160.132 73.3264 160.599 73.8271C161.066 74.3363 161.558 74.803 161.541 74.7436C161.863 75.0066 162.16 75.1933 162.398 75.2612C161.235 76.4408 160.09 77.6373 158.927 78.8168ZM162.797 74.8454C162.78 74.6417 162.712 74.3872 162.559 74.0223C162.228 73.004 161.634 71.6632 161.634 71.6632C161.634 71.6632 160.421 69.7962 159.335 67.819C158.791 66.8346 158.265 65.8333 157.892 65.078C157.714 64.6962 157.561 64.3822 157.451 64.1531C157.349 63.9324 157.289 63.7967 157.281 63.7797C157.272 63.7712 157.255 63.7712 157.23 63.7627L157.035 58.0007C158.104 59.4858 159.207 60.9454 160.353 62.3625L161.515 63.7712C161.515 63.7712 162.619 64.9508 163.747 66.0539C164.867 67.1656 166.005 68.2094 165.928 68.0906C166.819 68.8458 167.608 69.4229 167.982 69.5247C166.268 71.3152 164.528 73.0803 162.797 74.8454ZM168.194 69.321C168.118 69.0155 167.736 68.3791 166.904 67.2929C165.249 65.0186 163.45 62.5492 163.45 62.5492L162.126 60.9454C160.93 59.4603 159.776 57.9413 158.673 56.3884C158.062 55.5313 157.476 54.6573 156.908 53.7747L156.712 48.0637C156.763 48.1315 156.814 48.1994 156.865 48.2588C159.054 50.9659 161.337 53.5626 163.578 56.1678L164.749 57.534C164.749 57.534 165.835 58.6796 166.904 59.8083C167.965 60.9369 168.975 62.074 168.915 61.9552C170.655 63.7967 172.055 64.8574 169.959 61.2509C168.754 59.0954 166.666 56.2866 166.666 56.2866L165.292 54.6827C163.034 52.0606 160.769 49.4808 158.63 46.8247C157.934 45.9506 157.247 45.0681 156.577 44.1771L156.305 36.0984L157.9 38.2284C161.651 43.32 165.283 48.5474 169.272 53.5541L170.417 54.9712C170.417 54.9712 171.512 56.1508 172.624 57.2709C173.727 58.3996 174.872 59.4349 174.796 59.3246C175.492 59.9101 176.12 60.3853 176.544 60.6144C173.778 63.5336 170.994 66.4358 168.194 69.321ZM178.25 58.8578C177.817 59.3161 177.376 59.7658 176.934 60.2241C176.748 59.8592 176.374 59.3161 175.772 58.5269C174.253 56.4054 172.352 53.7662 172.352 53.7662L171.037 52.1454C167.116 47.2151 163.501 42.0047 159.725 36.8791L157.451 33.8412C157.408 33.8072 157.298 33.7648 157.272 33.7563C156.806 33.646 156.475 33.6799 156.229 33.7902L155.881 23.3525C156.305 23.8277 156.738 24.2859 157.154 24.7696C160.709 28.8769 163.934 33.2811 167.176 37.7023C168.796 39.9171 170.417 42.132 172.097 44.3298C172.929 45.433 173.795 46.5107 174.643 47.5969L176.256 49.5572C176.256 49.5572 176.527 49.8542 176.951 50.2785C177.367 50.7028 177.927 51.2714 178.479 51.8399C179.625 52.9346 180.736 53.9954 180.668 53.8681C181.16 54.2754 181.619 54.6233 181.992 54.8779L178.25 58.8578ZM182.552 54.3178C182.34 53.9954 182.051 53.588 181.644 53.0704C180.142 51.0253 178.182 48.3352 178.182 48.3352L176.722 46.5531C175.857 45.4754 174.991 44.3892 174.16 43.286C172.471 41.0882 170.825 38.8394 169.178 36.5906C165.877 32.093 162.568 27.553 158.876 23.2846C158.053 22.3172 157.196 21.3752 156.33 20.4418C156.288 20.4078 156.169 20.3739 156.144 20.3739C156.008 20.3569 155.906 20.3569 155.787 20.3569L155.72 18.3457C156.78 18.6512 157.824 18.804 158.851 18.9398C160.073 19.0925 161.269 19.1859 162.423 19.3301C163.068 20.4248 163.739 21.511 164.418 22.5803C167.167 26.8657 170.154 30.9729 173.285 34.9528C174.847 36.947 176.459 38.9073 178.08 40.8421L180.541 43.7273L182.162 45.5857C182.162 45.5857 183.299 46.7144 184.411 47.8176C185.531 48.9123 186.642 49.973 186.566 49.8542C186.6 49.8881 186.634 49.9136 186.676 49.9475L182.552 54.3178ZM187.805 48.768L187.542 49.048C186.159 47.0284 184.063 44.3128 184.063 44.3128L182.552 42.5817L180.066 39.671C178.419 37.7192 176.799 35.7505 175.229 33.7478C172.072 29.7509 169.068 25.6267 166.335 21.3498C166.03 20.8746 165.741 20.3824 165.444 19.8987L166.089 20.0599C166.887 20.2636 167.676 20.4842 168.465 20.7049C170.604 21.3158 172.7 22.0287 174.754 22.8433C174.643 23.0555 174.584 23.3016 174.575 23.5052C174.558 23.5986 174.575 23.6155 174.601 23.6665C175.212 24.8121 175.891 25.9068 176.587 26.9845C178.954 30.5995 181.653 33.909 184.36 37.1761L185.514 38.5678C185.514 38.5678 186.6 39.7219 187.669 40.8675C188.738 42.0047 189.765 43.1248 189.697 43.006C190.563 43.897 191.344 44.5929 191.666 44.6608L187.805 48.768ZM185.403 28.7071C186.014 29.9121 186.744 31.0068 187.5 32.0591L187.652 32.2628C188.017 32.7634 188.391 33.2471 188.772 33.7308C188.772 33.7308 189.85 34.9443 190.945 36.073C192.031 37.2101 193.109 38.2878 193.032 38.1775C194.874 39.9426 196.316 40.9015 194.042 37.4222C193.389 36.3869 192.54 35.1734 191.878 34.2145C191.191 33.2217 190.733 32.5513 190.733 32.5513C190.3 32.0082 189.884 31.4651 189.485 30.9135L189.349 30.7098C189.137 30.4128 188.942 30.1158 188.747 29.8188C189.417 30.2176 190.079 30.625 190.724 31.0493C191.038 31.2444 191.513 31.5669 191.573 31.6093L192.014 31.9063C192.311 32.1015 192.6 32.3052 192.888 32.5173C192.888 32.5173 194.22 33.332 195.468 34.223C196.732 35.0971 197.903 36.039 197.827 35.9287C198.582 36.4718 199.236 36.9385 199.66 37.1507C199.388 37.3628 199.057 37.6259 198.676 37.9569C196.783 39.5098 194.254 41.8774 194.254 41.8774L191.819 44.4741C191.802 44.1856 191.496 43.5152 190.733 42.2592C189.485 40.1293 187.44 37.3204 187.44 37.3204L186.099 35.7081C183.409 32.4579 180.762 29.1993 178.487 25.7286C178.114 25.1515 177.749 24.5575 177.393 23.972C177.478 24.0144 177.571 24.0483 177.656 24.0908C180.295 25.3637 182.959 26.6196 185.522 28.0113C185.446 28.181 185.412 28.3592 185.395 28.5289C185.37 28.6308 185.378 28.6477 185.403 28.7071Z" fill="#40B385"/>
<path d="M222.19 74.4974C222.105 74.3702 222.02 74.2683 221.944 74.158C221.596 72.9954 221.231 71.8413 220.858 70.6957C219.33 66.0454 217.523 61.4969 215.427 57.0672C213.331 52.6461 210.844 48.3437 207.866 44.4146C207.102 43.3878 206.304 42.395 205.49 41.4106C205.447 41.3767 205.329 41.3342 205.303 41.3342C205.04 41.2833 204.828 41.2833 204.641 41.3088C204.641 40.9778 204.056 41.2494 202.452 42.6071C202.435 42.6241 202.409 42.6411 202.392 42.658C202.316 42.5986 202.24 42.5562 202.146 42.5308C201.781 42.412 201.34 42.6156 201.077 42.8702C200.992 42.9381 200.984 42.9635 200.967 43.0314C200.848 43.3963 200.772 43.7443 200.712 44.0922C199.295 45.3396 198.031 46.5361 198.031 46.5361L191.42 53.7323C188.144 57.3049 184.86 60.8774 181.534 64.3906C178.207 67.9123 174.838 71.3916 171.436 74.8369C168.033 78.2822 164.57 81.6851 161.193 85.1983C160.319 86.1063 159.445 87.0312 158.588 87.9647C158.562 88.0071 158.537 88.1344 158.537 88.1599C158.452 89.7128 159.555 89.7213 160.124 89.577C160.209 89.5601 160.226 89.5431 160.26 89.5091C160.378 89.3819 160.506 89.2546 160.624 89.1273L162.653 92.301C164.333 94.9402 166.021 97.5708 167.71 100.201C167.804 100.728 167.897 101.109 168.007 101.237C168.075 101.33 168.177 101.296 168.279 101.093C172.301 107.372 176.332 113.643 180.439 119.872C183.231 124.115 186.074 128.324 188.951 132.516C189.069 133.119 189.222 133.416 189.4 133.178C189.477 133.288 189.545 133.39 189.621 133.5C191.174 135.758 192.761 137.99 194.356 140.221L196.257 142.844C196.257 142.844 196.766 143.446 197.42 144.218C197.538 145.483 197.776 146.111 198.132 145.067C198.192 145.135 198.243 145.203 198.302 145.262C199.312 146.459 200.347 147.596 200.288 147.477C200.89 148.105 201.45 148.622 201.841 148.911C201.985 151.202 202.358 152.501 203.071 148.631C203.097 148.512 203.122 148.385 203.139 148.258C203.487 148.037 203.979 147.681 204.65 147.129C205.651 146.391 206.712 145.338 207.56 144.498C207.985 144.074 208.35 143.709 208.613 143.446C208.859 143.166 209.003 143.005 209.003 143.005L210.76 140.68C213.636 136.683 216.114 132.423 218.227 127.993C218.728 126.873 219.288 125.778 219.738 124.633L221.104 121.213L222.292 117.725C222.699 116.562 222.979 115.366 223.327 114.186C224.6 109.434 225.457 104.563 225.746 99.6329C226.077 94.7195 225.627 89.6789 224.634 84.8843C223.972 81.6172 223.166 78.3755 222.241 75.1763C222.275 75.0151 222.284 74.8454 222.267 74.7096C222.25 74.5823 222.233 74.5569 222.19 74.4974ZM164.545 91.0621L162.508 87.8798C162.474 87.8374 162.364 87.7865 162.339 87.778C162.194 87.7271 162.067 87.7101 161.94 87.6931C162.228 87.3876 162.508 87.0822 162.805 86.7767C164.002 85.5377 165.215 84.3072 166.429 83.0853C166.335 83.7217 166.293 84.3497 166.251 84.9691C166.166 86.9888 166.276 88.9491 166.412 90.8924L166.556 92.7084C166.556 92.7084 166.683 93.5824 166.845 94.6686C166.089 93.4636 165.317 92.2586 164.545 91.0621ZM171.376 101.737C171.656 99.3783 172.097 96.3573 172.097 96.3573L172.267 94.2698C172.428 92.3859 172.598 90.4681 172.708 88.5502C172.819 86.5221 172.615 84.6127 172.624 82.7882C172.632 81.5832 172.717 80.4207 173.031 79.3854C173.031 79.3429 172.997 79.2326 172.988 79.2072C172.708 78.5707 172.352 78.2398 171.97 78.1889C171.597 78.1294 171.206 78.3416 170.96 78.5707C170.884 78.6301 170.875 78.6556 170.859 78.715C170.434 80.0982 170.358 81.4729 170.349 82.7798C170.349 84.757 170.545 86.6409 170.443 88.4229C170.341 90.2983 170.171 92.1737 170.01 94.0746L169.866 95.8821C169.866 95.8821 169.832 97.4945 169.874 99.0813C169.874 99.1832 169.883 99.285 169.883 99.3868C169.518 98.8183 169.153 98.2497 168.788 97.6811C168.839 96.7137 168.856 95.6954 168.856 94.8383C168.847 93.6333 168.839 92.7932 168.839 92.7932L168.678 90.7057C168.542 88.7963 168.44 86.8955 168.525 85.054C168.584 83.8745 168.72 82.644 169.11 81.7869C169.119 81.753 169.093 81.6596 169.085 81.6342C168.949 81.2862 168.822 81.0062 168.669 80.794C170.069 79.3939 171.461 77.9937 172.861 76.585C173.557 75.8807 174.244 75.1678 174.932 74.4635C174.804 75.2951 174.686 76.1268 174.575 76.9669C174.126 81.2099 174.058 85.4613 174.227 89.6789C174.295 91.7919 174.431 93.8964 174.575 95.9924L175.017 101.483C175.017 101.483 175.95 107.805 175.967 107.533C176.137 108.424 176.323 109.205 176.502 109.646C174.788 107.024 173.073 104.385 171.376 101.737ZM184.86 66.3339L184.852 67.9887C184.852 68.5233 184.809 69.0494 184.801 69.6265L184.759 72.9615C184.708 75.1678 184.623 77.3742 184.521 79.5805C184.309 83.9933 184.012 88.4145 183.74 92.8526L183.554 96.1961L183.443 99.5396C183.375 101.763 183.324 103.986 183.299 106.21C183.273 108.433 183.265 110.665 183.29 112.888L183.341 115.858C183.341 115.858 183.494 117.453 183.638 119.023C183.715 119.711 183.791 120.381 183.851 120.916C183.443 120.305 183.027 119.694 182.629 119.074C180.651 116.079 178.708 113.058 176.756 110.045C176.977 110.139 177.155 109.468 177.223 107.516C177.367 105.064 177.291 101.593 177.291 101.593L177.113 99.4972C176.502 92.0465 176.043 84.5618 176.833 77.2214C176.994 75.9995 177.147 74.7775 177.384 73.5725C177.384 73.5216 177.342 73.4112 177.325 73.3858C177.121 73.0209 176.901 72.8003 176.688 72.673C177.741 71.5868 178.793 70.5006 179.837 69.4059C179.786 70.1017 179.735 70.7976 179.692 71.4934C179.319 77.807 179.217 84.1205 179.251 90.4256C179.268 93.5824 179.311 96.7307 179.387 99.879L179.565 107.228C179.565 107.228 180.117 113.592 180.159 113.329C180.499 115.875 181.042 117.513 181.415 113.38C181.695 110.945 181.831 107.474 181.831 107.474L181.653 100.329C181.585 97.138 181.534 93.9388 181.517 90.7481C181.483 84.3666 181.576 77.9937 181.958 71.6377C182.026 70.3902 182.119 69.1343 182.213 67.8869C182.204 67.836 182.153 67.7256 182.136 67.7002C182.035 67.5474 181.924 67.4286 181.822 67.3353C182.153 66.9874 182.493 66.6394 182.824 66.2915C183.528 65.5447 184.232 64.7895 184.937 64.0427C184.877 64.8234 184.86 65.5957 184.86 66.3339ZM189.383 95.076L188.484 124.548C188.484 124.548 188.535 126.33 188.594 127.968C187.457 126.296 186.328 124.624 185.208 122.944C185.234 122.664 185.259 122.358 185.276 121.993C185.48 119.558 185.616 116.104 185.616 116.104L185.565 113.652C185.531 111.411 185.531 109.163 185.556 106.914C185.582 104.665 185.633 102.416 185.692 100.168C185.751 97.9103 185.819 95.6869 185.972 93.4466C186.244 88.9491 186.549 84.443 186.77 79.92C186.88 77.6627 186.973 75.397 187.024 73.1312L187.067 69.7538C187.067 69.2107 187.126 68.6336 187.126 68.0396L187.135 66.3339C187.135 65.095 187.169 63.8985 187.389 62.7953C187.389 62.7444 187.347 62.6425 187.33 62.6171C187.177 62.337 187.007 62.1419 186.846 61.9976C188.102 60.6398 189.358 59.2821 190.614 57.9243C190.487 58.6541 190.402 59.3754 190.351 60.0967L189.383 95.076ZM192.472 128.714C192.472 128.714 192.404 130.318 192.337 131.88C192.32 132.406 192.303 132.915 192.294 133.373C192.184 133.212 192.065 133.051 191.955 132.889C191.327 131.981 190.707 131.065 190.079 130.149C190.453 127.806 190.733 124.904 190.733 124.904L191.632 95.7039L192.617 60.2834C192.701 59.0784 192.88 57.9074 193.194 56.7872C193.194 56.7363 193.16 56.626 193.151 56.6005C192.981 56.2102 192.778 55.9726 192.566 55.8198C192.574 55.8113 192.574 55.8028 192.583 55.8028L194.662 53.5371C194.679 54.2923 194.78 55.0052 194.848 55.701L195.018 56.94L195.094 57.5425L195.111 57.6613V57.7546L195.12 58.0601C195.145 58.8748 195.145 59.6979 195.137 60.521C195.128 62.1673 195.069 63.8136 194.993 65.4684C194.848 68.7779 194.662 72.1214 194.696 75.5073C194.848 82.1179 194.407 88.7284 194.229 95.4154C194.127 98.7419 194.136 102.145 194.229 105.446C194.263 108.721 194.11 112.014 193.839 115.307C193.575 118.599 193.219 121.9 192.846 125.201L192.472 128.714ZM198.294 120.695C198.115 124.768 197.869 128.85 197.589 132.923L197.318 136.844C197.318 136.844 197.301 138.745 197.292 140.434L196.741 139.678C195.646 138.168 194.577 136.64 193.508 135.113C193.516 135.087 193.516 135.07 193.525 135.045C194.068 132.66 194.679 129.249 194.679 129.249L194.967 126.627C195.341 123.266 195.722 119.897 196.011 116.503C196.291 113.109 196.503 109.697 196.495 106.269C196.495 104.529 196.418 102.866 196.41 101.186C196.401 99.5056 196.427 97.8254 196.461 96.1452C196.622 89.4158 197.097 82.6355 196.953 75.8043C196.902 72.4693 197.089 69.1173 197.233 65.7229C197.309 64.0257 197.369 62.3201 197.386 60.6144C197.394 59.7573 197.386 58.9002 197.369 58.0346C197.352 57.814 197.377 57.6358 197.335 57.2964L197.25 56.6514L197.08 55.3955C196.927 54.199 196.8 52.9515 197.038 52.0945C197.038 52.0605 196.995 51.9672 196.987 51.9502C196.851 51.738 196.732 51.5514 196.605 51.3901L199.456 48.2843C199.456 48.2843 199.931 47.7072 200.542 46.9604C200.542 47.0198 200.542 47.0877 200.542 47.1471C200.551 47.6648 200.559 48.157 200.542 48.6237L200.483 50.1597L200.356 53.2231L200.101 59.3585L199.609 71.6207C199.363 79.7757 198.735 87.9392 198.531 96.1622C198.48 98.2158 198.455 100.278 198.472 102.34L198.557 108.467C198.591 112.549 198.472 116.622 198.294 120.695ZM202.155 125.524C202.078 126.601 202.011 127.662 201.96 128.723C201.883 129.784 201.815 130.853 201.764 131.939C201.671 134.094 201.629 136.233 201.603 138.371L201.561 142.385C201.561 142.385 201.629 143.972 201.697 145.534C201.722 146.255 201.747 146.959 201.764 147.511C201.637 147.282 201.501 147.044 201.332 146.764C200.721 145.712 199.957 144.447 199.337 143.455C199.108 143.09 198.896 142.759 198.726 142.487C199.185 140.162 199.575 137.311 199.575 137.311L199.762 134.553C200.042 130.395 200.313 126.236 200.509 122.07C200.704 117.903 200.831 113.72 200.848 109.536C200.856 107.449 200.814 105.344 200.772 103.273C200.738 101.22 200.763 99.1407 200.806 97.0786C200.984 88.7963 201.629 80.497 201.892 72.1468L202.392 59.6724L202.647 53.4352L202.774 50.3124L202.842 48.751C202.859 48.1909 202.851 47.6478 202.842 47.1386C202.825 45.9252 202.817 44.7286 203.097 43.8461C203.258 43.6339 203.351 43.5066 203.317 43.5406C203.479 43.3284 203.631 43.1163 203.776 42.9126C204.174 43.3878 204.548 43.8885 204.93 44.3722C204.752 44.4656 204.582 44.6013 204.471 44.7371C204.395 44.8135 204.387 44.8389 204.37 44.9153C204.064 46.4937 204.302 47.7581 204.302 48.9801L204.404 61.726L204.454 68.099L204.336 74.4974L203.852 100.1C203.827 101.169 203.818 102.23 203.818 103.282C203.801 104.334 203.776 105.386 203.733 106.439C203.64 108.543 203.496 110.656 203.317 112.769C202.944 116.995 202.469 121.238 202.155 125.524ZM207.823 129.936L207.679 131.888L207.628 132.423L207.526 133.5C207.526 133.5 207.467 135.079 207.357 136.623C207.263 138.168 207.077 139.67 207.136 139.542C207.06 140.493 207.026 141.333 207.085 141.8C207.009 141.91 206.924 142.029 206.831 142.173C206.483 142.64 206.016 143.268 205.558 143.879C204.667 145.143 203.665 146.272 203.784 146.195C203.64 146.382 203.504 146.56 203.368 146.739C203.657 144.719 203.81 142.716 203.81 142.716L203.844 139.924C203.869 137.76 203.894 135.597 203.962 133.45C204.013 131.303 204.208 129.164 204.319 126.983C204.879 118.412 206.194 109.74 206.075 100.957L206.568 74.9557L206.695 68.4554L206.652 61.9297L206.551 48.8698C206.559 48.2333 206.483 47.5799 206.474 47.0029C206.466 46.7992 206.466 46.5955 206.474 46.4004C207.908 48.3437 209.215 50.3633 210.42 52.4594C210.284 52.5272 210.166 52.6036 210.064 52.697C209.987 52.7564 209.979 52.7733 209.962 52.8327C209.538 54.1056 209.3 55.4125 209.096 56.7023C208.154 63.8985 209.325 70.8824 209.054 77.7306C209.011 84.7485 209.054 91.69 208.91 98.6486C208.842 102.128 208.723 105.599 208.536 109.061C208.341 112.566 208.273 116.07 208.197 119.55C208.129 123.02 208.044 126.483 207.823 129.936ZM222.25 84.6127C222.496 85.7668 222.716 86.9294 222.92 88.0835L223.344 91.5458C223.506 93.8709 223.616 96.2046 223.489 98.5382C223.293 103.214 222.572 107.864 221.443 112.421C220.281 116.97 218.677 121.408 216.759 125.693C214.833 129.979 212.55 134.111 209.869 137.956C209.546 138.448 209.224 138.931 208.859 139.39L208.35 140.06L208.231 140.221C208.273 140.094 208.316 139.975 208.358 139.839C208.748 138.668 209.113 137.209 209.359 136.046C209.597 134.884 209.75 134.018 209.75 134.018L209.852 132.898L209.902 132.338L209.979 131.328C210.25 127.755 210.361 124.191 210.437 120.644C210.522 117.097 210.581 113.558 210.76 110.045C210.955 106.507 211.091 102.934 211.167 99.3868C211.32 92.2841 211.294 85.1643 211.328 78.1125C211.608 70.9248 210.446 63.8051 211.345 56.9994C211.455 56.2696 211.591 55.5483 211.752 54.8439C212.27 55.8283 212.771 56.8212 213.254 57.8225C214.154 59.6979 214.986 61.6157 215.775 63.542C215.605 63.5845 215.435 63.6609 215.3 63.7542C215.206 63.8051 215.189 63.8306 215.155 63.89C214.493 65.2647 214.281 66.6225 214.154 67.9463C213.942 70.3733 214.061 72.7324 214.205 75.0575L214.426 78.5113C214.502 79.6484 214.493 80.7177 214.459 81.8887C214.358 86.4881 214.103 91.1045 213.891 95.7294C213.781 98.046 213.687 100.363 213.628 102.688C213.56 105.03 213.568 107.313 213.458 109.612L213.178 116.554L213.11 119.583C213.11 119.583 213.187 121.196 213.331 122.774C213.467 124.353 213.696 125.889 213.713 125.753C213.942 127.034 214.273 128.069 214.51 128.256C214.765 128.443 214.901 127.798 214.977 125.744C215.113 123.326 215.384 119.906 215.384 119.906L215.427 117.453C215.486 115.12 215.605 112.778 215.707 110.419C215.817 108.068 215.834 105.658 215.885 103.35C215.945 101.008 216.038 98.6655 216.14 96.3234C216.352 91.6306 216.615 86.9209 216.725 82.1942L216.759 80.4122C216.759 79.7842 216.734 79.1817 216.708 78.5792L216.479 75.0406C216.335 72.7154 216.216 70.3902 216.42 68.1754C216.488 67.4541 216.606 66.7413 216.776 66.0878C217.396 67.7002 217.99 69.3295 218.541 70.9673C218.94 72.1553 219.313 73.3434 219.678 74.5399L219.644 74.5484C219.636 75.5243 219.61 76.5001 219.534 77.4845C219.169 82.7288 217.947 87.9902 217.421 93.4382C217.277 94.8214 217.251 96.2131 217.226 97.5454L217.175 101.593L217.192 105.649L217.243 108.17C217.243 108.17 217.379 109.774 217.548 111.335C217.718 112.897 217.922 114.424 217.939 114.288C218.38 116.842 219.008 118.421 219.195 114.288C219.381 111.853 219.517 108.399 219.517 108.399L219.466 106.091L219.441 102.009L219.483 97.9272C219.517 96.561 219.517 95.2117 219.653 93.9134C220.035 89.6789 220.9 85.4444 221.443 81.0826C221.74 82.2621 222.004 83.4332 222.25 84.6127Z" fill="#40B385"/>
<path d="M85.5234 44.6692C82.8927 47.6139 80.4487 50.7113 78.2339 53.9953C76.0445 57.2879 74.0164 60.7417 72.752 64.6537C72.3871 65.9351 72.0476 67.2419 72.0137 68.6421C72.0222 68.7015 72.0816 68.8203 72.0985 68.8458C72.5568 69.5162 73.015 69.5841 73.3799 69.4907C73.4223 69.4822 73.4648 69.4568 73.4987 69.4398C73.5921 69.7114 73.7788 69.932 73.9485 70.0847C74.0079 70.1526 74.0333 70.1526 74.0843 70.1611L77.8096 70.7551C89.7069 72.639 101.613 74.4805 113.544 76.1777C119.51 77.0263 125.484 77.8324 131.458 78.5877L140.428 79.6824L143.771 80.0727C143.771 80.0727 150.144 80.4122 149.881 80.3273C150.187 80.3273 150.475 80.3273 150.747 80.3188C150.764 80.4207 150.781 80.514 150.798 80.6243C150.823 80.6837 150.908 80.7856 150.942 80.811C151.12 80.9723 151.273 81.0656 151.434 81.1505C151.612 81.2438 151.765 81.2693 151.884 81.2608C152.121 81.2353 152.274 81.0741 152.393 80.9298C152.52 80.7771 152.639 80.6413 152.749 80.5649C152.851 80.4376 152.927 80.3103 152.978 80.217C153.021 80.1491 153.012 80.1321 153.004 80.0897C152.775 79.0629 152.698 77.7561 152.614 76.5426C152.461 74.2004 152.418 71.8074 152.198 69.3889C151.986 67.0213 151.799 64.6537 151.612 62.2861C151.256 57.551 150.967 52.8073 150.73 48.0636L150.093 33.8072L149.609 23.624C149.609 23.624 148.871 17.268 148.829 17.5396C148.396 15.0022 147.785 13.3984 147.573 17.5396C147.386 19.9835 147.335 23.4458 147.335 23.4458L147.479 26.4074C146.86 24.6253 146.224 23.0215 146.224 23.0215L145.324 21.1206L144.246 18.8125C143.932 18.1421 143.635 17.4717 143.338 16.8013C144.136 16.657 144.696 16.5722 144.62 16.5552C147.089 16.1224 148.769 15.5284 144.594 15.2908C143.941 15.2483 143.22 15.2399 142.507 15.2483C141.785 14.9004 141.327 15.0107 141.03 15.2908C140.911 15.2993 140.784 15.2993 140.674 15.3077C139.494 15.4011 138.62 15.469 138.62 15.469C138.247 15.5199 137.882 15.5963 137.517 15.6642L135.922 15.9696C132.06 16.7419 128.259 17.7602 124.516 18.9652C120.774 20.1787 117.1 21.5874 113.519 23.2506C111.728 24.0738 109.971 24.9818 108.24 25.9661C106.518 26.959 104.871 28.0452 103.251 29.1653C96.7842 33.6714 90.9544 38.9327 85.5234 44.6692ZM78.166 68.4979L74.4491 67.9038C74.4237 67.9038 74.3813 67.9123 74.3473 67.9293C74.4491 67.0637 74.6783 66.1897 74.9244 65.3241C76.0106 61.9297 77.8435 58.6966 79.8717 55.6331C80.1008 56.6345 80.4487 57.5594 80.8136 58.459C81.4161 59.8846 82.112 61.2339 82.8588 62.5407C83.1558 63.0753 83.4782 63.6015 83.7837 64.1276C83.7837 64.1276 84.7087 65.4599 85.6506 66.7158C86.5926 67.9802 87.543 69.1852 87.4836 69.0579C87.8146 69.4568 88.137 69.8132 88.4171 70.1017C85.0142 69.5756 81.5943 69.041 78.166 68.4979ZM89.4184 70.2629C89.2911 69.8726 89.0281 69.2871 88.5868 68.43C88.0522 67.3268 87.3648 66.0284 86.8217 64.9932C86.2701 63.9324 85.8882 63.2026 85.8882 63.2026C85.5318 62.6086 85.1754 62.0231 84.836 61.4206C84.1147 60.1646 83.4613 58.8833 82.9097 57.5764C82.4514 56.4732 82.0611 55.3361 81.9338 54.2838C81.9253 54.2414 81.8574 54.165 81.832 54.1481C81.6028 53.9444 81.3907 53.8086 81.1955 53.7153C82.7739 51.492 84.4711 49.345 86.2616 47.2744C86.3125 48.2588 86.4823 49.2092 86.7029 50.1257C87.4327 52.9516 88.6207 55.5228 89.8936 58.0177C91.1835 60.5041 92.5922 62.9056 94.0518 65.2647L95.0107 66.8092C95.0107 66.8092 95.9441 68.099 96.8691 69.3719C97.6328 70.4072 98.3711 71.4086 98.5833 71.6631C95.5368 71.2049 92.4734 70.7382 89.4184 70.2629ZM100.119 71.9007C100.017 71.6716 99.9071 71.417 99.7713 71.1285C98.753 68.8882 97.0982 65.8502 97.0982 65.8502L95.9866 64.0767C94.5524 61.743 93.1607 59.3924 91.9133 56.9824C90.6828 54.5724 89.5542 52.103 88.9093 49.5741C88.6207 48.4285 88.4595 47.2744 88.5359 46.1967C88.5274 46.1543 88.468 46.0525 88.4595 46.0355C88.2643 45.7724 88.0691 45.5857 87.874 45.4584C88.8414 44.4316 89.8767 43.4303 90.9035 42.4204C91.7521 41.5973 92.6176 40.7827 93.4917 39.9765L93.7887 41.4446C94.9852 46.4767 97.0388 51.161 99.2961 55.6671C100.416 57.9243 101.613 60.1392 102.809 62.3455L105.779 67.7935C105.779 67.7935 106.611 69.1428 107.426 70.4751C108.232 71.8074 108.996 73.1142 108.962 72.9869C109.013 73.0633 109.055 73.1397 109.106 73.2076C106.102 72.7918 103.106 72.3505 100.119 71.9007ZM113.603 25.6861C116.514 24.2859 119.527 23.0724 122.582 21.9947C122.514 22.105 122.463 22.2238 122.429 22.3341C122.395 22.419 122.403 22.436 122.412 22.4954C122.76 23.7258 123.04 24.9733 123.456 26.1783C124.678 30.2346 126.214 34.1636 127.877 38.0247C129.54 41.8858 131.331 45.6791 133.164 49.4384L138.646 60.6908C139.545 62.5662 140.419 64.4585 141.268 66.3509L142.413 68.9816C142.413 68.9816 143.135 70.3987 143.797 71.7989C144.484 73.1906 145.103 74.5823 145.078 74.4465C146.207 76.7293 147.25 78.1294 146.283 74.0816C146.045 72.8681 145.604 71.451 145.256 70.3139C144.917 69.1767 144.62 68.3621 144.62 68.3621L143.644 66.1048C142.77 64.153 141.887 62.2098 140.971 60.2919C139.146 56.4393 137.254 52.6291 135.395 48.8189C131.713 41.19 128.081 33.5271 125.637 25.4994C125.238 24.3199 124.966 23.1064 124.627 21.9183C124.601 21.8674 124.516 21.791 124.491 21.7741C124.313 21.6468 124.152 21.5619 123.999 21.5025C124.041 21.4855 124.075 21.4771 124.118 21.4601C126.426 20.6879 128.759 20.009 131.11 19.398C131.84 20.3569 132.493 21.3922 133.138 22.4445C135.217 25.9492 136.94 29.7085 138.518 33.5271C139.316 35.4365 140.063 37.3713 140.801 39.3061L142.693 44.4231C142.693 44.4231 145.222 50.287 145.18 50.0239C146.317 52.3321 147.361 53.6983 146.385 49.6675C145.876 47.2744 144.925 43.931 144.925 43.931L144.204 41.9537C141.599 34.9358 138.951 27.867 135.081 21.2734C134.572 20.4418 134.046 19.6271 133.478 18.8209C134.004 18.7021 134.521 18.5748 135.048 18.456L136.431 18.159L137.127 18.0317L137.653 17.9299L138.713 17.7347C138.713 17.7347 139.095 17.6499 139.664 17.5226C140.054 17.4377 140.538 17.3274 141.047 17.2171C141.429 18.0657 141.802 18.9143 142.193 19.7544L143.279 22.0711L144.051 23.7089C144.051 23.7089 144.815 25.0921 145.57 26.4753C146.325 27.8415 147.047 29.1823 147.013 29.0465C147.233 29.4284 147.454 29.7848 147.649 30.0903L147.793 33.1622L148.438 47.6733C148.676 52.5103 148.965 57.3558 149.329 62.1928C149.516 64.6113 149.711 67.0298 149.923 69.4483C150.153 71.8159 150.195 74.2174 150.348 76.6699C150.416 77.51 150.458 78.3331 150.568 79.1987C150.416 79.1647 150.271 79.1223 150.102 79.0884C147.734 78.4859 144.331 77.8579 144.331 77.8579L141.768 77.5609L133.664 76.5765C133.588 76.2031 133.478 75.7534 133.316 75.1678C132.722 72.7833 131.56 69.4992 131.56 69.4992L130.601 67.2759L128.225 61.9382C126.612 58.3911 124.966 54.8609 123.303 51.3477L113.23 30.294L111.618 26.8826C111.584 26.8402 111.49 26.7723 111.457 26.7638L113.603 25.6861ZM108.631 28.3337C108.936 28.1555 109.242 27.9858 109.556 27.8161C109.556 27.8246 109.564 27.8415 109.573 27.8585L111.185 31.2784L121.097 51.9502C122.734 55.3955 124.347 58.8578 125.934 62.3201L128.267 67.5389L129.379 70.1017C129.379 70.1017 130.092 71.5274 130.788 72.9191C131.492 74.3108 132.162 75.6855 132.137 75.5497C132.307 75.8637 132.476 76.1607 132.629 76.4323C126.57 75.6685 120.528 74.8539 114.478 74.0053C113.12 73.8101 111.762 73.6149 110.404 73.4197C110.328 73.1567 110.235 72.8681 110.124 72.5202C109.36 70.1781 107.909 66.9958 107.909 66.9958L104.982 61.6073C103.768 59.3754 102.563 57.1436 101.435 54.8864C99.1688 50.3803 97.1407 45.7554 95.9951 40.9439L95.6386 39.1533C95.5708 38.8309 95.5368 38.4999 95.4944 38.1775C97.7686 36.1748 100.111 34.2569 102.538 32.4579C102.444 32.6022 102.377 32.7549 102.334 32.8907C102.3 32.9756 102.3 33.001 102.317 33.0519C102.631 34.3248 103.047 35.5553 103.48 36.7688C105.584 42.4204 108.546 47.5545 111.058 52.8158C111.372 53.4692 111.677 54.1311 111.966 54.793L112.186 55.2852L112.331 55.7095L112.67 56.7533L113.994 60.9623C114.435 62.371 114.893 63.7881 115.394 65.1883C115.7 66.0454 115.776 66.2236 115.912 66.597C116.039 66.9449 116.183 67.2929 116.319 67.6323C116.319 67.6323 117.006 69.1173 117.813 70.5006C118.61 71.8923 119.518 73.1736 119.467 73.0464C120.265 74.0901 121.063 74.8369 121.36 74.8793C121.682 74.9133 121.453 74.2938 120.579 72.4523C120.112 71.3407 119.552 70.0169 119.17 68.9306C118.78 67.8529 118.517 67.0468 118.517 67.0468L118.11 66.0369L117.685 64.9083C117.185 63.5251 116.726 62.1164 116.268 60.6992L114.927 56.4138L114.579 55.3361L114.401 54.8015L114.299 54.496L114.164 54.1735C113.858 53.4777 113.544 52.7818 113.213 52.103C110.625 46.6465 107.629 41.4615 105.593 35.9711C105.185 34.817 104.787 33.6544 104.498 32.4834C104.473 32.4409 104.388 32.3561 104.371 32.3391C103.879 31.9827 103.48 31.9063 103.166 31.9742C103.412 31.796 103.649 31.6178 103.895 31.4396C105.457 30.3619 107.035 29.3011 108.631 28.3337Z" fill="#40B385"/>
<path d="M70.554 75.8383C70.4777 75.8892 70.4692 75.9062 70.4437 75.9571C70.4437 76.0334 69.8158 77.3063 69.2302 79.2921C69.1369 79.5976 69.035 79.9031 68.9332 80.2255C68.5429 81.7191 68.144 83.2465 67.8979 84.8249C67.3548 87.9732 67.1087 91.2573 67.1512 94.6262C67.2785 101.364 68.5429 108.374 70.7407 115.298C72.5822 120.992 75.0516 126.661 78.0981 132.1C82.4429 139.848 87.9758 147.137 94.6288 153.341C97.4461 155.954 100.476 158.288 103.649 160.359L103.7 160.528L103.768 160.783C103.081 160.893 103.276 160.868 103.768 160.791L103.802 160.91L103.828 161.004L103.845 161.054C103.692 161.08 104.082 161.029 104.608 160.944C106.704 162.268 108.86 163.481 111.066 164.568C110.786 164.636 110.854 164.636 111.1 164.585C112.543 165.297 114.011 165.959 115.487 166.57C115.369 166.596 115.301 166.613 115.504 166.579C121.928 169.26 128.615 171.025 135.183 171.874C137.39 172.154 139.579 172.332 141.751 172.443L142.311 173.139C143.075 173.928 144.603 176.49 143.788 173.8L143.542 172.511C144.289 172.528 145.027 172.544 145.765 172.544C149.228 172.536 152.613 172.29 155.881 171.891C159.156 171.509 162.304 170.898 165.317 170.194C168.338 169.498 171.206 168.641 173.922 167.716C179.361 165.875 184.156 163.668 188.263 161.445C188.518 161.309 188.772 161.173 189.027 161.038C189.222 160.927 189.409 160.817 189.595 160.707L189.723 160.639C189.808 160.588 189.884 160.545 189.96 160.503C190.113 160.418 190.249 160.333 190.376 160.265C190.877 159.977 191.165 159.807 191.165 159.807C191.165 159.807 191.505 159.586 191.997 159.238C192.489 158.891 193.143 158.432 193.787 157.974C195.043 157.015 196.274 156.082 196.138 156.133C198.09 154.418 199.108 153.078 195.493 155.046C195.298 155.148 195.103 155.25 194.899 155.352C196.511 154.351 194.695 155.428 195.4 154.97L195.264 154.673L194.992 154.087L194.449 152.916C194.101 152.127 193.669 151.38 193.278 150.617C192.888 149.853 192.472 149.106 192.022 148.376C191.581 147.647 191.174 146.891 190.699 146.179C186.99 140.332 182.713 134.969 178.36 129.699C178.326 129.648 178.292 129.588 178.258 129.538C175.865 125.609 173.413 121.705 170.807 117.878C170.103 116.834 169.373 115.807 168.635 114.78C166.717 111.369 164.774 107.983 162.754 104.631C161.558 102.586 160.251 100.668 159.182 98.6231C158.053 96.5695 156.916 94.4735 155.558 92.4708C154.871 91.4779 154.158 90.4851 153.335 89.5686C153.14 89.331 152.919 89.1103 152.707 88.8897L152.333 88.4994L151.697 87.9393C151.273 87.5913 150.84 87.1501 150.433 86.887L149.202 86.0299L148.905 85.8263C149.754 85.8602 150.348 85.8772 150.271 85.8517C150.738 85.8517 151.179 85.8432 151.553 85.8263L153.182 88.4824C159.903 99.3105 166.955 109.901 174.049 120.458L191.988 147.027C191.988 147.027 195.833 152.119 195.722 151.873C197.352 153.85 198.684 154.953 196.817 151.245C195.773 149.021 194.034 146.009 194.034 146.009L176.298 119.719C169.085 108.993 161.923 98.2328 155.117 87.2689L153.148 84.0612C153.114 84.0188 153.004 83.9678 152.978 83.9593C151.748 83.535 151.324 84.2054 151.213 84.7825C150.993 84.7231 150.755 84.6637 150.492 84.6043C148.124 83.9848 144.705 83.3823 144.705 83.3823L132.671 82.1179C126.375 81.4645 120.095 80.7686 113.816 79.9964C107.612 79.2411 101.418 78.3416 95.2313 77.3997L95.087 76.8905L94.9937 76.5426C95.698 76.4323 95.4943 76.4577 94.9937 76.5341L94.9852 76.5002L94.9343 76.305L94.9173 76.2541L94.9088 76.2286C95.384 76.1353 90.7252 76.882 92.694 76.585V76.6869L92.7024 77.0093C87.229 76.1607 81.7555 75.2782 76.2651 74.4211L72.5398 73.8356C72.4888 73.8356 72.3785 73.8865 72.3531 73.895C71.3772 74.4805 71.4536 75.1339 71.7336 75.6007C71.3008 75.4479 70.8426 75.6261 70.554 75.8383ZM69.4509 95.3475C69.4084 93.7691 69.4254 92.2162 69.5103 90.6887C69.7309 90.7481 69.994 90.816 70.291 90.8924C70.0109 92.6914 69.7479 94.4905 69.4933 96.2895C69.4848 95.9755 69.4593 95.6615 69.4509 95.3475ZM101.375 155.971C101.91 155.878 102.275 155.81 102.512 155.768C102.606 156.184 102.707 156.599 102.809 157.015C102.326 156.676 101.85 156.328 101.375 155.971ZM106.552 159.485C106.365 159.374 106.187 159.247 106 159.137C105.932 157.643 105.856 156.15 105.754 154.656C106.068 156.073 106.382 157.482 106.721 158.891L106.73 158.924L106.849 159.476L106.857 159.527L106.866 159.552H106.874V159.561C106.823 159.578 106.772 159.586 106.73 159.595C106.679 159.552 106.619 159.519 106.552 159.485ZM106.747 159.595C106.781 159.586 106.823 159.578 106.891 159.561L106.899 159.586C110.964 158.619 108.546 159.179 108.945 159.077C109.004 159.06 109.046 159.052 109.097 159.043L109.072 158.941L109.029 158.746L108.953 158.415L108.902 158.169L108.554 156.574L107.875 153.383C106.993 149.123 106.195 144.846 105.474 140.552C104.82 136.555 104.201 132.533 103.7 128.536C104.099 130.768 104.515 133 104.956 135.223C106.458 142.818 108.164 150.354 109.87 157.881L110.769 161.844C109.403 161.139 108.062 160.393 106.747 159.595ZM113.391 163.151L113.196 162.259L112.594 159.442C111.804 155.674 111.083 151.898 110.413 148.105C109.734 144.312 109.106 140.51 108.495 136.708C107.867 132.906 107.332 129.088 106.594 125.252C105.559 119.88 104.337 114.577 103.267 109.273C103.174 108.357 103.089 107.44 103.013 106.524C102.589 101.788 102.444 97.0362 102.419 92.2926L102.512 88.737C102.512 88.4399 102.529 88.1429 102.538 87.8544C104.948 96.2725 105.873 105.123 106.764 113.949C107.239 118.709 107.697 123.487 108.368 128.256C108.69 130.641 109.114 133.051 109.573 135.376L110.93 142.428L113.722 156.939L115.063 163.906C114.503 163.668 113.943 163.414 113.391 163.151ZM137.755 169.888C134.224 169.532 130.652 168.946 127.105 168.064C125.543 167.674 123.982 167.215 122.437 166.715L122.386 166.452L122.208 165.569L121.852 163.804L120.596 157.533C120.952 157.949 121.275 158.203 121.436 158.212C121.589 158.229 121.606 158.067 121.487 157.703C121.402 157.439 121.266 157.049 121.105 156.506C121.937 156.565 122.242 156.2 122.361 155.861C122.48 155.488 122.437 155.123 122.403 154.877C122.395 154.8 122.386 154.792 122.352 154.766C121.648 154.104 121.114 153.103 120.723 152.017L120.57 151.584C120.401 151.05 120.248 150.498 120.121 149.938C120.121 149.938 120.112 149.912 120.104 149.87L120.095 149.836V149.828V149.819C120.358 149.76 120.621 149.7 119.094 150.048L119.026 149.726L117.617 142.682C117.532 142.233 117.439 141.774 117.346 141.325C116.59 137.065 115.878 132.796 115.207 128.519C115.004 127.221 114.817 125.923 114.622 124.616C114.486 123.563 114.342 122.52 114.206 121.467C114.172 121.187 114.138 120.907 114.096 120.627C115.496 128.01 117.006 135.401 119.23 142.674C120.749 147.375 122.446 151.958 123.888 156.599C124.058 157.151 124.211 157.703 124.372 158.254C124.584 159.111 124.805 159.968 125.017 160.825C124.813 160.732 124.601 160.639 124.389 160.545C124.33 160.443 124.253 160.35 124.177 160.282C124.041 160.155 123.905 160.053 123.812 159.943C123.804 159.934 123.812 159.934 123.804 159.926C123.897 159.756 123.88 159.782 123.804 159.926C123.71 159.824 123.71 159.714 123.668 159.637C123.642 159.586 123.617 159.586 123.583 159.586C123.49 159.595 123.405 159.578 123.159 159.62C122.938 159.654 122.573 159.799 122.344 160.036C122.225 160.155 122.166 160.257 122.089 160.376C122.038 160.46 121.996 160.562 121.962 160.647L121.894 160.868L121.886 160.893C121.487 159.824 122.42 162.353 122.327 162.09L122.335 162.098C122.072 162.582 121.962 162.786 122.335 162.098L122.352 162.107L122.403 162.141C122.446 162.175 122.488 162.2 122.539 162.234C122.768 162.395 122.989 162.556 123.227 162.701C123.303 162.752 123.388 162.794 123.464 162.845C123.133 163.617 122.768 164.483 122.862 164.271L122.904 164.296L122.989 164.347L123.15 164.449L123.184 164.466C122.997 164.907 122.93 165.068 123.184 164.466L123.447 164.627C123.405 165 123.337 165.518 123.252 166.273H123.26L123.413 166.307L123.524 166.333C123.49 166.63 123.507 166.494 123.524 166.333L123.719 166.384L126.01 166.961C127.894 167.427 129.803 167.877 131.78 168.174C132.765 168.318 133.775 168.42 134.801 168.446H134.997C134.971 168.522 134.971 168.514 134.997 168.446H135.455L135.531 168.454H135.557C135.557 168.505 135.557 168.488 135.557 168.446H135.565H135.616H135.625H135.633C135.625 169.507 135.633 168.692 135.642 167.758C135.735 167.784 135.828 167.809 135.93 167.835C136.847 168.055 137.771 168.259 138.705 168.446C139.053 168.963 139.392 169.498 139.757 169.999L139.817 170.075C139.138 170.016 138.45 169.956 137.755 169.888ZM121.453 132.372C121.114 130.785 120.791 129.198 120.469 127.611C122.412 135.3 124.465 142.962 126.663 150.583C127.554 153.663 128.462 156.744 129.387 159.816L128.479 157.456C125.543 149.293 123.286 140.883 121.453 132.372ZM127.86 162.175C127.834 162.166 127.809 162.149 127.783 162.141C127.75 161.988 127.707 161.844 127.673 161.691L127.86 162.175ZM128.836 149.946C126.417 141.562 124.168 133.127 122.055 124.658C119.756 115.417 117.668 106.125 115.784 96.7901C118.16 105.336 119.925 114.068 121.869 122.791C122.93 127.56 124.041 132.321 125.34 137.056C126.621 141.808 128.191 146.442 129.693 151.075C131.212 155.691 132.765 160.299 134.445 164.873L134.47 164.941C134.038 164.814 133.613 164.678 133.181 164.542C133.181 164.406 133.189 164.279 133.172 164.152C133.121 163.736 132.994 163.371 132.858 163.066C132.748 162.811 132.637 162.59 132.527 162.395C131.254 158.246 130.032 154.104 128.836 149.946ZM139.876 166.087L139.808 165.985L139.613 165.645C139.248 164.983 138.858 164.33 138.527 163.643C137.822 162.293 137.237 160.876 136.66 159.459C136.388 158.763 136.134 158.059 135.888 157.346C135.616 155.954 135.328 154.563 135.014 153.179C133.775 147.74 132.273 142.402 130.745 137.082C129.896 133.187 129.073 129.291 128.276 125.379C129.913 129.996 131.585 134.604 133.282 139.203C134.08 141.978 134.895 144.702 135.625 147.477C137.237 153.493 138.62 159.578 139.868 165.696L139.986 166.273L139.876 166.087ZM143.084 170.245L142.897 169.26L142.108 165.255C141.675 163.151 141.225 161.054 140.759 158.958C140.86 159.179 140.954 159.408 141.064 159.646C141.777 161.241 142.583 163.04 142.558 162.887C143.695 165.187 144.738 166.562 143.763 162.523C143.364 160.673 142.685 158.271 142.405 157.304C142.303 156.964 142.252 156.795 142.252 156.795L141.734 155.411L138.96 147.978C137.788 144.846 136.626 141.706 135.472 138.575C135.404 138.329 135.328 138.091 135.26 137.845C134.403 134.85 133.579 131.829 132.765 128.816C132.527 127.934 132.29 127.051 132.052 126.169C134.487 133.356 137.05 140.501 139.655 147.621C140.504 149.972 141.412 152.348 142.21 154.665C142.49 155.573 142.77 156.472 143.058 157.38C143.533 158.992 143.983 160.63 144.467 162.276C145.197 164.78 146.011 167.3 147.174 169.727L147.395 170.177L147.429 170.245C146.003 170.279 144.552 170.287 143.084 170.245ZM158.163 169.294C154.964 169.787 151.655 170.109 148.26 170.228C149.024 169.888 149.864 169.515 149.652 169.6L149.643 169.574L149.626 169.515L149.609 169.464C150.093 169.243 150.288 169.15 149.609 169.456L149.304 168.607L148.651 166.791C148.218 165.578 147.768 164.372 147.369 163.151C146.631 161.012 145.927 158.865 145.239 156.71C144.985 155.861 144.73 155.012 144.45 154.164C144.424 154.096 144.399 154.028 144.374 153.96C143.805 152.119 143.245 150.277 142.693 148.427C142.524 147.842 142.362 147.256 142.201 146.671C142.354 146.968 142.507 147.265 142.651 147.562C143.381 148.987 144.127 150.396 144.73 151.788C145.324 153.188 145.833 154.707 146.317 156.2L146.851 157.915C146.851 157.915 147.412 159.408 147.963 160.876C148.523 162.344 149.117 163.77 149.1 163.634C149.643 164.814 150.195 165.73 150.475 165.858C150.764 165.976 150.747 165.314 150.314 163.303C150.085 162.107 149.788 160.664 149.542 159.519C149.287 158.356 149.1 157.524 149.1 157.524L148.464 155.505C147.963 153.96 147.454 152.441 146.809 150.897C146.139 149.352 145.383 147.944 144.662 146.518C143.219 143.692 141.734 140.858 140.928 137.964C140.631 136.844 140.436 135.681 140.589 134.714C140.589 134.672 140.546 134.587 140.529 134.57C140.156 134.018 139.783 133.687 139.401 133.662C139.163 133.636 138.926 133.755 138.73 133.908C138.696 133.781 138.663 133.645 138.629 133.517C137.025 127.238 135.548 120.916 134.114 114.585C135.073 117.292 136.057 119.991 137.059 122.672L142.532 137.124C143.449 139.543 144.382 141.91 145.18 144.329C145.986 146.747 146.724 149.2 147.462 151.669C148.939 156.599 150.399 161.581 152.41 166.418C152.656 167.02 152.91 167.623 153.191 168.217L153.479 168.853C153.335 168.904 153.224 168.946 153.479 168.862L153.589 169.108L153.606 169.133C157.9 167.792 154.794 168.743 155.753 168.437L155.745 168.378L155.719 168.259L155.677 168.021L155.592 167.546L154.888 163.728C154.37 161.19 153.878 158.653 153.292 156.141C152.834 154.096 152.333 152.051 151.833 150.014C153.394 154.435 154.998 158.84 156.746 163.184C157.196 164.356 157.688 165.501 158.163 166.664L158.885 168.395L159.19 169.142C158.851 169.176 158.511 169.235 158.163 169.294ZM160.276 168.938C162.966 167.962 160.539 168.828 161.396 168.505L161.388 168.48L161.354 168.369L161.286 168.149L161.15 167.699C160.429 165.306 159.716 162.904 158.944 160.528C155.142 148.555 150.78 136.802 146.359 125.082C145.859 123.334 145.358 121.595 144.866 119.847C144.306 117.861 143.771 115.867 143.228 113.872C146.368 123.504 149.762 133.051 153.318 142.53C154.412 145.457 155.524 148.368 156.644 151.279C158.749 157.007 160.938 162.709 163.28 168.352C162.296 168.548 161.286 168.751 160.276 168.938ZM142.668 87.8884C142.693 87.8799 142.821 87.8205 143.092 87.6762L143.101 87.7017L143.118 87.7611L143.186 87.9562L143.432 88.6436L143.788 89.6365C143.44 89.0509 143.05 88.4739 142.668 87.8884ZM143.898 102.298C144.942 104.657 145.969 107.033 146.979 109.409L148.99 114.993C150.653 119.677 152.249 124.395 153.861 129.122C154.667 131.489 155.482 133.857 156.305 136.216C155.779 134.994 155.253 133.781 154.735 132.559C150.747 123.343 147.157 113.983 144.475 104.334C144.28 103.655 144.085 102.976 143.898 102.298ZM156.458 142.317C158.028 145.992 159.555 149.675 160.981 153.392C160.726 152.832 160.463 152.271 160.225 151.711C159.283 149.454 158.299 147.214 157.442 144.914C157.103 144.049 156.78 143.183 156.458 142.317ZM165.079 166.638L164.731 165.747L164.842 165.942L165.3 166.757L165.427 166.978C165.359 167.012 165.3 167.037 165.249 167.054L165.079 166.638ZM164.613 151.873C165.342 153.544 166.064 155.216 166.76 156.896C166.658 156.684 166.573 156.472 166.463 156.26C165.826 154.809 165.215 153.341 164.613 151.873ZM165.546 167.818L165.249 167.063C165.3 167.037 165.359 167.012 165.436 166.986L165.538 167.164L165.597 167.266C165.156 167.478 169.518 165.586 167.668 166.367L167.659 166.341L167.642 166.282L167.574 166.061L167.065 164.262C166.743 163.057 166.344 161.878 165.979 160.69C166.488 161.827 167.057 162.972 167.786 164.084C168.151 164.653 168.584 165.196 169.085 165.713C169.331 165.968 169.602 166.214 169.908 166.443C169.967 166.494 170.044 166.536 170.112 166.587C168.618 167.02 167.099 167.436 165.546 167.818ZM187.168 147.893C189.052 150.668 191.114 153.332 193.261 155.929C192.718 156.285 192.871 156.201 193.278 155.954C193.304 155.98 193.321 156.005 193.346 156.039L193.414 156.124C192.896 156.387 192.387 156.65 191.938 156.879L191.895 156.803C191.31 155.802 190.716 154.809 190.121 153.824C187.669 149.802 185.157 145.882 183.061 141.749L182.807 141.257C184.215 143.488 185.658 145.712 187.168 147.893ZM171.919 125.524C172.785 127.128 173.642 128.731 174.499 130.344L178.708 138.354C178.589 138.176 178.47 138.007 178.36 137.828C174.27 131.566 170.375 125.167 166.48 118.752C168.262 121.035 170.078 123.292 171.919 125.524ZM162.084 118.726C164.35 122.978 166.149 127.484 168.016 131.998C169.882 136.513 171.741 141.053 173.947 145.474C176.145 149.887 178.631 154.232 181.949 158.033L182.56 158.746L183.231 159.417L183.901 160.087L184.147 160.325C184.037 160.41 183.969 160.469 184.156 160.333L184.241 160.418L184.41 160.588L184.453 160.63L184.47 160.647C188.034 158.016 185.454 159.9 186.243 159.306L186.192 159.205L184.614 155.887C183.562 153.68 182.476 151.482 181.389 149.293C179.242 144.982 177.028 140.697 174.779 136.437C175.339 137.311 175.882 138.185 176.451 139.05C178.962 142.911 181.542 146.73 184.249 150.472C185.59 152.348 186.973 154.198 188.382 156.031L189.443 157.397L189.867 157.94C189.757 158 189.629 158.076 189.485 158.161C189.239 158.305 188.933 158.475 188.586 158.678L188.331 158.823C187.822 159.128 187.279 159.391 186.736 159.688C185.658 160.282 184.529 160.834 183.367 161.402C182.119 161.996 180.821 162.59 179.48 163.159L179.039 162.013L177.656 158.475C175.067 151.915 172.343 145.423 169.602 138.94C166.709 131.286 163.823 123.614 160.624 116.045C161.125 116.944 161.609 117.835 162.084 118.726ZM172.734 137.413C174.991 141.689 177.214 145.992 179.37 150.32C179.607 150.803 179.836 151.279 180.074 151.762C178.564 149.437 177.214 146.968 175.967 144.464C174.821 142.156 173.761 139.797 172.734 137.413ZM151.621 91.0876C152.359 91.9107 153.029 92.8272 153.666 93.7607C154.947 95.6445 156.05 97.6727 157.179 99.7263C158.044 101.39 159.054 102.959 160.022 104.529C159.962 104.47 159.911 104.411 159.852 104.36C159.003 103.553 158.214 102.696 157.323 101.933L156.534 101.254C155.685 100.168 154.76 98.971 154.421 98.5552C154.243 98.2158 154.065 97.8764 153.886 97.5369L151.943 93.7946C151.816 93.4297 151.68 93.0648 151.561 92.6999C151.391 92.1568 151.196 91.6137 151.052 91.0621L150.831 90.222L151.621 91.0876ZM151.29 101.373C152.444 103.621 153.572 105.879 154.65 108.17C155.719 111.233 156.814 114.297 158.07 117.301C157.518 116.104 156.967 114.899 156.415 113.703C154.319 109.171 152.274 104.623 150.331 100.049C150.085 99.4632 149.847 98.8777 149.601 98.2922C150.17 99.3105 150.738 100.337 151.29 101.373ZM158.868 127.17C162.33 136.284 165.589 145.5 169.348 154.554C170.273 156.82 171.257 159.069 172.267 161.309L172.547 161.937L172.64 162.149C170.731 162.811 175.254 161.284 174.787 161.428L174.779 161.402L174.762 161.343L174.736 161.233L174.728 161.207C175.22 161.038 175.407 160.97 174.728 161.199L174.686 161.012L174.575 160.562L174.125 158.772C173.828 157.575 173.548 156.379 173.183 155.199C172.895 154.147 172.589 153.112 172.267 152.068C172.903 153.655 173.54 155.25 174.193 156.837L175.67 160.342L177.223 163.821L177.333 164.067C176.858 164.254 176.374 164.449 175.882 164.627C174.609 165.111 173.294 165.569 171.953 166.002C172.08 165.9 172.208 165.79 172.36 165.662L172.352 165.637L172.335 165.577C171.97 164.364 171.571 163.159 171.155 161.971C169.484 157.21 167.413 152.628 165.419 148.071C161.447 138.957 157.764 129.699 154.014 120.458C152.401 116.486 150.764 112.523 149.092 108.577L146.062 100.168C145.434 98.377 144.832 96.5865 144.246 94.7875C145.316 96.6374 146.351 98.5128 147.352 100.414C151.765 109.027 155.422 118.048 158.868 127.17ZM145.613 87.4471C145.646 87.4301 145.765 87.3707 146.028 87.2265L146.24 87.6423L146.665 88.4909L147.997 91.113C147.225 89.8741 146.436 88.6521 145.613 87.4471ZM144.153 85.6226C144.153 85.6226 146.028 85.7159 147.7 85.7838L147.751 86.0893C147.759 86.1318 147.759 86.1657 147.768 86.1997C146.962 86.6324 145.748 87.2774 146.003 87.1586L146.028 87.2095C145.808 87.3283 145.655 87.4131 145.621 87.4386C145.596 87.4047 145.579 87.3707 145.553 87.3368L145.29 86.9379L145.273 86.904C145.91 86.5815 145.723 86.6664 145.265 86.8955L145.163 86.7343L145.095 86.6324C145.434 86.4457 142.846 87.7696 142.668 87.8629C142.396 87.4471 142.133 87.0228 141.853 86.6155L141.726 86.4203L141.667 86.3269L141.65 86.3015C143.457 85.4614 139.172 87.4131 139.613 87.2265L139.63 87.2859L139.715 87.6083C139.655 87.6338 139.604 87.6592 139.554 87.6847C139.257 87.0822 138.96 86.4712 138.646 85.8687L138.221 85.0201V85.0031L144.153 85.6226ZM139.961 88.4909C139.834 88.2278 139.698 87.9647 139.571 87.7017C139.613 87.6847 139.664 87.6592 139.723 87.6338L139.757 87.7526L139.961 88.4909ZM131.466 84.2903L136.719 84.8419C136.465 84.9607 136.176 85.0965 135.828 85.2662L135.854 85.3341C135.531 85.4868 135.692 85.4189 135.854 85.3426V85.3511L135.862 85.368L136.295 86.3948C136.261 86.4033 136.219 86.4203 136.151 86.4373L136.117 86.3609L136.1 86.31C131.797 87.6847 134.912 86.7088 133.953 87.0228L133.961 87.0482L133.987 87.1586L134.046 87.3877L134.156 87.8374L135.073 91.461C136.006 95.1524 136.957 98.8522 137.907 102.544C137.856 102.408 137.805 102.264 137.755 102.128C135.981 97.2823 134.233 92.4199 132.578 87.5319L131.959 85.699L131.721 85.0031L131.704 84.9607L131.67 84.8419L131.653 84.7825C132.4 84.5364 132.171 84.6043 131.645 84.774V84.7655C132.103 84.5958 127.58 86.1148 129.489 85.4868L129.498 85.5123L129.566 85.7159L129.616 85.8857L129.769 86.3439L130.966 90.0353L133.393 97.4096C136.651 107.228 139.935 117.029 142.999 126.898C145.613 135.384 148.04 143.913 150.11 152.535C149.957 152.017 149.796 151.499 149.643 150.982C148.905 148.512 148.158 146.034 147.335 143.573C146.521 141.104 145.57 138.677 144.662 136.284L139.189 121.849C135.599 112.218 132.239 102.518 129.54 92.6235C128.861 90.1456 128.225 87.6507 127.631 85.1474L127.325 83.8321C128.708 83.9933 130.083 84.146 131.466 84.2903ZM136.566 87.0567C136.507 87.0737 136.456 87.0907 136.405 87.1076L136.159 86.4542C136.219 86.4373 136.269 86.4203 136.303 86.4033L136.566 87.0567ZM124.932 83.586L124.949 83.6623L125.017 83.9593L125.229 84.9013L126.078 88.6776L129.404 103.817C131.059 111.344 132.731 118.879 134.538 126.381C133.537 123.428 132.544 120.475 131.585 117.513C129.947 112.6 128.632 107.669 127.402 102.62C126.163 97.5963 124.89 92.5047 123.099 87.5659L122.412 85.7244L122.047 84.8079L121.869 84.3497L121.775 84.1206L121.733 84.0103L121.708 83.9509C120.732 84.1715 123.88 83.4162 119.518 84.443V84.477L119.544 84.8079C119.298 84.8673 119.399 84.8504 119.544 84.8164L119.637 86.0554L118.992 84.5619C118.958 84.5194 118.865 84.4431 118.839 84.4346C118.373 84.197 118.016 84.163 117.736 84.2394L117.515 83.3993L117.337 82.7119C119.875 83.0089 122.403 83.3059 124.932 83.586ZM123.405 96.1622C123.176 95.4833 122.946 94.8044 122.709 94.1256C122.683 93.9134 122.658 93.6928 122.632 93.4806C122.887 94.3716 123.159 95.2627 123.405 96.1622ZM115.572 82.4998C115.394 82.5422 115.207 82.5846 114.987 82.644L114.995 82.6695C114.639 82.7543 114.817 82.7204 114.995 82.678V82.6864C114.995 82.6864 114.995 82.6864 114.987 82.6864L115.004 82.7459L115.029 82.8562L115.063 82.9835L115.097 83.1107L118.44 97.2823L121.784 111.454L123.456 118.54C124.007 120.899 124.567 123.275 125.195 125.634C126.248 129.631 127.393 133.602 128.53 137.557C128.853 139.05 129.175 140.552 129.515 142.037C129.803 143.327 130.1 144.617 130.397 145.915C129.37 142.767 128.378 139.619 127.52 136.437C126.239 131.761 125.136 127.034 124.084 122.282C121.971 112.786 120.053 103.189 117.295 93.7607C116.964 92.5811 116.607 91.4016 116.217 90.239C115.844 89.0679 115.47 87.8968 115.046 86.7428C114.63 85.5887 114.24 84.4176 113.765 83.2805L113.349 82.2282C114.087 82.33 114.834 82.4149 115.572 82.4998ZM114.036 136.021C114.35 137.947 114.741 139.848 115.122 141.74C116.039 146.908 117.015 152.059 118.067 157.202L119.561 164.245L119.917 165.858C119.153 165.586 118.39 165.289 117.634 164.992L117.626 164.933L117.083 161.275C115.598 151.525 113.9 141.817 112.347 132.1C110.795 122.384 109.377 112.659 108.461 102.892C108.164 99.9554 107.952 97.0193 107.782 94.0831C108.418 97.0787 108.962 100.1 109.437 103.129C110.311 110.402 111.287 117.666 112.373 124.913C112.874 128.613 113.4 132.321 114.036 136.021ZM110.676 81.8888L110.735 82.2112C110.769 82.3979 110.803 82.5846 110.837 82.7713C106.619 83.5351 109.725 82.9835 108.749 83.1701L108.758 83.2211L108.766 83.3229L108.928 84.9607C109.157 87.3198 109.428 89.6704 109.717 92.021C109.691 92.021 109.674 92.0295 109.649 92.0295C109.165 89.9165 108.656 87.8035 108.062 85.7159L107.536 83.9254L107.409 83.4926C108.096 83.3823 107.901 83.4078 107.409 83.4841L107.341 83.2635L107.324 83.2041L107.315 83.1786C107.791 83.0853 103.123 83.8405 105.1 83.535V83.6539L105.126 84.5788L105.219 88.2872C105.228 88.5927 105.245 88.8897 105.262 89.1952C104.922 87.8799 104.557 86.5645 104.142 85.2577C103.811 84.0866 103.327 82.958 102.928 81.8124L102.852 81.6002L102.809 81.4899C104.175 81.2778 102.317 81.5493 101.248 81.7106C100.501 80.6074 99.661 81.0656 99.2706 81.5069C99.2027 81.5663 99.2027 81.5918 99.1942 81.6512C99.0669 82.5677 98.8378 83.4756 98.7869 84.3921L98.7275 85.0456C98.6766 84.4515 98.6426 83.849 98.6172 83.3314C98.5917 82.4573 98.5747 81.8294 98.5578 81.9142C98.5408 81.2608 98.5238 80.6668 98.4984 80.2085C102.546 80.8026 106.611 81.3711 110.676 81.8888ZM97.7516 80.0813C97.6073 80.4631 97.4546 80.9893 97.3103 81.719C97.217 82.1433 97.1406 82.6016 97.0727 83.0683L96.8521 82.4743L96.5805 81.7275L96.4872 81.4814C97.1152 81.3542 96.9539 81.3881 96.4872 81.473L96.4448 81.3542L96.3769 81.1675L96.3429 81.0741C96.4278 81.0571 96.3429 81.0656 96.1732 81.0996C96.0799 80.6668 95.978 80.234 95.8677 79.8097C96.4957 79.903 97.1236 79.9879 97.7516 80.0813ZM97.4801 115.052C97.3782 114.119 97.2764 113.185 97.183 112.26C97.2594 112.71 97.3358 113.168 97.4122 113.618C97.4291 114.093 97.4546 114.568 97.4801 115.052ZM94.9003 118.209C95.1634 121.875 95.4519 125.558 95.8338 129.232C96.029 131.074 96.2411 132.906 96.4872 134.731C96.7163 136.555 96.9539 138.397 97.2509 140.23C97.8365 143.887 98.5747 147.511 99.3639 151.109L99.958 153.807L100.255 155.123C99.2961 154.368 98.3456 153.595 97.4207 152.781C97.4037 152.764 97.3867 152.747 97.3697 152.73C97.9553 152.594 98.4135 152.484 98.2438 152.518L98.2353 152.501C98.7699 152.373 98.999 152.314 98.2353 152.492L98.2268 152.475L98.1929 152.322L98.1504 152.153L98.0741 151.805L97.8195 150.591C97.4885 148.979 97.2085 147.35 96.9454 145.712C96.4363 142.445 96.0459 139.144 95.6725 135.826L95.3925 133.322L95.0955 130.827L94.5015 125.872C94.1281 122.562 93.8056 119.253 93.5256 115.935C93.4068 114.517 93.2965 113.109 93.1861 111.692C93.1352 110.52 93.0758 109.349 93.0334 108.178L92.8297 102.713L92.7364 99.9724C92.6855 99.0389 92.6261 98.1055 92.5412 97.189C92.4224 95.8058 92.2697 94.431 92.1339 93.0648C92.1169 92.2671 92.1084 91.4694 92.0999 90.6633C92.4394 92.5896 92.7364 94.5244 92.9825 96.4677C93.9244 103.655 94.3742 110.919 94.9003 118.209ZM92.7364 79.326L92.7703 80.7177C92.7958 81.5833 92.8382 82.4488 92.8637 83.3059C92.8043 83.0683 92.7449 82.8307 92.6855 82.5931L92.3291 81.2523L92.2103 80.8026C92.7618 80.7771 92.6261 80.7771 92.2103 80.7941L92.1509 80.5819L92.1084 80.4122L92.083 80.3273L92.0745 80.2849L92.066 80.2679C92.2357 80.2595 91.7775 80.2764 91.1919 80.3019C91.0731 79.8691 90.9289 79.4363 90.7676 79.012C91.4211 79.1223 92.083 79.2242 92.7364 79.326ZM89.9106 131.863C89.8766 131.481 89.8427 131.09 89.8172 130.709L89.7239 128.528C89.639 126.466 89.6305 124.395 89.6475 122.324C89.8257 125.507 89.936 128.689 89.9106 131.863ZM89.1808 142.504V142.521C89.045 142.53 88.9601 142.538 89.1808 142.53L89.2317 142.784L89.2571 142.92V142.937C93.7208 142.682 90.4961 142.861 91.489 142.793V142.759L91.4974 142.691L91.6078 141.579L91.8369 139.356C92.0999 136.165 92.1848 132.983 92.1509 129.809C92.1678 129.936 92.1763 130.064 92.1848 130.191C92.8807 136.869 93.8735 143.522 95.3416 150.099L95.5792 151.1C90.6573 146.459 86.3549 141.146 82.7569 135.495C82.0356 134.366 81.3482 133.212 80.6863 132.058C80.839 132.058 80.9154 132.049 80.8306 132.049V132.032L80.8475 131.786C81.3737 131.778 81.5773 131.769 80.8475 131.778L80.8645 131.6L80.9579 130.743C81.6792 122.511 81.5179 114.297 81.3482 106.125C81.3482 106.116 81.3482 106.116 81.3482 106.108C81.6961 103.087 82.1035 100.066 82.5193 97.0447C82.5617 104.725 82.5362 112.43 82.8927 120.152C83.0199 123.148 83.2491 126.143 83.5121 129.139L83.7413 131.379L83.8007 131.939V131.973V131.99C84.8105 131.956 81.5434 132.092 86.0664 131.922V131.854V131.752C86.1767 131.744 86.2361 131.744 86.2446 131.744C86.4483 132.839 86.6689 133.933 86.9405 135.028C87.0932 135.749 87.3478 136.454 87.543 137.166L87.7042 137.701L87.7127 137.735C86.7283 137.888 87.3987 137.786 88.2473 137.667C88.417 139.11 88.7565 140.535 89.045 141.961L89.1808 142.504ZM86.0834 131.744V131.71L86.0919 131.43L86.1088 130.861C86.1598 131.15 86.2192 131.447 86.2701 131.735C86.2446 131.735 86.1682 131.744 86.0834 131.744ZM88.2897 78.6302L88.2813 78.715L88.2219 79.3345L88.0946 80.565C88.0606 80.9129 88.0352 81.2693 88.0012 81.6172C87.84 81.0487 87.6787 80.4886 87.5345 79.92L87.4411 79.5806C88.0182 79.5297 87.8739 79.5382 87.4411 79.5721L87.3902 79.3769L87.3139 79.1054L87.2884 79.0629C87.7636 79.012 83.1303 79.3939 85.0905 79.2411V79.2581L85.082 79.326L85.0651 79.4703L84.9378 80.4122C84.1995 80.3952 83.7328 80.3867 84.6323 80.4122L84.6068 80.548L84.4371 81.5069C79.965 81.3796 83.2066 81.4814 82.2053 81.456V81.473V81.4984L82.1798 81.7106L82.1374 82.1349C82.0101 83.2635 81.8998 84.3836 81.764 85.5123C81.6198 86.7258 81.45 87.9393 81.2973 89.1528C81.3227 88.2448 81.3567 87.3453 81.3991 86.4457C81.4331 86.1318 81.467 85.8178 81.4925 85.5038C81.5943 84.46 81.6537 83.4078 81.7386 82.3555L81.8064 80.7686L81.8404 80.0303C82.6041 80.0813 82.3835 80.0643 81.8404 80.0219V79.9794V79.954C82.3326 79.9709 77.5465 79.6654 79.5746 79.8097V79.8606V79.8691C79.5492 79.8691 79.5407 79.8691 79.5746 79.8691L79.5661 79.954L79.5492 80.1491L79.5152 80.5395C79.337 82.4234 79.2182 84.3073 79.1249 86.1912C79.0315 87.184 78.9297 88.1684 78.8109 89.1613C78.8194 88.7454 78.8364 88.3296 78.8364 87.9138C78.8279 86.9888 78.8448 86.0639 78.8194 85.1389L78.7939 83.7472L78.777 83.0513L78.743 82.2197L78.6836 80.845L78.5903 79.5212C78.5818 79.4618 78.5818 79.4193 78.5733 79.3599C78.5903 79.1817 78.6072 78.995 78.6242 78.8168L78.6666 78.1804L78.6921 77.8579L78.7006 77.6967V77.6797V77.6712C77.9199 77.527 79.7359 77.8579 78.3611 77.6033C78.3442 77.4761 78.3272 77.3573 78.3187 77.23L78.2933 77.0433C81.6282 77.5779 84.9547 78.104 88.2897 78.6302ZM78.0302 119.414V119.388V119.193L78.0387 118.811L78.0472 118.039C78.0556 117.521 78.0472 117.012 78.0811 116.495C78.2084 112.608 78.5733 108.721 79.057 104.835C79.0655 105.234 79.074 105.633 79.0824 106.04C78.5733 110.47 78.1744 114.933 78.0387 119.422C77.852 119.422 77.6738 119.422 78.0302 119.414ZM75.9257 76.6784C76.2906 76.7378 76.6555 76.7972 77.0119 76.8481L76.7233 77.3063C76.6385 77.2894 76.5791 77.2809 76.4857 77.2639L76.4773 77.3063L76.4518 77.3827L76.4009 77.5439C76.3754 77.5439 76.3584 77.5355 76.3415 77.5355L76.333 77.4336L76.316 77.1451L76.3075 77.0008V76.9669V76.9584C75.3316 76.8142 78.4969 77.2639 74.1097 76.6359L74.1012 76.6529L74.0757 76.7208C74.0333 76.8481 73.9909 76.9754 73.9399 77.0942C73.923 77.0942 73.9145 77.0942 73.906 77.0857C73.2696 76.5002 72.7095 75.9825 73.4223 76.6359H73.4138L73.3968 76.6444C73.0659 76.7802 72.7349 76.9414 72.404 77.1281C72.4804 76.9499 72.5228 76.8481 72.5228 76.8226C72.5313 76.7717 72.5143 76.6529 72.5058 76.6275C72.4379 76.4068 72.3531 76.2371 72.2597 76.0928L75.9257 76.6784ZM76.4094 77.5524L76.3584 77.7137L76.35 77.5439C76.3669 77.5439 76.3839 77.5439 76.4094 77.5524ZM73.9654 77.0942C73.9654 77.1027 73.9569 77.1112 73.9569 77.1112C73.9484 77.1027 73.9399 77.0942 73.9315 77.0857C73.9399 77.0942 73.9484 77.0942 73.9654 77.0942ZM71.8948 97.5115C71.8779 98.394 71.8694 99.2681 71.8779 100.142C71.9033 101.822 71.9457 103.511 72.0476 105.183C72.09 106.023 72.1579 106.863 72.2088 107.695L72.3191 108.951L72.3446 109.265V109.282C72.1664 109.29 72.0051 109.298 72.3446 109.282L72.3531 109.417C76.8761 109.256 73.609 109.366 74.6188 109.332V109.324V109.307V109.265V109.188L74.6443 108.577C74.6697 107.856 74.7122 107.135 74.7631 106.405C74.9583 106.405 74.8819 106.405 74.7631 106.405C75.0516 102.348 75.705 98.3091 76.4094 94.2444C76.2227 99.4293 75.9002 104.64 75.7559 109.876C75.6965 111.972 75.6711 114.068 75.6881 116.172C75.6881 117.224 75.7305 118.277 75.7475 119.329V119.431V119.439C75.5693 119.448 75.408 119.456 75.7475 119.448V119.482C77.0798 119.456 77.7332 119.448 78.0217 119.439C78.0217 119.482 78.0132 119.533 78.0132 119.575C78.0047 120.729 77.9793 121.875 77.9878 123.029C78.0217 124.183 78.0217 125.337 78.0896 126.491C78.115 126.78 78.1235 127.077 78.1405 127.365C76.1972 123.513 74.534 119.575 73.2271 115.604C71.81 111.327 70.7407 107.016 70.1043 102.773C72.1918 103.146 70.0025 102.696 70.851 102.832L71.0123 102.068C71.3602 100.549 71.6318 99.0304 71.8948 97.5115ZM71.5808 80.8704C71.3857 81.3626 71.1905 81.8548 70.9953 82.3555C70.7492 83.0174 70.5201 83.6878 70.2825 84.3497C70.3249 84.0951 70.3758 83.8321 70.4267 83.5775C70.605 82.8477 70.7916 82.1179 70.9699 81.3966C71.0123 81.2014 71.0632 81.0147 71.1226 80.828C71.1565 80.8365 71.182 80.8535 71.2159 80.862C71.3517 80.9044 71.4705 80.8959 71.5808 80.8704Z" fill="#B1D34B"/>
<path d="M42.8793 203.938V221H39.9379V203.938H42.8793ZM39.9848 202.801L42.27 199.273H45.4575L42.27 202.801H39.9848ZM49.4391 211.027V221H46.6149V208.32H49.2751L49.4391 211.027ZM48.9352 214.191L48.0212 214.18C48.029 213.281 48.154 212.457 48.3962 211.707C48.6462 210.957 48.9899 210.312 49.4274 209.773C49.8727 209.234 50.404 208.82 51.0212 208.531C51.6383 208.234 52.3258 208.086 53.0837 208.086C53.693 208.086 54.2438 208.172 54.736 208.344C55.236 208.508 55.6618 208.777 56.0133 209.152C56.3727 209.527 56.6462 210.016 56.8337 210.617C57.0212 211.211 57.1149 211.941 57.1149 212.809V221H54.279V212.797C54.279 212.188 54.1891 211.707 54.0094 211.355C53.8376 210.996 53.5837 210.742 53.2477 210.594C52.9196 210.438 52.5094 210.359 52.0172 210.359C51.5329 210.359 51.0993 210.461 50.7165 210.664C50.3337 210.867 50.0094 211.145 49.7438 211.496C49.486 211.848 49.2868 212.254 49.1462 212.715C49.0055 213.176 48.9352 213.668 48.9352 214.191ZM68.1161 218.375V203H70.952V221H68.3856L68.1161 218.375ZM59.8661 214.801V214.555C59.8661 213.594 59.9794 212.719 60.2059 211.93C60.4325 211.133 60.7606 210.449 61.1903 209.879C61.62 209.301 62.1434 208.859 62.7606 208.555C63.3778 208.242 64.0731 208.086 64.8466 208.086C65.6122 208.086 66.2841 208.234 66.8622 208.531C67.4403 208.828 67.9325 209.254 68.3387 209.809C68.745 210.355 69.0692 211.012 69.3114 211.777C69.5536 212.535 69.7255 213.379 69.827 214.309V215.094C69.7255 216 69.5536 216.828 69.3114 217.578C69.0692 218.328 68.745 218.977 68.3387 219.523C67.9325 220.07 67.4364 220.492 66.8505 220.789C66.2723 221.086 65.5966 221.234 64.8231 221.234C64.0575 221.234 63.3661 221.074 62.7489 220.754C62.1395 220.434 61.62 219.984 61.1903 219.406C60.7606 218.828 60.4325 218.148 60.2059 217.367C59.9794 216.578 59.8661 215.723 59.8661 214.801ZM62.6903 214.555V214.801C62.6903 215.379 62.7411 215.918 62.8427 216.418C62.952 216.918 63.12 217.359 63.3466 217.742C63.5731 218.117 63.8661 218.414 64.2255 218.633C64.5927 218.844 65.0302 218.949 65.538 218.949C66.1786 218.949 66.7059 218.809 67.12 218.527C67.5341 218.246 67.8583 217.867 68.0927 217.391C68.3348 216.906 68.4989 216.367 68.5848 215.773V213.652C68.538 213.191 68.4403 212.762 68.2919 212.363C68.1512 211.965 67.9598 211.617 67.7177 211.32C67.4755 211.016 67.1747 210.781 66.8153 210.617C66.4637 210.445 66.0458 210.359 65.5614 210.359C65.0458 210.359 64.6083 210.469 64.2489 210.688C63.8895 210.906 63.5927 211.207 63.3583 211.59C63.1317 211.973 62.9637 212.418 62.8544 212.926C62.745 213.434 62.6903 213.977 62.6903 214.555ZM77.3126 208.32V221H74.4767V208.32H77.3126ZM74.2892 204.992C74.2892 204.562 74.4298 204.207 74.711 203.926C75.0001 203.637 75.3985 203.492 75.9063 203.492C76.4063 203.492 76.8009 203.637 77.0899 203.926C77.379 204.207 77.5235 204.562 77.5235 204.992C77.5235 205.414 77.379 205.766 77.0899 206.047C76.8009 206.328 76.4063 206.469 75.9063 206.469C75.3985 206.469 75.0001 206.328 74.711 206.047C74.4298 205.766 74.2892 205.414 74.2892 204.992ZM85.97 218.984C86.431 218.984 86.845 218.895 87.2122 218.715C87.5872 218.527 87.888 218.27 88.1146 217.941C88.3489 217.613 88.4778 217.234 88.5013 216.805H91.1614C91.1458 217.625 90.9036 218.371 90.4349 219.043C89.9661 219.715 89.345 220.25 88.5716 220.648C87.7982 221.039 86.9427 221.234 86.0052 221.234C85.0364 221.234 84.1927 221.07 83.4739 220.742C82.7552 220.406 82.1575 219.945 81.681 219.359C81.2044 218.773 80.845 218.098 80.6028 217.332C80.3685 216.566 80.2513 215.746 80.2513 214.871V214.461C80.2513 213.586 80.3685 212.766 80.6028 212C80.845 211.227 81.2044 210.547 81.681 209.961C82.1575 209.375 82.7552 208.918 83.4739 208.59C84.1927 208.254 85.0325 208.086 85.9935 208.086C87.0091 208.086 87.8997 208.289 88.6653 208.695C89.431 209.094 90.0325 209.652 90.47 210.371C90.9153 211.082 91.1458 211.91 91.1614 212.855H88.5013C88.4778 212.387 88.3607 211.965 88.1497 211.59C87.9466 211.207 87.6575 210.902 87.2825 210.676C86.9153 210.449 86.4739 210.336 85.9583 210.336C85.388 210.336 84.9153 210.453 84.5403 210.688C84.1653 210.914 83.8724 211.227 83.6614 211.625C83.4505 212.016 83.2982 212.457 83.2044 212.949C83.1185 213.434 83.0755 213.938 83.0755 214.461V214.871C83.0755 215.395 83.1185 215.902 83.2044 216.395C83.2903 216.887 83.4388 217.328 83.6497 217.719C83.8685 218.102 84.1653 218.41 84.5403 218.645C84.9153 218.871 85.3919 218.984 85.97 218.984ZM99.3032 221.234C98.3657 221.234 97.5181 221.082 96.7603 220.777C96.0103 220.465 95.3697 220.031 94.8384 219.477C94.315 218.922 93.9126 218.27 93.6314 217.52C93.3501 216.77 93.2095 215.961 93.2095 215.094V214.625C93.2095 213.633 93.354 212.734 93.6431 211.93C93.9322 211.125 94.3345 210.438 94.8501 209.867C95.3657 209.289 95.9751 208.848 96.6782 208.543C97.3814 208.238 98.1431 208.086 98.9634 208.086C99.8697 208.086 100.663 208.238 101.342 208.543C102.022 208.848 102.584 209.277 103.03 209.832C103.483 210.379 103.819 211.031 104.038 211.789C104.264 212.547 104.377 213.383 104.377 214.297V215.504H94.5806V213.477H101.588V213.254C101.573 212.746 101.471 212.27 101.284 211.824C101.104 211.379 100.827 211.02 100.452 210.746C100.077 210.473 99.5767 210.336 98.9517 210.336C98.4829 210.336 98.065 210.438 97.6978 210.641C97.3384 210.836 97.0376 211.121 96.7954 211.496C96.5532 211.871 96.3657 212.324 96.2329 212.855C96.1079 213.379 96.0454 213.969 96.0454 214.625V215.094C96.0454 215.648 96.1197 216.164 96.2681 216.641C96.4243 217.109 96.6509 217.52 96.9478 217.871C97.2447 218.223 97.604 218.5 98.0259 218.703C98.4478 218.898 98.9282 218.996 99.4673 218.996C100.147 218.996 100.752 218.859 101.284 218.586C101.815 218.312 102.276 217.926 102.667 217.426L104.155 218.867C103.881 219.266 103.526 219.648 103.088 220.016C102.651 220.375 102.116 220.668 101.483 220.895C100.858 221.121 100.131 221.234 99.3032 221.234ZM121.06 218.375V203H123.895V221H121.329L121.06 218.375ZM112.81 214.801V214.555C112.81 213.594 112.923 212.719 113.149 211.93C113.376 211.133 113.704 210.449 114.134 209.879C114.563 209.301 115.087 208.859 115.704 208.555C116.321 208.242 117.017 208.086 117.79 208.086C118.556 208.086 119.228 208.234 119.806 208.531C120.384 208.828 120.876 209.254 121.282 209.809C121.688 210.355 122.013 211.012 122.255 211.777C122.497 212.535 122.669 213.379 122.77 214.309V215.094C122.669 216 122.497 216.828 122.255 217.578C122.013 218.328 121.688 218.977 121.282 219.523C120.876 220.07 120.38 220.492 119.794 220.789C119.216 221.086 118.54 221.234 117.767 221.234C117.001 221.234 116.31 221.074 115.692 220.754C115.083 220.434 114.563 219.984 114.134 219.406C113.704 218.828 113.376 218.148 113.149 217.367C112.923 216.578 112.81 215.723 112.81 214.801ZM115.634 214.555V214.801C115.634 215.379 115.685 215.918 115.786 216.418C115.895 216.918 116.063 217.359 116.29 217.742C116.517 218.117 116.81 218.414 117.169 218.633C117.536 218.844 117.974 218.949 118.481 218.949C119.122 218.949 119.649 218.809 120.063 218.527C120.478 218.246 120.802 217.867 121.036 217.391C121.278 216.906 121.442 216.367 121.528 215.773V213.652C121.481 213.191 121.384 212.762 121.235 212.363C121.095 211.965 120.903 211.617 120.661 211.32C120.419 211.016 120.118 210.781 119.759 210.617C119.407 210.445 118.989 210.359 118.505 210.359C117.989 210.359 117.552 210.469 117.192 210.688C116.833 210.906 116.536 211.207 116.302 211.59C116.075 211.973 115.907 212.418 115.798 212.926C115.688 213.434 115.634 213.977 115.634 214.555ZM132.822 221.234C131.885 221.234 131.037 221.082 130.279 220.777C129.529 220.465 128.889 220.031 128.358 219.477C127.834 218.922 127.432 218.27 127.151 217.52C126.869 216.77 126.729 215.961 126.729 215.094V214.625C126.729 213.633 126.873 212.734 127.162 211.93C127.451 211.125 127.854 210.438 128.369 209.867C128.885 209.289 129.494 208.848 130.197 208.543C130.901 208.238 131.662 208.086 132.483 208.086C133.389 208.086 134.182 208.238 134.861 208.543C135.541 208.848 136.104 209.277 136.549 209.832C137.002 210.379 137.338 211.031 137.557 211.789C137.783 212.547 137.897 213.383 137.897 214.297V215.504H128.1V213.477H135.108V213.254C135.092 212.746 134.99 212.27 134.803 211.824C134.623 211.379 134.346 211.02 133.971 210.746C133.596 210.473 133.096 210.336 132.471 210.336C132.002 210.336 131.584 210.438 131.217 210.641C130.858 210.836 130.557 211.121 130.315 211.496C130.072 211.871 129.885 212.324 129.752 212.855C129.627 213.379 129.565 213.969 129.565 214.625V215.094C129.565 215.648 129.639 216.164 129.787 216.641C129.944 217.109 130.17 217.52 130.467 217.871C130.764 218.223 131.123 218.5 131.545 218.703C131.967 218.898 132.447 218.996 132.986 218.996C133.666 218.996 134.272 218.859 134.803 218.586C135.334 218.312 135.795 217.926 136.186 217.426L137.674 218.867C137.401 219.266 137.045 219.648 136.608 220.016C136.17 220.375 135.635 220.668 135.002 220.895C134.377 221.121 133.651 221.234 132.822 221.234ZM156.7 203.938H159.629V215.34C159.629 216.637 159.348 217.723 158.786 218.598C158.223 219.473 157.458 220.133 156.489 220.578C155.528 221.016 154.454 221.234 153.266 221.234C152.04 221.234 150.946 221.016 149.985 220.578C149.024 220.133 148.266 219.473 147.712 218.598C147.165 217.723 146.891 216.637 146.891 215.34V203.938H149.821V215.34C149.821 216.16 149.962 216.836 150.243 217.367C150.524 217.891 150.922 218.277 151.438 218.527C151.954 218.777 152.563 218.902 153.266 218.902C153.969 218.902 154.575 218.777 155.083 218.527C155.598 218.277 155.997 217.891 156.278 217.367C156.559 216.836 156.7 216.16 156.7 215.34V203.938ZM168.744 208.32V210.383H161.596V208.32H168.744ZM163.658 205.215H166.482V217.496C166.482 217.887 166.537 218.188 166.646 218.398C166.763 218.602 166.924 218.738 167.127 218.809C167.33 218.879 167.568 218.914 167.842 218.914C168.037 218.914 168.224 218.902 168.404 218.879C168.584 218.855 168.728 218.832 168.838 218.809L168.849 220.965C168.615 221.035 168.342 221.098 168.029 221.152C167.724 221.207 167.373 221.234 166.974 221.234C166.326 221.234 165.752 221.121 165.252 220.895C164.752 220.66 164.361 220.281 164.08 219.758C163.799 219.234 163.658 218.539 163.658 217.672V205.215ZM174.331 208.32V221H171.495V208.32H174.331ZM171.308 204.992C171.308 204.562 171.448 204.207 171.73 203.926C172.019 203.637 172.417 203.492 172.925 203.492C173.425 203.492 173.819 203.637 174.108 203.926C174.397 204.207 174.542 204.562 174.542 204.992C174.542 205.414 174.397 205.766 174.108 206.047C173.819 206.328 173.425 206.469 172.925 206.469C172.417 206.469 172.019 206.328 171.73 206.047C171.448 205.766 171.308 205.414 171.308 204.992ZM180.832 203V221H177.996V203H180.832ZM187.333 208.32V221H184.498V208.32H187.333ZM184.31 204.992C184.31 204.562 184.451 204.207 184.732 203.926C185.021 203.637 185.419 203.492 185.927 203.492C186.427 203.492 186.822 203.637 187.111 203.926C187.4 204.207 187.544 204.562 187.544 204.992C187.544 205.414 187.4 205.766 187.111 206.047C186.822 206.328 186.427 206.469 185.927 206.469C185.419 206.469 185.021 206.328 184.732 206.047C184.451 205.766 184.31 205.414 184.31 204.992ZM200.62 218.75V221H191.174V218.75H200.62ZM200.362 210.078L192.135 221H190.307V219.184L198.487 208.32H200.362V210.078ZM199.272 208.32V210.57H190.448V208.32H199.272ZM210.414 218.457V212.41C210.414 211.957 210.332 211.566 210.168 211.238C210.004 210.91 209.754 210.656 209.418 210.477C209.09 210.297 208.676 210.207 208.176 210.207C207.715 210.207 207.316 210.285 206.98 210.441C206.644 210.598 206.383 210.809 206.195 211.074C206.008 211.34 205.914 211.641 205.914 211.977H203.101C203.101 211.477 203.223 210.992 203.465 210.523C203.707 210.055 204.059 209.637 204.519 209.27C204.98 208.902 205.531 208.613 206.172 208.402C206.812 208.191 207.531 208.086 208.328 208.086C209.281 208.086 210.125 208.246 210.859 208.566C211.601 208.887 212.184 209.371 212.605 210.02C213.035 210.66 213.25 211.465 213.25 212.434V218.07C213.25 218.648 213.289 219.168 213.367 219.629C213.453 220.082 213.574 220.477 213.73 220.812V221H210.836C210.703 220.695 210.598 220.309 210.519 219.84C210.449 219.363 210.414 218.902 210.414 218.457ZM210.824 213.289L210.848 215.035H208.82C208.297 215.035 207.836 215.086 207.437 215.188C207.039 215.281 206.707 215.422 206.441 215.609C206.176 215.797 205.976 216.023 205.844 216.289C205.711 216.555 205.644 216.855 205.644 217.191C205.644 217.527 205.723 217.836 205.879 218.117C206.035 218.391 206.262 218.605 206.559 218.762C206.863 218.918 207.23 218.996 207.66 218.996C208.238 218.996 208.742 218.879 209.172 218.645C209.609 218.402 209.953 218.109 210.203 217.766C210.453 217.414 210.586 217.082 210.601 216.77L211.516 218.023C211.422 218.344 211.262 218.688 211.035 219.055C210.809 219.422 210.512 219.773 210.144 220.109C209.785 220.438 209.351 220.707 208.844 220.918C208.344 221.129 207.766 221.234 207.109 221.234C206.281 221.234 205.543 221.07 204.894 220.742C204.246 220.406 203.738 219.957 203.371 219.395C203.004 218.824 202.82 218.18 202.82 217.461C202.82 216.789 202.945 216.195 203.195 215.68C203.453 215.156 203.828 214.719 204.32 214.367C204.82 214.016 205.43 213.75 206.148 213.57C206.867 213.383 207.687 213.289 208.609 213.289H210.824ZM221.767 218.984C222.228 218.984 222.642 218.895 223.009 218.715C223.384 218.527 223.685 218.27 223.911 217.941C224.146 217.613 224.275 217.234 224.298 216.805H226.958C226.943 217.625 226.7 218.371 226.232 219.043C225.763 219.715 225.142 220.25 224.368 220.648C223.595 221.039 222.739 221.234 221.802 221.234C220.833 221.234 219.989 221.07 219.271 220.742C218.552 220.406 217.954 219.945 217.478 219.359C217.001 218.773 216.642 218.098 216.4 217.332C216.165 216.566 216.048 215.746 216.048 214.871V214.461C216.048 213.586 216.165 212.766 216.4 212C216.642 211.227 217.001 210.547 217.478 209.961C217.954 209.375 218.552 208.918 219.271 208.59C219.989 208.254 220.829 208.086 221.79 208.086C222.806 208.086 223.696 208.289 224.462 208.695C225.228 209.094 225.829 209.652 226.267 210.371C226.712 211.082 226.943 211.91 226.958 212.855H224.298C224.275 212.387 224.157 211.965 223.946 211.59C223.743 211.207 223.454 210.902 223.079 210.676C222.712 210.449 222.271 210.336 221.755 210.336C221.185 210.336 220.712 210.453 220.337 210.688C219.962 210.914 219.669 211.227 219.458 211.625C219.247 212.016 219.095 212.457 219.001 212.949C218.915 213.434 218.872 213.938 218.872 214.461V214.871C218.872 215.395 218.915 215.902 219.001 216.395C219.087 216.887 219.235 217.328 219.446 217.719C219.665 218.102 219.962 218.41 220.337 218.645C220.712 218.871 221.189 218.984 221.767 218.984ZM220.525 221.023H222.622L222.482 221.68C222.927 221.758 223.333 221.945 223.7 222.242C224.075 222.547 224.263 223.035 224.263 223.707C224.263 224.105 224.181 224.465 224.017 224.785C223.853 225.105 223.607 225.379 223.278 225.605C222.958 225.84 222.556 226.02 222.071 226.145C221.595 226.27 221.04 226.332 220.407 226.332L220.325 224.738C220.63 224.738 220.903 224.699 221.146 224.621C221.388 224.551 221.579 224.438 221.72 224.281C221.868 224.125 221.943 223.922 221.943 223.672C221.943 223.43 221.88 223.242 221.755 223.109C221.63 222.977 221.435 222.875 221.169 222.805C220.911 222.734 220.575 222.684 220.161 222.652L220.525 221.023ZM236.659 218.457V212.41C236.659 211.957 236.577 211.566 236.412 211.238C236.248 210.91 235.998 210.656 235.662 210.477C235.334 210.297 234.92 210.207 234.42 210.207C233.959 210.207 233.561 210.285 233.225 210.441C232.889 210.598 232.627 210.809 232.44 211.074C232.252 211.34 232.159 211.641 232.159 211.977H229.346C229.346 211.477 229.467 210.992 229.709 210.523C229.952 210.055 230.303 209.637 230.764 209.27C231.225 208.902 231.776 208.613 232.416 208.402C233.057 208.191 233.776 208.086 234.573 208.086C235.526 208.086 236.369 208.246 237.104 208.566C237.846 208.887 238.428 209.371 238.85 210.02C239.28 210.66 239.494 211.465 239.494 212.434V218.07C239.494 218.648 239.534 219.168 239.612 219.629C239.698 220.082 239.819 220.477 239.975 220.812V221H237.08C236.948 220.695 236.842 220.309 236.764 219.84C236.694 219.363 236.659 218.902 236.659 218.457ZM237.069 213.289L237.092 215.035H235.065C234.541 215.035 234.08 215.086 233.682 215.188C233.284 215.281 232.952 215.422 232.686 215.609C232.42 215.797 232.221 216.023 232.088 216.289C231.955 216.555 231.889 216.855 231.889 217.191C231.889 217.527 231.967 217.836 232.123 218.117C232.28 218.391 232.506 218.605 232.803 218.762C233.108 218.918 233.475 218.996 233.905 218.996C234.483 218.996 234.987 218.879 235.416 218.645C235.854 218.402 236.198 218.109 236.448 217.766C236.698 217.414 236.83 217.082 236.846 216.77L237.76 218.023C237.666 218.344 237.506 218.688 237.28 219.055C237.053 219.422 236.756 219.773 236.389 220.109C236.03 220.438 235.596 220.707 235.088 220.918C234.588 221.129 234.01 221.234 233.354 221.234C232.526 221.234 231.787 221.07 231.139 220.742C230.491 220.406 229.983 219.957 229.616 219.395C229.248 218.824 229.065 218.18 229.065 217.461C229.065 216.789 229.19 216.195 229.44 215.68C229.698 215.156 230.073 214.719 230.565 214.367C231.065 214.016 231.674 213.75 232.393 213.57C233.112 213.383 233.932 213.289 234.854 213.289H237.069ZM237.244 203.141L238.967 203.27C238.967 203.84 238.854 204.352 238.627 204.805C238.401 205.25 238.092 205.602 237.702 205.859C237.311 206.117 236.869 206.246 236.377 206.246C235.994 206.246 235.67 206.191 235.405 206.082C235.139 205.973 234.897 205.848 234.678 205.707C234.459 205.566 234.233 205.445 233.998 205.344C233.772 205.234 233.502 205.18 233.19 205.18C232.893 205.18 232.639 205.289 232.428 205.508C232.225 205.727 232.123 206.02 232.123 206.387L230.389 206.293C230.389 205.73 230.502 205.223 230.729 204.77C230.955 204.316 231.264 203.957 231.655 203.691C232.045 203.426 232.487 203.293 232.979 203.293C233.299 203.293 233.588 203.348 233.846 203.457C234.112 203.559 234.362 203.68 234.596 203.82C234.838 203.961 235.084 204.086 235.334 204.195C235.584 204.305 235.862 204.359 236.166 204.359C236.463 204.359 236.717 204.246 236.928 204.02C237.139 203.793 237.244 203.5 237.244 203.141ZM242.293 214.801V214.531C242.293 213.617 242.425 212.77 242.691 211.988C242.957 211.199 243.339 210.516 243.839 209.938C244.347 209.352 244.964 208.898 245.691 208.578C246.425 208.25 247.253 208.086 248.175 208.086C249.105 208.086 249.933 208.25 250.66 208.578C251.394 208.898 252.015 209.352 252.523 209.938C253.031 210.516 253.418 211.199 253.683 211.988C253.949 212.77 254.082 213.617 254.082 214.531V214.801C254.082 215.715 253.949 216.562 253.683 217.344C253.418 218.125 253.031 218.809 252.523 219.395C252.015 219.973 251.398 220.426 250.671 220.754C249.945 221.074 249.121 221.234 248.199 221.234C247.269 221.234 246.437 221.074 245.703 220.754C244.976 220.426 244.359 219.973 243.851 219.395C243.343 218.809 242.957 218.125 242.691 217.344C242.425 216.562 242.293 215.715 242.293 214.801ZM245.117 214.531V214.801C245.117 215.371 245.175 215.91 245.293 216.418C245.41 216.926 245.593 217.371 245.843 217.754C246.093 218.137 246.414 218.438 246.804 218.656C247.195 218.875 247.66 218.984 248.199 218.984C248.722 218.984 249.175 218.875 249.558 218.656C249.949 218.438 250.269 218.137 250.519 217.754C250.769 217.371 250.953 216.926 251.07 216.418C251.195 215.91 251.257 215.371 251.257 214.801V214.531C251.257 213.969 251.195 213.438 251.07 212.938C250.953 212.43 250.765 211.98 250.507 211.59C250.257 211.199 249.937 210.895 249.546 210.676C249.164 210.449 248.707 210.336 248.175 210.336C247.644 210.336 247.183 210.449 246.793 210.676C246.41 210.895 246.093 211.199 245.843 211.59C245.593 211.98 245.41 212.43 245.293 212.938C245.175 213.438 245.117 213.969 245.117 214.531Z" fill="#0A5F55"/>
<circle cx="264.5" cy="22.5" r="7.5" fill="#E1E5E7"/>
<path d="M263.829 24.1584V24.1051C263.835 23.5399 263.894 23.0901 264.006 22.7557C264.119 22.4213 264.279 22.1505 264.486 21.9434C264.693 21.7362 264.942 21.5453 265.232 21.3707C265.406 21.2642 265.563 21.1384 265.702 20.9934C265.841 20.8455 265.951 20.6753 266.031 20.483C266.113 20.2906 266.155 20.0775 266.155 19.8438C266.155 19.5537 266.087 19.3022 265.951 19.0891C265.815 18.8761 265.633 18.7118 265.405 18.5964C265.177 18.481 264.924 18.4233 264.646 18.4233C264.403 18.4233 264.169 18.4736 263.944 18.5742C263.719 18.6748 263.531 18.8332 263.381 19.0492C263.23 19.2652 263.142 19.5478 263.119 19.897H262C262.024 19.3939 262.154 18.9634 262.391 18.6053C262.63 18.2472 262.945 17.9735 263.336 17.7841C263.73 17.5947 264.166 17.5 264.646 17.5C265.166 17.5 265.619 17.6036 266.004 17.8107C266.392 18.0179 266.69 18.302 266.901 18.663C267.114 19.024 267.22 19.4354 267.22 19.897C267.22 20.2225 267.17 20.517 267.069 20.7804C266.972 21.0437 266.83 21.279 266.643 21.4862C266.46 21.6933 266.238 21.8768 265.977 22.0366C265.717 22.1993 265.508 22.371 265.351 22.5515C265.195 22.729 265.081 22.9406 265.01 23.1863C264.939 23.4319 264.9 23.7382 264.894 24.1051V24.1584H263.829ZM264.397 26.7862C264.178 26.7862 263.99 26.7078 263.833 26.551C263.676 26.3941 263.598 26.2062 263.598 25.9872C263.598 25.7682 263.676 25.5803 263.833 25.4235C263.99 25.2666 264.178 25.1882 264.397 25.1882C264.616 25.1882 264.804 25.2666 264.961 25.4235C265.118 25.5803 265.196 25.7682 265.196 25.9872C265.196 26.1322 265.159 26.2654 265.085 26.3867C265.014 26.508 264.918 26.6057 264.797 26.6797C264.678 26.7507 264.545 26.7862 264.397 26.7862Z" fill="#0A5F55"/>
<path d="M0.5 0.5H286.5V252.5H16C7.43958 252.5 0.5 245.56 0.5 237V0.5Z" stroke="#B1D34B"/>
</svg>
