<svg width="121" height="95" viewBox="0 0 121 95" fill="none" xmlns="http://www.w3.org/2000/svg">
<path d="M0.659502 39.6391L3.10998 41.5599C11.593 48.4258 19.1606 56.4098 25.7769 65.089C29.085 69.4322 32.1409 73.9618 34.8797 78.6776C35.6581 80.0322 36.4221 81.4011 37.1572 82.7771C37.2365 83.716 37.3878 84.2464 37.6473 83.7232C38.0221 84.4399 38.4041 85.1494 38.7644 85.8733L39.2257 86.7835L39.4131 87.1562L39.4635 87.2565L39.6509 87.665L40.0257 88.482C40.0257 88.482 40.6455 89.6431 41.2581 90.7755C41.8419 91.9222 42.3897 93.0618 42.3753 92.9542C42.541 93.2553 42.6996 93.5348 42.851 93.7784L42.7717 93.9791C42.7645 94.0221 42.7789 94.1225 42.7861 94.144C43.1897 95.348 44.0618 95.0183 44.4654 94.7245C44.5303 94.6815 44.5375 94.6672 44.5519 94.6242L45.6906 91.7215C52.9556 73.1662 64.0764 56.2665 77.1504 41.2158C83.7019 33.6834 90.7578 26.588 98.1813 19.9013L100.971 17.4L103.825 14.9632L106.679 12.5336L109.59 10.1757L112.776 7.60989C112.776 7.60989 116.783 4.14108 116.582 4.24858C118.131 2.77935 118.967 1.61113 115.998 3.37421C114.218 4.37759 111.803 5.98299 111.803 5.98299C111.558 6.16933 111.313 6.36284 111.075 6.55635L110.167 7.28738C110.217 6.90036 110.268 6.47751 110.275 6.47034C110.268 6.46318 110.217 6.44884 110.203 6.44884C110.102 6.42734 110.001 6.40584 109.908 6.38434L109.778 6.36284L109.785 6.35567H109.799C109.807 6.33417 109.807 6.37717 109.807 6.34134L114.419 4.09808C114.419 4.09808 119.039 1.45346 118.816 1.50363C120.61 0.335411 121.634 -0.653629 118.398 0.543256C116.473 1.20978 113.799 2.29916 113.799 2.29916L101.288 8.37676C94.3686 11.7811 87.4713 15.3287 80.9487 19.5286C77.6838 21.6213 74.491 23.8431 71.4711 26.2799C68.4296 28.6736 65.4818 31.1677 62.5917 33.7407C56.8259 38.8937 51.37 44.4482 46.606 50.5831C45.9573 51.4145 45.3231 52.2602 44.7032 53.1202C44.6816 53.1632 44.6744 53.2635 44.6744 53.285C44.7465 54.5679 45.669 54.4676 46.1303 54.2956C46.2023 54.2741 46.2096 54.2597 46.2384 54.2239C46.6852 53.6004 47.1537 52.9912 47.615 52.382C47.5861 52.7117 47.5429 53.0342 47.5213 53.3639C47.2114 57.1624 47.1033 60.9609 47.0816 64.7594C47.0744 66.6658 47.0816 68.5364 47.1177 70.4499L47.2186 73.3024L47.3051 75.2876C47.3051 75.2876 47.4348 76.592 47.5645 77.8821C47.687 79.165 47.7519 80.4192 47.7735 80.3117C47.824 80.8492 47.8744 81.3294 47.9393 81.7093C46.4906 84.7696 45.1357 87.8729 43.9032 91.0263L43.7158 91.4994C43.9176 89.5858 44.0257 87.3712 44.0257 87.3712L44.0041 85.4146C43.9897 84.0744 43.9897 82.7413 44.0041 81.4082C44.0257 80.0752 44.0618 78.7421 44.1267 77.4162C44.1627 76.7569 44.2059 76.0904 44.2564 75.4167C44.2924 74.743 44.314 74.0263 44.3068 73.3526C44.3285 67.8985 43.6293 62.5448 44.0978 57.3272C44.1699 56.632 44.2708 55.944 44.3861 55.2559C46.087 56.3238 47.2979 56.7825 44.9339 54.3816C44.242 53.6147 43.2978 52.8192 42.5627 52.1526C42.1951 51.823 41.8636 51.5506 41.6185 51.3643C41.3807 51.1779 41.2365 51.0633 41.2365 51.0633L39.5428 49.9166C38.0509 48.9848 36.5662 48.046 35.0311 47.2003C31.968 45.4874 28.8256 43.9106 25.5679 42.5847C19.0669 39.9545 12.1912 37.9477 5.04153 37.7757C3.96765 37.704 2.88655 37.7972 1.81267 37.8402C1.76942 37.8474 1.68294 37.9047 1.66852 37.9262C1.59645 37.9907 1.546 38.0552 1.49555 38.1197C0.378418 38.2201 0.428869 39.0801 0.580222 39.5244C0.609051 39.6033 0.623465 39.6104 0.659502 39.6391ZM105.908 8.4341C105.835 8.40543 105.771 8.38393 105.699 8.35526L108.293 7.09387C108.257 7.40205 108.221 7.6744 108.221 7.6744C108.221 7.6744 108.481 8.14025 108.524 8.13308C108.61 8.21909 108.74 8.29076 108.891 8.34092C107.774 9.2368 106.671 10.147 105.562 11.0644C105.677 10.319 105.965 8.51293 105.972 8.48426C105.972 8.46276 105.922 8.44126 105.908 8.4341ZM100.74 14.6622C100.74 14.6622 100.812 13.7305 100.956 12.763C101.093 11.7811 101.23 10.792 101.237 10.7634C101.23 10.749 101.18 10.7275 101.165 10.7204C101.1 10.6917 101.035 10.6845 100.971 10.6559C101.014 10.6344 101.057 10.6129 101.1 10.5914L103.947 9.20813C103.817 10.0538 103.659 11.0572 103.659 11.0572C103.659 11.0572 103.832 11.9961 103.882 11.9674C103.933 12.0893 104.005 12.1896 104.098 12.2684C102.823 13.3435 101.569 14.44 100.307 15.5366C100.552 15.1281 100.74 14.6622 100.74 14.6622ZM91.8605 22.7035C91.8605 22.7035 92.574 15.4291 92.5812 15.3287C92.574 15.3072 92.5236 15.2714 92.5092 15.2642C92.4155 15.2069 92.329 15.1926 92.2353 15.1496C93.2299 14.612 94.2317 14.0817 95.2335 13.5585C95.1542 13.9885 95.075 14.4615 95.0029 14.956C94.8227 16.2318 94.7002 17.4717 94.7002 17.4717C94.7002 17.4717 94.8515 19.0126 94.8948 18.9552C95.0461 19.5787 95.4137 20.0303 95.9326 19.0914C96.2858 18.5467 96.5669 17.744 96.5669 17.744C96.5669 17.744 96.6966 16.4826 96.8696 15.2427C96.9561 14.6264 97.057 14.01 97.1507 13.5513C97.2516 13.0998 97.3164 12.7845 97.3164 12.7701C97.3092 12.7558 97.266 12.7199 97.2516 12.7128C97.1795 12.6698 97.1074 12.6411 97.0353 12.6053C97.7561 12.2398 98.4768 11.8814 99.1975 11.5159C99.1543 11.8026 99.111 12.1323 99.0678 12.4548C98.9309 13.4295 98.8444 14.44 98.8444 14.44C98.8444 14.44 98.902 14.741 98.9669 15.0564C99.039 15.3574 99.1255 15.6584 99.1471 15.6297C99.2552 15.8734 99.4138 16.0669 99.5939 16.1028C99.0822 16.5543 98.5489 16.9915 98.0444 17.4502C95.875 19.3781 93.7488 21.349 91.6515 23.3486C91.7884 22.9902 91.8605 22.7035 91.8605 22.7035ZM86.4695 28.4085C86.8659 25.8355 87.2118 23.5851 87.2118 23.5851L87.3632 21.8578L87.4424 21.0695L87.7884 17.9733C87.7884 17.9303 87.7451 17.8372 87.7307 17.8157C87.7019 17.7727 87.6731 17.7512 87.6515 17.7082C88.6388 17.142 89.619 16.5758 90.6136 16.0239C90.4335 17.9017 89.9938 22.4025 89.9938 22.4025C89.9938 22.4025 90.1019 24.5956 90.1524 24.5096C90.1668 24.61 90.1884 24.696 90.21 24.7891C88.956 26.0004 87.7019 27.2116 86.4695 28.4443C86.4695 28.4371 86.4695 28.4228 86.4695 28.4085ZM82.1018 32.0421C82.3973 30.0282 82.6784 27.1829 82.6784 27.1829L82.7505 25.4485L82.8658 23.6783C82.9379 22.6462 83.0316 21.6213 83.1469 20.5965C83.1469 20.5606 83.1109 20.489 83.0965 20.4603C83.9902 19.8941 84.8839 19.3279 85.7992 18.7832L85.5686 20.8831L85.4893 21.6858L85.3595 23.1909C85.3595 23.1909 85.3307 24.5311 85.3451 25.8355C85.3523 27.1471 85.4172 28.4228 85.4388 28.3153C85.4749 28.7095 85.5181 29.075 85.5613 29.3903C84.3505 30.6231 83.1325 31.8629 81.9505 33.1243C81.9937 32.8377 82.0442 32.4793 82.1018 32.0421ZM78.2099 36.844C78.3252 34.314 78.4405 31.9776 78.4405 31.9776L78.4117 30.2432L78.4189 27.0897L78.4622 23.9578C78.455 23.9148 78.4045 23.8288 78.3901 23.8073C78.3324 23.7356 78.282 23.6926 78.2243 23.6424C79.1829 22.9687 80.1559 22.3094 81.1433 21.6787C81.0856 22.3022 81.0207 22.9257 80.9775 23.5492L80.8694 25.3553L80.8045 26.8676C80.8045 26.8676 80.8478 28.1791 80.8982 29.505C80.9559 30.8094 81.0424 32.0779 81.064 31.9704C81.1361 32.723 81.2442 33.3752 81.3595 33.755C80.2928 34.8946 79.255 36.0628 78.2171 37.2238C78.2027 37.0948 78.2099 36.9802 78.2099 36.844ZM72.5162 43.6741C72.8909 41.6602 73.1071 38.7791 73.1071 38.7791L73.1216 37.0303C73.1432 34.7656 73.1648 32.508 73.2513 30.2647C73.2945 29.2398 73.345 28.2078 73.4171 27.1901C74.4477 26.3945 75.4856 25.6062 76.545 24.8393L76.5162 27.0897V30.279L76.5378 31.7913C76.5378 31.7913 76.6459 33.1243 76.7901 34.4287C76.9342 35.7331 77.136 37.0017 77.1504 36.887C77.2441 37.3313 77.3378 37.7327 77.4315 38.0695C77.0856 38.4566 76.7252 38.8364 76.3793 39.2306C75.0603 40.7357 73.763 42.2622 72.4873 43.8103C72.5017 43.7458 72.5089 43.71 72.5162 43.6741ZM68.1918 49.1138C68.3143 47.1071 68.5593 44.269 68.5593 44.269L68.6026 42.5346C68.6891 39.9831 68.8476 37.4102 68.8981 34.8157C68.9125 33.7622 68.9197 32.7015 68.8837 31.6336C68.8765 31.5906 68.8188 31.5046 68.8044 31.4831C68.6891 31.3469 68.5738 31.2537 68.4657 31.1749C69.4458 30.3507 70.4405 29.5337 71.4423 28.731C71.4206 29.2112 71.3846 29.6913 71.363 30.1715C71.2765 32.4578 71.2549 34.7297 71.2405 36.9945L71.226 38.4924C71.226 38.4924 71.2909 39.7968 71.3486 41.1083C71.4062 42.3984 71.4495 43.667 71.4711 43.5523C71.4999 44.0396 71.5432 44.4912 71.6008 44.8495C70.4477 46.2614 69.3161 47.6876 68.1918 49.1353C68.1918 49.1353 68.1918 49.1282 68.1918 49.1138ZM63.7737 52.0093C63.8818 51.0274 63.9611 50.3466 63.9611 50.3466L64.0404 48.5978C64.0764 47.7593 64.0908 46.8849 64.0692 46.0536C64.0764 45.2365 64.0692 44.3693 64.0548 43.5379C64.026 41.8609 63.9755 40.2053 64.026 38.5784C64.062 37.5607 64.1269 36.543 64.2566 35.5468C64.2566 35.5038 64.2134 35.4178 64.1989 35.3963C64.1197 35.2744 64.0404 35.1741 63.9611 35.0809C64.9701 34.185 65.9863 33.3035 67.0026 32.4291C67.017 33.2103 67.017 33.9987 67.0026 34.7871C66.9521 37.3313 66.8008 39.8971 66.7143 42.4844L66.6782 43.9966C66.6782 43.9966 66.7287 45.3369 66.8368 46.6484C66.9377 47.96 67.1251 49.2429 67.1395 49.1282C67.2188 49.5224 67.2981 49.8879 67.3846 50.1961C66.0872 51.8875 64.826 53.6004 63.5863 55.3276C63.5863 55.2631 63.5791 55.1986 63.5791 55.1269C63.5863 54.1451 63.6728 52.9553 63.7737 52.0093ZM59.3917 55.6501C59.3556 51.4145 59.2475 47.1931 59.3412 43.0004C59.3629 41.9612 59.3989 40.9292 59.4493 39.89C59.4421 39.847 59.3917 39.7609 59.3773 39.7394C59.3124 39.6534 59.2475 39.5889 59.1827 39.5244C60.1773 38.5569 61.2007 37.618 62.2241 36.672C62.1737 37.2883 62.1377 37.9047 62.116 38.5211C62.0656 40.2268 62.116 41.911 62.1449 43.5738C62.1593 44.4123 62.1737 45.215 62.1665 46.0679C62.1881 46.9064 62.1737 47.702 62.1377 48.5262L62.0728 50.0169C62.0728 50.0169 62.0728 51.3499 62.1737 52.683C62.253 54.0161 62.5196 55.3204 62.5269 55.1986C62.6205 55.6215 62.7431 56.0013 62.88 56.3167C61.5106 58.2517 60.1845 60.2155 58.8944 62.2007C59.2259 60.1868 59.4061 57.3989 59.4061 57.3989L59.3917 55.6501ZM53.8421 63.9925C53.77 58.3377 54.2817 52.6543 54.7718 46.9566L55.0385 43.8246C55.0385 43.8031 55.0241 43.7816 55.0169 43.753C55.8313 42.8858 56.6745 42.0472 57.5106 41.2015C57.489 41.782 57.4601 42.3626 57.4529 42.9431C57.3592 47.2003 57.4673 51.436 57.5106 55.6573L57.525 57.1552C57.525 57.1552 57.6043 58.4668 57.6908 59.764C57.7628 61.054 57.8277 62.3154 57.8493 62.2079C57.8926 62.7311 57.943 63.2113 58.0079 63.584C56.5376 65.8917 55.125 68.2353 53.7628 70.6076C53.7628 70.5933 53.7628 70.5789 53.7628 70.5646C53.8204 68.307 53.8925 65.7054 53.8925 65.7054C53.8493 65.1464 53.8565 64.5658 53.8421 63.9925ZM49.1357 73.5747L49.0276 70.7151C48.9844 68.823 48.9844 66.8879 48.9844 64.9815C49.006 61.1544 49.1141 57.3344 49.424 53.5359C49.5105 52.5038 49.6042 51.4718 49.7267 50.4469C49.7267 50.4039 49.6835 50.3107 49.6691 50.2892C49.6114 50.2032 49.5537 50.1387 49.4961 50.0671C50.6132 48.691 51.7592 47.3364 52.9484 46.0177L52.8835 46.7918C52.4006 52.4895 51.8745 58.2231 51.9538 64.014L51.9826 65.5334C51.9826 65.5334 52.0186 65.8702 52.0691 66.3648C52.1195 66.8593 52.1916 67.5258 52.2853 68.1708C52.4439 69.4752 52.7033 70.7366 52.7033 70.6219C52.8186 71.095 52.9339 71.525 53.0493 71.869C51.615 74.4276 50.2456 77.0292 48.9483 79.6667C49.1862 77.7316 49.2294 75.4668 49.2294 75.4668L49.1357 73.5747ZM38.6635 78.6991C38.786 77.7244 38.8437 77.0005 38.8437 77.0005L38.8725 75.0798L38.8653 71.9908L38.7788 65.8416C38.714 61.7492 38.6924 57.6784 38.9734 53.6362C39.0167 53.0629 39.0743 52.4967 39.132 51.9305L39.2329 52.0021L39.9753 52.5038C39.9753 52.5038 41.114 53.156 42.1879 53.8656C42.3537 53.9659 42.5194 54.0734 42.678 54.1737C42.4618 55.1699 42.332 56.1733 42.2239 57.1695C41.7555 62.5949 42.4329 67.8913 42.4329 73.0946C42.4401 73.7467 42.4185 74.3846 42.3969 75.0225L42.2672 77.0005C42.1951 78.3336 42.1519 79.6667 42.1302 80.9997C42.1086 82.3328 42.1086 83.6587 42.123 84.9846L42.1519 87.1777C42.1519 87.1777 42.2239 88.1165 42.3104 89.1772C42.0437 88.439 41.8419 87.9159 41.8419 87.9159L41.4527 87.0702L41.2581 86.6473L41.1645 86.4323L41.114 86.3248L40.905 85.9091L38.9879 82.1464L38.3248 80.9496C38.4617 80.1827 38.5842 79.38 38.6635 78.6991ZM28.5445 48.1463C28.5733 47.4439 28.6238 46.7416 28.6814 46.0464C29.8851 46.6197 31.0743 47.2218 32.249 47.8453L32.213 50.1602C32.1914 54.7614 32.3499 59.3483 32.4869 63.9208L32.5301 65.4187C32.5301 65.4187 32.977 70.6936 33.0058 70.4714C33.2581 72.5785 33.6905 73.9546 34.0581 70.5216C34.3175 68.5005 34.4328 65.6122 34.4328 65.6122L34.3824 63.8635C34.2455 59.2838 34.0941 54.7256 34.1157 50.1746L34.1373 48.8702L35.8671 49.8592L37.3374 50.7766C37.2365 51.6868 37.15 52.597 37.0851 53.5072C36.804 57.5709 36.8185 61.6346 36.8833 65.6696L36.977 71.7042L36.9842 74.7143L36.9626 76.721C36.9626 76.721 36.9986 77.5954 37.0275 78.6131L36.9482 78.4698C34.4977 74.2198 31.795 70.1203 28.9049 66.1641C28.9049 66.1068 28.9121 66.0566 28.9121 65.9993C29.049 63.9638 29.0058 61.0827 29.0058 61.0827L28.8688 59.3411C28.5949 55.5856 28.3859 51.8516 28.5445 48.1463ZM22.4399 43.4018C22.3823 43.4448 22.3318 43.4949 22.2886 43.5451C22.2309 43.6025 22.2237 43.6168 22.2165 43.667C22.0003 44.7778 21.9354 45.8744 21.9138 46.9566C21.8994 47.7808 21.9354 48.5907 21.9714 49.4005L22.0796 50.9199C22.0796 50.9199 22.2669 52.253 22.4904 53.5359C22.7138 54.8188 22.9228 56.0658 22.93 55.9511C23.3408 58.0152 23.8598 59.3841 23.9823 55.9153C24.0327 54.8904 24.0183 53.6649 24.0039 52.6902C23.9895 51.6725 23.9823 51.0059 23.9823 51.0059L23.8598 49.293C23.8237 48.519 23.7949 47.7378 23.8093 46.9781C23.8237 45.9747 23.8958 44.9713 24.076 44.0325C24.2273 44.0898 24.3859 44.1471 24.5372 44.2116C25.3156 44.5342 26.0868 44.8638 26.8508 45.2079C26.7499 46.1611 26.685 47.1214 26.6418 48.0818C26.4832 51.909 26.6994 55.7146 26.9805 59.4845L27.0958 60.9824C27.0958 60.9824 27.3697 62.9031 27.5859 64.3795C25.0129 60.9752 22.2958 57.6784 19.4417 54.5106C19.5282 54.2167 19.593 53.629 19.6219 52.6113C19.6651 51.5865 19.6435 50.3609 19.6219 49.3862C19.6003 48.3613 19.5858 47.702 19.5858 47.702L19.4417 45.9819L19.4201 45.516C19.3552 44.4912 19.3336 43.4734 19.3624 42.4701C19.3552 42.4271 19.3048 42.3411 19.2903 42.3267C20.3498 42.6564 21.4021 43.0148 22.4399 43.4018ZM17.921 41.8895C17.7552 41.997 17.611 42.1404 17.5246 42.2766C17.4741 42.3339 17.4741 42.3554 17.4741 42.4056C17.4453 43.4878 17.4741 44.5628 17.539 45.6235L17.5678 46.1037L17.6903 47.6231C17.6903 47.6231 17.9065 48.9132 18.1228 50.2247C18.3534 51.5076 18.5696 52.7475 18.584 52.64C18.6777 53.1059 18.7858 53.5359 18.8867 53.8799C17.6543 52.5325 16.393 51.2066 15.1101 49.9094C15.1606 49.7732 15.2038 49.6155 15.2471 49.3862C15.4344 48.5692 15.4777 47.4296 15.4777 47.4296C15.4777 47.4296 14.8507 42.5991 14.6488 41.0008C15.7371 41.2588 16.8327 41.5599 17.921 41.8895ZM10.9083 40.2841C10.9083 40.2698 10.9083 40.2626 10.9083 40.2555C11.5497 40.363 12.1912 40.4705 12.8326 40.5995C12.8038 40.621 12.7533 40.6425 12.7317 40.664C12.6885 40.6927 12.6885 40.6998 12.6885 40.7142C12.7029 40.8073 13.5822 47.5658 13.5822 47.5658C13.5822 47.5658 13.7551 48.175 13.9209 48.7125C13.0488 47.8525 12.1623 47.0068 11.2686 46.1682C11.3984 45.5375 11.4128 44.8495 11.4128 44.8495C11.4128 44.8495 11.3479 44.4983 11.2542 43.968C11.1605 43.4448 11.038 42.7567 10.9587 42.0902C10.8794 41.4165 10.865 40.7643 10.9083 40.2841ZM9.02716 39.9831C9.01995 40.0333 9.01996 40.0763 9.01275 40.1336C8.9623 40.7357 8.98392 41.5097 9.07041 42.2551C9.15689 43.0004 9.28663 43.71 9.38032 44.2331C9.39474 44.3263 9.40915 44.398 9.42356 44.484C8.83257 43.9536 8.24157 43.4089 7.64336 42.8929C7.66498 42.5991 7.65778 42.3697 7.65778 42.3697C7.65778 42.3697 7.34066 41.3305 7.20372 40.3343C7.17489 40.148 7.16768 39.9688 7.15327 39.7896C7.7803 39.8398 8.40734 39.9043 9.02716 39.9831ZM5.0127 39.6749C5.09198 39.6749 5.16406 39.6821 5.24334 39.6893C5.25054 39.976 5.27937 40.277 5.32982 40.5708C5.35145 40.7213 5.37307 40.8647 5.4019 41.008C5.03433 40.707 4.67396 40.3916 4.30639 40.0906L3.76584 39.6678C4.17666 39.6534 4.59468 39.6463 5.0127 39.6749Z" fill="#40B385"/>
</svg>
