<svg width="206" height="298" viewBox="0 0 206 298" fill="none" xmlns="http://www.w3.org/2000/svg">
<g clip-path="url(#clip0_104_222)">
<path d="M164.441 151.565C163.742 135.63 144.19 128.92 117.322 128.92C90.4473 128.92 70.8948 135.63 70.1956 151.565L66.3227 256.617C65.9798 279.228 91.6508 282.61 117.329 282.61C143 282.61 168.677 279.228 168.334 256.617L164.441 151.565Z" fill="#D9BA84"/>
<path d="M161.88 491.66C158.726 491.66 156.171 489.098 156.171 485.939V259.421C156.171 256.268 158.726 253.707 161.88 253.707C165.033 253.707 167.588 256.268 167.588 259.421V485.939C167.595 489.098 165.04 491.66 161.88 491.66Z" fill="#A2AEAA"/>
<path d="M73.0263 491.66C69.8931 491.66 67.3516 489.098 67.3516 485.939V259.421C67.3516 256.268 69.8931 253.707 73.0263 253.707C76.1596 253.707 78.7011 256.268 78.7011 259.421V485.939C78.7011 489.098 76.1596 491.66 73.0263 491.66Z" fill="#A2AEAA"/>
<path d="M80.8863 68.3967C80.8863 68.3967 70.8613 67.8253 70.8613 58.3722C70.8613 48.9191 80.8863 48.3477 80.8863 48.3477V68.3967Z" fill="#D9BA84"/>
<path d="M153.744 68.3967C153.744 68.3967 163.776 67.8253 163.776 58.3722C163.776 48.9191 153.744 48.3477 153.744 48.3477V68.3967Z" fill="#D9BA84"/>
<path d="M155.129 61.8081C155.129 91.1288 149.837 111.46 117.315 111.46C84.7925 111.46 79.501 91.1288 79.501 61.8081C79.501 32.4875 84.5034 6.42773 117.315 6.42773C150.126 6.42773 155.129 32.4875 155.129 61.8081Z" fill="#D9BA84"/>
<path d="M108.016 60.9944C108.016 62.3861 106.887 63.5157 105.495 63.5157C104.103 63.5157 102.974 62.3861 102.974 60.9944C102.974 59.6027 104.103 58.4731 105.495 58.4731C106.894 58.4799 108.016 59.6027 108.016 60.9944Z" fill="#2D2928"/>
<path d="M132.121 60.9944C132.121 62.3861 130.998 63.5157 129.6 63.5157C128.208 63.5157 127.078 62.3861 127.078 60.9944C127.078 59.6027 128.208 58.4731 129.6 58.4731C130.991 58.4799 132.121 59.6027 132.121 60.9944Z" fill="#2D2928"/>
<path d="M117.181 89.3538C108.326 89.3538 103.014 84.6811 102.792 84.4794C102.442 84.1634 102.409 83.6188 102.725 83.2691C103.041 82.9128 103.585 82.8859 103.935 83.2019C103.982 83.2423 109.005 87.6326 117.174 87.6326C125.263 87.6326 128.994 83.3297 129.035 83.2826C129.337 82.9263 129.875 82.8725 130.245 83.175C130.608 83.4843 130.655 84.0222 130.352 84.3852C130.191 84.5936 126.116 89.3538 117.181 89.3538Z" fill="#2D2928"/>
<path d="M134.971 9.8766C130.971 7.71167 123.77 6.23926 116.972 6.38717C109.717 6.54181 103.397 8.25627 99.6654 9.8766C82.5738 17.8909 79.5078 38.8476 79.5078 61.8079C79.5078 65.9226 86.2584 29.334 97.9845 33.4218C103.7 35.412 104.453 40.2326 117.322 40.2326C130.184 40.2326 130.944 35.4187 136.659 33.4218C148.385 29.334 155.136 65.9226 155.136 61.8079C155.129 38.8409 152.063 17.8841 134.971 9.8766Z" fill="#59482F"/>
<path d="M103.444 73.8157H95.0328C90.7297 73.8157 86.5408 70.3734 85.7071 66.1511L84.4094 59.6227C83.9993 57.5384 84.4431 55.5685 85.6735 54.0759C86.9039 52.5833 88.7462 51.7563 90.8709 51.7563H108.4C110.531 51.7563 112.346 52.5766 113.523 54.0625C114.7 55.5483 115.09 57.5116 114.592 59.5824L113.032 66.2183C112.044 70.4137 107.747 73.8157 103.444 73.8157ZM90.8642 52.8052C89.0622 52.8052 87.4956 53.491 86.4736 54.7415C85.4449 55.9921 85.0751 57.6527 85.4247 59.421L86.7157 65.9494C87.462 69.7077 91.1869 72.7736 95.0261 72.7736H103.437C107.283 72.7736 111.129 69.7279 112.01 65.9897L113.57 59.3538C113.987 57.599 113.671 55.9517 112.696 54.7214C111.721 53.4843 110.195 52.8052 108.386 52.8052H90.8642Z" fill="#727279"/>
<path d="M121.605 66.2252L120.045 59.5892C119.554 57.5184 119.937 55.5552 121.114 54.0693C122.291 52.5834 124.113 51.7632 126.237 51.7632H143.766C145.891 51.7632 147.74 52.5902 148.963 54.0827C150.194 55.5753 150.638 57.5453 150.228 59.6295L148.937 66.1579C148.096 70.3802 143.914 73.8226 139.604 73.8226H131.186C126.883 73.8158 122.587 70.4138 121.605 66.2252ZM126.237 52.8053C124.436 52.8053 122.909 53.4844 121.928 54.7215C120.953 55.9586 120.637 57.5991 121.054 59.3539L122.613 65.9898C123.494 69.728 127.333 72.7737 131.179 72.7737H139.597C143.43 72.7737 147.162 69.7146 147.901 65.9495L149.192 59.4211C149.548 57.6529 149.172 55.9922 148.15 54.7416C147.128 53.4911 145.561 52.8053 143.759 52.8053H126.237Z" fill="#727279"/>
<path d="M113.926 53.7466C112.642 52.133 110.679 51.2388 108.393 51.2388H90.8641C86.4533 51.2388 82.2443 51.5749 82.1771 52.1061C82.0897 52.8053 81.935 56.0325 82.2645 56.362C82.4796 56.5771 83.7706 59.1186 83.8916 59.7237L84.5909 63.2534C84.6917 63.751 85.1221 64.0939 85.6129 64.0939C85.6801 64.0939 85.7474 64.0871 85.8146 64.0737C86.3794 63.9594 86.7492 63.4148 86.6349 62.85C86.6349 62.85 86.1104 60.201 85.9356 59.3203C85.6129 57.7067 85.9491 56.1939 86.8702 55.0711C87.7981 53.9483 89.2101 53.323 90.8574 53.323H108.386C110.027 53.323 111.418 53.9348 112.286 55.0442C113.16 56.1536 113.435 57.6394 113.059 59.2329L112.266 62.6214C112.131 63.1862 112.481 63.7442 113.039 63.872C113.597 64.0132 114.162 63.6568 114.289 63.0988L115.089 59.7035C115.627 57.4848 115.211 55.3669 113.926 53.7466Z" fill="#222221"/>
<path d="M120.704 53.7466C121.981 52.133 123.945 51.2388 126.237 51.2388H143.766C148.177 51.2388 152.386 51.5749 152.453 52.1061C152.54 52.8053 152.695 56.0325 152.366 56.362C152.15 56.5771 150.853 59.1186 150.732 59.7237L150.033 63.2534C149.932 63.751 149.501 64.0939 149.011 64.0939C148.943 64.0939 148.869 64.0871 148.802 64.0737C148.237 63.9594 147.874 63.4148 147.982 62.85C147.982 62.85 148.506 60.201 148.681 59.3203C149.004 57.7067 148.668 56.1939 147.746 55.0711C146.819 53.9483 145.407 53.323 143.759 53.323H126.231C124.59 53.323 123.212 53.9348 122.331 55.0442C121.457 56.1536 121.181 57.6394 121.558 59.2329L122.358 62.6214C122.486 63.1862 122.143 63.7442 121.585 63.872C121.027 64.0132 120.462 63.6568 120.334 63.0988L119.534 59.7035C119.009 57.4848 119.426 55.3669 120.704 53.7466Z" fill="#222221"/>
<path d="M120.468 57.5186C120.334 57.5186 120.199 57.4782 120.078 57.3975C120.078 57.3975 119.359 57.0009 117.409 57.0009C115.372 57.0009 114.491 57.4379 114.478 57.4446C114.034 57.6732 113.536 57.3706 113.361 56.779C113.187 56.1806 113.395 55.5083 113.839 55.2662C113.953 55.2057 115.016 54.6611 117.409 54.6611C119.789 54.6611 120.697 55.199 120.858 55.3066C121.282 55.6024 121.457 56.3016 121.242 56.8798C121.087 57.2832 120.784 57.5186 120.468 57.5186Z" fill="#222221"/>
<path d="M164.441 151.565C163.977 140.828 154.934 134.286 140.868 131.153C135.388 135.799 100.102 135.718 94.6294 130.958C80.0727 134.01 70.673 140.606 70.1956 151.558L66.3227 256.611C65.9798 279.222 91.6508 282.604 117.329 282.604C143 282.604 168.677 279.222 168.334 256.611L164.441 151.565Z" fill="#99C0A1"/>
<path d="M164.441 151.565C163.87 138.441 150.483 131.576 130.762 129.559C129.451 132.168 129.095 137.607 126.432 147.565C122.781 161.213 117.712 189.586 117.389 191.408C117.066 189.579 111.997 161.213 108.339 147.565C105.67 137.587 105.32 132.155 104.009 129.553C84.2144 131.55 70.7738 138.407 70.1956 151.565L66.3227 256.618C65.9798 279.228 91.6508 282.61 117.329 282.61C143 282.61 168.677 279.228 168.334 256.618L164.441 151.565Z" fill="#E5E8E7"/>
<path d="M170.486 335.14C170.634 292.682 164.414 151.558 164.414 151.558C163.843 138.434 150.456 131.57 130.729 129.553C129.418 132.161 129.068 137.601 126.405 147.558C122.755 161.206 117.685 189.579 117.362 191.401C117.033 189.572 111.956 161.206 108.312 147.558C105.643 137.58 105.293 132.148 103.982 129.546C84.1875 131.543 70.7402 138.401 70.1687 151.558C70.1687 151.558 63.9694 292.729 64.1443 335.14C64.1443 335.14 85.5054 341.272 118.909 341.272C152.298 341.272 170.486 335.14 170.486 335.14Z" fill="#E5E8E7"/>
<path d="M117.301 191.508C117.301 191.508 122.593 160.957 126.365 146.516C130.728 129.808 128.879 125.525 135.22 126.05C143.255 126.715 146.213 129.808 146.213 129.808L140.868 149.709L131.273 149.696L136.255 159.666C136.255 159.66 126.466 183.662 117.301 191.508Z" fill="#CFD4D2"/>
<path d="M117.335 191.508C117.335 191.508 112.044 160.957 108.265 146.516C103.908 129.808 105.75 125.525 99.4097 126.05C91.3682 126.715 88.4165 129.808 88.4165 129.808L93.7618 149.709L103.357 149.696L98.3675 159.666C98.3743 159.66 108.171 183.662 117.335 191.508Z" fill="#CFD4D2"/>
<path d="M100.156 172.865H79.3262V175.722H100.156V172.865Z" fill="#CFD4D2"/>
<path d="M155.31 172.865H134.474V175.722H155.31V172.865Z" fill="#CFD4D2"/>
<path d="M119.561 199.624C119.561 200.867 118.552 201.869 117.315 201.869C116.071 201.869 115.069 200.861 115.069 199.624C115.069 198.38 116.078 197.378 117.315 197.378C118.552 197.371 119.561 198.38 119.561 199.624Z" fill="#CFD4D2"/>
<path d="M119.561 218.005C119.561 219.249 118.552 220.258 117.315 220.258C116.071 220.258 115.069 219.249 115.069 218.005C115.069 216.768 116.078 215.76 117.315 215.76C118.552 215.76 119.561 216.768 119.561 218.005Z" fill="#CFD4D2"/>
<path d="M119.561 236.387C119.561 237.631 118.552 238.633 117.315 238.633C116.071 238.633 115.069 237.624 115.069 236.387C115.069 235.143 116.078 234.142 117.315 234.142C118.552 234.142 119.561 235.15 119.561 236.387Z" fill="#CFD4D2"/>
<path d="M119.561 254.775C119.561 256.019 118.552 257.021 117.315 257.021C116.071 257.021 115.069 256.013 115.069 254.775C115.069 253.538 116.078 252.53 117.315 252.53C118.552 252.523 119.561 253.532 119.561 254.775Z" fill="#CFD4D2"/>
<path d="M119.561 273.157C119.561 274.401 118.552 275.403 117.315 275.403C116.071 275.403 115.069 274.394 115.069 273.157C115.069 271.913 116.078 270.912 117.315 270.912C118.552 270.912 119.561 271.913 119.561 273.157Z" fill="#CFD4D2"/>
<path d="M119.561 291.539C119.561 292.783 118.552 293.785 117.315 293.785C116.071 293.785 115.069 292.783 115.069 291.539C115.069 290.295 116.078 289.287 117.315 289.287C118.552 289.293 119.561 290.302 119.561 291.539Z" fill="#CFD4D2"/>
<path d="M168.449 253.027C168.435 252.624 168.415 252.214 168.402 251.811H146.577V273.561C146.577 273.561 147.189 283.975 161.591 283.975C164.872 283.975 167.427 283.424 169.43 282.59C169.417 282.301 169.41 282.005 169.404 281.709C167.918 281.972 166.257 282.133 164.341 282.133C149.044 282.133 148.392 272.707 148.392 272.707V253.021H168.449V253.027Z" fill="#CFD4D2"/>
<path d="M70.2965 282.14C68.3668 282.14 66.6994 281.978 65.2134 281.709C65.2067 282.005 65.2 282.294 65.1865 282.583C67.1902 283.424 69.7519 283.975 73.0398 283.975C87.4419 283.975 88.0538 273.561 88.0538 273.561V251.811H66.2018C66.1816 252.214 66.1749 252.624 66.1547 253.027H86.2384V272.714C86.2384 272.714 85.5929 282.14 70.2965 282.14Z" fill="#CFD4D2"/>
<path d="M117.315 133.916C114.148 133.916 111.586 131.691 111.586 128.941V110.707C111.586 107.964 114.148 105.732 117.315 105.732C120.475 105.732 123.044 107.957 123.044 110.707V128.941C123.044 131.691 120.475 133.916 117.315 133.916Z" fill="#D9BA84"/>
<path d="M136.989 196.007V201.507C136.989 202.226 137.58 202.824 138.307 202.824H151.465C152.191 202.824 152.783 202.233 152.783 201.507V196.007H136.989Z" fill="white"/>
<path d="M151.512 177.598H138.353C137.627 177.598 137.036 178.19 137.036 178.916V196.013H152.83V178.909C152.83 178.19 152.238 177.598 151.512 177.598ZM146.832 179.508H143.04C142.838 179.508 142.67 179.245 142.67 178.923C142.67 178.6 142.838 178.344 143.04 178.344H146.832C147.034 178.344 147.202 178.607 147.202 178.923C147.202 179.245 147.034 179.508 146.832 179.508Z" fill="#218A55"/>
<mask id="mask0_104_222" style="mask-type:alpha" maskUnits="userSpaceOnUse" x="141" y="183" width="8" height="12">
<path d="M148.957 183.683H141.037V194.373H148.957V183.683Z" fill="white"/>
</mask>
<g mask="url(#mask0_104_222)">
<path d="M140.001 207.026C139.826 207.026 139.665 206.905 139.618 206.717C139.598 206.63 139.141 204.505 139.45 200.007C139.773 195.368 141.971 193.929 142.059 193.869C142.126 193.828 142.193 193.808 142.267 193.808H147.659C147.727 193.808 147.801 193.828 147.861 193.862C147.962 193.916 150.201 195.314 150.517 199.96C150.826 204.451 150.45 206.569 150.43 206.656C150.389 206.872 150.188 207.013 149.972 206.972C149.757 206.932 149.616 206.724 149.656 206.509C149.663 206.488 150.033 204.384 149.737 200.014C149.475 196.262 147.915 194.87 147.538 194.588H142.402C142.032 194.891 140.492 196.35 140.23 200.054C139.934 204.418 140.378 206.515 140.384 206.535C140.431 206.751 140.297 206.959 140.089 207.006C140.055 207.02 140.028 207.026 140.001 207.026Z" fill="#9A9A9A"/>
<path d="M148.231 194.608C148.177 193.512 146.839 193.055 144.99 193.055C143.141 193.055 141.803 193.512 141.749 194.608L141.48 201.829C141.46 203.382 143.222 203.611 144.983 203.611C146.752 203.611 148.513 203.382 148.493 201.829L148.231 194.608Z" fill="#9A9A9A"/>
<path d="M144.99 193.459C144.775 193.459 144.6 193.297 144.6 193.096V191.764C144.6 191.569 144.775 191.401 144.99 191.401C145.205 191.401 145.387 191.563 145.387 191.764V193.096C145.387 193.291 145.205 193.459 144.99 193.459Z" fill="#9A9A9A"/>
<path d="M142.482 188.893C142.482 188.893 141.796 188.853 141.796 188.201C141.796 187.549 142.482 187.515 142.482 187.515V188.893Z" fill="#9A9A9A"/>
<path d="M147.498 188.893C147.498 188.893 148.191 188.853 148.191 188.201C148.191 187.549 147.498 187.515 147.498 187.515V188.893Z" fill="#9A9A9A"/>
<path d="M147.592 188.443C147.592 190.46 147.229 191.858 144.99 191.858C142.751 191.858 142.388 190.46 142.388 188.443C142.388 186.426 142.731 184.637 144.99 184.637C147.249 184.637 147.592 186.426 147.592 188.443Z" fill="#9A9A9A"/>
<path d="M144.351 188.382C144.351 188.483 144.27 188.557 144.176 188.557C144.082 188.557 144.001 188.483 144.001 188.382C144.001 188.288 144.082 188.208 144.176 188.208C144.277 188.208 144.351 188.288 144.351 188.382Z" fill="#9A9A9A"/>
<path d="M146.012 188.382C146.012 188.483 145.938 188.557 145.837 188.557C145.743 188.557 145.662 188.483 145.662 188.382C145.662 188.288 145.743 188.208 145.837 188.208C145.931 188.208 146.012 188.288 146.012 188.382Z" fill="#9A9A9A"/>
<path d="M144.983 190.339C144.378 190.339 144.008 190.016 143.995 190.003C143.968 189.983 143.968 189.949 143.988 189.922C144.008 189.895 144.049 189.889 144.075 189.915C144.075 189.922 144.418 190.218 144.983 190.218C145.541 190.218 145.797 189.922 145.797 189.922C145.824 189.895 145.857 189.889 145.884 189.909C145.904 189.929 145.911 189.969 145.884 189.996C145.877 190.003 145.595 190.339 144.983 190.339Z" fill="#9A9A9A"/>
<path d="M146.201 184.873C145.932 184.718 145.434 184.624 144.963 184.631C144.466 184.644 144.035 184.758 143.773 184.873C142.597 185.424 142.388 186.863 142.388 188.443C142.388 188.725 142.859 186.211 143.659 186.493C144.049 186.634 144.103 187.044 144.984 187.044C145.871 187.044 145.918 186.628 146.315 186.493C147.122 186.217 147.586 188.732 147.586 188.443C147.592 186.863 147.384 185.424 146.201 184.873Z" fill="#9A9A9A"/>
<path d="M144.042 189.263H143.464C143.168 189.263 142.879 189.028 142.825 188.739L142.731 188.288C142.704 188.147 142.738 188.006 142.818 187.905C142.899 187.797 143.027 187.744 143.175 187.744H144.378C144.526 187.744 144.654 187.797 144.728 187.905C144.808 188.006 144.835 188.14 144.802 188.282L144.694 188.739C144.627 189.035 144.331 189.263 144.042 189.263ZM143.175 187.824C143.054 187.824 142.946 187.871 142.872 187.959C142.798 188.039 142.778 188.154 142.798 188.282L142.885 188.732C142.933 188.987 143.195 189.203 143.457 189.203H144.035C144.297 189.203 144.566 188.994 144.62 188.739L144.728 188.282C144.755 188.161 144.734 188.046 144.667 187.966C144.6 187.878 144.499 187.831 144.371 187.831H143.175V187.824Z" fill="#9A9A9A"/>
<path d="M145.286 188.746L145.178 188.288C145.145 188.147 145.171 188.006 145.252 187.912C145.333 187.804 145.461 187.75 145.609 187.75H146.812C146.96 187.75 147.088 187.804 147.168 187.912C147.256 188.013 147.283 188.147 147.256 188.295L147.162 188.746C147.108 189.035 146.819 189.27 146.523 189.27H145.945C145.649 189.263 145.353 189.035 145.286 188.746ZM145.609 187.824C145.488 187.824 145.38 187.872 145.306 187.959C145.239 188.04 145.219 188.154 145.245 188.275L145.353 188.732C145.414 188.988 145.682 189.196 145.945 189.196H146.523C146.785 189.196 147.041 188.981 147.094 188.725L147.182 188.275C147.209 188.154 147.182 188.04 147.115 187.952C147.041 187.865 146.933 187.818 146.812 187.818H145.609V187.824Z" fill="#9A9A9A"/>
<path d="M144.761 187.885C144.674 187.777 144.539 187.717 144.378 187.717H143.174C142.872 187.717 142.583 187.744 142.576 187.771C142.569 187.824 142.563 188.046 142.583 188.066C142.596 188.08 142.684 188.255 142.697 188.295L142.744 188.537C142.751 188.571 142.784 188.591 142.811 188.591C142.818 188.591 142.825 188.591 142.825 188.591C142.865 188.584 142.885 188.544 142.879 188.51C142.879 188.51 142.845 188.329 142.832 188.268C142.805 188.161 142.832 188.053 142.892 187.979C142.959 187.898 143.053 187.858 143.168 187.858H144.371C144.486 187.858 144.58 187.898 144.64 187.972C144.701 188.053 144.721 188.154 144.694 188.261L144.64 188.497C144.634 188.537 144.654 188.577 144.694 188.584C144.728 188.598 144.768 188.571 144.781 188.53L144.835 188.295C144.876 188.14 144.849 187.999 144.761 187.885Z" fill="#9A9A9A"/>
<path d="M145.225 187.885C145.313 187.777 145.447 187.717 145.608 187.717H146.812C147.115 187.717 147.404 187.744 147.41 187.771C147.417 187.824 147.424 188.046 147.404 188.066C147.39 188.08 147.296 188.255 147.296 188.295L147.242 188.537C147.242 188.571 147.209 188.591 147.175 188.591C147.168 188.591 147.168 188.591 147.162 188.591C147.128 188.584 147.094 188.544 147.108 188.51C147.108 188.51 147.141 188.329 147.155 188.268C147.175 188.161 147.155 188.053 147.088 187.979C147.02 187.898 146.926 187.858 146.812 187.858H145.608C145.494 187.858 145.4 187.898 145.339 187.972C145.279 188.053 145.259 188.154 145.286 188.261L145.346 188.497C145.353 188.537 145.333 188.577 145.292 188.584C145.252 188.598 145.212 188.571 145.205 188.53L145.151 188.295C145.104 188.14 145.138 187.999 145.225 187.885Z" fill="#9A9A9A"/>
<path d="M145.205 188.147C145.198 188.147 145.192 188.14 145.185 188.14C145.185 188.14 145.131 188.114 144.997 188.114C144.855 188.114 144.795 188.14 144.795 188.14C144.768 188.154 144.728 188.14 144.721 188.093C144.708 188.053 144.721 188.006 144.755 187.992C144.761 187.986 144.835 187.952 144.997 187.952C145.158 187.952 145.225 187.986 145.232 187.999C145.259 188.019 145.272 188.066 145.259 188.107C145.245 188.134 145.225 188.147 145.205 188.147Z" fill="#9A9A9A"/>
<path d="M147.861 193.862C147.801 193.822 147.733 193.808 147.659 193.808H142.267C142.193 193.808 142.126 193.828 142.059 193.869C141.971 193.929 139.766 195.368 139.45 200.007C139.268 202.649 139.349 204.465 139.456 205.54L140.243 205.487C140.142 204.451 140.055 202.663 140.23 200.061C140.485 196.35 142.025 194.897 142.401 194.595H147.538C147.908 194.877 149.475 196.269 149.737 200.02C149.912 202.622 149.851 204.418 149.777 205.453L150.564 205.507C150.645 204.438 150.705 202.616 150.517 199.967C150.201 195.321 147.962 193.922 147.861 193.862Z" fill="#9A9A9A"/>
<path d="M148.231 194.608C148.197 193.869 147.579 193.418 146.604 193.203C146.234 193.519 143.807 193.512 143.43 193.189C142.428 193.398 141.783 193.848 141.749 194.608L141.48 201.829C141.46 203.382 143.222 203.611 144.983 203.611C146.752 203.611 148.513 203.382 148.493 201.829L148.231 194.608Z" fill="#9A9A9A"/>
<path d="M148.231 194.608C148.19 193.707 147.269 193.236 145.911 193.095C145.824 193.27 145.797 193.647 145.615 194.332C145.366 195.274 145.017 197.223 144.997 197.344C144.976 197.223 144.627 195.267 144.371 194.332C144.19 193.647 144.163 193.27 144.075 193.095C142.711 193.23 141.789 193.7 141.749 194.608L141.48 201.829C141.46 203.382 143.222 203.611 144.983 203.611C146.752 203.611 148.513 203.382 148.493 201.829L148.231 194.608Z" fill="#9A9A9A"/>
<path d="M148.648 207.228C148.661 204.31 148.231 194.615 148.231 194.615C148.191 193.714 147.269 193.243 145.911 193.102C145.824 193.277 145.797 193.653 145.615 194.339C145.367 195.28 145.017 197.23 144.99 197.351C144.97 197.23 144.62 195.274 144.372 194.339C144.183 193.653 144.163 193.277 144.076 193.102C142.711 193.237 141.79 193.707 141.749 194.615C141.749 194.615 141.326 204.317 141.339 207.228C141.339 207.228 142.805 207.651 145.098 207.651C147.397 207.651 148.648 207.228 148.648 207.228Z" fill="#9A9A9A"/>
<path d="M144.99 197.351C144.99 197.351 145.353 195.254 145.616 194.259C145.918 193.109 145.79 192.813 146.221 192.847C146.772 192.894 146.974 193.109 146.974 193.109L146.604 194.481H145.945L146.288 195.166C146.295 195.166 145.622 196.82 144.99 197.351Z" fill="#9A9A9A"/>
<path d="M144.99 197.351C144.99 197.351 144.627 195.254 144.365 194.259C144.062 193.109 144.19 192.813 143.753 192.847C143.202 192.894 143 193.109 143 193.109L143.37 194.481H144.029L143.686 195.166C143.693 195.166 144.365 196.82 144.99 197.351Z" fill="#9A9A9A"/>
</g>
<path d="M151.425 198.098H138.34V198.609H151.425V198.098Z" fill="#218A55"/>
<path d="M151.425 200.027H138.34V200.538H151.425V200.027Z" fill="#218A55"/>
<path d="M146.738 174.848H143.249V179.232H146.738V174.848Z" fill="#BBBABF"/>
<path d="M90.3933 138.024C89.2839 134.844 85.8078 133.163 82.6275 134.266C62.5506 141.258 43.1595 163.405 33.3967 175.984C19.2031 194.265 8.16278 214.294 5.92379 225.831C4.78749 231.701 5.76915 236.044 8.85532 238.733C11.3364 240.898 14.2746 242.014 17.4751 242.014C18.2752 242.014 19.082 241.947 19.909 241.806C26.5386 240.683 33.6724 235.143 42.3594 224.359C45.654 220.271 49.1301 215.457 52.7609 209.964L42.7225 203.052C26.942 226.961 19.4451 229.516 17.8785 229.785C17.7844 229.798 17.7037 229.811 17.6297 229.818C17.8314 225.058 23.8626 209.54 39.1925 188.564C55.3025 166.518 73.0395 150.529 86.6348 145.796C89.8218 144.68 91.5027 141.204 90.3933 138.024Z" fill="#E5E8E7"/>
<path d="M96.2629 197.835H52.0009C49.8493 197.835 48.1079 196.094 48.1079 193.942V129.895C48.1079 127.744 49.8493 126.002 52.0009 126.002H96.2629C98.4145 126.002 100.156 127.744 100.156 129.895V193.942C100.156 196.094 98.4145 197.835 96.2629 197.835Z" fill="#222221"/>
<path d="M95.0392 188.456H53.218C52.2699 188.456 51.5034 187.689 51.5034 186.741V130.534C51.5034 129.586 52.2699 128.819 53.218 128.819H95.0392C95.9873 128.819 96.7538 129.586 96.7538 130.534V186.741C96.7538 187.689 95.9873 188.456 95.0392 188.456Z" fill="#E5E8E7"/>
<path d="M76.2601 192.981C76.2601 194.157 75.3053 195.105 74.1354 195.105C72.9588 195.105 72.0107 194.15 72.0107 192.981C72.0107 191.804 72.9655 190.856 74.1354 190.856C75.3053 190.849 76.2601 191.804 76.2601 192.981Z" fill="#727279"/>
<path d="M168.576 249.148C158.471 249.571 145.622 247.4 132.06 242.801C119.964 238.7 108.399 233.092 98.3945 226.584L96.6127 229.919L97.9507 227.66C91.2741 223.317 85.29 218.577 80.3145 213.615C78.1024 211.403 74.512 211.409 72.2999 213.628C70.0878 215.847 70.0945 219.43 72.3133 221.642C78.1428 227.451 85.0614 232.844 92.6121 237.664C115.358 252.193 143.853 261.559 165.665 261.573C166.653 261.573 167.621 261.546 168.576 261.512V249.148Z" fill="#CFD4D2"/>
<path d="M76.1394 205.809C73.8466 203.524 70.1351 203.537 67.8491 205.83C65.563 208.122 65.5765 211.84 67.8693 214.12C73.9004 220.124 81.0611 225.697 88.8807 230.686L94.4009 220.332C87.4889 215.841 81.2964 210.939 76.1394 205.809Z" fill="#D9BA84"/>
<path d="M186.334 172.737C178.541 157.912 166.008 141.023 154.195 138.091C151.048 137.311 147.874 139.228 147.094 142.374C146.315 145.514 148.231 148.694 151.377 149.474C156.803 150.819 166.983 161.112 175.959 178.19C185.534 196.41 190.133 215.329 188.566 230.101C187.779 237.53 182.474 240.246 178.548 241.638C167.602 245.524 149.172 243.823 129.25 237.08C116.73 232.851 104.762 227.048 94.401 220.325L88.8809 230.679C112.427 245.699 141.917 255.374 164.489 255.374C171.206 255.374 177.317 254.513 182.474 252.685C192.863 248.993 199.169 241.409 200.232 231.331C202.027 214.314 196.964 192.954 186.334 172.737Z" fill="#E5E8E7"/>
<path d="M92.9687 137.917H55.2959V182.271H92.9687V137.917Z" fill="#CFD4D2"/>
<path d="M92.9619 137.917H55.2959V133.883C55.2959 133.123 55.9145 132.504 56.6743 132.504H91.5836C92.3434 132.504 92.9619 133.123 92.9619 133.883V137.917Z" fill="#218A55"/>
<path d="M64.1375 134.4H57.5483V135.927H64.1375V134.4Z" fill="white"/>
<path d="M84.4633 135.207C84.4633 135.792 83.9926 136.263 83.4077 136.263C82.8227 136.263 82.3521 135.792 82.3521 135.207C82.3521 134.622 82.8227 134.152 83.4077 134.152C83.9859 134.152 84.4633 134.622 84.4633 135.207Z" fill="white"/>
<path d="M87.8051 135.207C87.8051 135.792 87.3344 136.263 86.7495 136.263C86.1645 136.263 85.6938 135.792 85.6938 135.207C85.6938 134.622 86.1645 134.152 86.7495 134.152C87.3277 134.152 87.8051 134.622 87.8051 135.207Z" fill="white"/>
<path d="M91.1464 135.207C91.1464 135.792 90.6757 136.263 90.0908 136.263C89.5058 136.263 89.0352 135.792 89.0352 135.207C89.0352 134.622 89.5058 134.152 90.0908 134.152C90.669 134.152 91.1464 134.622 91.1464 135.207Z" fill="white"/>
<path d="M88.8739 140.559H57.0776V146.597H88.8739V140.559Z" fill="#E5E8E7"/>
<path d="M91.1465 146.597H57.0776V180.005H91.1465V146.597Z" fill="#E5E8E7"/>
<path d="M65.6975 142.2H59.0142V144.956H65.6975V142.2Z" fill="#898788"/>
<path d="M74.1087 142.2H67.9834V142.959H74.1087V142.2Z" fill="#898788"/>
<path d="M74.1087 143.578H67.9834V144.337H74.1087V143.578Z" fill="#898788"/>
<path d="M65.4217 149.239H59.2964V149.999H65.4217V149.239Z" fill="#898788"/>
<path d="M88.8806 150.886H59.2964V152.527H88.8806V150.886Z" fill="white"/>
<path d="M65.4217 153.925H59.2964V154.685H65.4217V153.925Z" fill="#898788"/>
<path d="M88.8806 155.579H59.2964V157.22H88.8806V155.579Z" fill="white"/>
<path d="M65.4217 158.618H59.2964V159.378H65.4217V158.618Z" fill="#898788"/>
<path d="M88.8806 160.272H59.2964V161.912H88.8806V160.272Z" fill="white"/>
<path d="M65.4217 163.304H59.2964V164.064H65.4217V163.304Z" fill="#898788"/>
<path d="M88.8806 164.958H59.2964V166.599H88.8806V164.958Z" fill="white"/>
<path d="M65.4217 167.997H59.2964V168.757H65.4217V167.997Z" fill="#898788"/>
<path d="M88.8806 169.651H59.2964V171.291H88.8806V169.651Z" fill="white"/>
<path d="M65.4217 172.69H59.2964V173.45H65.4217V172.69Z" fill="#898788"/>
<path d="M88.8806 174.344H59.2964V175.984H88.8806V174.344Z" fill="white"/>
<path d="M65.0718 189.821C66.7393 186.896 65.724 183.172 62.7992 181.504C59.8744 179.837 56.1495 180.852 54.482 183.777C50.1385 191.394 46.232 197.741 42.729 203.046L52.7675 209.958C56.6941 204.034 60.8022 197.311 65.0718 189.821Z" fill="#D9BA84"/>
</g>
<defs>
<clipPath id="clip0_104_222">
<rect width="206" height="298" fill="white"/>
</clipPath>
</defs>
</svg>
