<svg width="101" height="102" viewBox="0 0 101 102" fill="none" xmlns="http://www.w3.org/2000/svg">
<path d="M100.333 85.1792C89.2295 74.1582 78.528 62.8038 67.8009 51.4494C78.9989 40.8474 90.1884 30.254 99.9824 18.3011C100.205 18.0189 100.111 17.694 99.9396 17.4204C96.0271 11.1105 90.5308 6.25412 85.4626 0.901815C85.2057 0.636765 84.889 0.645316 84.7006 0.799216C84.6321 0.782116 84.5637 0.790667 84.5123 0.850517C74.0676 12.6153 63.2121 23.8586 52.151 34.8966C41.2013 23.2088 30.32 11.4782 17.9748 1.26092C17.7008 1.03007 17.3669 1.13267 17.093 1.30367C10.8176 5.23667 5.98909 10.7685 0.672598 15.8643C0.407201 16.1123 0.415763 16.4372 0.569864 16.6253C0.552742 16.6937 0.561304 16.7706 0.621233 16.8219C12.838 27.783 24.4898 39.2058 35.9361 50.8253C24.5583 61.8462 13.0778 72.7731 1.65714 83.8539C1.49447 84.0164 1.45167 84.213 1.46023 84.4097C1.0921 84.4439 0.835263 84.7859 1.14347 85.2732C4.6878 90.8222 10.3211 94.9262 14.4047 100.09C14.5503 100.278 14.7301 100.407 14.9099 100.501C15.2009 101.116 16.0228 101.604 16.5022 101.099C27.94 89.4456 39.7458 78.2366 51.526 66.9762C62.082 77.9801 72.5694 89.0609 83.1682 100.116C83.3223 100.278 83.5278 100.321 83.7161 100.313C83.7504 100.68 84.0842 100.945 84.5722 100.629C90.0942 97.0722 94.1779 91.4036 99.306 87.291C99.4944 87.1457 99.6142 86.9661 99.7169 86.778C100.342 86.4873 100.83 85.6665 100.333 85.1792ZM84.9061 98.6625C84.8719 98.5856 84.8462 98.5001 84.7863 98.4317C75.2491 87.7784 65.438 77.1593 55.4043 66.7283C54.3598 65.7108 53.3496 64.6421 52.3822 63.5477C52.2024 63.351 52.0226 63.1544 51.8428 62.9577L51.8342 62.9663C51.8171 62.9492 51.8086 62.9321 51.7914 62.9235C51.5774 63.1629 51.3377 63.4023 51.1065 63.6417C50.6014 64.1633 50.0706 64.6592 49.5313 65.0867C37.8025 75.8768 26.125 86.8464 15.7745 98.7309C12.4614 93.7548 7.4873 89.6508 3.10397 85.581C3.18103 85.5468 3.26664 85.5212 3.33513 85.4613C14.7729 75.1073 26.2277 64.4967 37.4001 53.5613C37.5627 53.2022 37.7768 52.8773 37.9822 52.5438C38.3161 51.971 38.7099 51.4409 39.1294 50.9364C39.2407 50.8082 39.3349 50.6543 39.4548 50.5346C39.4376 50.5175 39.4291 50.5089 39.4205 50.5004L39.412 50.4918L39.4034 50.4833C38.8897 49.9874 38.4189 49.4402 37.9309 48.9101C37.9052 48.9357 37.8795 48.9614 37.8538 48.9956C26.1079 37.5813 13.9852 26.6288 1.29757 16.5996C4.62787 14.1629 7.51299 11.3841 10.5008 8.53697C12.2559 6.86972 15.7574 1.68842 18.7281 4.14227C20.6972 5.77532 22.5379 7.59647 24.3956 9.36632C32.6743 17.2409 40.3451 25.7139 48.1444 34.0673C48.9234 34.8966 49.6939 35.7431 50.4645 36.581C50.396 36.6494 50.3275 36.7178 50.2675 36.7862C50.8497 37.4103 51.4575 38.0174 52.0311 38.6501C52.0996 38.5817 52.1767 38.5133 52.2537 38.4449C52.3394 38.3679 52.4335 38.291 52.5191 38.214C52.99 37.7352 53.4694 37.265 53.9489 36.7862C53.9403 36.7776 53.9403 36.7776 53.9317 36.7691C64.7616 25.4318 75.1806 13.7525 84.7434 1.53452C87.1663 4.87757 89.9315 7.77602 92.7653 10.7856C94.4261 12.5469 99.58 16.0695 97.1315 19.0535C95.5049 21.0371 93.6899 22.8839 91.9348 24.7478C84.1013 33.0669 75.6771 40.7876 67.3642 48.6194C66.979 48.987 66.5766 49.3461 66.1828 49.7138C66.1143 49.6454 66.0458 49.5684 65.9773 49.5C65.4465 50.0216 64.9329 50.5431 64.4106 51.0818C64.6418 51.3981 64.8815 51.7145 65.1041 52.0394C65.7719 52.9628 66.4396 53.8776 67.1074 54.801C77.0127 65.6339 87.1149 76.347 97.9876 85.923C93.0392 89.249 88.947 94.2507 84.9061 98.6625Z" fill="#EFF1F2"/>
<path d="M4.38806 81.2207C3.47201 82.1014 2.56453 82.9735 1.64848 83.8541C1.48582 84.0166 1.44301 84.2132 1.45157 84.4098C1.08344 84.444 0.826605 84.786 1.13481 85.2734C4.67914 90.8223 10.3124 94.9263 14.3961 100.091C14.5416 100.279 14.7214 100.407 14.9012 100.501C15.1923 101.117 16.0142 101.604 16.4936 101.099C17.4867 100.091 18.5055 99.1244 19.4986 98.124C14.2848 92.652 9.13095 87.1117 4.38806 81.2207Z" fill="#EFF1F2"/>
<path d="M8.48909 77.2705C7.82988 77.9032 7.17923 78.5274 6.52002 79.1601C11.2372 85.0596 16.3911 90.5743 21.622 96.0378C22.2298 95.4307 22.8548 94.8322 23.4626 94.2337C18.3601 88.6848 13.3947 83.0076 8.48909 77.2705Z" fill="#EFF1F2"/>
<path d="M12.2303 73.6709C11.6995 74.1839 11.1602 74.6969 10.6294 75.2099C15.5264 80.9384 20.4833 86.607 25.5858 92.156C26.2364 91.5062 26.8956 90.8735 27.5549 90.2322C22.2298 84.9056 17.0931 79.3994 12.2303 73.6709Z" fill="#EFF1F2"/>
<path d="M18.4885 67.6348C17.1187 68.96 15.749 70.2767 14.3706 71.602C19.2248 77.3305 24.3615 82.8367 29.678 88.1462C30.8595 86.9834 32.058 85.8463 33.248 84.692C28.1541 79.1602 23.2229 73.4744 18.4885 67.6348Z" fill="#EFF1F2"/>
<path d="M25.286 61.0854C23.7278 62.5817 22.1783 64.0779 20.6201 65.5742C25.3545 71.4138 30.2771 77.091 35.371 82.6314C36.835 81.2036 38.3161 79.7928 39.78 78.3564C34.943 72.6023 30.0802 66.8738 25.286 61.0854Z" fill="#EFF1F2"/>
<path d="M2.44476 14.1113C1.85404 14.6927 1.27188 15.2827 0.672598 15.8641C0.407201 16.112 0.415763 16.4369 0.569864 16.625C0.552742 16.6934 0.561304 16.7704 0.621233 16.8217C6.04046 21.6866 11.3484 26.6542 16.5793 31.6816C11.571 26.0471 6.66543 20.3357 2.44476 14.1113Z" fill="#EFF1F2"/>
<path d="M34.2923 52.4072C32.0065 54.6131 29.7121 56.819 27.4263 59.0249C32.2205 64.8133 37.0833 70.5418 41.9204 76.2959C44.112 74.167 46.3037 72.0466 48.4953 69.9262C43.8124 64.0438 39.078 58.1956 34.2923 52.4072Z" fill="#EFF1F2"/>
<path d="M39.7372 49.115C32.4944 40.0862 25.7825 30.3649 18.1373 21.6866C14.5759 17.6425 10.3638 13.7693 7.47008 9.15234C6.50267 10.0928 5.54381 11.0419 4.58496 11.9909C12.3585 23.6275 22.6747 33.4172 31.3472 44.3954C37.6226 52.3384 44.1034 60.1274 50.4815 67.9849C50.8325 67.6429 51.1749 67.3009 51.5345 66.9674C57.065 72.7301 62.5784 78.5185 68.1004 84.3154C58.529 72.6788 49.1631 60.8627 39.7372 49.115Z" fill="#EFF1F2"/>
<path d="M100.445 86.0597C100.582 85.7604 100.582 85.427 100.334 85.179C94.8373 79.7327 89.4437 74.1923 84.1016 68.6177C89.4865 74.483 94.94 80.2884 100.445 86.0597Z" fill="#EFF1F2"/>
<path d="M57.2707 43.8144C45.9272 31.9812 33.5563 20.6439 24.43 6.93822C22.3069 5.02302 20.1922 3.09072 17.9749 1.26102C17.7009 1.03017 17.3671 1.13277 17.0931 1.30377C16.7592 1.50897 16.4767 1.75692 16.1514 1.97067C43.7954 30.5619 65.9347 64.0864 93.75 92.4895C95.2482 90.9762 96.7721 89.497 98.3644 88.129C84.4953 73.5171 71.2169 58.3579 57.2707 43.8144Z" fill="#EFF1F2"/>
<path d="M58.9227 28.0479C56.7738 30.2281 54.625 32.4083 52.459 34.5715C55.3184 37.4785 58.1693 40.3855 60.926 43.3609C63.3317 45.9515 65.7117 48.5593 68.1003 51.1671C69.8639 49.4998 71.6104 47.824 73.3654 46.1482C68.3057 40.3 63.4515 34.2979 58.9227 28.0479Z" fill="#EFF1F2"/>
<path d="M62.4588 24.4316C61.9879 24.919 61.517 25.4234 61.0376 25.9108C65.5665 32.195 70.4378 38.2313 75.5231 44.0966C76.2765 43.3699 77.0213 42.6346 77.7661 41.9164C72.5695 36.1708 67.4328 30.3653 62.4588 24.4316Z" fill="#EFF1F2"/>
<path d="M69.4615 17.0869C67.8092 18.814 66.1741 20.5668 64.5132 22.2768C69.5129 28.2361 74.6668 34.0672 79.8976 39.8299C81.353 38.4106 82.7913 36.9657 84.2296 35.5293C78.8275 29.7837 73.8021 23.6533 69.4615 17.0869Z" fill="#EFF1F2"/>
<path d="M96.9515 21.8579C97.9703 20.6865 98.9891 19.5066 99.9736 18.3011C100.196 18.0189 100.102 17.694 99.9308 17.4204C96.0183 11.1105 90.5221 6.25411 85.4538 0.901815C85.197 0.636765 84.8802 0.645316 84.6919 0.799216C84.6234 0.782116 84.5549 0.790667 84.5036 0.850517C83.8871 1.54307 83.2622 2.20997 82.6372 2.89397C87.0976 9.44327 91.9432 15.7361 96.9515 21.8579Z" fill="#EFF1F2"/>
<path d="M91.3356 19.498C87.6371 14.7784 84.0329 10.0161 80.617 5.1084C79.4526 6.38235 78.3054 7.66485 77.1411 8.93025C81.9696 15.1718 87.0806 21.1824 92.1061 27.27C93.1505 26.1414 94.1779 24.9871 95.2052 23.8414C93.6985 22.234 92.3201 20.7549 91.3356 19.498Z" fill="#EFF1F2"/>
<path d="M75.0951 11.1104C73.9136 12.3672 72.7493 13.6326 71.5679 14.8809C75.8741 21.4901 80.8996 27.646 86.3102 33.4088C87.5858 32.1091 88.8101 30.7668 90.06 29.4416C85.0432 23.354 79.9407 17.3433 75.0951 11.1104Z" fill="#EFF1F2"/>
<path d="M13.7027 3.72314C12.3158 4.80044 10.9717 5.92904 9.67041 7.11749C13.0093 12.8973 18.7196 17.5741 22.692 22.7383C30.1316 32.4255 37.6826 42.0357 45.4219 51.4834C58.7089 67.7028 71.5678 84.2812 85.2999 100.124C87.5943 98.5341 89.6319 96.5847 91.6438 94.584C63.7086 66.0612 41.5095 32.3827 13.7027 3.72314Z" fill="#EFF1F2"/>
</svg>
