<?xml version="1.0" encoding="utf-8"?>
<!-- Generator: Adobe Illustrator 26.0.1, SVG Export Plug-In . SVG Version: 6.00 Build 0)  -->
<svg version="1.0" id="Camada_1" xmlns="http://www.w3.org/2000/svg" xmlns:xlink="http://www.w3.org/1999/xlink" x="0px" y="0px"
	 viewBox="0 0 913 120" enable-background="new 0 0 913 120" xml:space="preserve">
<rect fill="#F0F2F3" width="913" height="120"/>
<g>
	<defs>
		<rect id="SVGID_1_" width="913" height="120"/>
	</defs>
	<clipPath id="SVGID_00000139993567182134648360000011682685413544272780_">
		<use xlink:href="#SVGID_1_"  overflow="visible"/>
	</clipPath>
	<path clip-path="url(#SVGID_00000139993567182134648360000011682685413544272780_)" fill="#B1D34B" d="M3-3H0v6h3V-3z M15.02-3
		H9.01v6h6.01V-3z M27.03-3h-6.01v6h6.01V-3z M39.04-3h-6.01v6h6.01V-3z M51.05-3h-6.01v6h6.01V-3z M63.07-3h-6.01v6h6.01V-3z
		 M75.08-3h-6.01v6h6.01V-3z M87.09-3h-6.01v6h6.01V-3z M99.11-3H93.1v6h6.01V-3z M111.12-3h-6.01v6h6.01V-3z M123.13-3h-6.01v6
		h6.01V-3z M135.15-3h-6.01v6h6.01V-3z M147.16-3h-6.01v6h6.01V-3z M159.17-3h-6.01v6h6.01V-3z M171.19-3h-6.01v6h6.01V-3z M183.2-3
		h-6.01v6h6.01V-3z M195.21-3h-6.01v6h6.01V-3z M207.23-3h-6.01v6h6.01V-3z M219.24-3h-6.01v6h6.01V-3z M231.25-3h-6.01v6h6.01V-3z
		 M243.27-3h-6.01v6h6.01V-3z M255.28-3h-6.01v6h6.01V-3z M267.29-3h-6.01v6h6.01V-3z M279.31-3h-6.01v6h6.01V-3z M291.32-3h-6.01v6
		h6.01V-3z M303.33-3h-6.01v6h6.01V-3z M315.34-3h-6.01v6h6.01V-3z M327.36-3h-6.01v6h6.01V-3z M339.37-3h-6.01v6h6.01V-3z
		 M351.38-3h-6.01v6h6.01V-3z M363.4-3h-6.01v6h6.01V-3z M375.41-3h-6.01v6h6.01V-3z M387.42-3h-6.01v6h6.01V-3z M399.44-3h-6.01v6
		h6.01V-3z M411.45-3h-6.01v6h6.01V-3z M423.46-3h-6.01v6h6.01V-3z M435.48-3h-6.01v6h6.01V-3z M447.49-3h-6.01v6h6.01V-3z M459.5-3
		h-6.01v6h6.01V-3z M471.52-3h-6.01v6h6.01V-3z M483.53-3h-6.01v6h6.01V-3z M495.54-3h-6.01v6h6.01V-3z M507.56-3h-6.01v6h6.01V-3z
		 M519.57-3h-6.01v6h6.01V-3z M531.58-3h-6.01v6h6.01V-3z M543.6-3h-6.01v6h6.01V-3z M555.61-3h-6.01v6h6.01V-3z M567.62-3h-6.01v6
		h6.01V-3z M579.63-3h-6.01v6h6.01V-3z M591.65-3h-6.01v6h6.01V-3z M603.66-3h-6.01v6h6.01V-3z M615.67-3h-6.01v6h6.01V-3z
		 M627.69-3h-6.01v6h6.01V-3z M639.7-3h-6.01v6h6.01V-3z M651.71-3h-6.01v6h6.01V-3z M663.73-3h-6.01v6h6.01V-3z M675.74-3h-6.01v6
		h6.01V-3z M687.75-3h-6.01v6h6.01V-3z M699.77-3h-6.01v6h6.01V-3z M711.78-3h-6.01v6h6.01V-3z M723.79-3h-6.01v6h6.01V-3z
		 M735.81-3h-6.01v6h6.01V-3z M747.82-3h-6.01v6h6.01V-3z M759.83-3h-6.01v6h6.01V-3z M771.85-3h-6.01v6h6.01V-3z M783.86-3h-6.01v6
		h6.01V-3z M795.87-3h-6.01v6h6.01V-3z M807.88-3h-6.01v6h6.01V-3z M819.9-3h-6.01v6h6.01V-3z M831.91-3h-6.01v6h6.01V-3z M843.92-3
		h-6.01v6h6.01V-3z M855.94-3h-6.01v6h6.01V-3z M867.95-3h-6.01v6h6.01V-3z M879.96-3h-6.01v6h6.01V-3z M891.98-3h-6.01v6h6.01V-3z
		 M903.99-3h-6.01v6h6.01V-3z M913-3h-3v6h3V-3z M916,3V0h-6v3H916z M916,15V9h-6v6H916z M916,27v-6h-6v6H916z M916,39v-6h-6v6H916z
		 M916,51v-6h-6v6H916z M916,63v-6h-6v6H916z M916,75v-6h-6v6H916z M916,87v-6h-6v6H916z M916,99v-6h-6v6H916z M916,111v-6h-6v6H916
		z M916,120v-3h-6v3H916z M910,123h3v-6h-3V123z M897.98,123h6.01v-6h-6.01V123z M885.97,123h6.01v-6h-6.01V123z M873.96,123h6.01
		v-6h-6.01V123z M861.95,123h6.01v-6h-6.01V123z M849.93,123h6.01v-6h-6.01V123z M837.92,123h6.01v-6h-6.01V123z M825.91,123h6.01
		v-6h-6.01V123z M813.89,123h6.01v-6h-6.01V123z M801.88,123h6.01v-6h-6.01V123z M789.87,123h6.01v-6h-6.01V123z M777.85,123h6.01
		v-6h-6.01V123z M765.84,123h6.01v-6h-6.01V123z M753.83,123h6.01v-6h-6.01V123z M741.81,123h6.01v-6h-6.01V123z M729.8,123h6.01v-6
		h-6.01V123z M717.79,123h6.01v-6h-6.01V123z M705.77,123h6.01v-6h-6.01V123z M693.76,123h6.01v-6h-6.01V123z M681.75,123h6.01v-6
		h-6.01V123z M669.73,123h6.01v-6h-6.01V123z M657.72,123h6.01v-6h-6.01V123z M645.71,123h6.01v-6h-6.01V123z M633.69,123h6.01v-6
		h-6.01V123z M621.68,123h6.01v-6h-6.01V123z M609.67,123h6.01v-6h-6.01V123z M597.66,123h6.01v-6h-6.01V123z M585.64,123h6.01v-6
		h-6.01V123z M573.63,123h6.01v-6h-6.01V123z M561.62,123h6.01v-6h-6.01V123z M549.6,123h6.01v-6h-6.01V123z M537.59,123h6.01v-6
		h-6.01V123z M525.58,123h6.01v-6h-6.01V123z M513.56,123h6.01v-6h-6.01V123z M501.55,123h6.01v-6h-6.01V123z M489.54,123h6.01v-6
		h-6.01V123z M477.52,123h6.01v-6h-6.01V123z M465.51,123h6.01v-6h-6.01V123z M453.5,123h6.01v-6h-6.01V123z M441.48,123h6.01v-6
		h-6.01V123z M429.47,123h6.01v-6h-6.01V123z M417.46,123h6.01v-6h-6.01V123z M405.44,123h6.01v-6h-6.01V123z M393.43,123h6.01v-6
		h-6.01V123z M381.42,123h6.01v-6h-6.01V123z M369.4,123h6.01v-6h-6.01V123z M357.39,123h6.01v-6h-6.01V123z M345.38,123h6.01v-6
		h-6.01V123z M333.37,123h6.01v-6h-6.01V123z M321.35,123h6.01v-6h-6.01V123z M309.34,123h6.01v-6h-6.01V123z M297.33,123h6.01v-6
		h-6.01V123z M285.31,123h6.01v-6h-6.01V123z M273.3,123h6.01v-6h-6.01V123z M261.29,123h6.01v-6h-6.01V123z M249.27,123h6.01v-6
		h-6.01V123z M237.26,123h6.01v-6h-6.01V123z M225.25,123h6.01v-6h-6.01V123z M213.23,123h6.01v-6h-6.01V123z M201.22,123h6.01v-6
		h-6.01V123z M189.21,123h6.01v-6h-6.01V123z M177.19,123h6.01v-6h-6.01V123z M165.18,123h6.01v-6h-6.01V123z M153.17,123h6.01v-6
		h-6.01V123z M141.15,123h6.01v-6h-6.01V123z M129.14,123h6.01v-6h-6.01V123z M117.13,123h6.01v-6h-6.01V123z M105.12,123h6.01v-6
		h-6.01V123z M93.1,123h6.01v-6H93.1V123z M81.09,123h6.01v-6h-6.01V123z M69.08,123h6.01v-6h-6.01V123z M57.06,123h6.01v-6h-6.01
		V123z M45.05,123h6.01v-6h-6.01V123z M33.04,123h6.01v-6h-6.01V123z M21.02,123h6.01v-6h-6.01V123z M9.01,123h6.01v-6H9.01V123z
		 M0,123h3v-6H0V123z M-3,117v3h6v-3H-3z M-3,105v6h6v-6H-3z M-3,93v6h6v-6H-3z M-3,81v6h6v-6H-3z M-3,69v6h6v-6H-3z M-3,57v6h6v-6
		H-3z M-3,45v6h6v-6H-3z M-3,33v6h6v-6H-3z M-3,21v6h6v-6H-3z M-3,9v6h6V9H-3z M-3,0v3h6V0H-3z M0,120h-3v3h3V120z M913,120v3h3v-3
		H913z M913,0h3v-3h-3V0z M0,0v-3h-3v3H0z M3-1.5H0v3h3V-1.5z M15.02-1.5H9.01v3h6.01V-1.5z M27.03-1.5h-6.01v3h6.01V-1.5z
		 M39.04-1.5h-6.01v3h6.01V-1.5z M51.05-1.5h-6.01v3h6.01V-1.5z M63.07-1.5h-6.01v3h6.01V-1.5z M75.08-1.5h-6.01v3h6.01V-1.5z
		 M87.09-1.5h-6.01v3h6.01V-1.5z M99.11-1.5H93.1v3h6.01V-1.5z M111.12-1.5h-6.01v3h6.01V-1.5z M123.13-1.5h-6.01v3h6.01V-1.5z
		 M135.15-1.5h-6.01v3h6.01V-1.5z M147.16-1.5h-6.01v3h6.01V-1.5z M159.17-1.5h-6.01v3h6.01V-1.5z M171.19-1.5h-6.01v3h6.01V-1.5z
		 M183.2-1.5h-6.01v3h6.01V-1.5z M195.21-1.5h-6.01v3h6.01V-1.5z M207.23-1.5h-6.01v3h6.01V-1.5z M219.24-1.5h-6.01v3h6.01V-1.5z
		 M231.25-1.5h-6.01v3h6.01V-1.5z M243.27-1.5h-6.01v3h6.01V-1.5z M255.28-1.5h-6.01v3h6.01V-1.5z M267.29-1.5h-6.01v3h6.01V-1.5z
		 M279.31-1.5h-6.01v3h6.01V-1.5z M291.32-1.5h-6.01v3h6.01V-1.5z M303.33-1.5h-6.01v3h6.01V-1.5z M315.34-1.5h-6.01v3h6.01V-1.5z
		 M327.36-1.5h-6.01v3h6.01V-1.5z M339.37-1.5h-6.01v3h6.01V-1.5z M351.38-1.5h-6.01v3h6.01V-1.5z M363.4-1.5h-6.01v3h6.01V-1.5z
		 M375.41-1.5h-6.01v3h6.01V-1.5z M387.42-1.5h-6.01v3h6.01V-1.5z M399.44-1.5h-6.01v3h6.01V-1.5z M411.45-1.5h-6.01v3h6.01V-1.5z
		 M423.46-1.5h-6.01v3h6.01V-1.5z M435.48-1.5h-6.01v3h6.01V-1.5z M447.49-1.5h-6.01v3h6.01V-1.5z M459.5-1.5h-6.01v3h6.01V-1.5z
		 M471.52-1.5h-6.01v3h6.01V-1.5z M483.53-1.5h-6.01v3h6.01V-1.5z M495.54-1.5h-6.01v3h6.01V-1.5z M507.56-1.5h-6.01v3h6.01V-1.5z
		 M519.57-1.5h-6.01v3h6.01V-1.5z M531.58-1.5h-6.01v3h6.01V-1.5z M543.6-1.5h-6.01v3h6.01V-1.5z M555.61-1.5h-6.01v3h6.01V-1.5z
		 M567.62-1.5h-6.01v3h6.01V-1.5z M579.63-1.5h-6.01v3h6.01V-1.5z M591.65-1.5h-6.01v3h6.01V-1.5z M603.66-1.5h-6.01v3h6.01V-1.5z
		 M615.67-1.5h-6.01v3h6.01V-1.5z M627.69-1.5h-6.01v3h6.01V-1.5z M639.7-1.5h-6.01v3h6.01V-1.5z M651.71-1.5h-6.01v3h6.01V-1.5z
		 M663.73-1.5h-6.01v3h6.01V-1.5z M675.74-1.5h-6.01v3h6.01V-1.5z M687.75-1.5h-6.01v3h6.01V-1.5z M699.77-1.5h-6.01v3h6.01V-1.5z
		 M711.78-1.5h-6.01v3h6.01V-1.5z M723.79-1.5h-6.01v3h6.01V-1.5z M735.81-1.5h-6.01v3h6.01V-1.5z M747.82-1.5h-6.01v3h6.01V-1.5z
		 M759.83-1.5h-6.01v3h6.01V-1.5z M771.85-1.5h-6.01v3h6.01V-1.5z M783.86-1.5h-6.01v3h6.01V-1.5z M795.87-1.5h-6.01v3h6.01V-1.5z
		 M807.88-1.5h-6.01v3h6.01V-1.5z M819.9-1.5h-6.01v3h6.01V-1.5z M831.91-1.5h-6.01v3h6.01V-1.5z M843.92-1.5h-6.01v3h6.01V-1.5z
		 M855.94-1.5h-6.01v3h6.01V-1.5z M867.95-1.5h-6.01v3h6.01V-1.5z M879.96-1.5h-6.01v3h6.01V-1.5z M891.98-1.5h-6.01v3h6.01V-1.5z
		 M903.99-1.5h-6.01v3h6.01V-1.5z M913-1.5h-3v3h3V-1.5z M914.5,3V0h-3v3H914.5z M914.5,15V9h-3v6H914.5z M914.5,27v-6h-3v6H914.5z
		 M914.5,39v-6h-3v6H914.5z M914.5,51v-6h-3v6H914.5z M914.5,63v-6h-3v6H914.5z M914.5,75v-6h-3v6H914.5z M914.5,87v-6h-3v6H914.5z
		 M914.5,99v-6h-3v6H914.5z M914.5,111v-6h-3v6H914.5z M914.5,120v-3h-3v3H914.5z M910,121.5h3v-3h-3V121.5z M897.98,121.5h6.01v-3
		h-6.01V121.5z M885.97,121.5h6.01v-3h-6.01V121.5z M873.96,121.5h6.01v-3h-6.01V121.5z M861.95,121.5h6.01v-3h-6.01V121.5z
		 M849.93,121.5h6.01v-3h-6.01V121.5z M837.92,121.5h6.01v-3h-6.01V121.5z M825.91,121.5h6.01v-3h-6.01V121.5z M813.89,121.5h6.01
		v-3h-6.01V121.5z M801.88,121.5h6.01v-3h-6.01V121.5z M789.87,121.5h6.01v-3h-6.01V121.5z M777.85,121.5h6.01v-3h-6.01V121.5z
		 M765.84,121.5h6.01v-3h-6.01V121.5z M753.83,121.5h6.01v-3h-6.01V121.5z M741.81,121.5h6.01v-3h-6.01V121.5z M729.8,121.5h6.01v-3
		h-6.01V121.5z M717.79,121.5h6.01v-3h-6.01V121.5z M705.77,121.5h6.01v-3h-6.01V121.5z M693.76,121.5h6.01v-3h-6.01V121.5z
		 M681.75,121.5h6.01v-3h-6.01V121.5z M669.73,121.5h6.01v-3h-6.01V121.5z M657.72,121.5h6.01v-3h-6.01V121.5z M645.71,121.5h6.01
		v-3h-6.01V121.5z M633.69,121.5h6.01v-3h-6.01V121.5z M621.68,121.5h6.01v-3h-6.01V121.5z M609.67,121.5h6.01v-3h-6.01V121.5z
		 M597.66,121.5h6.01v-3h-6.01V121.5z M585.64,121.5h6.01v-3h-6.01V121.5z M573.63,121.5h6.01v-3h-6.01V121.5z M561.62,121.5h6.01
		v-3h-6.01V121.5z M549.6,121.5h6.01v-3h-6.01V121.5z M537.59,121.5h6.01v-3h-6.01V121.5z M525.58,121.5h6.01v-3h-6.01V121.5z
		 M513.56,121.5h6.01v-3h-6.01V121.5z M501.55,121.5h6.01v-3h-6.01V121.5z M489.54,121.5h6.01v-3h-6.01V121.5z M477.52,121.5h6.01
		v-3h-6.01V121.5z M465.51,121.5h6.01v-3h-6.01V121.5z M453.5,121.5h6.01v-3h-6.01V121.5z M441.48,121.5h6.01v-3h-6.01V121.5z
		 M429.47,121.5h6.01v-3h-6.01V121.5z M417.46,121.5h6.01v-3h-6.01V121.5z M405.44,121.5h6.01v-3h-6.01V121.5z M393.43,121.5h6.01
		v-3h-6.01V121.5z M381.42,121.5h6.01v-3h-6.01V121.5z M369.4,121.5h6.01v-3h-6.01V121.5z M357.39,121.5h6.01v-3h-6.01V121.5z
		 M345.38,121.5h6.01v-3h-6.01V121.5z M333.37,121.5h6.01v-3h-6.01V121.5z M321.35,121.5h6.01v-3h-6.01V121.5z M309.34,121.5h6.01
		v-3h-6.01V121.5z M297.33,121.5h6.01v-3h-6.01V121.5z M285.31,121.5h6.01v-3h-6.01V121.5z M273.3,121.5h6.01v-3h-6.01V121.5z
		 M261.29,121.5h6.01v-3h-6.01V121.5z M249.27,121.5h6.01v-3h-6.01V121.5z M237.26,121.5h6.01v-3h-6.01V121.5z M225.25,121.5h6.01
		v-3h-6.01V121.5z M213.23,121.5h6.01v-3h-6.01V121.5z M201.22,121.5h6.01v-3h-6.01V121.5z M189.21,121.5h6.01v-3h-6.01V121.5z
		 M177.19,121.5h6.01v-3h-6.01V121.5z M165.18,121.5h6.01v-3h-6.01V121.5z M153.17,121.5h6.01v-3h-6.01V121.5z M141.15,121.5h6.01
		v-3h-6.01V121.5z M129.14,121.5h6.01v-3h-6.01V121.5z M117.13,121.5h6.01v-3h-6.01V121.5z M105.12,121.5h6.01v-3h-6.01V121.5z
		 M93.1,121.5h6.01v-3H93.1V121.5z M81.09,121.5h6.01v-3h-6.01V121.5z M69.08,121.5h6.01v-3h-6.01V121.5z M57.06,121.5h6.01v-3
		h-6.01V121.5z M45.05,121.5h6.01v-3h-6.01V121.5z M33.04,121.5h6.01v-3h-6.01V121.5z M21.02,121.5h6.01v-3h-6.01V121.5z
		 M9.01,121.5h6.01v-3H9.01V121.5z M0,121.5h3v-3H0V121.5z M-1.5,117v3h3v-3H-1.5z M-1.5,105v6h3v-6H-1.5z M-1.5,93v6h3v-6H-1.5z
		 M-1.5,81v6h3v-6H-1.5z M-1.5,69v6h3v-6H-1.5z M-1.5,57v6h3v-6H-1.5z M-1.5,45v6h3v-6H-1.5z M-1.5,33v6h3v-6H-1.5z M-1.5,21v6h3v-6
		H-1.5z M-1.5,9v6h3V9H-1.5z M-1.5,0v3h3V0H-1.5z M0,120h-1.5v1.5H0V120z M913,120v1.5h1.5V120H913z M913,0h1.5v-1.5H913V0z M0,0
		v-1.5h-1.5V0H0z"/>
</g>
<path fill="#008C50" d="M414.54,81.5c-2.57,0.93-5.15,1.25-7.85,1.25c-8.53,0-14.6-4.3-14.6-13.91c0-9.25,6.31-15.36,15.09-15.36
	c2.53,0,4.79,0.44,6.88,1.05l-0.97,5.43c-1.89-0.36-3.38-0.56-5.15-0.56c-5.23,0-8.32,3.42-8.32,9.25c0,5.31,3.1,8.21,8.53,8.21
	c2.05,0,3.74-0.2,5.39-0.61L414.54,81.5z"/>
<path fill="#008C50" d="M429.34,72.2c0-3.78-1.05-5.67-2.98-5.67c-2.01,0-3.1,1.89-3.1,5.67c0,3.62,1.05,5.51,3.02,5.51
	C428.3,77.71,429.34,75.82,429.34,72.2z M415.95,72.53c0-6.92,3.78-11.02,10.42-11.02c6.44,0,10.3,3.5,10.3,10.42
	c0,6.72-3.9,10.82-10.38,10.82C419.69,82.74,415.95,79.2,415.95,72.53z"/>
<path fill="#008C50" d="M452.39,72.2c0-3.78-1.05-5.67-2.98-5.67c-2.01,0-3.1,1.89-3.1,5.67c0,3.62,1.05,5.51,3.02,5.51
	C451.35,77.71,452.39,75.82,452.39,72.2z M439,72.53c0-6.92,3.78-11.02,10.42-11.02c6.44,0,10.3,3.5,10.3,10.42
	c0,6.72-3.9,10.82-10.38,10.82C442.74,82.74,439,79.2,439,72.53z"/>
<path fill="#008C50" d="M470.01,77.15c0.64,0.32,1.41,0.56,2.41,0.56c2.21,0,3.46-2.25,3.46-5.75c0-3.5-1.29-5.43-3.62-5.43
	c-1.01,0-1.65,0.2-2.25,0.48L470.01,77.15L470.01,77.15z M468.16,63.27c1.53-1.12,3.46-1.77,5.55-1.77c5.99,0,9.49,3.38,9.49,10.09
	c0,7.04-3.7,11.14-9.85,11.14c-1.21,0-2.37-0.16-3.34-0.52v10.02h-7.16V62.07h4.5L468.16,63.27z"/>
<path fill="#008C50" d="M498.68,69.07c0-2.09-0.93-3.06-2.57-3.06c-1.57,0-2.74,1.25-3.22,3.54h5.79V69.07z M505.24,80.73
	c-2.57,1.25-5.47,2.01-8.77,2.01c-6.84,0-10.94-3.86-10.94-10.38c0-6.4,4.39-10.86,10.82-10.86c5.47,0,8.85,3.02,8.85,8.33
	c0,1.25-0.12,2.53-0.61,3.86h-11.74c0.56,2.7,2.53,4.02,5.87,4.02c1.77,0,3.58-0.36,5.47-0.97L505.24,80.73z"/>
<path fill="#008C50" d="M513.77,63.27c1.53-1.21,3.34-1.77,5.59-1.77c1.01,0,1.97,0.24,2.53,0.52l-0.68,5.03
	c-0.93-0.2-1.49-0.28-2.45-0.28c-1.12,0-2.17,0.16-3.06,0.48v14.92h-7.16V62.07h4.5L513.77,63.27z"/>
<path fill="#008C50" d="M533.04,73.65c-1.73,0-2.74,1.01-2.74,2.41c0,1.25,0.93,2.09,2.34,2.09c0.76,0,1.45-0.12,2.09-0.36v-4.14
	H533.04z M523.66,63.43c3.22-1.21,6.07-1.93,9.53-1.93c5.59,0,8.69,2.62,8.69,7.24v13.43h-4.5l-0.89-1.29
	c-1.73,1.25-3.62,1.85-6.03,1.85c-4.3,0-7.16-2.38-7.16-5.99c0-4.26,3.18-6.72,8.69-6.72h2.74v-0.12c0-1.93-1.01-2.74-3.62-2.74
	c-1.57,0-3.98,0.44-6.52,1.05L523.66,63.43z"/>
<path fill="#008C50" d="M558.13,67.06c-0.61-0.32-1.29-0.52-2.29-0.52c-2.25,0-3.78,2.29-3.78,5.79c0,3.3,1.53,5.39,3.86,5.39
	c0.97,0,1.65-0.2,2.21-0.48V67.06z M565.29,82.18h-4.5l-0.68-1.29c-1.53,1.21-3.5,1.85-5.67,1.85c-6.16,0-9.69-3.78-9.69-10.26
	c0-6.6,3.98-10.98,10.02-10.98c1.25,0,2.37,0.16,3.38,0.48v-9.98h7.16L565.29,82.18L565.29,82.18z"/>
<path fill="#008C50" d="M581.94,72.2c0-3.78-1.05-5.67-2.98-5.67c-2.01,0-3.1,1.89-3.1,5.67c0,3.62,1.05,5.51,3.02,5.51
	C580.9,77.71,581.94,75.82,581.94,72.2z M568.55,72.53c0-6.92,3.78-11.02,10.42-11.02c6.44,0,10.3,3.5,10.3,10.42
	c0,6.72-3.9,10.82-10.38,10.82C572.29,82.74,568.55,79.2,568.55,72.53z"/>
<path fill="#BBD034" d="M401.19,27.77l-13.69,1.31c-1.02,0.1-1.47,1.34-0.74,2.07l3.84,3.84l-27.56,27.92l-4.74-4.79
	c-1.1-1.11-2.57-1.73-4.14-1.73c-0.01,0-0.01,0-0.02,0c-1.56,0-3.03,0.61-4.14,1.71l-15.15,15.15c-0.29-0.75-0.45-1.56-0.45-2.4
	V39.23c0-3.67,2.98-6.65,6.65-6.65h31.62c3.26,0,5.98,2.36,6.54,5.45c0.13,0.69,0.72,1.2,1.41,1.2h1.83c0.88,0,1.56-0.78,1.43-1.65
	c-0.35-2.4-1.46-4.62-3.2-6.36c-2.14-2.14-4.99-3.32-8.01-3.32h-31.53c-3,0-5.91,1.15-8.04,3.27c-2.18,2.15-3.37,5.02-3.37,8.07
	v31.62c0,3.03,1.18,5.87,3.32,8.01c2.14,2.14,4.99,3.32,8.01,3.32h31.53c3,0,5.91-1.15,8.04-3.27c2.18-2.15,3.37-5.02,3.37-8.07
	v-8.84c0-0.74-0.6-1.34-1.34-1.34h-1.99c-0.74,0-1.34,0.6-1.34,1.34v8.84c0,3.67-2.98,6.65-6.65,6.65h-31.62
	c-0.17,0-0.33-0.01-0.49-0.02l13.57-13.57l4.74,4.79c1.1,1.11,2.57,1.73,4.14,1.73c0.01,0,0.01,0,0.02,0c1.56,0,3.03-0.61,4.14-1.71
	l28.57-28.57l3.39,3.39c0.73,0.73,1.97,0.28,2.07-0.74l1.31-13.69C402.59,28.34,401.95,27.7,401.19,27.77z"/>
<polygon fill="#035E53" points="429.23,56.34 423.5,56.34 417.36,37.79 417.36,37.38 422.26,37.38 426.62,53.26 431.02,37.38 
	435.64,37.38 435.64,37.79 "/>
<path fill="#035E53" d="M446.18,47.69c-2.39,0-3.79,1.22-3.79,3.18c0,1.7,1.29,2.84,3.26,2.84c1.22,0,2.39-0.31,3.41-0.83v-5.19
	H446.18z M438.14,38.4c2.84-0.95,5.31-1.52,8.08-1.52c4.97,0,7.55,2.27,7.55,6.49v12.97h-3l-0.68-1.29
	c-1.67,1.18-3.53,1.78-5.76,1.78c-3.94,0-6.52-2.2-6.52-5.54c0-3.87,2.84-6.11,7.77-6.11h3.49v-1.1c0-2.39-1.22-3.45-4.13-3.45
	c-1.56,0-3.72,0.34-6.18,0.99L438.14,38.4z"/>
<path fill="#035E53" d="M467.19,56c-1.29,0.61-2.47,0.83-3.75,0.83c-3.3,0-5.12-1.67-5.12-5.19l4.7-0.72c0,1.9,0.87,2.54,2.58,2.54
	c0.42,0,0.76-0.04,1.29-0.23L467.19,56z M458.31,51.64V27.9h4.7v23.02L458.31,51.64z"/>
<path fill="#035E53" d="M483.04,46.94c0-4.4-1.59-6.68-4.44-6.68c-3.03,0-4.74,2.27-4.74,6.68c0,4.25,1.63,6.52,4.51,6.52
	C481.37,53.46,483.04,51.18,483.04,46.94z M469.08,47.12c0-6.49,3.45-10.24,9.52-10.24c5.76,0,9.21,3.37,9.21,9.86
	c0,6.33-3.53,10.09-9.41,10.09C472.46,56.83,469.08,53.42,469.08,47.12z"/>
<path fill="#035E53" d="M495.37,38.7c1.52-1.18,3.34-1.82,5.54-1.82c0.8,0,1.59,0.19,2.09,0.38l-0.49,3.37
	c-0.72-0.15-1.22-0.23-1.97-0.23c-1.52,0-2.96,0.38-4.1,0.95v14.98h-4.7V37.38h3L495.37,38.7z"/>
<path fill="#035E53" d="M506.21,56.34V37.38h4.67v18.96H506.21z M511.52,31.12c0,1.75-1.18,2.92-2.96,2.92s-3-1.18-3-2.92
	s1.22-2.88,3-2.88S511.52,29.38,511.52,31.12z"/>
<polygon fill="#035E53" points="531.43,56.34 515,56.34 515,53.42 525.43,40.82 515,40.82 515,37.38 531.39,37.38 531.39,40.18 
	520.92,52.89 531.43,52.89 "/>
<path fill="#035E53" d="M542.96,47.69c-2.39,0-3.79,1.22-3.79,3.18c0,1.7,1.29,2.84,3.26,2.84c1.22,0,2.39-0.31,3.41-0.83v-5.19
	H542.96z M534.92,38.4c2.84-0.95,5.31-1.52,8.08-1.52c4.97,0,7.55,2.27,7.55,6.49v12.97h-3l-0.68-1.29
	c-1.67,1.18-3.53,1.78-5.76,1.78c-3.94,0-6.52-2.2-6.52-5.54c0-3.87,2.84-6.11,7.77-6.11h3.49v-1.1c0-2.39-1.22-3.45-4.13-3.45
	c-1.56,0-3.72,0.34-6.18,0.99L534.92,38.4z"/>
</svg>
