<svg width="58" height="53" viewBox="0 0 58 53" fill="none" xmlns="http://www.w3.org/2000/svg">
<path d="M40.2674 53L35.407 48.1213C37.7636 43.9819 39.8256 39.8424 41.593 35.7029C43.3605 31.7113 44.3915 27.7936 44.686 23.9498L33.6395 21.5105L33.6395 5.90065e-06L57.5 3.8147e-06L57.5 15.523C57.5 24.689 55.7326 32.0809 52.1977 37.6987C48.5155 43.4644 44.5388 48.5649 40.2674 53ZM7.12791 53L2.26744 48.1213C4.62403 43.9819 6.68604 39.8424 8.45348 35.7029C10.2209 31.7113 11.2519 27.7936 11.5465 23.9498L0.499997 21.5105L0.499995 8.7978e-06L24.3605 6.71185e-06L24.3605 15.523C24.3605 24.689 22.593 32.0809 19.0581 37.6988C15.376 43.4644 11.3992 48.5649 7.12791 53Z" fill="#B1D34B"/>
</svg>
