<svg width="58" height="53" viewBox="0 0 58 53" fill="none" xmlns="http://www.w3.org/2000/svg">
<path d="M17.7326 0L22.593 4.87866C20.2364 9.01813 18.1744 13.1576 16.407 17.2971C14.6395 21.2887 13.6085 25.2064 13.314 29.0502L24.3605 31.4895V53H0.5V37.477C0.5 28.311 2.26744 20.9191 5.80233 15.3013C9.4845 9.53557 13.4612 4.43515 17.7326 0ZM50.8721 0L55.7326 4.87866C53.376 9.01813 51.314 13.1576 49.5465 17.2971C47.7791 21.2887 46.7481 25.2064 46.4535 29.0502L57.5 31.4895V53H33.6395V37.477C33.6395 28.311 35.407 20.9191 38.9419 15.3013C42.624 9.53557 46.6008 4.43515 50.8721 0Z" fill="#B1D34B"/>
</svg>
