<svg width="45" height="35" viewBox="0 0 45 35" fill="none" xmlns="http://www.w3.org/2000/svg">
<path d="M44.1783 0.773031L35.7138 1.57709C35.0816 1.63654 34.8048 2.40306 35.2546 2.85045L37.6294 5.21258L20.5935 22.3826L17.6619 19.4354C16.9793 18.7502 16.0703 18.3717 15.1015 18.3685C15.0983 18.3685 15.0952 18.3685 15.092 18.3685C14.1264 18.3685 13.2205 18.7408 12.5348 19.4229L3.17065 28.7369C2.99136 28.277 2.89385 27.7795 2.89385 27.2601V7.81874C2.89385 5.55986 4.73396 3.7296 7.005 3.7296H26.551C28.5673 3.7296 30.247 5.17816 30.5961 7.08351C30.6748 7.50588 31.0397 7.81874 31.4706 7.81874H32.5998C33.144 7.81874 33.5623 7.34006 33.4868 6.80506C33.2729 5.32834 32.5872 3.96425 31.5083 2.89112C30.1841 1.57396 28.4258 0.851247 26.5542 0.851247H7.05847C5.20263 0.851247 3.40656 1.56145 2.08546 2.85984C0.739189 4.18013 0 5.94468 0 7.82187V27.2633C0 29.1248 0.729753 30.8737 2.05086 32.1909C3.37511 33.5081 5.13343 34.2308 7.005 34.2308H26.4976C28.3534 34.2308 30.1495 33.5206 31.4706 32.2222C32.8169 30.9019 33.556 29.1373 33.556 27.2601V21.8257C33.556 21.3689 33.1849 20.9997 32.7256 20.9997H31.4926C31.0334 20.9997 30.6622 21.3689 30.6622 21.8257V27.2601C30.6622 29.519 28.8221 31.3493 26.551 31.3493H7.005C6.9012 31.3493 6.80054 31.3462 6.69988 31.3368L15.0889 22.9927L18.0205 25.9399C18.7031 26.625 19.6121 27.0036 20.5809 27.0067C20.5841 27.0067 20.5872 27.0067 20.5904 27.0067C21.556 27.0067 22.4619 26.6344 23.1476 25.9524L40.8127 8.3819L42.9076 10.4656C43.3574 10.913 44.128 10.6377 44.1878 10.0088L44.9962 1.58961C45.0434 1.12031 44.647 0.726102 44.1783 0.773031Z" fill="#BBD034"/>
</svg>
