<svg width="226" height="81" viewBox="0 0 226 81" fill="none" xmlns="http://www.w3.org/2000/svg">
<path d="M17.3904 79.125C8.52841 79.125 1.31641 71.91 1.31641 63.046V17.395C1.31641 8.53 8.52841 1.313 17.3904 1.313H208.345C217.214 1.313 224.429 8.53 224.429 17.395V79.125H17.3904Z" fill="#00995D"/>
<path d="M208.345 0.000595093H17.39C7.802 0.000595093 0 7.8036 0 17.3956V63.0466C0 72.6306 7.802 80.4336 17.39 80.4336H223.111H225.737V77.8166V17.3956C225.737 7.8036 217.933 0.000595093 208.345 0.000595093ZM208.345 2.63059C216.497 2.63059 223.111 9.2326 223.111 17.3956V77.8166H17.39C9.238 77.8166 2.62401 71.2006 2.62401 63.0466V17.3956C2.62401 9.2326 9.238 2.63059 17.39 2.63059H208.345Z" fill="white"/>
<path fill-rule="evenodd" clip-rule="evenodd" d="M181.625 28.4666H189.477L201.277 44.1666H193.425L199.302 52.0156H189.477L183.6 44.1666H187.502L181.625 36.3206H187.502L181.625 28.4666Z" fill="white"/>
<path fill-rule="evenodd" clip-rule="evenodd" d="M181.627 28.4666H173.777L161.969 44.1666H169.829L163.95 52.0156H173.777L179.648 44.1666H175.699L181.627 36.3206H175.752L181.627 28.4666Z" fill="white"/>
<path fill-rule="evenodd" clip-rule="evenodd" d="M32.8917 30.0649H24.5117V43.4139C24.5117 49.8719 29.3167 52.3809 35.4037 52.3809C42.0187 52.3809 46.4007 50.0299 46.4007 42.9319V30.0649H38.1767V43.0919C38.1767 45.2269 37.7007 46.7209 35.5117 46.7209C33.4787 46.7209 32.8917 45.1769 32.8917 43.0919V30.0649Z" fill="white"/>
<path fill-rule="evenodd" clip-rule="evenodd" d="M48.4805 52.0078H56.3795V42.5558C56.3795 41.6488 56.3795 40.3718 57.8175 40.3718C59.2065 40.3718 59.2065 41.6488 59.2065 42.5558V52.0078H67.1065V40.6338C67.1065 37.4368 65.5595 35.2448 61.3385 35.2448C59.1045 35.2448 56.9675 36.1528 56.0075 38.4428H55.9555V35.6208H48.4805V52.0078Z" fill="white"/>
<path fill-rule="evenodd" clip-rule="evenodd" d="M77.7359 28.4668H69.8359V33.9088H77.7359V28.4668ZM69.8359 52.0078H77.7359V35.6208H69.8359V52.0078Z" fill="white"/>
<path fill-rule="evenodd" clip-rule="evenodd" d="M80.3516 52.0078H88.2536V42.5558C88.2536 41.6488 88.2536 40.3718 89.6976 40.3718C91.0296 40.3718 91.0296 41.6488 91.0296 42.5558V52.0078H98.9816V42.5558C98.9816 41.6488 98.9816 40.3718 100.316 40.3718C101.752 40.3718 101.752 41.6488 101.752 42.5558V52.0078H109.662V42.1878C109.662 38.9808 109.662 35.2448 103.897 35.2448C101.917 35.2448 99.1936 36.1528 98.6606 38.0738H98.6106C97.9636 36.0948 95.6696 35.2448 93.4856 35.2448C90.9736 35.2448 88.8376 36.1528 87.8786 38.4428H87.8236V35.6208H80.3516V52.0078Z" fill="white"/>
<path fill-rule="evenodd" clip-rule="evenodd" d="M129.947 45.7079V44.7469C129.947 39.1949 127.702 35.2449 121.348 35.2449C114.729 35.2449 111.207 38.0199 111.207 43.5169C111.207 49.1769 114.729 52.3809 121.348 52.3809C124.123 52.3809 126.637 52.0579 128.718 51.4199V47.1999C127.484 47.8429 125.509 48.2189 123.374 48.2189C121.03 48.2189 119.162 47.7359 118.996 45.7079H129.947ZM118.996 42.2389C118.892 40.9569 119.266 39.0349 121.137 39.0349C122.899 39.0349 123.108 41.0069 123.108 42.2389H118.996Z" fill="white"/>
<path fill-rule="evenodd" clip-rule="evenodd" d="M143.796 43.7349C143.796 45.2789 143.528 47.0919 141.88 47.0919C140.116 47.0919 139.848 45.2789 139.848 43.5719C139.848 41.8649 140.116 40.1549 141.772 40.1549C143.528 40.1549 143.796 41.8649 143.796 43.7349ZM151.483 52.0079V28.4669H143.585V37.7559H143.528C142.303 35.9899 140.699 35.2459 138.567 35.2459C133.657 35.2459 131.629 39.1389 131.629 43.5719C131.629 48.2729 133.548 52.3809 138.836 52.3809C141.396 52.3809 142.998 51.4769 144.066 49.0159H144.119V52.0079H151.483Z" fill="white"/>
<path fill-rule="evenodd" clip-rule="evenodd" d="M158.042 24.5305H156.73V55.9395H158.042V24.5305Z" fill="white"/>
</svg>
