<svg width="137" height="23" viewBox="0 0 137 23" fill="none" xmlns="http://www.w3.org/2000/svg">
<path d="M134.844 21.2096L134.844 1.79053L2.15633 1.79052L2.15633 21.2096L134.844 21.2096Z" fill="white"/>
<path d="M0.749999 22.6144L0.75 0.385736L136.25 0.385742L136.25 22.6144L0.749999 22.6144ZM133.437 19.8048L133.437 3.19531L3.56258 3.1953L3.56258 19.8048L133.437 19.8048Z" fill="#19181C"/>
<path d="M132.279 18.8683L132.279 4.13184L4.72071 4.13183L4.72071 18.8683L132.279 18.8683Z" fill="#19181C"/>
<path d="M4.61022 19.006L4.61022 3.99414L132.417 3.99414L132.417 19.006L4.61022 19.006ZM132.169 18.7306L132.169 4.26959L4.85838 4.26958L4.85838 18.7581L132.141 18.7581L132.169 18.7306Z" fill="#19181C"/>
<path fill-rule="evenodd" clip-rule="evenodd" d="M17.5151 16.1689L15.0059 16.1689L14.3441 14.2683L10.8973 14.2683L10.2355 16.1689L7.78142 16.1689L11.2282 6.80371L14.0132 6.80371L17.46 16.1689L17.5151 16.1689ZM13.7926 12.5606L12.6621 9.22765L11.5315 12.5606L13.8202 12.5606L13.7926 12.5606Z" fill="white"/>
<path fill-rule="evenodd" clip-rule="evenodd" d="M27.3867 16.1687L25.0705 16.1687L21.0998 9.7508L21.0998 16.1687L18.8663 16.1687L18.8663 6.83105L21.7616 6.83105L25.1808 12.1747L25.1808 6.83105L27.3867 6.83105L27.3867 16.1687Z" fill="white"/>
<path fill-rule="evenodd" clip-rule="evenodd" d="M37.2583 13.2217C37.2583 14.1306 36.8723 14.8744 36.0726 15.4528C35.3006 16.0312 34.2252 16.3067 32.9016 16.3067C32.1295 16.3067 31.4402 16.224 30.8611 16.1139C30.282 15.9761 29.7581 15.8109 29.2342 15.5905L29.2342 13.3594L29.51 13.3594C30.0063 13.745 30.5578 14.0756 31.192 14.2684C31.7986 14.4887 32.4053 14.5989 32.9843 14.5989L33.5634 14.5989L34.1424 14.4336L34.5836 14.1582L34.7766 13.6624L34.5285 13.139C34.363 13.0013 34.0873 12.8911 33.7564 12.8085C33.3979 12.7259 33.0395 12.6432 32.6534 12.5606C32.2674 12.478 31.8813 12.3953 31.5505 12.2851C30.7508 12.0372 30.1993 11.6792 29.8684 11.2384C29.51 10.7977 29.3445 10.2744 29.3445 9.6133C29.3445 8.73187 29.7305 8.04325 30.5026 7.49236C31.2747 6.94146 32.295 6.66602 33.5082 6.66602C34.1149 6.66602 34.7215 6.72111 35.3281 6.85883C35.9348 6.96901 36.4587 7.13428 36.8999 7.29955L36.8999 9.44804L36.6517 9.44804C36.2656 9.14504 35.8245 8.89714 35.273 8.70433C34.7215 8.51152 34.17 8.40134 33.591 8.40134L32.9843 8.40134L32.4053 8.59415L31.9916 8.8696L31.8262 9.31031L32.1019 9.88875C32.295 10.0265 32.6534 10.1367 33.1773 10.2468C33.5082 10.3295 33.8391 10.3846 34.17 10.4672C34.4733 10.5223 34.8318 10.6325 35.1903 10.7426C35.9072 10.963 36.4311 11.2935 36.7896 11.7067C37.1205 12.1199 37.3135 12.6432 37.3135 13.2768" fill="white"/>
<path fill-rule="evenodd" clip-rule="evenodd" d="M50.2734 16.1691L48.0123 16.1691L48.0123 12.6709C48.0123 12.3954 48.0123 12.0925 47.9572 11.817C47.9296 11.5416 47.8745 11.3212 47.7917 11.1835L47.4333 10.8529C47.2678 10.7703 47.0472 10.7428 46.7715 10.7428L46.1373 10.8529L45.4479 11.1835L45.4479 16.1691L43.1868 16.1691L43.1868 9.11762L45.4479 9.11762L45.4479 9.88887C45.8616 9.55833 46.2476 9.33798 46.6061 9.17271C46.9921 9.00744 47.3781 8.9248 47.8469 8.9248C48.619 8.9248 49.198 9.14516 49.6392 9.58588C50.0804 10.0266 50.2734 10.6877 50.2734 11.5691L50.2734 16.1691Z" fill="white"/>
<path fill-rule="evenodd" clip-rule="evenodd" d="M58.2148 9.64056C58.2148 10.5771 57.9391 11.2932 57.4152 11.8441C56.8913 12.3675 56.1192 12.6429 55.1541 12.6429C54.189 12.6429 53.4445 12.3675 52.893 11.8441C52.3691 11.3208 52.0934 10.5771 52.0934 9.64056C52.0934 8.70404 52.3691 7.98788 52.893 7.43698C53.4445 6.91363 54.189 6.63818 55.1541 6.63818C56.1192 6.63818 56.8913 6.91363 57.4152 7.43698C57.9391 7.96033 58.2148 8.70404 58.2148 9.64056ZM56.0089 11.0178L56.2571 10.522C56.3122 10.3292 56.3398 10.0537 56.3398 9.66811C56.3398 9.33757 56.3122 9.06212 56.2571 8.84176L56.0089 8.29087L55.6229 7.98788L55.1541 7.90524L54.6853 7.98788L54.2993 8.26332L54.0511 8.81422C53.996 9.06212 53.9684 9.33757 53.9684 9.66811C53.9684 9.99864 53.996 10.2741 54.0511 10.4944L54.2993 11.0178L54.6578 11.3208L55.1541 11.4034L55.6229 11.3208L55.9813 11.0453L56.0089 11.0178Z" fill="white"/>
<path fill-rule="evenodd" clip-rule="evenodd" d="M70.9815 11.7891L71.4779 12.395C71.5882 12.6154 71.6709 12.9459 71.6709 13.3316C71.6709 13.7723 71.5882 14.1854 71.4227 14.5711C71.2573 14.9567 70.9815 15.2872 70.6231 15.5351C70.2646 15.8106 69.851 16.0034 69.3822 16.1411C68.9135 16.2788 68.3344 16.3615 67.6451 16.3615C66.873 16.3615 66.2112 16.3064 65.6597 16.1687C65.1082 16.0585 64.6395 15.9208 64.3086 15.7555L64.3086 13.6896L64.5567 13.6896C64.9152 13.91 65.3564 14.1028 65.8527 14.2681C66.3491 14.4333 66.8178 14.516 67.2314 14.516C67.4796 14.516 67.7278 14.516 68.0311 14.4609C68.3068 14.4333 68.555 14.3232 68.748 14.213L69.1065 13.8274C69.1892 13.6896 69.2444 13.4693 69.2444 13.1938C69.2444 12.9184 69.1892 12.7256 69.0513 12.5603L68.555 12.2573C68.3344 12.2022 68.1138 12.1471 67.8105 12.1471C67.5348 12.1471 67.259 12.1471 67.0108 12.1471L66.4869 12.1471L66.4869 10.4669L67.0384 10.4669C67.3693 10.4669 67.6451 10.4669 67.9208 10.4394C68.169 10.4394 68.3896 10.3567 68.555 10.3016L68.9686 9.99864C68.9686 9.99864 69.1065 9.66811 69.1065 9.4202L68.9686 8.95194L68.6102 8.67649L68.0311 8.53877L67.452 8.53877C67.066 8.51123 66.6248 8.53877 66.156 8.70404C65.6873 8.84176 65.2461 9.03458 64.8049 9.28248L64.5843 9.28248L64.5843 7.24417C64.9152 7.10644 65.384 6.96872 65.9906 6.831C66.5697 6.69327 67.1763 6.63818 67.7829 6.63818C68.3896 6.63818 68.8859 6.69327 69.3271 6.80345C69.7683 6.91363 70.1267 7.05135 70.4301 7.21662C70.761 7.43698 71.0367 7.68488 71.2021 7.96033C71.3676 8.26332 71.4503 8.59386 71.4503 8.97949C71.4503 9.50284 71.2849 9.9711 70.954 10.3843C70.6231 10.7974 70.2095 11.0453 69.6856 11.1555L69.6856 11.2382L70.3749 11.4034L71.0367 11.7891L70.9815 11.7891Z" fill="white"/>
<path fill-rule="evenodd" clip-rule="evenodd" d="M80.4673 16.1691L74.2355 16.1691L74.2355 14.544L76.1933 14.544L76.1933 9.61348L74.2355 9.61348L74.2355 8.07097C74.5388 8.07097 74.8146 8.07097 75.0903 8.01588C75.366 7.98834 75.5866 7.93325 75.7797 7.82307L76.276 7.4099C76.3863 7.24463 76.4414 7.02427 76.469 6.77637L78.5371 6.77637L78.5371 14.5164L80.4673 14.5164L80.4673 16.1416L80.4673 16.1691Z" fill="white"/>
<path d="M85.21 16.169L85.21 13.6899L82.8662 13.6899L82.8662 16.169L85.21 16.169Z" fill="white"/>
<path fill-rule="evenodd" clip-rule="evenodd" d="M94.668 13.0011C94.668 13.4969 94.5852 13.9376 94.3922 14.3508C94.1992 14.7639 93.951 15.122 93.5926 15.425C93.2065 15.7556 92.7653 15.9759 92.269 16.1412C91.7727 16.3065 91.1936 16.3615 90.5594 16.3615C89.8149 16.3615 89.1807 16.3065 88.6568 16.1687C88.1329 16.0585 87.7193 15.9208 87.3884 15.7831L87.3884 13.7172L87.6641 13.7172C88.0501 13.9376 88.4638 14.1304 88.9049 14.2957C89.3461 14.461 89.7873 14.516 90.2285 14.516C90.5043 14.516 90.78 14.4885 91.0833 14.4334C91.3866 14.3783 91.6348 14.2681 91.8278 14.1029L92.1587 13.7172C92.1587 13.7172 92.269 13.3867 92.269 13.0837L92.1311 12.5328L91.7451 12.1472C91.5245 12.0095 91.2488 11.9268 90.9179 11.8717C90.587 11.8167 90.3112 11.8167 90.0355 11.8167C89.6495 11.8167 89.291 11.8442 88.9325 11.8993C88.5741 11.9544 88.2707 12.037 88.0226 12.0921L87.7468 12.0921L87.7468 6.83105L94.4198 6.83105L94.4198 8.62146L90.0079 8.62146L90.0079 10.1364L91.0282 10.1364C91.5521 10.1089 91.9933 10.1364 92.4069 10.2466C92.8205 10.3292 93.179 10.467 93.4547 10.6598C93.8407 10.8801 94.1441 11.1831 94.3371 11.5688C94.5577 11.9544 94.668 12.4226 94.668 13.0011Z" fill="white"/>
<path fill-rule="evenodd" clip-rule="evenodd" d="M103.823 8.67655L99.6039 16.1687L96.9016 16.1687L101.286 8.62146L96.488 8.62146L96.488 6.83105L103.823 6.83105L103.823 8.67655Z" fill="white"/>
<path fill-rule="evenodd" clip-rule="evenodd" d="M112.977 10.9629C112.977 11.7342 112.867 12.4779 112.674 13.1665C112.481 13.8276 112.177 14.406 111.764 14.8743C111.323 15.3701 110.771 15.7557 110.109 16.0036C109.448 16.2515 108.675 16.3892 107.821 16.3892C107.517 16.3892 107.186 16.3892 106.828 16.3341C106.47 16.3066 106.221 16.2515 106.111 16.224L106.111 14.3785L106.359 14.3785L106.911 14.5713C107.131 14.6264 107.462 14.6539 107.848 14.6539C108.179 14.6539 108.482 14.6264 108.813 14.5437C109.144 14.4611 109.392 14.3234 109.613 14.1581C109.861 13.9653 110.054 13.7449 110.22 13.4419C110.385 13.1665 110.495 12.8084 110.551 12.4228C110.192 12.6431 109.834 12.7809 109.53 12.891C109.227 13.0012 108.813 13.0563 108.372 13.0563C108.014 13.0563 107.683 13.0012 107.352 12.9186C107.021 12.836 106.745 12.6982 106.47 12.5054C106.111 12.2575 105.835 11.927 105.642 11.5414C105.422 11.1282 105.339 10.6324 105.339 9.99885C105.339 9.00723 105.697 8.18089 106.387 7.54736C107.076 6.91383 108.014 6.61084 109.117 6.61084C109.696 6.61084 110.22 6.69347 110.661 6.8312C111.102 6.99647 111.488 7.21682 111.819 7.54736C112.205 7.90544 112.481 8.3737 112.674 8.9246C112.867 9.4755 112.977 10.1641 112.977 10.9629ZM110.578 10.6048C110.578 10.0815 110.523 9.66831 110.44 9.33777C110.33 9.00723 110.192 8.75933 110.027 8.56652L109.613 8.26353L109.117 8.18089L108.648 8.26353L108.207 8.56652L107.903 9.08987C107.821 9.31023 107.793 9.55813 107.793 9.86112C107.793 10.1641 107.848 10.412 107.931 10.6048L108.289 11.0731L108.813 11.321L109.475 11.3761L110.082 11.2934L110.606 11.1557L110.606 10.5773L110.578 10.6048Z" fill="white"/>
<path d="M119.319 12.9185L119.319 11.1006L114.521 11.1006L114.521 12.9185L119.319 12.9185Z" fill="white"/>
<path fill-rule="evenodd" clip-rule="evenodd" d="M128.501 12.9735C128.501 13.4417 128.419 13.91 128.226 14.3232C128.06 14.7363 127.812 15.0944 127.481 15.3974C127.15 15.7004 126.737 15.9483 126.296 16.1136C125.854 16.2788 125.33 16.3615 124.724 16.3615C124.172 16.3615 123.648 16.2788 123.18 16.1411C122.711 15.9759 122.325 15.7555 121.994 15.425C121.608 15.0669 121.332 14.5986 121.112 14.0202C120.919 13.4417 120.808 12.7807 120.808 11.9819C120.808 11.1831 120.891 10.4394 121.084 9.80583C121.277 9.1723 121.58 8.59386 121.994 8.1256C122.408 7.65734 122.931 7.29926 123.593 7.02381C124.255 6.74836 125.027 6.63818 125.937 6.63818C126.24 6.63818 126.571 6.63818 126.93 6.69327C127.288 6.74836 127.536 6.77591 127.647 6.77591L127.647 8.62141L127.398 8.62141C127.398 8.62141 127.095 8.51123 126.819 8.42859C126.544 8.34596 126.24 8.31841 125.909 8.31841C125.11 8.31841 124.476 8.51123 124.034 8.89685C123.593 9.28248 123.318 9.83337 123.235 10.522C123.566 10.3292 123.897 10.1639 124.255 10.0537C124.613 9.94355 125 9.88846 125.413 9.88846C125.772 9.88846 126.103 9.91601 126.433 10.0262C126.737 10.1088 127.04 10.2465 127.316 10.4394C127.674 10.6873 127.95 11.0178 128.143 11.431C128.364 11.8441 128.446 12.3675 128.446 12.9735L128.501 12.9735ZM125.579 14.3783L125.882 13.8825C125.965 13.6896 125.992 13.4142 125.992 13.0837C125.992 12.7807 125.937 12.5328 125.854 12.3399L125.496 11.8717L124.972 11.6238L124.338 11.5687L123.759 11.6238L123.207 11.7891L123.207 12.3675C123.207 12.8908 123.235 13.304 123.345 13.6346C123.455 13.9651 123.593 14.213 123.759 14.4058L124.172 14.6813L124.696 14.7639L125.165 14.6813L125.606 14.4058L125.579 14.3783Z" fill="white"/>
</svg>
