<?xml version="1.0" encoding="utf-8"?>
<!-- Generator: Adobe Illustrator 26.0.1, SVG Export Plug-In . SVG Version: 6.00 Build 0)  -->
<svg version="1.0" xmlns="http://www.w3.org/2000/svg" xmlns:xlink="http://www.w3.org/1999/xlink" x="0px" y="0px"
	 viewBox="0 0 306.38 443.23" enable-background="new 0 0 306.38 443.23" xml:space="preserve">
<g id="Bg">
</g>
<g id="Object">
	<g>
		<defs>
			<path id="SVGID_1_" d="M228.87,61.21c0-0.02-0.01-0.05-0.01-0.07c-0.13-0.88-0.26-1.76-0.41-2.63c-0.01-0.08-0.03-0.16-0.04-0.24
				c-0.14-0.85-0.29-1.69-0.45-2.52c-0.01-0.06-0.02-0.12-0.03-0.18c-0.17-0.87-0.35-1.73-0.53-2.58c-0.02-0.09-0.04-0.19-0.06-0.28
				c-0.38-1.71-0.8-3.4-1.26-5.04c-0.02-0.08-0.05-0.17-0.07-0.25c-0.47-1.66-0.99-3.28-1.55-4.86c-0.02-0.06-0.04-0.11-0.06-0.17
				c-0.58-1.62-1.21-3.2-1.9-4.73c0,0,0-0.01-0.01-0.01c-0.34-0.77-0.7-1.52-1.08-2.27c-0.01-0.02-0.02-0.04-0.03-0.06
				c-0.74-1.48-1.54-2.91-2.4-4.29c-0.01-0.02-0.03-0.04-0.04-0.06c-0.86-1.38-1.79-2.71-2.78-3.98c0-0.01-0.01-0.01-0.01-0.02
				c-4.03-5.16-9.11-9.36-15.51-12.34c-5.97-3.19-16.61-5.35-26.66-5.14c-1.11,0.03-2.21,0.08-3.29,0.15
				c-18,0.79-29.97,7.21-37.86,17.33c0,0.01-0.01,0.02-0.02,0.02c-0.99,1.27-1.91,2.6-2.78,3.98c-0.01,0.02-0.03,0.04-0.04,0.06
				c-0.86,1.38-1.66,2.81-2.41,4.3c-0.01,0.02-0.01,0.03-0.02,0.04c-1.12,2.24-2.11,4.58-2.99,7.03c-0.01,0.04-0.03,0.08-0.04,0.13
				c-0.57,1.59-1.09,3.23-1.56,4.9c-0.02,0.07-0.04,0.14-0.06,0.21c-0.47,1.66-0.89,3.36-1.28,5.09c-0.02,0.08-0.03,0.15-0.05,0.23
				c-0.19,0.87-0.37,1.74-0.54,2.62c-0.01,0.04-0.02,0.08-0.02,0.12c-0.11,0.59-0.22,1.18-0.32,1.77
				C39.21,78.67-20.94,152.72-20.94,240.83c0,37.09,10.67,71.68,29.09,100.9c-0.14,5.82,1.53,10.3,5.03,13.35
				c2.24,1.96,4.73,3.32,7.41,4.11c20.06,25.03,46.33,44.86,76.48,57.15c22.05,8.98,46.16,13.95,71.44,13.95
				c29.85,0,58.07-6.91,83.19-19.2c62.92-30.81,106.26-95.46,106.26-170.24C357.95,157.31,303.9,86.42,228.87,61.21z"/>
		</defs>
		<clipPath id="SVGID_00000150089422344928783560000015275124770617645479_">
			<use xlink:href="#SVGID_1_"  overflow="visible"/>
		</clipPath>
		<g clip-path="url(#SVGID_00000150089422344928783560000015275124770617645479_)">
			<g>
				<g>
					<path fill="#D9BA84" d="M244.57,225.43c-1.04-23.7-30.12-33.68-70.08-33.68c-39.97,0-69.05,9.98-70.09,33.68l-5.76,156.25
						c-0.51,33.63,37.67,38.66,75.86,38.66c38.18,0,76.37-5.03,75.86-38.66L244.57,225.43z"/>
				</g>
				<g>
					<path fill="#A2AEAA" d="M240.76,731.27c-4.69,0-8.49-3.81-8.49-8.51V385.85c0-4.69,3.8-8.5,8.49-8.5c4.69,0,8.49,3.81,8.49,8.5
						v336.91C249.26,727.46,245.46,731.27,240.76,731.27L240.76,731.27z"/>
				</g>
				<g>
					<path fill="#A2AEAA" d="M108.61,731.27c-4.66,0-8.44-3.81-8.44-8.51V385.85c0-4.69,3.78-8.5,8.44-8.5
						c4.66,0,8.44,3.81,8.44,8.5v336.91C117.05,727.46,113.27,731.27,108.61,731.27L108.61,731.27z"/>
				</g>
				<g>
					<g>
						<path fill="#D9BA84" d="M120.3,101.73c0,0-14.91-0.85-14.91-14.91c0-14.06,14.91-14.91,14.91-14.91V101.73z"/>
						<path fill="#D9BA84" d="M228.66,101.73c0,0,14.92-0.85,14.92-14.91c0-14.06-14.92-14.91-14.92-14.91V101.73z"/>
					</g>
				</g>
				<path fill="#D9BA84" d="M230.72,91.93c0,43.61-7.87,73.85-56.24,73.85c-48.37,0-56.24-30.24-56.24-73.85
					c0-43.61,7.44-82.37,56.24-82.37S230.72,48.32,230.72,91.93z"/>
				<g>
					<g>
						<path fill="#2D2928" d="M160.65,90.72c0,2.07-1.68,3.75-3.75,3.75c-2.07,0-3.75-1.68-3.75-3.75c0-2.07,1.68-3.75,3.75-3.75
							C158.98,86.98,160.65,88.65,160.65,90.72z"/>
						<path fill="#2D2928" d="M196.5,90.72c0,2.07-1.67,3.75-3.75,3.75c-2.07,0-3.75-1.68-3.75-3.75c0-2.07,1.68-3.75,3.75-3.75
							C194.82,86.98,196.5,88.65,196.5,90.72z"/>
					</g>
					<g>
						<path fill="#2D2928" d="M174.28,132.9c-13.17,0-21.07-6.95-21.4-7.25c-0.52-0.47-0.57-1.28-0.1-1.8
							c0.47-0.53,1.28-0.57,1.8-0.1c0.07,0.06,7.54,6.59,19.69,6.59c12.03,0,17.58-6.4,17.64-6.47c0.45-0.53,1.25-0.61,1.8-0.16
							c0.54,0.46,0.61,1.26,0.16,1.8C193.63,125.82,187.57,132.9,174.28,132.9L174.28,132.9z"/>
					</g>
				</g>
				<path fill="#59482F" d="M200.74,14.69c-5.95-3.22-16.66-5.41-26.77-5.19c-10.79,0.23-20.19,2.78-25.74,5.19
					c-25.42,11.92-29.98,43.09-29.98,77.24c0,6.12,10.04-48.3,27.48-42.22c8.5,2.96,9.62,10.13,28.76,10.13
					c19.13,0,20.26-7.16,28.76-10.13c17.44-6.08,27.48,48.34,27.48,42.22C230.72,57.77,226.16,26.6,200.74,14.69z"/>
				<g>
					<g>
						<path fill="#727279" d="M153.85,109.79h-12.51c-6.4,0-12.63-5.12-13.87-11.4l-1.93-9.71c-0.61-3.1,0.05-6.03,1.88-8.25
							c1.83-2.22,4.57-3.45,7.73-3.45h26.07c3.17,0,5.87,1.22,7.62,3.43c1.75,2.21,2.33,5.13,1.59,8.21l-2.32,9.87
							C166.64,104.73,160.25,109.79,153.85,109.79z M135.14,78.54c-2.68,0-5.01,1.02-6.53,2.88c-1.53,1.86-2.08,4.33-1.56,6.96
							l1.92,9.71c1.11,5.59,6.65,10.15,12.36,10.15h12.51c5.72,0,11.44-4.53,12.75-10.09l2.32-9.87c0.62-2.61,0.15-5.06-1.3-6.89
							c-1.45-1.84-3.72-2.85-6.41-2.85H135.14z"/>
					</g>
					<g>
						<path fill="#727279" d="M180.86,98.5l-2.32-9.87c-0.73-3.08-0.16-6,1.59-8.21c1.75-2.21,4.46-3.43,7.62-3.43h26.07
							c3.16,0,5.91,1.23,7.73,3.45c1.83,2.22,2.49,5.15,1.88,8.25l-1.92,9.71c-1.25,6.28-7.47,11.4-13.88,11.4h-12.52
							C188.71,109.79,182.32,104.73,180.86,98.5z M187.75,78.54c-2.68,0-4.95,1.01-6.41,2.85c-1.45,1.84-1.92,4.28-1.3,6.89
							l2.32,9.87c1.31,5.56,7.02,10.09,12.74,10.09h12.52c5.7,0,11.25-4.55,12.35-10.15l1.92-9.71c0.53-2.63-0.03-5.1-1.55-6.96
							c-1.52-1.86-3.85-2.88-6.53-2.88H187.75z"/>
					</g>
					<path fill="#222221" d="M169.44,79.94c-1.91-2.4-4.83-3.73-8.23-3.73h-26.07c-6.56,0-12.82,0.5-12.92,1.29
						c-0.13,1.04-0.36,5.84,0.13,6.33c0.32,0.32,2.24,4.1,2.42,5l1.04,5.25c0.15,0.74,0.79,1.25,1.52,1.25c0.1,0,0.2-0.01,0.3-0.03
						c0.84-0.17,1.39-0.98,1.22-1.82c0,0-0.78-3.94-1.04-5.25c-0.48-2.4,0.02-4.65,1.39-6.32c1.38-1.67,3.48-2.6,5.93-2.6h26.07
						c2.44,0,4.51,0.91,5.8,2.56c1.3,1.65,1.71,3.86,1.15,6.23l-1.18,5.04c-0.2,0.84,0.32,1.67,1.15,1.86
						c0.83,0.21,1.67-0.32,1.86-1.15l1.19-5.05C171.97,85.5,171.35,82.35,169.44,79.94z"/>
					<path fill="#222221" d="M179.52,79.94c1.9-2.4,4.82-3.73,8.23-3.73h26.07c6.56,0,12.82,0.5,12.92,1.29
						c0.13,1.04,0.36,5.84-0.13,6.33c-0.32,0.32-2.25,4.1-2.43,5l-1.04,5.25c-0.15,0.74-0.79,1.25-1.52,1.25
						c-0.1,0-0.21-0.01-0.31-0.03c-0.84-0.17-1.38-0.98-1.22-1.82c0,0,0.78-3.94,1.04-5.25c0.48-2.4-0.02-4.65-1.39-6.32
						c-1.38-1.67-3.48-2.6-5.93-2.6h-26.07c-2.44,0-4.49,0.91-5.8,2.56c-1.3,1.65-1.71,3.86-1.15,6.23l1.19,5.04
						c0.19,0.84-0.32,1.67-1.15,1.86c-0.83,0.21-1.67-0.32-1.86-1.15l-1.19-5.05C177,85.5,177.62,82.35,179.52,79.94z"/>
					<g>
						<path fill="#222221" d="M179.17,85.55c-0.2,0-0.4-0.06-0.58-0.18l0,0c0,0-1.07-0.59-3.97-0.59c-3.03,0-4.34,0.65-4.36,0.66
							c-0.66,0.34-1.4-0.11-1.66-0.99c-0.26-0.89,0.05-1.89,0.71-2.25c0.17-0.09,1.75-0.9,5.31-0.9c3.54,0,4.89,0.8,5.13,0.96
							c0.63,0.44,0.89,1.48,0.57,2.34C180.09,85.2,179.64,85.55,179.17,85.55z"/>
					</g>
				</g>
				<path fill="#99C0A1" d="M244.57,225.43c-0.69-15.97-14.14-25.7-35.06-30.36c-8.15,6.91-60.63,6.79-68.77-0.29
					c-21.65,4.54-35.63,14.35-36.34,30.64l-5.76,156.25c-0.51,33.63,37.67,38.66,75.86,38.66c38.18,0,76.37-5.03,75.86-38.66
					L244.57,225.43z"/>
				<path fill="#E5E8E7" d="M244.57,225.43c-0.85-19.52-20.76-29.73-50.09-32.73c-1.95,3.88-2.48,11.97-6.44,26.78
					c-5.43,20.3-12.97,62.5-13.45,65.21c-0.48-2.72-8.02-44.91-13.46-65.21c-3.97-14.84-4.49-22.92-6.44-26.79
					c-29.44,2.97-49.43,13.17-50.29,32.74l-5.76,156.25c-0.51,33.63,37.67,38.66,75.86,38.66c38.18,0,76.37-5.03,75.86-38.66
					L244.57,225.43z"/>
				<path fill="#E5E8E7" d="M253.56,498.47c0.22-63.15-9.03-273.05-9.03-273.05c-0.85-19.52-20.76-29.73-50.1-32.73
					c-1.95,3.88-2.47,11.97-6.43,26.78c-5.43,20.3-12.97,62.5-13.45,65.21c-0.49-2.72-8.04-44.91-13.46-65.21
					c-3.97-14.84-4.49-22.92-6.44-26.79c-29.44,2.97-49.44,13.17-50.29,32.74c0,0-9.22,209.97-8.96,273.05
					c0,0,31.77,9.12,81.45,9.12C226.51,507.59,253.56,498.47,253.56,498.47z"/>
				<g>
					<path fill="#CFD4D2" d="M174.46,284.84c0,0,7.87-45.44,13.48-66.92c6.49-24.85,3.74-31.22,13.17-30.44
						c11.95,0.99,16.35,5.59,16.35,5.59l-7.95,29.6l-14.27-0.02l7.41,14.83C202.65,237.47,188.09,273.17,174.46,284.84z"/>
					<path fill="#CFD4D2" d="M174.51,284.84c0,0-7.87-45.44-13.49-66.92c-6.48-24.85-3.74-31.22-13.17-30.44
						c-11.96,0.99-16.35,5.59-16.35,5.59l7.95,29.6l14.27-0.02l-7.42,14.83C146.31,237.47,160.88,273.17,174.51,284.84z"/>
				</g>
				<g>
					<rect x="117.98" y="257.11" fill="#CFD4D2" width="30.98" height="4.25"/>
					<rect x="200" y="257.11" fill="#CFD4D2" width="30.99" height="4.25"/>
				</g>
				<g>
					<path fill="#CFD4D2" d="M177.82,296.91c0,1.85-1.5,3.34-3.34,3.34c-1.85,0-3.34-1.5-3.34-3.34c0-1.85,1.5-3.34,3.34-3.34
						C176.32,293.56,177.82,295.06,177.82,296.91z"/>
					<path fill="#CFD4D2" d="M177.82,324.25c0,1.85-1.5,3.35-3.34,3.35c-1.85,0-3.34-1.5-3.34-3.35c0-1.84,1.5-3.34,3.34-3.34
						C176.32,320.91,177.82,322.41,177.82,324.25z"/>
					<path fill="#CFD4D2" d="M177.82,351.59c0,1.85-1.5,3.34-3.34,3.34c-1.85,0-3.34-1.5-3.34-3.34c0-1.85,1.5-3.34,3.34-3.34
						C176.32,348.25,177.82,349.75,177.82,351.59z"/>
					<path fill="#CFD4D2" d="M177.82,378.94c0,1.85-1.5,3.34-3.34,3.34c-1.85,0-3.34-1.5-3.34-3.34c0-1.84,1.5-3.34,3.34-3.34
						C176.32,375.59,177.82,377.09,177.82,378.94z"/>
					<path fill="#CFD4D2" d="M177.82,406.28c0,1.85-1.5,3.34-3.34,3.34c-1.85,0-3.34-1.5-3.34-3.34c0-1.85,1.5-3.34,3.34-3.34
						C176.32,402.94,177.82,404.43,177.82,406.28z"/>
					<path fill="#CFD4D2" d="M177.82,433.62c0,1.85-1.5,3.34-3.34,3.34c-1.85,0-3.34-1.49-3.34-3.34c0-1.85,1.5-3.35,3.34-3.35
						C176.32,430.28,177.82,431.78,177.82,433.62z"/>
				</g>
				<path fill="#CFD4D2" d="M250.53,376.34c-0.02-0.6-0.05-1.21-0.07-1.81H218v32.35c0,0,0.91,15.49,22.33,15.49
					c4.88,0,8.68-0.82,11.66-2.06c-0.02-0.43-0.03-0.87-0.04-1.31c-2.21,0.39-4.68,0.63-7.53,0.63c-22.75,0-23.72-14.02-23.72-14.02
					v-29.28H250.53z"/>
				<path fill="#CFD4D2" d="M104.55,419.64c-2.87,0-5.35-0.24-7.56-0.64c-0.01,0.44-0.02,0.87-0.04,1.3
					c2.98,1.25,6.79,2.07,11.68,2.07c21.42,0,22.33-15.49,22.33-15.49v-32.35H98.46c-0.03,0.6-0.04,1.21-0.07,1.81h29.87v29.28
					C128.26,405.62,127.3,419.64,104.55,419.64z"/>
				<g>
					<path fill="#D9BA84" d="M174.48,199.18c-4.71,0-8.52-3.31-8.52-7.4v-27.12c0-4.08,3.81-7.4,8.52-7.4c4.7,0,8.52,3.31,8.52,7.4
						v27.12C183,195.87,179.18,199.18,174.48,199.18L174.48,199.18z"/>
				</g>
				<g>
					<g>
						<path fill="#FFFFFF" d="M203.74,291.53v8.18c0,1.07,0.88,1.96,1.96,1.96h19.57c1.08,0,1.96-0.88,1.96-1.96v-8.18H203.74z"/>
						<path fill="#218A55" d="M225.34,264.15h-19.57c-1.08,0-1.96,0.88-1.96,1.96v25.43h23.49V266.1
							C227.3,265.03,226.42,264.15,225.34,264.15z M218.38,266.99h-5.64c-0.3,0-0.55-0.39-0.55-0.87c0-0.48,0.25-0.86,0.55-0.86
							h5.64c0.3,0,0.55,0.39,0.55,0.86C218.93,266.6,218.68,266.99,218.38,266.99z"/>
						<rect x="209.76" y="273.2" fill="#FFFFFF" width="11.78" height="15.9"/>
						<g>
							<defs>
								<rect id="SVGID_00000039837999819668776210000018307493168251460226_" x="209.76" y="273.2" width="11.78" height="15.9"/>
							</defs>
							<clipPath id="SVGID_00000100352616127792276730000013627149329361951158_">
								<use xlink:href="#SVGID_00000039837999819668776210000018307493168251460226_"  overflow="visible"/>
							</clipPath>
							<g clip-path="url(#SVGID_00000100352616127792276730000013627149329361951158_)">
								<g>
									<g>
										<path fill="#9A9A9A" d="M208.22,307.92c-0.26,0-0.5-0.18-0.57-0.46c-0.03-0.13-0.71-3.29-0.25-9.98
											c0.48-6.9,3.75-9.04,3.88-9.13c0.1-0.06,0.2-0.09,0.31-0.09h8.02c0.1,0,0.21,0.03,0.3,0.08c0.15,0.08,3.48,2.16,3.95,9.07
											c0.46,6.68-0.1,9.83-0.13,9.96c-0.06,0.32-0.36,0.53-0.68,0.47c-0.32-0.06-0.53-0.37-0.47-0.69l0,0
											c0.01-0.03,0.56-3.16,0.12-9.66c-0.39-5.58-2.71-7.65-3.27-8.07h-7.64c-0.55,0.45-2.84,2.62-3.23,8.13
											c-0.44,6.49,0.22,9.61,0.23,9.64c0.07,0.32-0.13,0.63-0.44,0.7C208.3,307.91,208.26,307.92,208.22,307.92L208.22,307.92z"
											/>
									</g>
								</g>
								<g>
									<path fill="#9A9A9A" d="M220.46,289.45c-0.08-1.63-2.07-2.31-4.82-2.31c-2.75,0-4.74,0.68-4.82,2.31l-0.4,10.74
										c-0.03,2.31,2.59,2.65,5.21,2.65c2.63,0,5.25-0.34,5.22-2.65L220.46,289.45z"/>
								</g>
								<g>
									<path fill="#9A9A9A" d="M220.2,324.22c-0.32,0-0.59-0.26-0.59-0.59v-23.16c0-0.32,0.26-0.59,0.59-0.59
										c0.32,0,0.58,0.27,0.58,0.59v23.16C220.78,323.96,220.52,324.22,220.2,324.22L220.2,324.22z"/>
								</g>
								<g>
									<path fill="#9A9A9A" d="M211.11,324.22c-0.32,0-0.58-0.26-0.58-0.59v-23.16c0-0.32,0.26-0.59,0.58-0.59
										c0.32,0,0.58,0.27,0.58,0.59v23.16C211.69,323.96,211.43,324.22,211.11,324.22L211.11,324.22z"/>
								</g>
								<polygon fill="#9A9A9A" points="220.77,323.36 219.61,323.36 219.61,324.68 222.77,324.68 								"/>
								<polygon fill="#9A9A9A" points="210.54,323.36 211.69,323.36 211.69,324.68 208.54,324.68 								"/>
								<g>
									<path fill="#9A9A9A" d="M215.64,287.74c-0.32,0-0.58-0.24-0.58-0.54v-1.98c0-0.29,0.26-0.54,0.58-0.54
										c0.32,0,0.59,0.24,0.59,0.54v1.98C216.23,287.49,215.96,287.74,215.64,287.74L215.64,287.74z"/>
								</g>
								<g>
									<g>
										<path fill="#9A9A9A" d="M211.91,280.95c0,0-1.02-0.06-1.02-1.03s1.02-1.02,1.02-1.02V280.95z"/>
										<path fill="#9A9A9A" d="M219.37,280.95c0,0,1.03-0.06,1.03-1.03s-1.03-1.02-1.03-1.02V280.95z"/>
									</g>
								</g>
								<path fill="#9A9A9A" d="M219.51,280.28c0,3-0.54,5.08-3.87,5.08c-3.33,0-3.87-2.08-3.87-5.08c0-3,0.51-5.66,3.87-5.66
									C219,274.62,219.51,277.28,219.51,280.28z"/>
								<g>
									<g>
										<path fill="#9A9A9A" d="M214.69,280.19c0,0.15-0.12,0.26-0.26,0.26c-0.14,0-0.26-0.11-0.26-0.26
											c0-0.14,0.12-0.26,0.26-0.26C214.58,279.93,214.69,280.05,214.69,280.19z"/>
										<path fill="#9A9A9A" d="M217.16,280.19c0,0.15-0.11,0.26-0.26,0.26c-0.14,0-0.26-0.11-0.26-0.26
											c0-0.14,0.12-0.26,0.26-0.26C217.04,279.93,217.16,280.05,217.16,280.19z"/>
									</g>
									<g>
										<path fill="#9A9A9A" d="M215.63,283.1c-0.9,0-1.45-0.48-1.47-0.5c-0.04-0.03-0.04-0.08-0.01-0.12
											c0.03-0.04,0.09-0.05,0.13-0.01c0,0.01,0.51,0.45,1.35,0.45c0.83,0,1.21-0.44,1.21-0.44c0.04-0.04,0.09-0.05,0.13-0.02
											c0.03,0.03,0.04,0.09,0,0.13C216.96,282.6,216.54,283.1,215.63,283.1L215.63,283.1z"/>
									</g>
								</g>
								<path fill="#9A9A9A" d="M217.44,274.97c-0.4-0.23-1.14-0.37-1.84-0.36c-0.74,0.02-1.38,0.19-1.77,0.36
									c-1.75,0.82-2.06,2.96-2.06,5.31c0,0.42,0.7-3.32,1.89-2.9c0.58,0.21,0.66,0.82,1.97,0.82c1.32,0,1.39-0.62,1.98-0.82
									c1.2-0.41,1.89,3.33,1.89,2.9C219.51,277.93,219.2,275.79,217.44,274.97z"/>
								<g>
									<g>
										<path fill="#9A9A9A" d="M214.23,281.5h-0.86c-0.44,0-0.87-0.35-0.95-0.78l-0.14-0.67c-0.04-0.21,0.01-0.42,0.13-0.57
											c0.12-0.16,0.31-0.24,0.53-0.24h1.79c0.22,0,0.41,0.08,0.52,0.24c0.12,0.15,0.16,0.35,0.11,0.56l-0.16,0.68
											C215.1,281.16,214.66,281.5,214.23,281.5z M212.94,279.36c-0.18,0-0.34,0.07-0.45,0.2c-0.11,0.12-0.14,0.29-0.11,0.48
											l0.13,0.67c0.07,0.38,0.46,0.7,0.85,0.7h0.86c0.39,0,0.79-0.31,0.87-0.69l0.16-0.68c0.04-0.18,0.01-0.35-0.09-0.47
											c-0.1-0.13-0.25-0.2-0.44-0.2H212.94z"/>
									</g>
									<g>
										<path fill="#9A9A9A" d="M216.08,280.73l-0.16-0.68c-0.05-0.21-0.01-0.42,0.11-0.56c0.12-0.16,0.31-0.24,0.53-0.24h1.79
											c0.22,0,0.41,0.08,0.53,0.24c0.13,0.15,0.17,0.35,0.13,0.57l-0.14,0.67c-0.08,0.43-0.51,0.78-0.95,0.78h-0.86
											C216.62,281.5,216.18,281.16,216.08,280.73z M216.56,279.36c-0.18,0-0.34,0.07-0.45,0.2c-0.1,0.12-0.13,0.29-0.09,0.47
											l0.16,0.68c0.09,0.38,0.49,0.69,0.88,0.69h0.86c0.39,0,0.77-0.32,0.85-0.7l0.13-0.67c0.04-0.18,0-0.35-0.1-0.48
											c-0.11-0.13-0.27-0.2-0.45-0.2H216.56z"/>
									</g>
									<path fill="#9A9A9A" d="M215.3,279.45c-0.13-0.16-0.33-0.25-0.57-0.25h-1.79c-0.45,0-0.88,0.04-0.89,0.08
										c-0.01,0.08-0.02,0.41,0.01,0.44c0.02,0.02,0.15,0.28,0.17,0.34l0.07,0.36c0.01,0.05,0.06,0.08,0.1,0.08
										c0.01,0,0.02,0,0.02,0c0.06-0.01,0.09-0.07,0.08-0.12c0,0-0.05-0.27-0.07-0.36c-0.04-0.16,0-0.32,0.09-0.43
										c0.1-0.12,0.24-0.18,0.41-0.18h1.79c0.17,0,0.31,0.06,0.4,0.17c0.09,0.12,0.12,0.27,0.08,0.43l-0.08,0.35
										c-0.01,0.06,0.02,0.12,0.08,0.13c0.05,0.02,0.11-0.02,0.13-0.08l0.08-0.35C215.47,279.83,215.43,279.62,215.3,279.45z"/>
									<path fill="#9A9A9A" d="M215.99,279.45c0.13-0.16,0.33-0.25,0.57-0.25h1.79c0.45,0,0.88,0.04,0.89,0.08
										c0.01,0.08,0.02,0.41-0.01,0.44c-0.02,0.02-0.16,0.28-0.16,0.34l-0.08,0.36c0,0.05-0.05,0.08-0.1,0.08
										c-0.01,0-0.01,0-0.02,0c-0.05-0.01-0.1-0.07-0.08-0.12c0,0,0.05-0.27,0.07-0.36c0.03-0.16,0-0.32-0.1-0.43
										c-0.1-0.12-0.24-0.18-0.41-0.18h-1.79c-0.17,0-0.31,0.06-0.4,0.17c-0.09,0.12-0.12,0.27-0.08,0.43l0.09,0.35
										c0.01,0.06-0.02,0.12-0.08,0.13c-0.06,0.02-0.12-0.02-0.13-0.08l-0.08-0.35C215.81,279.83,215.86,279.62,215.99,279.45z"/>
									<g>
										<path fill="#9A9A9A" d="M215.96,279.84c-0.01,0-0.02-0.01-0.03-0.01l0,0c0,0-0.08-0.04-0.28-0.04
											c-0.21,0-0.3,0.04-0.3,0.04c-0.04,0.02-0.1,0-0.11-0.07c-0.02-0.06,0-0.13,0.05-0.15c0.01-0.01,0.12-0.06,0.36-0.06
											c0.24,0,0.34,0.05,0.35,0.07c0.04,0.03,0.06,0.1,0.04,0.16C216.02,279.82,215.99,279.84,215.96,279.84z"/>
									</g>
								</g>
								<path fill="#9A9A9A" d="M219.91,288.34c-0.09-0.06-0.19-0.08-0.3-0.08h-8.02c-0.11,0-0.21,0.03-0.31,0.09
									c-0.13,0.09-3.41,2.23-3.88,9.13c-0.27,3.93-0.15,6.63,0.01,8.23l1.17-0.08c-0.15-1.54-0.28-4.2-0.02-8.07
									c0.38-5.52,2.67-7.68,3.23-8.13h7.64c0.55,0.42,2.88,2.49,3.27,8.07c0.26,3.87,0.17,6.54,0.06,8.08l1.17,0.08
									c0.12-1.59,0.21-4.3-0.07-8.24C223.39,290.51,220.06,288.43,219.91,288.34z"/>
								<path fill="#9A9A9A" d="M220.46,289.45c-0.05-1.1-0.97-1.77-2.42-2.09c-0.55,0.47-4.16,0.46-4.72-0.02
									c-1.49,0.31-2.45,0.98-2.5,2.11l-0.4,10.74c-0.03,2.31,2.59,2.65,5.21,2.65c2.63,0,5.25-0.34,5.22-2.65L220.46,289.45z"/>
								<path fill="#9A9A9A" d="M220.46,289.45c-0.06-1.34-1.43-2.04-3.45-2.25c-0.13,0.26-0.17,0.82-0.44,1.84
									c-0.37,1.4-0.89,4.3-0.92,4.48c-0.03-0.18-0.55-3.09-0.93-4.48c-0.27-1.02-0.31-1.58-0.44-1.84c-2.03,0.2-3.4,0.9-3.46,2.25
									l-0.4,10.74c-0.03,2.31,2.59,2.65,5.21,2.65c2.63,0,5.25-0.34,5.22-2.65L220.46,289.45z"/>
								<path fill="#9A9A9A" d="M221.08,308.22c0.02-4.34-0.62-18.76-0.62-18.76c-0.06-1.34-1.43-2.04-3.45-2.25
									c-0.13,0.26-0.17,0.82-0.44,1.84c-0.37,1.4-0.89,4.3-0.93,4.48c-0.03-0.18-0.55-3.09-0.92-4.48
									c-0.28-1.02-0.31-1.58-0.44-1.84c-2.03,0.2-3.4,0.9-3.46,2.25c0,0-0.63,14.43-0.61,18.76c0,0,2.18,0.63,5.59,0.63
									C219.22,308.85,221.08,308.22,221.08,308.22z"/>
								<g>
									<path fill="#9A9A9A" d="M215.64,293.53c0,0,0.54-3.12,0.93-4.6c0.45-1.71,0.26-2.15,0.9-2.1c0.82,0.07,1.12,0.39,1.12,0.39
										l-0.55,2.04l-0.98,0l0.51,1.02C217.58,290.28,216.58,292.74,215.64,293.53z"/>
									<path fill="#9A9A9A" d="M215.64,293.53c0,0-0.54-3.12-0.93-4.6c-0.45-1.71-0.26-2.15-0.91-2.1
										c-0.82,0.07-1.12,0.39-1.12,0.39l0.55,2.04l0.98,0l-0.51,1.02C213.71,290.28,214.71,292.74,215.64,293.53z"/>
								</g>
								<g>
									<rect x="211.76" y="291.63" fill="#9A9A9A" width="2.13" height="0.29"/>
									<rect x="217.4" y="291.63" fill="#9A9A9A" width="2.13" height="0.29"/>
								</g>
								<g>
									<path fill="#9A9A9A" d="M215.87,294.36c0,0.13-0.1,0.23-0.23,0.23c-0.12,0-0.22-0.1-0.22-0.23c0-0.12,0.1-0.23,0.22-0.23
										C215.77,294.13,215.87,294.24,215.87,294.36z"/>
									<path fill="#9A9A9A" d="M215.87,296.25c0,0.12-0.1,0.23-0.23,0.23c-0.12,0-0.22-0.1-0.22-0.23c0-0.13,0.1-0.23,0.22-0.23
										C215.77,296.01,215.87,296.12,215.87,296.25z"/>
									<path fill="#9A9A9A" d="M215.87,298.12c0,0.13-0.1,0.23-0.23,0.23c-0.12,0-0.22-0.1-0.22-0.23c0-0.13,0.1-0.23,0.22-0.23
										C215.77,297.89,215.87,298,215.87,298.12z"/>
									<path fill="#9A9A9A" d="M215.87,300c0,0.13-0.1,0.23-0.23,0.23c-0.12,0-0.22-0.1-0.22-0.23c0-0.12,0.1-0.23,0.22-0.23
										C215.77,299.77,215.87,299.87,215.87,300z"/>
									<path fill="#9A9A9A" d="M215.87,301.88c0,0.13-0.1,0.23-0.23,0.23c-0.12,0-0.22-0.1-0.22-0.23c0-0.13,0.1-0.22,0.22-0.22
										C215.77,301.66,215.87,301.75,215.87,301.88z"/>
									<path fill="#9A9A9A" d="M215.87,303.76c0,0.12-0.1,0.23-0.23,0.23c-0.12,0-0.22-0.1-0.22-0.23c0-0.13,0.1-0.23,0.22-0.23
										C215.77,303.53,215.87,303.64,215.87,303.76z"/>
									<path fill="#9A9A9A" d="M215.87,305.64c0,0.13-0.1,0.23-0.23,0.23c-0.12,0-0.22-0.1-0.22-0.23c0-0.12,0.1-0.23,0.22-0.23
										C215.77,305.41,215.87,305.52,215.87,305.64z"/>
									<path fill="#9A9A9A" d="M215.87,307.52c0,0.13-0.1,0.23-0.23,0.23c-0.12,0-0.22-0.1-0.22-0.23c0-0.13,0.1-0.23,0.22-0.23
										C215.77,307.29,215.87,307.39,215.87,307.52z"/>
								</g>
								<path fill="#9A9A9A" d="M220.87,299.82c-0.01-0.04-0.01-0.08-0.01-0.12h-2.23v2.22c0,0,0.06,1.07,1.54,1.07
									c0.33,0,0.6-0.06,0.8-0.14c0-0.03,0-0.06-0.01-0.09c-0.15,0.03-0.32,0.04-0.51,0.04c-1.57,0-1.63-0.96-1.63-0.96v-2.01
									H220.87z"/>
								<path fill="#9A9A9A" d="M210.84,302.8c-0.2,0-0.37-0.01-0.52-0.04c0,0.03,0,0.06,0,0.09c0.21,0.08,0.47,0.14,0.81,0.14
									c1.47,0,1.54-1.07,1.54-1.07v-2.22h-2.24c0,0.04,0,0.08,0,0.12h2.05v2.01C212.47,301.83,212.4,302.8,210.84,302.8z"/>
							</g>
						</g>
						<rect x="205.75" y="294.64" fill-rule="evenodd" clip-rule="evenodd" fill="#218A55" width="19.46" height="0.76"/>
						<rect x="205.75" y="297.51" fill-rule="evenodd" clip-rule="evenodd" fill="#218A55" width="19.46" height="0.76"/>
					</g>
					<rect x="213.05" y="260.06" fill="#BBBABF" width="5.19" height="6.52"/>
				</g>
			</g>
			<g>
				<path fill="#E5E8E7" d="M134.44,205.29c-1.65-4.73-6.82-7.23-11.55-5.59c-29.86,10.4-58.7,43.34-73.22,62.05
					c-21.11,27.19-37.53,56.98-40.86,74.14c-1.69,8.73-0.23,15.19,4.36,19.19c3.69,3.22,8.06,4.88,12.82,4.88
					c1.19,0,2.39-0.1,3.62-0.31c9.86-1.67,20.47-9.91,33.39-25.95c4.9-6.08,10.07-13.24,15.47-21.41l-14.93-10.28
					c-23.47,35.56-34.62,39.36-36.95,39.76c-0.14,0.02-0.26,0.04-0.37,0.05c0.3-7.08,9.27-30.16,32.07-61.36
					c23.96-32.79,50.34-56.57,70.56-63.61C133.59,215.19,136.09,210.02,134.44,205.29z M26.32,343.16L26.32,343.16L26.32,343.16z"/>
			</g>
			<g>
				<path fill="#222221" d="M143.17,294.25H77.34c-3.2,0-5.79-2.59-5.79-5.79V193.2c0-3.2,2.59-5.79,5.79-5.79h65.83
					c3.2,0,5.79,2.59,5.79,5.79v95.26C148.96,291.66,146.37,294.25,143.17,294.25z"/>
				<path fill="#E5E8E7" d="M141.35,280.3h-62.2c-1.41,0-2.55-1.14-2.55-2.55v-83.6c0-1.41,1.14-2.55,2.55-2.55h62.2
					c1.41,0,2.55,1.14,2.55,2.55v83.6C143.9,279.16,142.76,280.3,141.35,280.3z"/>
				<path fill="#727279" d="M113.42,287.03c0,1.75-1.42,3.16-3.16,3.16c-1.75,0-3.16-1.42-3.16-3.16c0-1.75,1.42-3.16,3.16-3.16
					C112,283.86,113.42,285.28,113.42,287.03z"/>
			</g>
			<path fill="#CFD4D2" d="M250.72,370.57c-15.03,0.63-34.14-2.6-54.31-9.44c-17.99-6.1-35.19-14.44-50.07-24.12l-2.65,4.96
				l1.99-3.36c-9.93-6.46-18.83-13.51-26.23-20.89c-3.29-3.29-8.63-3.28-11.92,0.02c-3.29,3.3-3.28,8.63,0.02,11.92
				c8.67,8.64,18.96,16.66,30.19,23.83l0,0c33.83,21.61,76.21,35.54,108.65,35.56c1.47,0,2.91-0.04,4.33-0.09L250.72,370.57z"/>
			<g>
				<path fill="#D9BA84" d="M113.24,306.11c-3.41-3.4-8.93-3.38-12.33,0.03c-3.4,3.41-3.38,8.94,0.03,12.33
					c8.97,8.93,19.62,17.22,31.25,24.64l8.21-15.4C130.12,321.03,120.91,313.74,113.24,306.11z"/>
				<path fill="#E5E8E7" d="M277.13,256.92c-11.59-22.05-30.23-47.17-47.8-51.53c-4.68-1.16-9.4,1.69-10.56,6.37
					c-1.16,4.67,1.69,9.4,6.37,10.56c8.07,2,23.21,17.31,36.56,42.71c14.24,27.1,21.08,55.24,18.75,77.21
					c-1.17,11.05-9.06,15.09-14.9,17.16c-16.28,5.78-43.69,3.25-73.32-6.78c-18.62-6.29-36.42-14.92-51.83-24.92l-8.21,15.4
					c35.02,22.34,78.88,36.73,112.45,36.73c9.99,0,19.08-1.28,26.75-4c15.45-5.49,24.83-16.77,26.41-31.76
					C300.47,318.76,292.94,286.99,277.13,256.92z"/>
			</g>
			<g>
				<rect x="82.24" y="205.13" fill="#CFD4D2" width="56.03" height="65.97"/>
				<path fill="#218A55" d="M138.26,205.13H82.24v-6c0-1.13,0.92-2.05,2.05-2.05h51.92c1.13,0,2.05,0.92,2.05,2.05V205.13z"/>
				<rect x="85.59" y="199.9" fill="#FFFFFF" width="9.8" height="2.27"/>
				<g>
					<path fill="#FFFFFF" d="M125.62,201.1c0,0.87-0.7,1.57-1.57,1.57c-0.87,0-1.57-0.7-1.57-1.57c0-0.87,0.7-1.57,1.57-1.57
						C124.91,199.53,125.62,200.23,125.62,201.1z"/>
					<path fill="#FFFFFF" d="M130.59,201.1c0,0.87-0.7,1.57-1.57,1.57c-0.87,0-1.57-0.7-1.57-1.57c0-0.87,0.7-1.57,1.57-1.57
						C129.88,199.53,130.59,200.23,130.59,201.1z"/>
					<path fill="#FFFFFF" d="M135.56,201.1c0,0.87-0.7,1.57-1.57,1.57c-0.87,0-1.57-0.7-1.57-1.57c0-0.87,0.7-1.57,1.57-1.57
						C134.85,199.53,135.56,200.23,135.56,201.1z"/>
				</g>
				<rect x="84.89" y="209.06" fill="#E5E8E7" width="47.29" height="8.98"/>
				<rect x="84.89" y="218.04" fill="#E5E8E7" width="50.67" height="49.69"/>
				<rect x="87.77" y="211.5" fill="#898788" width="9.94" height="4.1"/>
				<rect x="101.11" y="211.5" fill="#898788" width="9.11" height="1.13"/>
				<rect x="101.11" y="213.55" fill="#898788" width="9.11" height="1.13"/>
				<rect x="88.19" y="221.97" fill="#898788" width="9.11" height="1.13"/>
				<rect x="88.19" y="224.42" fill="#FFFFFF" width="44" height="2.44"/>
				<rect x="88.19" y="228.94" fill="#898788" width="9.11" height="1.13"/>
				<rect x="88.19" y="231.4" fill="#FFFFFF" width="44" height="2.44"/>
				<rect x="88.19" y="235.92" fill="#898788" width="9.11" height="1.13"/>
				<rect x="88.19" y="238.38" fill="#FFFFFF" width="44" height="2.44"/>
				<rect x="88.19" y="242.89" fill="#898788" width="9.11" height="1.13"/>
				<rect x="88.19" y="245.35" fill="#FFFFFF" width="44" height="2.44"/>
				<rect x="88.19" y="249.87" fill="#898788" width="9.11" height="1.13"/>
				<rect x="88.19" y="252.33" fill="#FFFFFF" width="44" height="2.44"/>
				<rect x="88.19" y="256.85" fill="#898788" width="9.11" height="1.13"/>
				<rect x="88.19" y="259.31" fill="#FFFFFF" width="44" height="2.44"/>
			</g>
			<path fill="#D9BA84" d="M96.78,282.33c2.48-4.35,0.97-9.89-3.38-12.37c-4.35-2.48-9.89-0.97-12.37,3.38
				c-6.46,11.33-12.27,20.77-17.48,28.66l14.93,10.28C84.32,303.47,90.43,293.47,96.78,282.33z"/>
		</g>
	</g>
</g>
</svg>
