<?xml version="1.0" encoding="utf-8"?>
<!-- Generator: Adobe Illustrator 26.0.1, SVG Export Plug-In . SVG Version: 6.00 Build 0)  -->
<svg version="1.0" xmlns="http://www.w3.org/2000/svg" xmlns:xlink="http://www.w3.org/1999/xlink" x="0px" y="0px"
	 viewBox="0 0 186.89 200" enable-background="new 0 0 186.89 200" xml:space="preserve">
<g id="Bg">
</g>
<g id="Object">
	<g>
		<path fill="#EFF1F2" d="M154.51,134.76c-12.97-12.89-25.47-26.17-38-39.45c13.08-12.4,26.15-24.79,37.59-38.77
			c0.26-0.33,0.15-0.71-0.05-1.03c-4.57-7.38-10.99-13.06-16.91-19.32c-0.3-0.31-0.67-0.3-0.89-0.12c-0.08-0.02-0.16-0.01-0.22,0.06
			c-12.2,13.76-24.88,26.91-37.8,39.82C85.44,62.28,72.73,48.56,58.31,36.61c-0.32-0.27-0.71-0.15-1.03,0.05
			c-7.33,4.6-12.97,11.07-19.18,17.03c-0.31,0.29-0.3,0.67-0.12,0.89c-0.02,0.08-0.01,0.17,0.06,0.23
			c14.27,12.82,27.88,26.18,41.25,39.77C66,107.47,52.59,120.25,39.25,133.21c-0.19,0.19-0.24,0.42-0.23,0.65
			c-0.43,0.04-0.73,0.44-0.37,1.01c4.14,6.49,10.72,11.29,15.49,17.33c0.17,0.22,0.38,0.37,0.59,0.48c0.34,0.72,1.3,1.29,1.86,0.7
			c13.36-13.63,27.15-26.74,40.91-39.91c12.33,12.87,24.58,25.83,36.96,38.76c0.18,0.19,0.42,0.24,0.64,0.23
			c0.04,0.43,0.43,0.74,1,0.37c6.45-4.16,11.22-10.79,17.21-15.6c0.22-0.17,0.36-0.38,0.48-0.6
			C154.52,136.29,155.09,135.33,154.51,134.76z M136.49,150.53c-0.04-0.09-0.07-0.19-0.14-0.27c-11.14-12.46-22.6-24.88-34.32-37.08
			c-1.22-1.19-2.4-2.44-3.53-3.72c-0.21-0.23-0.42-0.46-0.63-0.69c0,0-0.01,0.01-0.01,0.01c-0.02-0.02-0.03-0.04-0.05-0.05
			c-0.25,0.28-0.53,0.56-0.8,0.84c-0.59,0.61-1.21,1.19-1.84,1.69c-13.7,12.62-27.34,25.45-39.43,39.35
			c-3.87-5.82-9.68-10.62-14.8-15.38c0.09-0.04,0.19-0.07,0.27-0.14c13.36-12.11,26.74-24.52,39.79-37.31
			c0.19-0.42,0.44-0.8,0.68-1.19c0.39-0.67,0.85-1.29,1.34-1.88c0.13-0.15,0.24-0.33,0.38-0.47c-0.02-0.02-0.03-0.03-0.04-0.04
			c0,0-0.01-0.01-0.01-0.01c0,0-0.01-0.01-0.01-0.01c-0.6-0.58-1.15-1.22-1.72-1.84c-0.03,0.03-0.06,0.06-0.09,0.1
			C67.81,79.09,53.65,66.28,38.83,54.55c3.89-2.85,7.26-6.1,10.75-9.43c2.05-1.95,6.14-8.01,9.61-5.14c2.3,1.91,4.45,4.04,6.62,6.11
			c9.67,9.21,18.63,19.12,27.74,28.89c0.91,0.97,1.81,1.96,2.71,2.94c-0.08,0.08-0.16,0.16-0.23,0.24c0.68,0.73,1.39,1.44,2.06,2.18
			c0.08-0.08,0.17-0.16,0.26-0.24c0.1-0.09,0.21-0.18,0.31-0.27c0.55-0.56,1.11-1.11,1.67-1.67c-0.01-0.01-0.01-0.01-0.02-0.02
			c12.65-13.26,24.82-26.92,35.99-41.21c2.83,3.91,6.06,7.3,9.37,10.82c1.94,2.06,7.96,6.18,5.1,9.67c-1.9,2.32-4.02,4.48-6.07,6.66
			c-9.15,9.73-18.99,18.76-28.7,27.92c-0.45,0.43-0.92,0.85-1.38,1.28c-0.08-0.08-0.16-0.17-0.24-0.25
			c-0.62,0.61-1.22,1.22-1.83,1.85c0.27,0.37,0.55,0.74,0.81,1.12c0.78,1.08,1.56,2.15,2.34,3.23c11.57,12.67,23.37,25.2,36.07,36.4
			C145.99,139.52,141.21,145.37,136.49,150.53z"/>
		<path fill="#EFF1F2" d="M42.44,130.13c-1.07,1.03-2.13,2.05-3.2,3.08c-0.19,0.19-0.24,0.42-0.23,0.65
			c-0.43,0.04-0.73,0.44-0.37,1.01c4.14,6.49,10.72,11.29,15.49,17.33c0.17,0.22,0.38,0.37,0.59,0.48c0.34,0.72,1.3,1.29,1.86,0.7
			c1.16-1.18,2.35-2.31,3.51-3.48C54,143.5,47.98,137.02,42.44,130.13z"/>
		<path fill="#EFF1F2" d="M47.23,125.51c-0.77,0.74-1.53,1.47-2.3,2.21c5.51,6.9,11.53,13.35,17.64,19.74
			c0.71-0.71,1.44-1.41,2.15-2.11C58.76,138.86,52.96,132.22,47.23,125.51z"/>
		<path fill="#EFF1F2" d="M51.6,121.3c-0.62,0.6-1.25,1.2-1.87,1.8c5.72,6.7,11.51,13.33,17.47,19.82c0.76-0.76,1.53-1.5,2.3-2.25
			C63.28,134.44,57.28,128,51.6,121.3z"/>
		<path fill="#EFF1F2" d="M58.91,114.24c-1.6,1.55-3.2,3.09-4.81,4.64c5.67,6.7,11.67,13.14,17.88,19.35
			c1.38-1.36,2.78-2.69,4.17-4.04C70.2,127.72,64.44,121.07,58.91,114.24z"/>
		<path fill="#EFF1F2" d="M66.85,106.58c-1.82,1.75-3.63,3.5-5.45,5.25c5.53,6.83,11.28,13.47,17.23,19.95
			c1.71-1.67,3.44-3.32,5.15-5C78.13,120.05,72.45,113.35,66.85,106.58z"/>
		<path fill="#EFF1F2" d="M40.17,51.64c-0.69,0.68-1.37,1.37-2.07,2.05c-0.31,0.29-0.3,0.67-0.12,0.89
			c-0.02,0.08-0.01,0.17,0.06,0.23c6.33,5.69,12.53,11.5,18.64,17.38C50.83,65.6,45.1,58.92,40.17,51.64z"/>
		<path fill="#EFF1F2" d="M77.37,96.43c-2.67,2.58-5.35,5.16-8.02,7.74c5.6,6.77,11.28,13.47,16.93,20.2
			c2.56-2.49,5.12-4.97,7.68-7.45C88.49,110.04,82.96,103.2,77.37,96.43z"/>
		<path fill="#EFF1F2" d="M83.73,92.58c-8.46-10.56-16.3-21.93-25.23-32.08c-4.16-4.73-9.08-9.26-12.46-14.66
			c-1.13,1.1-2.25,2.21-3.37,3.32c9.08,13.61,21.13,25.06,31.26,37.9c7.33,9.29,14.9,18.4,22.35,27.59c0.41-0.4,0.81-0.8,1.23-1.19
			c6.46,6.74,12.9,13.51,19.35,20.29C105.68,120.14,94.74,106.32,83.73,92.58z"/>
		<path fill="#EFF1F2" d="M154.64,135.79c0.16-0.35,0.16-0.74-0.13-1.03c-6.42-6.37-12.72-12.85-18.96-19.37
			C141.84,122.25,148.21,129.04,154.64,135.79z"/>
		<path fill="#EFF1F2" d="M104.21,86.38c-13.25-13.84-27.7-27.1-38.36-43.13c-2.48-2.24-4.95-4.5-7.54-6.64
			c-0.32-0.27-0.71-0.15-1.03,0.05c-0.39,0.24-0.72,0.53-1.1,0.78c32.29,33.44,58.15,72.65,90.64,105.87
			c1.75-1.77,3.53-3.5,5.39-5.1C136.01,121.12,120.5,103.39,104.21,86.38z"/>
		<path fill="#EFF1F2" d="M106.14,67.94c-2.51,2.55-5.02,5.1-7.55,7.63c3.34,3.4,6.67,6.8,9.89,10.28c2.81,3.03,5.59,6.08,8.38,9.13
			c2.06-1.95,4.1-3.91,6.15-5.87C117.1,82.27,111.43,75.25,106.14,67.94z"/>
		<path fill="#EFF1F2" d="M110.27,63.71c-0.55,0.57-1.1,1.16-1.66,1.73c5.29,7.35,10.98,14.41,16.92,21.27
			c0.88-0.85,1.75-1.71,2.62-2.55C122.08,77.44,116.08,70.65,110.27,63.71z"/>
		<path fill="#EFF1F2" d="M118.45,55.12c-1.93,2.02-3.84,4.07-5.78,6.07c5.84,6.97,11.86,13.79,17.97,20.53
			c1.7-1.66,3.38-3.35,5.06-5.03C129.39,69.97,123.52,62.8,118.45,55.12z"/>
		<path fill="#EFF1F2" d="M150.56,60.7c1.19-1.37,2.38-2.75,3.53-4.16c0.26-0.33,0.15-0.71-0.05-1.03
			c-4.57-7.38-10.99-13.06-16.91-19.32c-0.3-0.31-0.67-0.3-0.89-0.12c-0.08-0.02-0.16-0.01-0.22,0.06
			c-0.72,0.81-1.45,1.59-2.18,2.39C139.05,46.18,144.71,53.54,150.56,60.7z"/>
		<path fill="#EFF1F2" d="M144,57.94c-4.32-5.52-8.53-11.09-12.52-16.83c-1.36,1.49-2.7,2.99-4.06,4.47
			c5.64,7.3,11.61,14.33,17.48,21.45c1.22-1.32,2.42-2.67,3.62-4.01C146.76,61.14,145.15,59.41,144,57.94z"/>
		<path fill="#EFF1F2" d="M125.03,48.13c-1.38,1.47-2.74,2.95-4.12,4.41c5.03,7.73,10.9,14.93,17.22,21.67
			c1.49-1.52,2.92-3.09,4.38-4.64C136.65,62.45,130.69,55.42,125.03,48.13z"/>
		<path fill="#EFF1F2" d="M53.32,39.49c-1.62,1.26-3.19,2.58-4.71,3.97c3.9,6.76,10.57,12.23,15.21,18.27
			c8.69,11.33,17.51,22.57,26.55,33.62c15.52,18.97,30.54,38.36,46.58,56.89c2.68-1.86,5.06-4.14,7.41-6.48
			C111.73,112.4,85.8,73.01,53.32,39.49z"/>
	</g>
</g>
</svg>
